<svg width="196" height="40" viewBox="0 0 196 40" fill="none" xmlns="http://www.w3.org/2000/svg">
<path d="M27.5693 20.2626H28.5469V14.3971L27.6138 14.5304V13.4639C28.2802 13.2862 28.8135 12.9307 29.3468 12.4863H30.2353V20.3071H31.2129V21.6401H27.6138V20.2626H27.5693V20.2626Z" fill="white"/>
<path d="M34.7233 17.8186C35.3899 18.4406 35.7453 18.9295 35.7453 19.5071C35.7453 20.0846 35.3899 20.4846 34.9011 20.4846C34.4122 20.4846 34.1456 20.1292 34.1456 19.4183C34.1899 18.885 34.3678 18.3073 34.7233 17.8186ZM35.1675 15.819C34.6788 15.2858 34.4566 14.8858 34.4566 14.397C34.4566 13.8638 34.7678 13.5084 35.0342 13.5084C35.4342 13.5084 35.7008 13.8638 35.7008 14.4415C35.7008 14.9303 35.5232 15.3746 35.1675 15.819ZM34.0567 17.0632C33.1681 17.7741 32.7236 18.4852 32.7236 19.4183C32.7236 20.7958 33.6123 21.7289 34.9454 21.7289C36.3229 21.7289 37.2559 20.8403 37.2559 19.2849C37.2559 18.2629 36.8117 17.4186 35.9674 16.5744C36.7228 15.8635 37.0783 15.1969 37.0783 14.3082C37.0783 13.1084 36.2784 12.2642 35.0342 12.2642C33.8789 12.2642 32.9902 13.1973 32.9902 14.5747C32.9903 15.5079 33.3457 16.3522 34.0567 17.0632Z" fill="white"/>
<path d="M39.5231 16.9743C39.5231 16.6188 39.5231 16.3077 39.5231 16.0412C39.5231 14.3082 39.5676 13.5528 40.0564 13.5528C40.5894 13.5528 40.5894 14.3082 40.5894 16.0412C40.5894 16.3077 40.5894 16.6188 40.5894 16.9743C40.5894 17.3298 40.5894 17.6408 40.5894 17.9519C40.5894 19.6404 40.5452 20.4403 40.0564 20.4403C39.5676 20.4403 39.5231 19.6404 39.5231 17.9519C39.5231 17.6408 39.5231 17.3298 39.5231 16.9743ZM37.79 17.0188C37.79 20.1737 38.5009 21.7734 40.0563 21.7734C41.5226 21.7734 42.3224 20.1737 42.3224 17.0188C42.3224 13.8638 41.5672 12.3086 40.0118 12.3086C38.59 12.3086 37.79 13.8638 37.79 17.0188Z" fill="white"/>
<path d="M44.8541 16.9743C44.8541 16.6188 44.8541 16.3077 44.8541 16.0412C44.8541 14.3082 44.8986 13.5528 45.3874 13.5528C45.8763 13.5528 45.9206 14.3082 45.9206 16.0412C45.9206 16.3077 45.9206 16.6188 45.9206 16.9743C45.9206 17.3298 45.9206 17.6408 45.9206 17.9519C45.9206 19.6404 45.8763 20.4403 45.3874 20.4403C44.8986 20.4403 44.8541 19.6404 44.8541 17.9519C44.8541 17.6408 44.8541 17.3298 44.8541 16.9743ZM43.1211 17.0188C43.1211 20.1737 43.8766 21.7734 45.4317 21.7734C46.8981 21.7734 47.6979 20.1737 47.6979 17.0188C47.6979 13.8638 46.9426 12.3086 45.3874 12.3086C43.9209 12.3086 43.1211 13.8638 43.1211 17.0188Z" fill="white"/>
<path d="M32.4102 17.0635C32.4102 17.4635 32.0548 17.8189 31.6548 17.8189C31.2549 17.8189 30.8994 17.4635 30.8994 17.0635C30.8994 16.6636 31.2549 16.3081 31.6548 16.3081C32.0991 16.308 32.4102 16.6635 32.4102 17.0635Z" fill="white"/>
<path d="M21.5243 12.7088C20.7244 14.6639 19.4802 16.3969 17.3917 17.1967C16.8586 17.33 16.2809 17.3745 15.7478 17.1967C14.7702 14.0863 15.9698 10.5759 17.925 8.04307C19.3025 6.088 21.4797 4.79934 23.8793 3.82178C21.702 6.31009 22.8573 9.82047 21.5243 12.7088Z" fill="white"/>
<path d="M19.6571 4.7989C16.3689 7.42052 13.3917 12.0418 14.5914 16.4853C12.6364 15.9966 11.3921 14.0414 10.9478 12.0863C10.5922 10.0867 11.0366 7.90933 12.5475 6.48745C14.2805 4.75454 16.2356 2.66604 16.0134 0C17.9685 0.710847 19.0794 2.84371 19.6571 4.7989Z" fill="white"/>
<path d="M18.5034 25.3723H17.3037V23.3286H18.5034V21.5066C18.5034 19.4181 19.4366 18.707 20.9918 18.707C21.4362 18.707 21.836 18.7517 22.2805 18.796V20.9288C22.1472 20.9288 21.9693 20.9288 21.836 20.9288C21.1696 20.9288 20.9475 21.1955 20.9475 21.862V23.3728H22.3248V25.417H20.9475V35.0593H18.5924V25.3723H18.5034Z" fill="white"/>
<path d="M23.1689 19.0186H25.524V35.0596H23.1689V19.0186Z" fill="white"/>
<path d="M30.501 23.0178C33.3449 22.9733 34.1448 25.1062 34.1448 29.1943C34.1448 33.1933 33.2116 35.3707 30.501 35.3707C27.6572 35.415 26.8574 33.2823 26.8574 29.1943C26.8574 25.1949 27.7905 23.0178 30.501 23.0178ZM30.501 33.3266C31.4786 33.3266 31.7898 32.1269 31.7898 29.1943C31.7898 26.2616 31.4786 25.0617 30.501 25.0617C29.3459 25.0617 29.2125 26.7947 29.2125 29.1943C29.2569 31.5936 29.3459 33.3266 30.501 33.3266Z" fill="white"/>
<path d="M34.4102 23.3286H36.7652L37.8316 31.6381H37.8761L39.0313 23.3286H41.6084L42.8082 31.6381H42.8527L43.9635 23.3286H46.2298L44.2302 35.0152H41.5642L40.3642 26.7058H40.32L39.1646 35.0152H36.4096L34.4102 23.3286Z" fill="white"/>
<path d="M48.7195 29.6383V30.5716C48.7195 31.9489 49.0303 33.2821 49.8746 33.2821C50.6745 33.2821 50.9855 32.5267 51.1188 31.1047H53.2518C53.1629 33.8152 52.1409 35.3261 49.9191 35.3261C46.4977 35.3261 46.3643 31.9935 46.3643 29.0608C46.3643 25.9057 46.853 23.0176 50.0524 23.0176C52.8072 23.0176 53.4295 25.3727 53.4295 28.9718V29.6383H48.7195ZM51.1634 27.8608C51.1189 26.0835 50.9412 25.0614 49.9636 25.0614C49.0304 25.0614 48.7638 26.3057 48.7638 27.3722V27.8165H51.1634V27.8608Z" fill="white"/>
<path d="M54.3184 23.3285H56.5846V24.8838H56.6291C57.1179 23.773 57.7844 23.0176 58.7619 23.0176C58.8952 23.0176 59.073 23.062 59.2064 23.062V25.9502C58.9842 25.9502 58.7175 25.9057 58.4509 25.9057C57.6066 25.9057 56.7179 26.439 56.7179 28.0386V35.0594H54.3629V23.3285H54.3184Z" fill="white"/>
<path d="M61.7378 31.238V31.638C61.7378 32.6601 62.1823 33.3265 62.982 33.3265C63.693 33.3265 64.1817 32.8822 64.1817 31.949C64.1817 31.1937 63.782 30.8381 63.3375 30.616L61.6933 29.8605C60.4047 29.2829 59.7382 28.2608 59.7382 26.6167C59.7382 24.6615 60.7157 23.1064 63.1152 23.1064C65.2482 23.1064 66.2702 24.3063 66.2702 26.439V26.9278H64.1373C64.1373 25.7724 63.8707 25.1505 63.0707 25.1505C62.4489 25.1505 61.9599 25.5948 61.9599 26.3947C61.9599 26.9723 62.1822 27.4165 62.982 27.772L64.404 28.3941C65.9147 29.0162 66.448 29.9938 66.448 31.7267C66.448 34.1706 65.0261 35.4148 63.0265 35.4148C60.3602 35.4148 59.6494 33.9484 59.6494 31.6824V31.2824H61.7378V31.238Z" fill="white"/>
<path d="M66.7588 34.3927C66.7588 34.1704 66.8477 33.9927 66.9809 33.8149C67.1142 33.6815 67.3364 33.5928 67.514 33.5928C67.7363 33.5928 67.914 33.6816 68.0918 33.8149C68.2252 33.9482 68.314 34.1703 68.314 34.3927C68.314 34.6148 68.2252 34.7924 68.0918 34.9258C67.9585 35.0591 67.7807 35.1481 67.514 35.1481C67.2919 35.1481 67.1142 35.059 66.9809 34.9258C66.8032 34.7924 66.7588 34.6148 66.7588 34.3927Z" fill="white"/>
<path d="M70.2246 35.1031C69.3361 35.1031 68.8916 34.3922 68.8916 33.0147C68.8916 31.5038 69.4249 30.7041 70.2246 30.7041C70.9801 30.7041 71.3801 31.2372 71.3801 32.2148C71.3801 32.2593 71.3801 32.3038 71.3801 32.3481H70.5358C70.5358 32.2593 70.5358 32.2148 70.5358 32.1705C70.5358 31.6817 70.4469 31.4594 70.2691 31.4594C70.0025 31.4594 70.0025 31.8593 70.0025 32.6147C70.0025 33.7256 70.047 34.2589 70.3136 34.2589C70.5358 34.2589 70.6691 33.9923 70.6691 33.4146V33.3701L71.4688 33.4146C71.4688 34.5255 70.9801 35.1031 70.2246 35.1031Z" fill="white"/>
<path d="M73.2457 31.5039C73.5566 31.5039 73.6456 31.9482 73.6456 32.9259C73.6456 33.859 73.5566 34.3477 73.2457 34.3477C72.979 34.3477 72.8902 33.9034 72.8902 32.9259C72.8902 31.9482 72.979 31.5039 73.2457 31.5039ZM71.8682 32.9259C71.8682 34.3923 72.3569 35.1477 73.2902 35.1477C74.1787 35.1477 74.7119 34.3923 74.7119 32.9259C74.7119 31.4594 74.2232 30.7041 73.2902 30.7041C72.3125 30.7042 71.8682 31.4594 71.8682 32.9259Z" fill="white"/>
<path d="M75.2018 30.793H76.1794V31.1485C76.4461 30.8373 76.7127 30.6597 76.9793 30.6597C77.2903 30.6597 77.5124 30.8373 77.6457 31.1485C77.9123 30.8373 78.179 30.6597 78.49 30.6597C78.9344 30.6597 79.1566 30.9264 79.1566 31.4594V34.9254H78.179V31.7261C78.179 31.5484 78.0901 31.4594 77.9568 31.4594C77.8236 31.4594 77.7347 31.5484 77.6457 31.6817V34.9254H76.6681V31.7261C76.6681 31.5484 76.5793 31.4594 76.446 31.4594C76.3127 31.4594 76.2238 31.5484 76.1348 31.6817V34.9254H75.1572V30.793H75.2018Z" fill="white"/>
<path d="M14.77 17.4632C14.6367 17.4187 14.5033 17.5076 14.4588 17.6409C13.3925 19.8628 12.4149 22.2179 11.7928 24.6173C11.0819 22.2178 10.1043 19.8628 8.94895 17.6854C6.63836 13.3752 4.19429 9.10944 0.461878 6.3989C0.328582 6.30997 0.150727 6.30997 0.0619268 6.44327C-0.026937 6.57656 -0.026937 6.79872 0.106423 6.93208C3.43907 10.0426 5.12755 14.7527 7.30478 18.8851C9.03775 23.6398 10.6819 28.6609 10.1486 33.9043C10.2374 34.8819 10.9929 35.5483 11.7928 35.4595C12.1482 35.415 12.4149 35.2374 12.6371 34.9707C12.8592 34.7041 13.037 34.3486 13.0813 33.9486C12.7259 32.1713 12.5926 30.3939 12.6816 28.6609C12.7259 27.1057 12.948 25.5058 13.348 23.9952C13.8813 21.9513 14.6367 19.9072 14.9033 17.7742C14.9476 17.6409 14.9033 17.5076 14.77 17.4632Z" fill="white"/>
<path d="M80 31.105C80 31.3271 79.8223 31.4604 79.6445 31.4604C79.4224 31.4604 79.2891 31.2828 79.2891 31.105C79.2891 30.9274 79.4667 30.7495 79.6445 30.7495C79.8223 30.7495 80 30.8829 80 31.105ZM79.3778 31.105C79.3778 31.2828 79.5112 31.3716 79.6445 31.3716C79.7778 31.3716 79.9111 31.2383 79.9111 31.105C79.9111 30.9274 79.7778 30.8383 79.6445 30.8383C79.4667 30.794 79.3778 30.9274 79.3778 31.105ZM79.6 31.2828H79.5112V30.9274C79.5557 30.9274 79.6 30.9274 79.6444 30.9274C79.7332 30.9274 79.7332 30.9274 79.7777 30.9716C79.7777 30.9716 79.8222 31.0161 79.8222 31.0607C79.8222 31.105 79.7777 31.1495 79.7332 31.1495C79.7777 31.1495 79.7777 31.194 79.7777 31.2383C79.7777 31.2828 79.7777 31.3272 79.8222 31.3272H79.7331C79.7331 31.3272 79.7331 31.2829 79.6889 31.2383C79.6889 31.194 79.6444 31.194 79.5998 31.194H79.5556V31.2829H79.6V31.2828ZM79.6 31.0607C79.689 31.0607 79.7333 31.0607 79.7333 31.0162C79.7333 30.9717 79.689 30.9717 79.6444 30.9717H79.6V31.0607Z" fill="white"/>
<path d="M106.609 4.56934H109.654V5.14285H109.08C108.98 5.14285 108.805 5.25858 108.553 5.48747C108.301 5.71637 108.175 5.89639 108.175 6.0147V14.7589C108.175 14.8798 108.301 15.0546 108.553 15.2861C108.805 15.5176 108.98 15.6333 109.08 15.6333H109.654V16.2042H105.161V15.6282H105.734C105.835 15.6282 106.007 15.5124 106.249 15.281C106.49 15.0495 106.611 14.8746 106.611 14.7537V6.28731L102.388 16.4126L98.1706 6.11243V14.7563C98.1706 14.8772 98.2915 15.0521 98.5307 15.2835C98.7698 15.515 98.9447 15.6307 99.045 15.6307H99.616V16.2017H96V15.6282H96.5735C96.6944 15.6282 96.8744 15.5124 97.1162 15.281C97.3579 15.0495 97.4762 14.8746 97.4762 14.7537V6.0147C97.4762 5.89639 97.3553 5.71894 97.1162 5.48747C96.877 5.25601 96.6944 5.14285 96.5735 5.14285H96V4.56934H99.3742L102.872 13.2801H102.962L106.609 4.56934ZM113.843 15.0263C114.356 15.0569 114.868 14.9429 115.319 14.6972C115.694 14.4406 116.003 14.0997 116.222 13.7019H116.706C116.491 14.4489 116.08 15.1248 115.515 15.659C114.896 16.1728 114.104 16.432 113.301 16.3843C112.823 16.4016 112.348 16.3069 111.913 16.1077C111.479 15.9085 111.097 15.6104 110.798 15.2372C110.172 14.4631 109.841 13.4914 109.865 12.4957C109.837 11.9628 109.915 11.4297 110.096 10.9276C110.277 10.4255 110.556 9.96449 110.917 9.57152C111.239 9.22426 111.631 8.94833 112.067 8.76143C112.503 8.57453 112.973 8.48079 113.447 8.48621C113.963 8.47439 114.475 8.56713 114.954 8.75883C115.389 8.944 115.787 9.20529 116.13 9.53037L115.031 11.2561L114.579 11.2844C114.682 10.7708 114.651 10.2394 114.489 9.74126C114.393 9.50944 114.222 9.31655 114.003 9.19346C113.784 9.07037 113.531 9.02418 113.283 9.0623C112.959 9.04176 112.636 9.10592 112.345 9.24844C112.054 9.39097 111.806 9.60693 111.624 9.875C111.236 10.52 111.047 11.2653 111.081 12.0173C111.059 12.7965 111.322 13.557 111.819 14.1571C112.069 14.4451 112.381 14.673 112.732 14.8235C113.082 14.974 113.462 15.0434 113.843 15.0263ZM121.317 16.2017H116.765V15.6282H117.346C117.467 15.6282 117.647 15.5124 117.889 15.281C118.13 15.0495 118.249 14.8746 118.249 14.7537V6.0147C118.249 5.89639 118.13 5.71894 117.889 5.48747C117.647 5.25601 117.459 5.14285 117.346 5.14285H116.765V4.56934H121.317V5.14285H120.743C120.623 5.14285 120.443 5.25858 120.201 5.48747C119.959 5.71637 119.841 5.89639 119.841 6.0147V10.7777L123.999 6.13557C124.079 6.03527 123.999 5.84496 123.788 5.56463C123.578 5.2843 123.405 5.14285 123.305 5.14285H122.747V4.56934H126.965V5.14285H126.391C126.108 5.24025 125.848 5.39524 125.627 5.59806C125.224 5.90925 124.984 6.11243 124.902 6.18701L122.073 9.22947L126.142 14.6303C126.339 14.8604 126.567 15.0628 126.818 15.2321C127.02 15.4178 127.263 15.5527 127.528 15.6256H128.371C128.571 15.5842 128.752 15.4785 128.886 15.3247C129.107 15.1215 129.218 14.9518 129.218 14.8103V10.055C129.218 9.93415 129.107 9.77212 128.886 9.57152C128.752 9.41772 128.571 9.31204 128.371 9.27062H127.916V8.6971H130.599V14.8155C130.599 14.9569 130.714 15.1266 130.946 15.3298C131.079 15.4757 131.251 15.5801 131.442 15.6307H132.378C132.479 15.6307 132.636 15.5304 132.859 15.3298C133.083 15.1292 133.191 14.9569 133.191 14.8155V10.055C133.191 9.93415 133.08 9.77212 132.859 9.57152C132.638 9.37092 132.479 9.27062 132.378 9.27062H131.895V8.6971H134.276L134.577 10.2273C134.986 9.79553 135.424 9.39251 135.889 9.02115C136.361 8.66651 136.94 8.4849 137.53 8.50679C137.807 8.50177 138.082 8.55271 138.338 8.65656C138.595 8.76042 138.828 8.91504 139.024 9.11117C139.23 9.3152 139.391 9.55979 139.497 9.82942C139.603 10.099 139.652 10.3878 139.641 10.6774V14.8155C139.641 14.9569 139.752 15.1266 139.973 15.3298C140.194 15.533 140.354 15.6307 140.454 15.6307H140.937V16.2017H136.99V15.6282H137.406C137.606 15.5862 137.786 15.4806 137.921 15.3273C138.142 15.1241 138.252 14.9543 138.252 14.8129V10.7777C138.267 10.4401 138.159 10.1086 137.949 9.84414C137.836 9.71887 137.696 9.62108 137.54 9.55823C137.383 9.49538 137.214 9.46914 137.046 9.48151C136.45 9.49967 135.875 9.7058 135.403 10.0705C134.852 10.4614 134.577 10.788 134.577 11.0503V14.8155C134.577 14.9569 134.688 15.1266 134.909 15.3298C135.043 15.4836 135.224 15.5893 135.423 15.6307H135.845V16.2017H125.062L121.016 10.3868L119.841 11.6521V14.7563C119.841 14.8772 119.959 15.0521 120.201 15.2835C120.443 15.515 120.623 15.6307 120.743 15.6307H121.317V16.2017ZM125.355 29.3179L125.319 29.2819C125.702 29.6034 126.09 29.9249 126.481 30.2464C126.872 30.5678 127.289 30.879 127.731 31.1825H128.423V31.7843H127.158C126.642 31.7931 126.131 31.7013 125.65 31.5143C125.138 31.2848 124.669 30.968 124.264 30.5781C123.808 31.0375 123.258 31.3928 122.652 31.6197C121.95 31.8637 121.211 31.9804 120.468 31.9643C119.524 31.9693 118.611 31.6321 117.896 31.0153C117.527 30.717 117.231 30.3374 117.032 29.9061C116.833 29.4747 116.736 29.0032 116.749 28.5284C116.742 27.8221 116.919 27.1261 117.264 26.5095C117.598 25.9172 118.067 25.4116 118.632 25.0333C118.362 24.6899 118.134 24.3152 117.953 23.9171C117.775 23.4987 117.687 23.0473 117.696 22.5926C117.674 22.2383 117.73 21.8835 117.86 21.553C117.99 21.2225 118.19 20.9243 118.447 20.6792C119.021 20.201 119.756 19.9583 120.502 20.0002C120.932 19.9857 121.361 20.0467 121.77 20.1803C122.038 20.2906 122.323 20.3524 122.613 20.3629C122.725 20.3656 122.836 20.3553 122.945 20.332C123.036 20.3021 123.112 20.2374 123.156 20.152H123.67V22.8935H123.156C123.076 22.3274 122.804 21.8061 122.384 21.4173C122.151 21.1382 121.858 20.9149 121.527 20.7636C121.195 20.6123 120.835 20.5369 120.471 20.5429C119.942 20.5138 119.42 20.6683 118.992 20.9801C118.813 21.1267 118.67 21.3133 118.576 21.5251C118.481 21.7368 118.438 21.9677 118.449 22.1991C118.446 22.6526 118.607 23.0918 118.902 23.4362C119.227 23.8145 119.641 24.1047 120.108 24.2797C120.851 25.0856 121.654 25.894 122.518 26.705C123.382 27.516 124.206 28.2746 124.99 28.981C125.204 28.6372 125.362 28.2612 125.458 27.8674C125.552 27.4454 125.598 27.014 125.594 26.5815C125.604 26.3493 125.565 26.1175 125.479 25.9016C125.393 25.6856 125.262 25.4905 125.095 25.329C124.727 25.0041 124.245 24.837 123.755 24.8636V24.2797H127.891V24.8224H127.44C127.34 24.8224 127.142 24.9921 126.852 25.3368C126.635 25.5395 126.483 25.8016 126.414 26.0903V26.1212C126.394 26.7 126.293 27.2731 126.113 27.8237C125.941 28.357 125.685 28.8595 125.355 29.3128V29.3179ZM121.407 31.0668C121.883 31.0732 122.356 31.002 122.809 30.8559C123.21 30.7212 123.59 30.5298 123.938 30.2875L123.848 30.2284C122.99 29.4637 122.147 28.6801 121.317 27.8777C120.487 27.0753 119.683 26.2309 118.905 25.3445C118.617 25.6456 118.383 25.9935 118.213 26.3732C118.033 26.8332 117.951 27.3253 117.971 27.8186C117.983 28.2499 118.087 28.6736 118.277 29.061C118.467 29.4484 118.738 29.7904 119.072 30.0638C119.693 30.6835 120.53 31.0399 121.407 31.0591V31.0668ZM129.755 6.86083H129.724C129.472 6.8631 129.228 6.76506 129.048 6.58821C128.955 6.50467 128.881 6.4022 128.832 6.28773C128.782 6.17326 128.758 6.04946 128.76 5.92468V5.89639C128.752 5.76416 128.775 5.63193 128.824 5.50921C128.874 5.38649 128.95 5.27631 129.048 5.18657C129.247 5.02179 129.497 4.93162 129.755 4.93162C130.013 4.93162 130.264 5.02179 130.462 5.18657C130.56 5.27631 130.636 5.38649 130.686 5.50921C130.736 5.63193 130.758 5.76416 130.75 5.89639H130.72C130.74 5.89639 130.75 5.89639 130.75 5.92468C130.753 6.04946 130.728 6.17326 130.678 6.28773C130.629 6.4022 130.555 6.50467 130.462 6.58821C130.291 6.76124 130.058 6.85927 129.814 6.86083H129.755ZM137.406 30.9999C138.233 31.0476 139.055 30.8373 139.757 30.3981C140.365 29.9403 140.851 29.3396 141.171 28.6493H141.778C141.445 29.6282 140.825 30.4842 139.999 31.1054C139.149 31.7139 138.122 32.0266 137.077 31.9952C136.315 32.0225 135.558 31.8744 134.863 31.5622C134.167 31.2501 133.553 30.7822 133.068 30.1949C132.061 28.9936 131.525 27.4671 131.561 25.9C131.52 24.3751 132.01 22.8835 132.947 21.6796C133.401 21.107 133.985 20.6503 134.65 20.3467C135.316 20.0432 136.043 19.9016 136.774 19.9334C137.318 19.9209 137.86 20.0081 138.373 20.1906C138.805 20.3608 139.265 20.4481 139.729 20.4477C139.873 20.4548 140.018 20.4284 140.15 20.3706C140.262 20.3131 140.364 20.2375 140.451 20.1468H140.873V24.2489H140.359C140.272 23.4212 139.948 22.6362 139.425 21.9883C139.146 21.5584 138.761 21.2078 138.307 20.9704C137.853 20.7329 137.345 20.6167 136.833 20.6329C136.396 20.6097 135.959 20.6767 135.549 20.8298C135.14 20.9829 134.766 21.2188 134.451 21.5228C133.787 22.3227 133.423 23.3298 133.423 24.3698V24.3106C133.402 24.5318 133.387 24.753 133.376 24.9741C133.376 25.1953 133.361 25.4242 133.361 25.666C133.361 25.9463 133.361 26.2343 133.392 26.5249C133.423 26.8156 133.433 27.083 133.451 27.3248C133.531 28.3026 133.946 29.2228 134.626 29.93C134.988 30.2936 135.423 30.5768 135.902 30.7611C136.381 30.9454 136.894 31.0268 137.406 30.9999ZM146.922 14.0928C146.94 14.4066 146.888 14.7205 146.771 15.0122C146.654 15.3038 146.473 15.5659 146.243 15.7799C145.763 16.1937 145.143 16.4097 144.51 16.3843C144.096 16.3968 143.684 16.3195 143.303 16.1579C143.003 16.0115 142.673 15.9341 142.339 15.9316C142.224 15.9205 142.109 15.9466 142.01 16.0062L141.768 16.2017H141.418V13.5501H141.871C141.955 14.0669 142.203 14.543 142.578 14.908C142.817 15.1874 143.116 15.4086 143.453 15.5548C143.79 15.701 144.156 15.7683 144.522 15.7516C144.9 15.7712 145.275 15.6876 145.608 15.5098C145.736 15.4281 145.84 15.3133 145.909 15.1776C145.978 15.0419 146.009 14.8901 145.999 14.7383C146.012 14.5573 145.976 14.3761 145.894 14.2142C145.812 14.0523 145.687 13.916 145.533 13.8202C145.228 13.6327 144.911 13.4661 144.584 13.3212C144.301 13.2029 144.047 13.0923 143.813 12.992C143.579 12.8917 143.314 12.7812 143.013 12.6603C142.587 12.4635 142.199 12.1927 141.868 11.8604C141.714 11.6925 141.594 11.4955 141.517 11.2809C141.439 11.0663 141.405 10.8385 141.416 10.6105C141.397 10.3247 141.441 10.0383 141.546 9.77157C141.65 9.50487 141.812 9.26446 142.02 9.06745C142.407 8.79332 142.855 8.6195 143.326 8.5616C143.796 8.50369 144.274 8.56351 144.715 8.73568C144.974 8.86411 145.258 8.93184 145.546 8.93371C145.634 8.93658 145.722 8.9208 145.803 8.88742C145.878 8.85432 145.937 8.79475 145.97 8.72025H146.361V11.0349H145.909C145.836 10.5777 145.619 10.1555 145.291 9.8287C145.09 9.5824 144.834 9.38616 144.544 9.2554C144.254 9.12465 143.938 9.06296 143.62 9.07516C143.271 9.04664 142.924 9.14329 142.64 9.34777C142.538 9.43157 142.457 9.53739 142.402 9.65724C142.347 9.7771 142.32 9.90784 142.324 10.0396C142.314 10.1782 142.34 10.3168 142.398 10.4431C142.456 10.5693 142.544 10.679 142.655 10.7623C142.94 10.9602 143.242 11.1324 143.558 11.2766C143.841 11.3949 144.106 11.5055 144.358 11.6058L145.186 11.9376C145.618 12.1192 146.016 12.3742 146.361 12.6911C146.552 12.8682 146.702 13.0845 146.801 13.3252C146.9 13.5658 146.946 13.8251 146.935 14.0851L146.922 14.0928ZM148.895 25.1233C149.278 25.4975 149.577 25.9491 149.772 26.448C149.967 26.9469 150.054 27.4816 150.026 28.0166C150.054 28.5538 149.967 29.0908 149.772 29.5921C149.577 30.0934 149.278 30.5478 148.895 30.9253C148.202 31.613 147.265 31.9978 146.289 31.9952C145.303 32.0025 144.354 31.6176 143.651 30.9253C143.268 30.5476 142.969 30.0931 142.775 29.5918C142.58 29.0905 142.494 28.5536 142.522 28.0166C142.493 27.5058 142.569 26.9945 142.746 26.5144C142.923 26.0343 143.196 25.5956 143.549 25.2255C143.902 24.8554 144.328 24.5618 144.799 24.3628C145.271 24.1639 145.778 24.0638 146.289 24.0689C147.267 24.0618 148.208 24.4407 148.907 25.1233H148.895ZM148.532 29.2588V29.3179C148.553 29.0968 148.565 28.8756 148.576 28.6544C148.586 28.4332 148.591 28.2121 148.591 27.9909C148.591 27.7697 148.591 27.5562 148.576 27.3454C148.56 27.1345 148.553 26.9364 148.532 26.7564C148.485 26.2062 148.257 25.6871 147.884 25.2802C147.671 25.0867 147.421 24.9387 147.149 24.8454C146.877 24.7521 146.589 24.7154 146.302 24.7375C146.022 24.7177 145.74 24.7556 145.474 24.8489C145.209 24.9423 144.966 25.089 144.759 25.2802C144.39 25.6775 144.162 26.1856 144.111 26.7255V26.687C144.071 26.8958 144.046 27.1072 144.036 27.3196C144.036 27.5408 144.021 27.762 144.021 27.9806C144.021 28.1992 144.021 28.4178 144.036 28.6287C144.045 28.8267 144.07 29.0237 144.111 29.2176C144.171 29.7553 144.397 30.2608 144.759 30.663C144.961 30.8624 145.203 31.0167 145.469 31.1156C145.735 31.2144 146.019 31.2557 146.302 31.2365C146.593 31.262 146.885 31.2254 147.161 31.1292C147.436 31.033 147.688 30.8793 147.899 30.6784C148.252 30.2818 148.473 29.7859 148.532 29.2588ZM151.003 16.3997C150.528 16.4087 150.057 16.3089 149.626 16.1079C149.195 15.9069 148.815 15.6099 148.517 15.2398C147.865 14.4699 147.516 13.4887 147.537 12.4802C147.506 11.4464 147.86 10.4379 148.532 9.65125C148.83 9.28735 149.208 8.99728 149.637 8.80366C150.066 8.61004 150.533 8.51812 151.003 8.53508C151.368 8.51474 151.733 8.57311 152.074 8.70623C152.414 8.83935 152.722 9.04411 152.976 9.30662C153.448 9.81163 153.722 10.4701 153.748 11.1609L153.778 11.7036L148.774 12.1048C148.784 12.8271 149.038 13.5249 149.494 14.0851C149.723 14.3929 150.024 14.6403 150.37 14.8056C150.717 14.971 151.098 15.0494 151.482 15.0341C152 15.0632 152.516 14.9493 152.973 14.7049C153.346 14.4619 153.652 14.1294 153.863 13.7379H154.316C154.124 14.4811 153.727 15.1551 153.169 15.6822C152.562 16.1815 151.788 16.4324 151.003 16.3843V16.3997ZM150.973 9.10602C150.644 9.07858 150.314 9.13775 150.015 9.27764C149.716 9.41752 149.459 9.63323 149.27 9.90329C148.931 10.3979 148.737 10.9781 148.712 11.5775L152.48 11.2561C152.544 10.7518 152.487 10.2394 152.313 9.76184C152.148 9.31605 151.701 9.09231 150.973 9.09059V9.10602ZM160.074 31.2237C160.195 31.2237 160.36 31.1182 160.571 30.9073C160.782 30.6964 160.887 30.5318 160.887 30.411V26.2961C160.901 25.9749 160.799 25.6595 160.601 25.4062C160.485 25.2825 160.342 25.187 160.182 25.1268C160.023 25.0667 159.853 25.0435 159.683 25.059C159.15 25.0767 158.636 25.2671 158.22 25.6017C157.728 25.9651 157.482 26.2669 157.482 26.5069V30.4238C157.482 30.5447 157.587 30.7093 157.798 30.9202C158.009 31.1311 158.166 31.2365 158.266 31.2365H158.719V31.81H154.861V31.2365H155.283C155.404 31.2365 155.568 31.1311 155.779 30.9202C155.99 30.7093 156.096 30.5447 156.096 30.4238V26.3089C156.112 25.9754 156.005 25.6476 155.795 25.3882C155.679 25.2669 155.538 25.1728 155.381 25.1127C155.225 25.0527 155.057 25.0282 154.889 25.041C154.342 25.059 153.816 25.261 153.398 25.6145C152.906 25.9951 152.66 26.3166 152.66 26.579V30.4367C152.66 30.5576 152.765 30.7222 152.976 30.933C153.187 31.1439 153.354 31.2494 153.475 31.2494H153.897V31.8229H150.039V31.2494H150.492C150.592 31.2494 150.749 31.1439 150.957 30.933C151.165 30.7222 151.274 30.5576 151.274 30.4367V25.6351C151.274 25.5168 151.168 25.3548 150.957 25.1542C150.746 24.9536 150.592 24.8533 150.492 24.8533H150.039V24.2797H152.354L152.655 25.7277C153.097 25.2648 153.499 24.8773 153.861 24.5652C154.302 24.2281 154.85 24.0627 155.404 24.0997C155.877 24.0902 156.342 24.2326 156.728 24.5061C156.921 24.6451 157.082 24.8228 157.202 25.0279C157.321 25.233 157.397 25.4609 157.423 25.6968C157.883 25.2545 158.307 24.8816 158.688 24.5807C159.124 24.2621 159.656 24.1023 160.195 24.128C160.741 24.1146 161.271 24.3148 161.671 24.6861C161.879 24.8921 162.04 25.1399 162.144 25.4131C162.249 25.6862 162.293 25.9785 162.276 26.2703V30.3852C162.276 30.5061 162.381 30.6707 162.592 30.8816C162.803 31.0925 162.957 31.1979 163.058 31.1979H163.51V31.7715H159.653V31.1979L160.074 31.2237ZM155.041 10.1347C154.916 9.93798 154.757 9.76404 154.573 9.62039C154.316 9.39921 154.146 9.28862 154.059 9.28862H153.727V8.6971H157.796V9.27062H157.315C157.214 9.27062 157.083 9.37092 156.924 9.57152C156.789 9.71183 156.704 9.89256 156.682 10.0859L158.482 13.7919L160.141 10.1142C160.142 10.0131 160.122 9.91296 160.084 9.81969C160.045 9.72643 159.987 9.64201 159.915 9.57152C159.743 9.37092 159.607 9.27062 159.506 9.27062H159.01V8.6971H162.055V9.27062H161.723C161.623 9.27062 161.466 9.37606 161.255 9.58695C161.089 9.73738 160.952 9.91587 160.848 10.1142L158.277 15.569L156.065 19.8202L155.409 19.4859L157.698 15.3555L155.041 10.1347ZM168.695 24.0894C169.115 24.0729 169.533 24.1604 169.911 24.3444C170.29 24.5284 170.617 24.803 170.863 25.1439C171.414 25.96 171.685 26.933 171.635 27.9163C171.675 28.9514 171.367 29.9702 170.76 30.8096C170.51 31.1676 170.176 31.4592 169.787 31.6591C169.399 31.859 168.967 31.9611 168.53 31.9566C167.978 31.9846 167.429 31.8533 166.949 31.5786C166.524 31.2912 166.177 30.9034 165.938 30.4495V34.0655C165.938 34.207 166.049 34.3767 166.27 34.5799C166.491 34.7831 166.653 34.8808 166.753 34.8808H167.239V35.4312H163.268V34.8576H163.752C163.947 34.8166 164.122 34.7105 164.248 34.5567C164.416 34.4325 164.529 34.2482 164.565 34.0424V25.6351C164.565 25.5168 164.459 25.3548 164.248 25.1542C164.122 25.0004 163.947 24.8943 163.752 24.8533H163.268V24.2489H165.709L165.951 25.8177C166.226 25.2887 166.623 24.8336 167.111 24.4906C167.586 24.1978 168.137 24.0511 168.695 24.0689V24.0894ZM170.202 29.1533V29.1816L170.261 28.5798C170.282 28.3799 170.292 28.179 170.292 27.978C170.292 27.8018 170.282 27.6258 170.261 27.4508C170.241 27.2785 170.22 27.1139 170.202 26.9519C170.153 26.4243 169.942 25.9249 169.598 25.5219C169.433 25.349 169.233 25.2136 169.011 25.1248C168.789 25.0361 168.551 24.9961 168.312 25.0076C168.034 24.9959 167.756 25.0419 167.497 25.1428C167.237 25.2438 167.002 25.3974 166.805 25.5939C166.412 26.0072 166.123 26.5079 165.961 27.0547V29.0145C165.958 29.2956 166.013 29.5743 166.121 29.8335C166.23 30.0927 166.391 30.3269 166.594 30.5215C166.794 30.727 167.034 30.8891 167.3 30.998C167.565 31.1068 167.85 31.16 168.137 31.1542H168.168C168.435 31.1747 168.704 31.1352 168.954 31.0386C169.204 30.9421 169.429 30.7909 169.613 30.5961C169.95 30.1776 170.155 29.6682 170.202 29.1328V29.1533ZM187.23 30.4187C187.23 30.5396 187.341 30.7042 187.562 30.915C187.783 31.1259 187.943 31.2314 188.043 31.2314H188.495V31.8049H184.548V31.2314H184.985C185.088 31.2314 185.242 31.1259 185.468 30.915C185.695 30.7042 185.8 30.5396 185.8 30.4187V26.3295C185.811 26.0001 185.71 25.6767 185.515 25.4113C185.408 25.2816 185.271 25.1795 185.116 25.1137C184.961 25.0479 184.793 25.0203 184.625 25.0333C184.027 25.0528 183.451 25.2638 182.981 25.6351C182.428 26.0397 182.152 26.3612 182.153 26.5995V30.3981C182.153 30.5396 182.264 30.7093 182.485 30.9125C182.619 31.0663 182.8 31.172 182.999 31.2134H183.442V31.7869H177.043L176.832 30.2206C176.515 30.6373 176.162 31.0254 175.778 31.3805C175.387 31.7484 174.867 31.9487 174.33 31.9386C174.077 31.9404 173.826 31.8905 173.593 31.7919C173.36 31.6932 173.149 31.548 172.975 31.3651C172.783 31.1713 172.633 30.9403 172.535 30.6864C172.436 30.4325 172.391 30.1611 172.401 29.8889C172.372 29.5693 172.435 29.2481 172.581 28.9626C172.728 28.6771 172.953 28.4392 173.229 28.2764C173.733 27.9847 174.276 27.7665 174.842 27.6283L176.801 27.2348L176.832 26.3321C176.855 25.8771 176.704 25.4304 176.41 25.0822C176.215 24.9078 175.985 24.7761 175.736 24.6955C175.487 24.6149 175.223 24.5872 174.963 24.6141C174.71 24.5837 174.453 24.6238 174.222 24.73C173.99 24.8363 173.793 25.0044 173.651 25.2159C173.538 25.4647 173.486 25.7368 173.5 26.0096C173.513 26.2825 173.591 26.5482 173.728 26.7847H173.185L172.157 25.2776C172.569 24.8724 173.06 24.5562 173.599 24.3487C174.138 24.1412 174.714 24.0469 175.292 24.0714C176.03 24.0462 176.757 24.2521 177.372 24.6604C177.646 24.8486 177.868 25.1039 178.016 25.4019C178.163 25.6999 178.232 26.0307 178.216 26.3629V30.4007C178.216 30.5215 178.326 30.681 178.548 30.8816C178.769 31.0822 178.928 31.1851 179.029 31.1851H179.934C180.134 31.1435 180.315 31.0368 180.448 30.8816C180.669 30.681 180.78 30.5215 180.78 30.4007V25.6351C180.78 25.5168 180.669 25.3548 180.448 25.1542C180.314 25.0004 180.134 24.8947 179.934 24.8533H179.481V24.2489H181.863L182.164 25.8177C182.567 25.3891 182.996 24.9862 183.45 24.6115C183.925 24.2517 184.511 24.0697 185.106 24.0971C185.382 24.0921 185.657 24.1428 185.913 24.2462C186.169 24.3496 186.402 24.5036 186.597 24.699C186.804 24.903 186.966 25.1479 187.073 25.418C187.18 25.6881 187.229 25.9775 187.217 26.2678L187.23 30.4187ZM176.832 27.7466L175.032 28.1992C174.645 28.2621 174.293 28.4587 174.037 28.7547C173.85 29.0248 173.755 29.3473 173.764 29.6754V29.7037C173.762 29.8572 173.79 30.0097 173.847 30.1522C173.904 30.2948 173.988 30.4247 174.096 30.5344C174.2 30.646 174.326 30.7344 174.467 30.7938C174.607 30.8532 174.759 30.8823 174.911 30.879H174.955C175.359 30.8628 175.743 30.7032 176.04 30.429C176.346 30.1843 176.607 29.8884 176.812 29.5545L176.832 27.7466ZM196 24.2797V24.8533H195.637C195.558 24.8533 195.411 24.9587 195.2 25.1696C195.04 25.3221 194.894 25.4882 194.763 25.666L192.232 31.1516L189.972 35.372L189.339 35.0402L191.6 30.9099L188.948 25.6968C188.822 25.5007 188.663 25.3269 188.48 25.1825C188.223 24.9613 188.063 24.8507 187.984 24.8507H187.621V24.2797H191.69V24.8533H191.237C191.137 24.8533 191 24.9536 190.831 25.1542C190.689 25.2917 190.599 25.473 190.573 25.6685L192.374 29.3771L194.04 25.6582C194.04 25.5615 194.02 25.4657 193.981 25.3771C193.943 25.2886 193.885 25.2091 193.814 25.1439C193.644 24.9433 193.508 24.843 193.408 24.843H192.927V24.2797H196Z" fill="white"/>
</svg>
