<?xml version="1.0" encoding="utf-8"?>
<!-- Generator: Adobe Illustrator 27.9.0, SVG Export Plug-In . SVG Version: 6.00 Build 0)  -->
<svg version="1.1" id="Layer_1" xmlns="http://www.w3.org/2000/svg" xmlns:xlink="http://www.w3.org/1999/xlink" x="0px" y="0px"
	 viewBox="0 0 138 40" style="enable-background:new 0 0 138 40;" xml:space="preserve">
<style type="text/css">
	.st0{fill:#FFFFFF;}
</style>
<g>
	<path class="st0" d="M133.5,9L133.5,9L133.5,9c0-0.4,0-0.8,0-1.2V7.6l-0.1,0c-0.1,0-0.7,0-1.2,0h-1.7c-0.3,0-0.6,0-1.1,0h0h0
		c-0.1,0-0.1,0.1-0.1,0.2c0,0.1,0,0.1,0.1,0.2l0.2,0c0.4,0,0.5,0.1,0.5,1.1v3.2c0,1,0,1-0.5,1.1l-0.2,0l0,0c0,0-0.1,0.1,0,0.2
		c0,0.1,0,0.1,0.1,0.1h0h0c0.4,0,0.7,0,1.1,0c0.4,0,0.7,0,1.2,0h0h0c0.1,0,0.1-0.1,0.1-0.2c0-0.1,0-0.1-0.1-0.2l-0.3,0
		c-0.5,0-0.5-0.1-0.5-1.1v-1.3c0-0.2,0-0.2,0.2-0.2h0.6c0.3,0,0.6,0,0.7,0c0.1,0,0.2,0.1,0.2,0.3l0.1,0.4l0,0c0.1,0.1,0.3,0.1,0.3,0
		l0,0v0c0-0.1,0-0.2,0-0.4c0-0.2,0-0.4,0-0.5c0-0.2,0-0.4,0-0.5c0-0.1,0-0.3,0-0.4v0l0,0c0-0.1-0.1-0.1-0.2-0.1
		c-0.1,0-0.1,0-0.2,0.1l-0.1,0.4c0,0.2-0.1,0.2-0.2,0.3c-0.1,0-0.4,0-0.7,0h-0.6c-0.2,0-0.2,0-0.2-0.2V8.4c0-0.3,0-0.3,0.2-0.3h0.6
		c0.4,0,0.7,0,0.9,0c0.4,0.1,0.5,0.4,0.6,0.8v0l0,0c0,0,0.1,0,0.1,0C133.4,9,133.5,9,133.5,9 M127.5,10.7c0-1.5-1-3.2-3.2-3.2
		c-1.9,0-3.3,1.4-3.3,3.2c0,1.5,1.1,3.1,3.3,3.1C126.1,13.9,127.5,12.5,127.5,10.7 M126.4,11c0,1.9-1.1,2.5-2,2.5
		c-1.9,0-2.3-1.9-2.3-3c0-1.9,1.1-2.6,2.1-2.6C125.8,8,126.4,9.6,126.4,11 M119.1,26.4c0,3.9,2.9,7.3,7.7,7.3c4.2,0,7.5-3.2,7.5-7.5
		c0-3.8-2.5-7.4-7.5-7.4C122.3,18.7,119.1,22,119.1,26.4 M121.2,25.7c0-4.7,2.9-6.3,5.2-6.3c4.1,0,5.7,3.8,5.7,7.4
		c0,4.3-2.5,6.2-5.1,6.2C122.8,33,121.2,28.9,121.2,25.7 M116.4,8c0,0,0.1-0.1,0.1-0.2c0-0.1,0-0.1-0.1-0.2l0,0h0c-0.6,0-1,0-1.7,0
		h0h0c0,0-0.1,0.1-0.1,0.1c0,0.1,0,0.2,0.1,0.2l0,0l0.2,0c0.2,0,0.3,0.1,0.3,0.1c0,0.1-0.3,0.7-0.5,1.1l0,0.1
		c-0.2,0.4-0.5,0.9-0.8,1.4c-0.2-0.4-0.5-0.9-0.7-1.4c-0.1-0.2-0.2-0.4-0.3-0.5c-0.1-0.1-0.3-0.6-0.3-0.7c0,0,0,0,0.3-0.1l0.1,0l0,0
		c0,0,0.1-0.1,0-0.2c0-0.1,0-0.1-0.1-0.1h0h0c-0.2,0-0.5,0-1,0c-0.4,0-0.7,0-1,0h0h0c0,0-0.1,0.1-0.1,0.1c0,0.1,0,0.2,0,0.2l0,0
		l0.3,0c0.2,0,0.4,0.1,0.7,0.6l1.1,2.1c0.2,0.5,0.3,0.6,0.3,1.1v0.5c0,1,0,1-0.5,1.1l-0.3,0l0,0c0,0-0.1,0.1,0,0.2
		c0,0.1,0,0.1,0.1,0.1h0h0c0.5,0,0.8,0,1.2,0c0.4,0,0.7,0,1.2,0h0h0c0,0,0.1-0.1,0.1-0.1c0-0.1,0-0.1,0-0.2l0,0l-0.4,0
		c-0.4,0-0.5-0.1-0.5-1.1v-0.5c0-0.7,0-0.7,0.4-1.4l0.6-1c0-0.1,0.1-0.2,0.2-0.2c0.4-0.6,0.6-1.1,1-1.1L116.4,8L116.4,8z
		 M113.3,19.1c-0.4-0.1-1.5-0.3-2.8-0.3c-3.3,0-5.4,1-6.9,2.5c-1.3,1.4-1.9,3.3-1.9,5.1c0,1.9,0.7,3.6,2,4.9c1.7,1.7,4,2.4,6.6,2.4
		c1.2,0,2.7-0.3,3.9-0.6c0.4-0.1,0.8-0.2,1.1-0.2c0.1-0.1,0.1-0.2,0-0.3c-0.4-0.2-0.5-0.7-0.5-1.5v-1.2c0-1.1,0-1.7,0.9-1.8l0.3,0
		c0.2-0.1,0.1-0.4,0-0.5c-0.7,0-1.5,0.1-2.3,0.1c-1.3,0-2.5,0-3.1-0.1c-0.2,0.1-0.2,0.4,0,0.5l1,0.1c1.3,0.2,1.4,0.3,1.4,2.1v0.9
		c0,0.7-0.1,1.1-0.2,1.2c-0.2,0.4-1,0.6-2.4,0.6c-4.3,0-6.5-3.3-6.5-7.4c0-3.2,1.8-6.2,6-6.2c2.2,0,3.8,0.7,4.4,3.1
		c0.1,0.1,0.5,0.1,0.6-0.1c-0.2-1.3-0.3-2.4-0.3-3.1C114.4,19.3,113.7,19.1,113.3,19.1 M109.6,7.5L109.6,7.5L109.6,7.5
		c-0.1-0.1-0.2-0.1-0.2-0.1s0,0-0.1,0h0l0,0c-0.1,0.2-0.2,0.2-0.6,0.2h-3.7c-0.4,0-0.6,0-0.6-0.2v0l0,0c0,0-0.1,0-0.1,0
		c0,0-0.1,0-0.1,0l0,0v0c-0.1,0.4-0.2,0.9-0.3,1.3v0l0,0c0,0.1,0.2,0.2,0.3,0.1h0v0c0.1-0.2,0.2-0.4,0.4-0.6
		c0.2-0.2,0.6-0.2,1.1-0.2h0.5c0.2,0,0.2,0,0.2,0.2v4c0,1-0.1,1-0.5,1.1l-0.3,0h0c0,0-0.1,0.1-0.1,0.2c0,0.1,0,0.1,0.1,0.2h0h0
		c0.6,0,0.9,0,1.3,0c0.4,0,0.6,0,1.2,0h0h0c0.1,0,0.1-0.1,0.1-0.2c0-0.1,0-0.1-0.1-0.2l-0.3,0c-0.4,0-0.5-0.1-0.5-1.1V8.3
		c0-0.1,0-0.2,0-0.2c0,0,0.1,0,0.2,0h0.6c0.5,0,0.8,0.1,1,0.2c0.1,0.1,0.2,0.3,0.2,0.6v0l0,0c0,0,0.1,0.1,0.2,0.1
		c0.1,0,0.2,0,0.2-0.1v0v0C109.4,8.6,109.5,7.9,109.6,7.5 M101.4,12.3V9.1c0-1,0-1.1,0.5-1.1l0.2,0h0c0,0,0.1-0.1,0.1-0.2
		c0,0,0-0.1-0.1-0.2h0h0c-0.4,0-0.7,0-1.1,0c-0.4,0-0.7,0-1.1,0h0h0c-0.1,0-0.1,0.1-0.1,0.2c0,0.1,0,0.1,0.1,0.2h0l0.2,0
		c0.5,0,0.5,0.1,0.5,1.1v3.2c0,1,0,1-0.5,1.1l-0.2,0l0,0c0,0-0.1,0.1,0,0.2c0,0.1,0,0.1,0.1,0.1h0h0c0.4,0,0.8,0,1.1,0
		c0.4,0,0.6,0,1.1,0h0h0c0.1,0,0.1-0.1,0.1-0.2c0-0.1,0-0.1-0.1-0.2l-0.2,0C101.4,13.4,101.4,13.3,101.4,12.3 M99.9,32.8
		c-0.9-0.1-1.2-0.4-1.8-2.3l-3-8.7c-0.3-1-0.7-1.9-1-2.9c0-0.2-0.2-0.2-0.3-0.2c-0.2,0.3-0.6,0.7-1.1,0.8c0.1,0.3-0.1,0.8-0.4,1.5
		l-2.2,5.8c-0.9,2.4-1.5,3.8-1.9,4.8c-0.3,0.8-0.8,1-1.3,1.1l-0.7,0.1c-0.1,0.1-0.1,0.4,0,0.5c0.6,0,1.4-0.1,2.1-0.1
		c1,0,1.7,0,2.3,0.1c0.2-0.1,0.2-0.4,0-0.5l-0.7-0.1c-0.5,0-0.6-0.2-0.6-0.4s0.2-0.8,0.5-1.8l0.8-2.3c0.2-0.4,0.3-0.5,0.8-0.5h3.3
		c0.6,0,0.7,0.1,0.9,0.5l1,2.9c0.2,0.5,0.3,0.9,0.3,1.1s-0.3,0.3-0.8,0.4l-0.6,0.1c-0.2,0.1-0.1,0.4,0,0.5c0.6,0,1.5-0.1,2.5-0.1
		c1,0,1.7,0,2.6,0.1c0.1-0.1,0.2-0.4,0-0.5L99.9,32.8z M94.3,26.9h-2.7c-0.6,0-0.6,0-0.4-0.5l1.4-3.8c0.2-0.6,0.4-1.2,0.5-1.3h0
		c0.1,0.3,0.3,0.9,0.5,1.4l1.2,3.5C95,26.8,94.9,26.9,94.3,26.9 M95.2,8.9c0-0.4,0.1-0.9,1-0.9c0.8,0,1,0.5,1.2,1l0,0
		c0,0,0.1,0,0.1,0c0.1,0,0.2,0,0.2-0.1l0,0v0c0-0.4-0.1-0.9-0.2-1.1l0,0h0c-0.1,0-0.2,0-0.3,0c-0.2-0.1-0.6-0.1-0.9-0.1
		c-1.1,0-1.9,0.6-1.9,1.6c0,0.8,0.6,1.4,1,1.6l0.9,0.6c0.6,0.4,0.7,0.8,0.7,1.2c0,0.5-0.3,1-1.1,1c-0.9,0-1.3-0.7-1.5-1.3v0
		c0,0-0.1-0.1-0.1-0.1c-0.1,0-0.2,0-0.2,0.1l0,0v0c0,0.4,0.1,1.1,0.2,1.3v0h0c0.2,0.1,0.7,0.3,1.4,0.3c1.2,0,2-0.7,2-1.7
		c0-0.7-0.4-1.3-1.2-1.8L96,9.9C95.7,9.8,95.2,9.4,95.2,8.9 M92.9,13.8c0,0,0.1-0.1,0-0.1c0,0,0-0.1-0.1-0.1h0
		c-0.2,0-0.4-0.1-0.6-0.2c-0.6-0.5-1.1-1.3-1.8-2.4c0-0.1,0-0.1,0-0.1c0.3-0.1,1.1-0.6,1.1-1.6c0-0.8-0.4-1.1-0.8-1.3
		c-0.4-0.2-1-0.3-1.5-0.3c-0.8,0-1.5,0-2,0.1h0c0,0-0.1,0.1-0.1,0.2c0,0.1,0,0.2,0.1,0.2h0l0.3,0c0.3,0,0.3,0.1,0.3,1v3.2
		c0,1,0,1-0.5,1.1l-0.2,0l0,0c0,0.1-0.1,0.2,0,0.2c0,0.1,0,0.1,0.1,0.1h0h0c0.4,0,0.7,0,1.1,0c0.4,0,0.7,0,1.1,0h0h0
		c0.1,0,0.1-0.1,0.1-0.2c0-0.1,0-0.2-0.1-0.2l0,0l-0.2,0c-0.5-0.1-0.5-0.1-0.5-1.1v-1.1c0-0.1,0-0.1,0.4-0.1c0.3,0,0.5,0.1,0.6,0.3
		c0.1,0.2,0.3,0.4,0.4,0.7s0.3,0.5,0.4,0.7c0.6,0.9,1.1,1.2,1.9,1.2C92.7,13.9,92.8,13.9,92.9,13.8L92.9,13.8z M90.2,10.5
		c-0.2,0.2-0.6,0.2-0.9,0.2c-0.4,0-0.5,0-0.6,0c0,0,0-0.1,0-0.2V8.3c0-0.2,0-0.2,0.5-0.2c1,0,1.4,0.7,1.4,1.3
		C90.6,9.9,90.5,10.2,90.2,10.5 M85.5,12.5L85.5,12.5L85.5,12.5c0-0.1-0.1-0.2-0.2-0.2c0,0-0.1,0-0.1,0l0,0
		c-0.3,0.5-0.5,0.8-0.6,0.9c-0.2,0.1-0.5,0.1-1.1,0.1c-0.8,0-0.9-0.1-1.1-0.2c-0.1-0.1-0.2-0.4-0.2-0.9V11c0-0.2,0-0.2,0.2-0.2H83
		c0.3,0,0.6,0,0.7,0c0.1,0,0.2,0.1,0.2,0.3l0.1,0.4l0,0c0,0,0.1,0.1,0.2,0.1c0.1,0,0.2,0,0.2-0.1v0l0,0c0-0.1,0-0.2,0-0.3
		c0-0.2,0-0.4,0-0.5c0-0.2,0-0.4,0-0.6c0-0.1,0-0.3,0-0.4v0v0c0,0-0.1-0.1-0.2-0.1c-0.1,0-0.1,0-0.2,0.1l-0.1,0.4
		c0,0.2-0.1,0.2-0.2,0.3c-0.1,0-0.4,0-0.7,0h-0.5c-0.2,0-0.2,0-0.2-0.2V8.4c0-0.3,0-0.3,0.2-0.3h0.6c0.4,0,0.7,0,0.9,0
		c0.4,0.1,0.5,0.4,0.6,0.8l0,0l0,0c0,0,0.1,0.1,0.1,0.1c0.1,0,0.2,0,0.2-0.1l0,0l0-0.1c0-0.5-0.1-1-0.1-1.1l0-0.1l-0.1,0
		c-0.1,0-0.6,0-1.2,0h-1.7c-0.4,0-0.6,0-1.1,0h0h0c-0.1,0-0.1,0.1-0.1,0.2c0,0.1,0,0.1,0.1,0.2l0.2,0c0.5,0,0.5,0.1,0.5,1.1v3.2
		c0,1,0,1-0.5,1.1l-0.3,0l0,0c0,0-0.1,0.1,0,0.2c0,0.1,0,0.1,0.1,0.1h0h0c0.5,0,0.8,0,1.2,0h0.8c0.8,0,1.6,0,2.4,0h0l0,0
		C85.2,13.5,85.5,12.8,85.5,12.5 M79.4,8c0,0,0-0.1,0-0.2c0-0.1,0-0.1-0.1-0.1h0h0c-0.3,0-0.6,0-0.9,0c-0.4,0-0.7,0-0.9,0h0h0
		c0,0-0.1,0.1-0.1,0.2c0,0.1,0,0.1,0.1,0.2l0,0l0.2,0c0.3,0,0.3,0.1,0.3,0.1c0,0.1,0,0.2-0.1,0.3c-0.2,0.4-0.6,1.4-0.8,2
		c-0.1,0.2-0.2,0.4-0.2,0.6c-0.2,0.4-0.4,0.9-0.6,1.3c-0.4-1-0.8-2-1.2-3c-0.3-0.6-0.4-1.1-0.4-1.2c0,0,0.1-0.1,0.4-0.1l0.2,0l0,0
		c0,0,0.1-0.1,0.1-0.2s0-0.1-0.1-0.2h0h0c-0.4,0-0.7,0-1.1,0s-0.7,0-0.9,0h0l0,0c0,0-0.1,0.1-0.1,0.2c0,0.1,0,0.1,0.1,0.2l0,0l0.2,0
		c0.4,0,0.5,0.2,0.7,0.7l1.6,3.9c0.2,0.5,0.3,0.9,0.4,1.2v0l0,0c0,0,0.1,0,0.2,0c0,0,0.1,0,0.1,0l0,0v0c0.2-0.5,0.6-1.5,0.9-2.3
		l0.5-1.1c0.4-0.9,0.8-1.7,1-2.1c0.1-0.2,0.2-0.3,0.4-0.3L79.4,8L79.4,8z M73.5,20.5c-1.7,1.3-2.7,3.3-2.7,5.7c0,2.8,1.3,4.8,3.1,6
		c1.6,1.1,3.4,1.5,5.4,1.5c1.4,0,3-0.3,3.4-0.5c0.2-0.1,0.5-0.2,0.8-0.2c0.3-0.4,0.9-1.8,1-3c-0.1-0.2-0.4-0.2-0.6-0.1
		c-0.5,1.3-1.7,3.1-4.5,3.1c-3.6,0-6.4-2.5-6.4-7c0-4.5,2.8-6.6,6.1-6.6c3.1,0,4.1,1.7,4.4,3.2c0.2,0.1,0.5,0.1,0.6,0
		c-0.2-1.3-0.3-2.7-0.3-3.2c-0.2,0-0.4,0-0.6-0.1c-1-0.3-2.7-0.5-3.8-0.5C77.1,18.7,75,19.3,73.5,20.5 M70.7,12.3V9.1
		c0-1,0-1.1,0.5-1.1l0.2,0h0c0,0,0.1-0.1,0.1-0.2c0,0,0-0.1-0.1-0.2h0h0c-0.4,0-0.7,0-1.1,0c-0.4,0-0.7,0-1.1,0h0h0
		C69,7.7,69,7.8,69,7.9C69,8,69,8,69.1,8h0l0.2,0c0.4,0,0.5,0.1,0.5,1.1v3.2c0,1,0,1-0.5,1.1l-0.2,0l0,0c0,0-0.1,0.1,0,0.2
		c0,0.1,0,0.1,0.1,0.1h0h0c0.4,0,0.8,0,1.1,0c0.4,0,0.7,0,1.1,0h0h0c0.1,0,0.1-0.1,0.1-0.2c0-0.1,0-0.1-0.1-0.2l-0.2,0
		C70.7,13.4,70.7,13.3,70.7,12.3 M66.2,30.1v-7.7c0-2.3,0-2.7,1.3-2.8l0.5,0c0.1-0.1,0.1-0.5,0-0.5c-1.1,0-1.8,0.1-2.7,0.1
		c-0.9,0-1.6,0-2.7-0.1c-0.1,0.1-0.2,0.4,0,0.5l0.5,0c1.3,0.1,1.3,0.5,1.3,2.8v7.7c0,2.3,0,2.6-1.3,2.8l-0.5,0.1
		c-0.1,0.1-0.1,0.5,0,0.5c1.1,0,1.8-0.1,2.7-0.1c0.9,0,1.6,0,2.7,0.1c0.1-0.1,0.2-0.4,0-0.5l-0.5-0.1C66.2,32.7,66.2,32.3,66.2,30.1
		 M67.3,8c0,0,0.1-0.1,0.1-0.2c0-0.1,0-0.1-0.1-0.2l0,0h0c-0.3,0-0.5,0-0.9,0c-0.3,0-0.6,0-1.1,0h0h0c0,0-0.1,0.1-0.1,0.1
		c0,0.1,0,0.2,0.1,0.2l0,0l0.2,0c0.3,0,0.5,0.1,0.5,0.2C66,8.4,66,9,66,10V12c0,0.1,0,0.2,0,0.2c-0.3-0.3-0.6-0.7-1.1-1.1l-1.3-1.4
		c-0.9-1-1.4-1.7-1.5-1.9l0,0h0c-0.1,0-0.2,0-0.4,0c-0.2,0-0.6,0-1,0h0h0c0,0-0.1,0.1-0.1,0.1c0,0.1,0,0.2,0,0.2l0,0l0.2,0
		c0.2,0,0.4,0.1,0.5,0.2c0.2,0.2,0.2,0.4,0.2,0.6v2.7c0,0.4,0,1.5-0.1,1.7c0,0-0.1,0.1-0.3,0.1l-0.3,0l0,0c0,0-0.1,0.1,0,0.2
		c0,0.1,0,0.1,0.1,0.2l0,0h0c0.3,0,0.6,0,0.9,0c0.3,0,0.6,0,1.1,0h0l0,0c0,0,0.1-0.1,0.1-0.1c0-0.1,0-0.1,0-0.2l0,0l-0.3,0
		c-0.2,0-0.4-0.1-0.4-0.1c-0.1-0.2-0.2-0.9-0.2-1.8v-2c0-0.2,0-0.3,0-0.4c0.1,0.2,0.4,0.4,0.6,0.7c0.2,0.2,0.3,0.3,0.4,0.4l2.1,2.4
		c0.7,0.8,1,1.2,1.1,1.4l0,0h0c0.1,0,0.2,0,0.2-0.2v0v0c0-0.1,0-0.5,0-1.6V9.9c0-0.5,0-1.4,0.1-1.7C66.8,8.2,66.9,8.1,67.3,8L67.3,8
		L67.3,8z M59.2,8c0,0,0.1-0.1,0-0.2c0-0.1,0-0.1-0.1-0.1l0,0h0c-0.3,0-0.6,0-0.9,0c-0.3,0-0.7,0-1,0h0l0,0c0,0-0.1,0.1-0.1,0.1
		c0,0.1,0,0.1,0,0.2l0,0l0.2,0c0.2,0,0.4,0.1,0.4,0.2c0.1,0.2,0.2,0.8,0.2,1.8v1c0,1.1-0.3,2.3-1.7,2.3c-1.2,0-1.8-0.7-1.8-2.3V9.1
		c0-1,0-1,0.5-1.1l0.2,0h0c0,0,0.1-0.1,0.1-0.2c0-0.1,0-0.1-0.1-0.2h0h0c-0.4,0-0.7,0-1.1,0c-0.4,0-0.7,0-1.1,0h0h0
		c-0.1,0-0.1,0.1-0.1,0.2s0,0.1,0.1,0.2h0L53,8c0.4,0,0.5,0.1,0.5,1.1v2.1c0,1.1,0.2,1.8,0.7,2.2c0.4,0.3,1,0.5,1.7,0.5
		c0.7,0,1.4-0.3,1.8-0.7c0.4-0.5,0.6-1.2,0.6-2.2v-1c0-0.4,0-1.5,0.1-1.8c0-0.1,0.2-0.2,0.4-0.2L59.2,8L59.2,8z M48.8,19.5
		c0.1-0.1,0.1-0.5,0-0.5c-0.9,0-1.7,0.1-2.5,0.1c-0.9,0-1.7,0-2.7-0.1c-0.1,0.1-0.2,0.4,0,0.5l0.6,0c1.1,0.1,1.3,0.4,1.3,2.7v7.8
		c0,2.3,0,2.5-1.3,2.7l-0.4,0.1c-0.1,0.1-0.1,0.5,0,0.5c0.9,0,1.6-0.1,2.5-0.1c0.9,0,1.6,0,2.8,0.1c0.1-0.1,0.2-0.4,0-0.5l-0.6-0.1
		c-1.2-0.1-1.3-0.4-1.3-2.7v-3c0-0.6,0-0.7,1.1-0.7h6.2c1,0,1.1,0,1.1,0.7v3c0,2.3,0,2.5-1.3,2.7l-0.4,0.1c-0.1,0.1-0.1,0.5,0,0.5
		c1,0,1.7-0.1,2.6-0.1c0.9,0,1.6,0,2.6,0.1c0.1-0.1,0.2-0.4,0-0.5l-0.5-0.1c-1.3-0.2-1.3-0.4-1.3-2.7v-7.8c0-2.3,0-2.6,1.3-2.7
		l0.4,0c0.1-0.1,0.1-0.5,0-0.5c-1,0-1.7,0.1-2.6,0.1c-0.9,0-1.6,0-2.6-0.1c-0.1,0.1-0.2,0.4,0,0.5l0.4,0c1.3,0.1,1.3,0.4,1.3,2.7
		v2.5c0,0.7,0,0.7-1.1,0.7h-6.2c-1,0-1.1,0-1.1-0.7v-2.5c0-2.3,0-2.6,1.3-2.7L48.8,19.5z M48,12.5L48,12.5L48,12.5
		c0-0.1-0.1-0.2-0.2-0.2c0,0-0.1,0-0.1,0l0,0c-0.3,0.5-0.5,0.8-0.6,0.9c-0.2,0.1-0.5,0.1-1.1,0.1c-0.8,0-0.9-0.1-1-0.2
		c-0.1-0.1-0.2-0.4-0.2-0.9V11c0-0.2,0-0.2,0.2-0.2h0.5c0.3,0,0.6,0,0.7,0c0.1,0,0.2,0.1,0.2,0.3l0.1,0.4l0,0c0,0,0.1,0.1,0.2,0.1
		c0.1,0,0.2,0,0.2-0.1v0l0,0c0-0.1,0-0.2,0-0.3c0-0.2,0-0.4,0-0.5c0-0.2,0-0.4,0-0.6c0-0.1,0-0.3,0-0.4v0v0c0,0-0.1-0.1-0.2-0.1
		c-0.1,0-0.1,0-0.2,0.1l-0.1,0.4c0,0.2-0.1,0.2-0.2,0.3c-0.1,0-0.4,0-0.7,0h-0.5c-0.2,0-0.2,0-0.2-0.2V8.4c0-0.3,0-0.3,0.2-0.3h0.6
		c0.4,0,0.7,0,0.9,0c0.4,0.1,0.5,0.4,0.6,0.8l0,0l0,0c0,0,0.1,0.1,0.2,0.1s0.2,0,0.2-0.1l0,0l0-0.1c0-0.5-0.1-1-0.1-1.1l0-0.1
		l-0.1,0c-0.1,0-0.7,0-1.2,0h-1.7c-0.3,0-0.6,0-1.1,0h0h0c-0.1,0-0.1,0.1-0.1,0.2c0,0.1,0,0.1,0.1,0.2l0.2,0c0.5,0,0.5,0.1,0.5,1.1
		v3.2c0,1,0,1-0.5,1.1l-0.3,0l0,0c0,0-0.1,0.1,0,0.2c0,0.1,0,0.1,0.1,0.1h0h0c0.5,0,0.8,0,1.2,0h0.8c0.8,0,1.6,0,2.4,0h0l0,0
		C47.7,13.5,47.9,12.8,48,12.5 M40.4,12.4V9.1c0-1,0-1,0.5-1.1l0.2,0l0,0c0,0,0.1-0.1,0.1-0.2c0,0,0-0.1-0.1-0.2h0h0
		c-0.4,0-0.7,0-1.1,0c-0.4,0-0.7,0-1.1,0h0h0c-0.1,0-0.1,0.1-0.1,0.2c0,0.1,0,0.1,0.1,0.2L39,8c0.5,0,0.5,0.1,0.5,1.1v1
		c0,0.2,0,0.2-0.4,0.2h-2.6c-0.4,0-0.4,0-0.4-0.2v-1c0-1,0-1,0.5-1.1l0.2,0l0,0c0,0,0.1-0.1,0.1-0.2c0,0,0-0.1-0.1-0.2h0h0
		c-0.4,0-0.7,0-1.1,0c-0.2,0-0.4,0-0.7,0c-0.1,0-0.3,0-0.5,0h0.1h0c-0.1,0-0.1,0.1-0.1,0.2c0,0.1,0,0.1,0.1,0.2h0l0.2,0
		c0.4,0,0.5,0.1,0.5,1.1v3.2c0,0.9,0,1-0.5,1.1l-0.2,0l0,0c0,0-0.1,0.1,0,0.2c0,0.1,0,0.1,0.1,0.1h0h0c0.1,0,0.2,0,0.4,0
		c0.2,0,0.4,0,0.7,0c0.3,0,0.6,0,1.1,0h0h0c0.1,0,0.1-0.1,0.1-0.2c0-0.1,0-0.1-0.1-0.2l-0.3,0c-0.4,0-0.5-0.1-0.5-1.1V11
		c0-0.2,0-0.2,0.4-0.2h2.6c0.4,0,0.4,0,0.4,0.2v1.3c0,1,0,1-0.5,1.1l-0.2,0l0,0c0,0-0.1,0.1,0,0.2c0,0.1,0,0.1,0.1,0.1h0h0
		c0.4,0,0.7,0,1.1,0c0.4,0,0.7,0,1.1,0h0h0c0.1,0,0.1-0.1,0.1-0.2c0-0.1,0-0.1-0.1-0.2l-0.2,0C40.4,13.4,40.4,13.3,40.4,12.4
		 M33,7.5L33,7.5L33,7.5c-0.1-0.1-0.2-0.1-0.2-0.1s0,0-0.1,0h0l0,0c-0.1,0.2-0.2,0.2-0.6,0.2h-3.7c-0.4,0-0.6,0-0.6-0.2v0l0,0
		c0,0-0.1,0-0.1,0c0,0-0.1,0-0.1,0l0,0v0c-0.1,0.4-0.2,0.9-0.3,1.3v0l0,0c0,0.1,0.2,0.2,0.3,0.1h0v0c0.1-0.2,0.2-0.4,0.4-0.6
		c0.2-0.2,0.6-0.2,1.1-0.2h0.5c0.2,0,0.2,0,0.2,0.2v4c0,1,0,1-0.5,1.1l-0.3,0h0c0,0-0.1,0.1-0.1,0.2c0,0.1,0,0.1,0.1,0.2h0h0
		c0.6,0,0.9,0,1.3,0s0.6,0,1.2,0h0h0c0.1,0,0.1-0.1,0.1-0.2c0-0.1,0-0.1-0.1-0.2l-0.3,0c-0.4,0-0.5-0.1-0.5-1.1V8.3
		c0-0.1,0-0.2,0-0.2c0,0,0.1,0,0.2,0h0.6c0.5,0,0.8,0.1,1,0.2c0.1,0.1,0.2,0.3,0.2,0.6v0l0,0c0,0,0.1,0.1,0.2,0.1
		c0.1,0,0.2,0,0.2-0.1v0v0C32.9,8.6,32.9,7.9,33,7.5 M26.9,26.3c0,2.8,1.3,4.8,3.1,6c1.6,1.1,3.4,1.5,5.4,1.5c1.4,0,3-0.3,3.4-0.5
		c0.2-0.1,0.5-0.2,0.8-0.2c0.3-0.4,0.9-1.8,1-3c-0.1-0.2-0.4-0.2-0.6-0.1c-0.5,1.3-1.7,3.1-4.5,3.1c-3.6,0-6.4-2.5-6.4-7
		c0-4.5,2.8-6.6,6.1-6.6c3.1,0,4.1,1.7,4.4,3.2c0.2,0.1,0.5,0.1,0.6,0c-0.2-1.3-0.3-2.7-0.3-3.2c-0.2,0-0.3,0-0.6-0.1
		c-1-0.3-2.7-0.5-3.8-0.5c-2.3,0-4.3,0.6-5.8,1.8C28,21.8,26.9,23.9,26.9,26.3 M21.2,22.6V7.5C9.1,6.4,0,7.5,0,7.5s0,15.1,0,15.1
		C1,32.9,10.6,34,10.6,34C12.3,33.7,20.4,32.1,21.2,22.6 M3.4,26.4c0.2,0.1,0.4,0.2,0.6,0.3c0.3,0.7,0,1.3-0.1,1.1
		C3.7,27.3,3.5,26.9,3.4,26.4 M3.4,19L3.4,19c0,0-1.4,0.8-2.2,0.4c0.6-0.4,2.9-1.8,3.5-2.2c0.3,0.1,0.4,0,0.5-0.1
		c-0.2,0-1,0.1-0.6-0.6c0.2,0.6,1.2,0,1.6,0c1.1-0.2,1.1,0.9,1,1.4c0,0.2,0.3,0.3,0.5,0.3c-0.3,0.8-0.8,0-0.9,0.3
		c0,0.1-0.4,0.2-0.4,0.5c0,0.4,0.2,0.2,0.2,0.5c0,0.3-0.1,0.1-0.1,0.4c0,0.5,0.9-0.1,1.3,0.1c0.2,0.1,0.3,0.2,0.5,0.2
		c0,0,0-0.2,0-0.3c0-0.2-0.3-0.2-0.5-0.4c-0.1-0.2,0.1-0.8,0.3-1c0.2,1,1.1,0.7,1.3,1.7c0.1,0.3-0.3,0.6,0,1.1
		c-0.2,0.2-0.5,1.3,0,1.9c-0.1,0.2-0.2,0.8,0.2,1.1c-0.2,0.3-0.1,0.7,0,1.1c-0.3,0-0.2-1.6-1.9-1.6c0,0,0,0.2,0,0.3
		c0.2,0.4,0.5,0.3,0.4,1.2c0,0.3-0.2,0-0.3-0.1c-0.2-0.2-0.4-0.2-0.4-0.8c-0.7,0.5-0.6,1.2-0.6,1.5c0,0-0.2-0.4-0.3-0.8
		c0,0,0.7-0.9,0.8-1.1c1.4-2.5-0.9,0.8-0.9,0.8c-0.1-0.3-0.2-0.5-0.3-0.6c0,0,0.4-0.5,0.6-0.8C7.8,21,6,24,5.9,23.9
		c-0.1-0.1-0.2-0.3-0.3-0.2c0,0.4-0.1,0.3-0.1,0.6C5.4,24.6,5,25,4.7,25.2c0,0-0.1-0.6,0-0.6c0.1-0.2,0.7-0.7,0.8-0.9
		c1.8-2.8-0.8,0.7-0.9,0.6c0-0.1-0.2-0.3-0.3-0.4c0,0,0.6-0.8,0.7-1.1c1.1-2.2-0.9,1-0.9,1c0,0,0,0-0.1,0c0,0,0.1-0.6,0.1-1
		c0.2-0.7-0.2-0.1-0.4,1c-0.1,0-0.3,0-0.4,0.1c0.1,0.3,0.1,0.1,0.3,0.4c0.2,0.4-0.2,1,0.1,1.4c0.1,0.2,0.1,0.1,0.1,0.2
		c-0.2,0-0.3,0-0.4,0.2c-0.2-1.1-0.2-1.7-0.2-2.8c0-0.5,0.2-1.3,0.1-1.3c-0.1,0-1.3,3-1.5,3.6c-0.5-0.2,0.3-2.8,1.3-4.1
		c0.1-0.4-0.5,0.4-0.9,0.7c-0.4,0.3-0.8,0.7-1.3,0.6c0.6-0.6,2-1.9,2.2-2.2c0.1-0.3-1,0.8-2.1,0.4C1.7,20.5,3.4,19.6,3.4,19
		 M5.5,24.7c0,0.3,0,0.5,0.1,0.8c0.1,0.4,0.1,0.3-0.1,0.2c-0.1-0.2-0.3-0.3-0.3-0.5C5.1,25,5.2,25,5.5,24.7 M8.3,17.9
		c-0.2-0.3,0.2-0.6,0.2-0.6c0,0.8,1,0.2,1.6,0.5c0.1,0.1,0.2,0.2,0.3,0.3C9.8,17.7,8.7,18.5,8.3,17.9 M2.2,11.4
		c-0.9,0-0.9-1.4,0-1.4S3.1,11.4,2.2,11.4 M2.2,14.1c-0.9,0-0.9-1.4,0-1.4C3.1,12.8,3.1,14.1,2.2,14.1 M4,11.2H3.2v-0.8H4V11.2z
		 M4,13.9H3.2v-0.8H4V13.9z M10.5,15.3c0,0-0.9-0.4-1.8-0.5c-1-0.1-2.9,0.7-4.4,0.6V8.9c0,0,1.7,0.2,2.4,0c2.4-0.9,3.8,0.1,3.8,0.1
		L10.5,15.3L10.5,15.3z M12.1,16.4c0,0.2-0.2,0.3-0.2,0.3c0.4,0.1,0.5-0.1,0.6-0.3c0.1,0.6-0.4,0.6-0.6,0.6c0,0,0.3,0.1,0.3,0.3
		c0,0.5,0.3,0.4,0.4,0.4c0,0.1-0.1,0.4-0.4,0.1c-0.1,0.1,0.1,0.2,0.1,0.4c0,0.3,0,0.6,0.4,0.8c-0.2,0.2-0.5-0.3-0.5-0.2
		c0,0.1,0.3,0.2-0.1,1.1c-0.2-0.1-0.1-0.1-0.3-0.3c-0.1-0.1-0.2-0.2-0.1,0c0.2,0.3,0.3,0.9,0.2,1c-0.2-0.1-0.1-0.2-0.3-0.4
		c0,0.1,0.1,0.5,0.3,0.7c0.4,0.3,0.5,0.7,0.5,0.8c0,0.3-0.1,0.7-0.1,1.1c-0.2,0-0.3-0.5-0.4-0.5c0,0,0,0.5,0.4,0.8
		c0.2,0.5,0.1,0.7,0,0.7c0,0-0.2-0.5-0.3-0.4c0.5,1.2,0.1,1.6,0,2c-0.1-0.4-0.1-0.6-0.3-1.1c-0.2,0.2-0.3,0.5-0.6,0.8
		c0-0.5-0.3-1.7-0.5-1.9c0,0-0.4,1.1-0.6,1.5c-0.2,0.6-0.3,1.4,0,2c-0.6-0.8-0.6-2.3-0.1-2.6c0-0.1,0-0.5-0.1-0.4
		c0,0.2,0,0.3-0.2,0.5c-0.4-0.1-0.2-0.6-0.2-0.7c0.5-0.6,0.2-0.7,0.2-0.7c0,0.1-0.1,0.3-0.2,0.4c-0.3-0.5-0.1-1.4,0.5-2
		c0-0.2-0.3,0.2-0.5,0.2c0-0.4,0.1-1.3,1-1.3c-0.2,0-0.2-0.1-0.3-0.2c0.2,0,1.1-0.1,0.9-0.7c-0.1,0.1-0.1,0.2-0.3,0.3
		c-0.1,0.1-0.3,0.1-0.4,0c0.4-0.1,0.2-0.6-0.2-0.4c-0.2,0-0.4-0.1-0.4-0.3c0.1,0.1,0.3,0,0.4,0c0.5-0.4,0.9,0.2,1,0.3
		c0,0,0.2-0.5-0.5-0.6c-0.1-0.2-0.2-0.5-0.8-0.5c-0.2-0.6-0.7-0.3-0.7,0c-0.6-0.4,0-0.9,0.2-1c0.2,0,0.1,0.5,0.4,0.4
		c0.1,0-0.2-0.3-0.1-0.5c0.2-0.1,0.2,0.2,0.4,0.1c0.1-0.2,0.3-0.3,0.5-0.4C11.1,16,11.6,16.7,12.1,16.4 M17.3,15.4
		c-1.3,0.1-3.8-0.6-4.5-0.6c-1.3,0-2,0.5-2,0.5s0-6.1,0-6.4c0,0,1.8-0.8,3.1-0.4c1.6,0.6,3.4,0.3,3.4,0.3V15.4z M18.9,12.9
		c0.7-0.1,0.8,0.7,0.8,0.7l0,0c-0.2-0.1-0.5-0.2-0.7,0c-0.8,0.5-1.5,0.5-1.5,0.5v-1.2C17.5,12.8,17.6,13.1,18.9,12.9 M19.7,11.2
		c0,0,0-0.1,0-0.2c0-0.1-0.4-0.2-0.6-0.1c-0.4,0.2-1.2,0.6-1.5,0.6v-1.2c0.8,0.3,1.1,0,1.3,0c0.8,0,0.8,0.7,0.8,0.7
		C19.7,11.1,19.7,11.2,19.7,11.2 M18.8,24c-0.2,0.1-0.9,0.3-1,0.5c0.1-1.3-0.4-2.6-0.5-2.9c-0.3-0.6,0.1,1.4,0.1,1.9
		c0,0-2.2-2.8-0.9-0.6c0.3,0.6,0.9,0.9,0.9,0.9c0,0.4,0,0.7-0.1,0.9c-0.1,0.1-3-3.8-1.4-1.1c0.2,0.3,1.3,1.3,1.3,1.4
		c-0.1,0.2-0.2,0.4-0.4,0.5c0,0-0.6-0.5-0.6-0.5c0-0.3,0-0.6-0.4-0.4c0,0-1.4-1.6-0.8-0.5c0.3,0.5,0.5,0.6,0.5,0.6
		c0,0-0.2,0.3-0.3,0.6c0,0.1-1.2-1.3-0.7-0.4c0.2,0.3,0.7,0.6,0.7,0.6c0,0.2-0.1,0.4-0.2,0.5c-0.1,0.2-1.1,1-1.1,1s0.2-0.6,0.6-1
		c0.2-0.2,0.2-0.1,0.4-0.2c0-0.1-0.1-0.2-0.2-0.3c-0.2,0-0.6,0-0.6,0c0-0.2-0.2-0.8-0.2-1.4c-0.2,0-0.5,0.3-0.6,0.5
		c-0.1,1-0.3,0.7-0.5,1.4c-0.2-0.3,0-0.7-0.2-1c-0.3-0.4-0.3-0.6-0.4-1.1c0.1,0,0.4-0.4,0.1-1.1c0-1.1,0.4-1.5-0.4-2.2
		c0.1,0,0.1-0.6,0.1-0.6c0.6,0.3,0.5-0.4,0.8-0.5c0.4-0.2,0.3-0.5,0.1-0.8c1.1,0.3,0,1.1,0.4,1.1c0.4,0,0.6-0.1,0.8-0.3
		c0.2-0.3,0-0.4,0.4-0.9c0,0,0.2-0.3-0.2-0.4c-0.1,0,0-0.3,0-0.3c-0.3,0.2-0.4,0.6-0.9,0.4c-0.2-0.1-0.4,0-0.5,0c0,0,0-0.2,0.2-0.3
		c0.5-0.2,0.7-0.4,0.6-0.5c-0.1-0.3-0.1,0-0.1-0.3c0-0.1,0.1-0.3,0.2-0.4c0.4-0.4,0.6-0.3,0.7-0.2c0.2-0.2,0.2-0.2,0.4-0.2
		c0.3-0.1,1.1,0.1,1.5,0.3c0.2,0.1,0.4,0.1,0.6,0.1c0,0.1-0.1,0.2-0.2,0.2c-0.1,0-0.3,0-0.3,0.1c0,0,0.2,0.1,0.3,0.1
		c0.6,0.2,1.4,0.7,0.9,0.6c-0.1,0,0.4,0.3,0.7,0.7l1.1,1.1c0,0.1-0.4,0-1.7-1.2c-0.2,0.2,1.5,1.5,2.2,2.8c-0.1,0-0.9-0.3-1.3-0.6
		c-0.5-0.5-1.1-1.8-1.3-1.6c0,0,0.9,1.5,1.4,2.4c0.2,0.4,0.4,1.1,0.4,1.6c0.1,2.4-0.3,2.2-0.3,2.2c-0.6-1.9-0.8-4.1-1.6-5.1
		C17.6,19.9,18.8,22,18.8,24 M16.3,26.1c-0.2,0.2-0.4,0.3-0.4,0.2c0.1-0.1,0.1-0.2,0.1-0.3C16.1,26,16.3,26.1,16.3,26.1 M16.2,25.9
		c0-0.2,0-0.3,0.1-0.5c0-0.1,0-0.1,0-0.1c0,0,0.5,0.4,0.6,0.5c-0.1,0.2-0.2,0.2-0.4,0.4C16.4,25.9,16.2,25.9,16.2,25.9 M18,26.5
		c-0.8,0.8-1.9,0.5-2.8,0.9c-0.8,0.3-1.4,1.1-2.3,1.2c-0.2,0.1-0.3,0.2-0.1,0.2c0.1,0,0.6,0.5,1.4,0.1c0.3-0.1,1.1-0.6,1.3-0.6
		c-0.5,0.4-0.7,0.9-1.1,1.1c-0.2,0.1-1.3,0.5-2.3,0.3c-0.5-0.1-0.8,0.3-0.7,0.3c0.2-0.1,0.5,0,0.7,0.2c0.3,0.2,0.7,0.5,1.1,0.1
		c0.1-0.1,0.7-0.4,1.3,0.1c-0.6,0-0.5,1-1.7,0.9c-0.4,0-1.3-1-1.6-0.7c-0.5,0.5,1,1,0.4,1.7c-0.6,0.6-1.3-0.5-1.3-0.5
		c0.4,0.2,1,0.2,0.7-0.3c-0.1-0.2-0.3-0.4-0.3-0.9c0-0.2-1.4,1.7-2.2,0.8c-0.3-0.3-1-1.1-1.7-1.4c1.7-0.1,1.9,0.5,2,0.6
		c0.5,0.7,1,0,1.1-0.1c0.2-0.2,0.4-0.5,0.3-0.5c-0.6-0.3-1.4-0.4-1.9-0.1c1.2-1.6,2.1-0.1,2.1-0.1c0.1,0.1,0-1-1.2-1
		c-0.7,0-1.4,0.6-1.9,0.6c-0.4,0-1.6-0.8-1.9-1.6c0.7,0.5,1.6,0.9,2.2,0.5c1.1-0.6,2.4,0.3,2.5,0.2c-0.3-0.2-1-1.1-2.8-0.6
		c-0.7,0.4-1-0.3-1.5-0.3c0.7-0.7,1.3-0.3,1.5-0.3C7.4,27.3,7,27,6.7,27c-2-0.2-3.3-0.8-3.3-0.8s0.2-0.4,1.1-0.1
		c0,0-0.8-0.5-0.8-1.1c0-0.4,0.2-0.8-0.1-1.1c1.2,0,0.3,1.6,1.2,2c0,0-0.2-0.4,0.1-0.7C5.1,25.7,5.5,26,5.8,26
		c0.1,0,0.2-0.2,0.2-0.2c-0.3-0.5-0.4-1.1-0.3-1.8h0c0.1,0,0.2,0.2,0.3,0.4c0.2,0.4,0.2,0.9,0.5,1.3C6.7,26,6.8,26.3,7,26.4
		c0.1-0.2,0-0.5,0-0.5c0-0.3-0.2-0.8,0.3-1.2c0.2,0.6,0.5,0.5,0.6,0.8c0.1,0.4,0,0.4,0,0.7c0,0.5,0.4,0.6,0.8,0.9
		c0.8,0.4,1.4,0.7,1.7,1.3c0.2-1-2.5-1.2-2.1-3.1c0-0.8,0.1-0.8-0.4-1.3c1.1,0,1.6,1.8,1.7,2.1c0.1,0.6,0.5,0.6,0.9,1.4
		c0.1,0-0.9-2,0.2-3.8c0,0,0.4,0.9,0.2,1.5c-0.1,0.4,0,0.8,0,1c0,0.2,0-0.8,0.8-1.4c0,0.4,0.4,1,0.1,1.7c-0.4,0.8-0.5,0.5-0.5,1.5
		c0,0,0.2-0.7,0.5-1.1c0.6-0.8,0.2-1.3,0.8-1.9c0,0.4,0.1,0.2,0.2,0.5c0.1,0.7-0.6,1.5-0.5,1.5c0.2,0,0.5-0.2,0.6-0.7
		c0,0,0.3,0.5,0,0.6c-0.4,0.3-0.5,0.6-0.5,1c0.4-0.4,0.9-0.9,0.8-1.5c0-0.4,0.4-0.5,0.5-1.4c0-0.1,0.2-0.3,0.3-0.4
		c-0.1,0.5,0.3,1-0.1,1.6c0.1,0,0.4-0.4,1-0.3c-1.1,0.2-0.7,1.3-1.5,1.9C12.9,27.8,13,28,12.9,28c0.7,0,1.3-0.9,1.4-1
		c0.7-0.5,0.9-0.6,1.2-1.4c0.1-0.3,0-0.4,0.4-0.9c0.2,0.4-0.1,1.2-0.1,1.4c-0.1,0.4-0.6,0.7-0.5,0.7c1.9-0.9,1.9-1.4,2.4-2
		c0.1-0.2,0.8-0.6,1.1-0.7c-0.1,0.1-0.3,0.3-0.3,0.6c0,0.4-0.2,0.7-0.4,1c0.1,0.2,0.4-0.3,0.6-0.1C18.3,25.9,18.2,26.3,18,26.5
		 M18.3,26.3c-0.1,0.6-0.3,1.1-0.6,1.6c-0.2,0.3-0.3-0.3-0.1-1C17.8,26.8,18.1,26.6,18.3,26.3 M16.8,12c0,0-0.1,0-0.2,0
		s-0.1,0.1,0,0.1C16.6,12.1,16.7,12.1,16.8,12C16.9,12.1,16.9,12,16.8,12 M16.6,12.3c0,0,0.1,0,0.2,0c0,0,0-0.1,0-0.1
		c0,0-0.1,0-0.2,0C16.6,12.2,16.5,12.3,16.6,12.3 M16.6,13.5c0,0-0.2-0.2-0.3-0.2c-0.1,0-0.2,0.1-0.3,0.2c-0.1-0.1-0.1-0.2-0.2-0.2
		c-0.1,0-0.3,0.2-0.4,0.3c0.1,0,0.3,0,0.3,0.2c0,0.1,0,0.7,0,0.8c0.1,0,0.2,0,0.3,0c0-0.1,0-0.8,0-0.8c0,0,0.1,0,0.1-0.1
		c0,0,0.2,0.2,0.2,0.2C16.4,13.7,16.6,13.6,16.6,13.5C16.7,13.5,16.6,13.5,16.6,13.5 M16.3,12.6c0.1-0.1,0.2-0.3,0.2-0.5
		c0-0.2-0.1-0.5-0.4-0.6c-0.4,0.1-0.6,0.4-0.6,0.8c0,0.2,0.2,0.6,0.5,0.6C16,12.7,16.1,12.6,16.3,12.6 M16,12.6
		c-0.1,0-0.3-0.2-0.4-0.4c-0.1-0.2-0.1-0.4,0.1-0.5c0.2,0.1,0.4,0.2,0.4,0.4C16.2,12.3,16.1,12.5,16,12.6 M16,11.1l0.3-0.3
		c0,0-0.1-0.1-0.2-0.2c0-0.1,0-0.6,0-0.6c-0.2-0.2-0.3-0.2-0.4-0.2c-0.2,0-0.3,0.2-0.4,0.3c0,0,0,0.1,0,0.2c0,0,0.1,0,0.1,0.1
		c0,0,0,0,0,0c-0.1,0.1-0.2,0.3-0.2,0.4c0,0.1,0.1,0.3,0.2,0.4c0.1-0.1,0.2-0.2,0.4-0.2C15.9,11,15.9,11.1,16,11.1 M15.9,10.5
		c-0.1,0-0.4-0.2-0.5-0.2c0,0,0,0,0-0.1c0.1-0.1,0.1-0.2,0.2-0.2c0,0,0.3,0.1,0.3,0.2C15.9,10.3,15.9,10.4,15.9,10.5 M15.9,10.9
		c-0.1,0-0.1,0-0.2,0.1c-0.1-0.1-0.2-0.3-0.1-0.5c0,0,0,0,0,0c0.1,0.1,0.3,0.1,0.4,0.2C15.9,10.6,15.9,10.7,15.9,10.9
		C15.9,10.8,15.9,10.8,15.9,10.9 M15.1,9.7c-0.1,0-0.5,0-0.5,0c0-0.1,0-0.2,0-0.3c0-0.1,0-0.1-0.1,0c0,0.1-0.2,0.4-0.4,0.4
		c-0.1,0,0.1,0.1,0.1,0.1c0,0.3,0,0.7,0.1,0.9c0,0.1,0.2,0.2,0.2,0.2c0,0,0.2-0.2,0.2-0.3c0.1,0,0-0.1,0-0.1c0,0-0.1,0-0.1-0.1
		c0,0-0.1-0.6,0-0.7C14.6,9.9,15.1,9.8,15.1,9.7C15.2,9.8,15.2,9.7,15.1,9.7 M13.8,10.8l0.2-0.3c-0.2,0-0.2,0-0.3-0.2V9.7l-0.2-0.2
		h-0.1l-0.3,0.3c0,0,0,0,0.1,0l0.2,0.1v0.6c0,0.1,0.1,0.2,0.2,0.2L13.8,10.8L13.8,10.8z M13.6,9.4l0.1-0.1V9.1L13.6,9l-0.2,0.1v0.2
		l0.1,0.1L13.6,9.4L13.6,9.4z M13.1,9.2c-0.1,0-0.4,0-0.5,0c-0.1,0-0.1,0.1,0,0.1s0.1,0,0.2,0.1c0,0.1-0.2,0.6-0.2,0.8
		c-0.1-0.1-0.3-0.6-0.3-0.6c0,0,0.1-0.1,0.1-0.1c0.1,0,0.1-0.1,0-0.1c-0.2,0-0.8-0.1-0.9-0.1c-0.1,0-0.1,0.1,0,0.1
		c0.1,0,0.2,0,0.3,0.1c0.1,0.2,0.5,1,0.6,1.3c0-0.1,0.4-1.2,0.4-1.3C12.9,9.4,13,9.3,13.1,9.2C13.2,9.2,13.2,9.2,13.1,9.2
		 M11.3,11.8c0,0.4,0.2,0.5,0.4,0.6c0.2,0.1,0.5,0.1,0.8,0c0.1,0,0.1,0,0.1,0c0,0,0.1,0,0.1,0s0-0.4,0-0.5s-0.1,0-0.1,0
		c0,0.1,0,0.1-0.1,0.2c-0.2,0.2-0.6,0.2-0.8-0.1c-0.1-0.1-0.2-0.2-0.1-0.3c0.1,0,0.4,0,0.5,0c0.1,0,0.4,0,0.4,0c0,0,0.1,0,0.1,0
		c0,0,0-0.2,0-0.3c0,0,0,0-0.1,0c0,0-0.3,0.1-0.4,0.1c-0.1,0-0.4,0-0.5,0c-0.1,0-0.1-0.2,0-0.3c0.2-0.3,0.7-0.3,0.9,0
		c0.1,0.1,0.1,0.1,0.1,0.2c0,0,0.1,0,0.1,0s0-0.5,0-0.5c0,0-0.1,0-0.1,0c0,0-0.1,0-0.2,0c-0.1,0-0.6,0-0.8,0.1
		C11.6,11.3,11.3,11.6,11.3,11.8 M11.4,12.6c0,0.1,0,1.3,0,1.4c0,0.1,0.1,0.2,0.2,0.2c0-0.1,0.2-0.2,0.3-0.3c0,0,0-0.1,0-0.1
		c-0.1,0-0.2,0-0.2-0.1c0-0.1,0-1.1,0-1.2C11.6,12.7,11.4,12.7,11.4,12.6 M12.3,13.5c-0.1,0.1-0.2,0.2-0.2,0.4
		c0,0.1,0.1,0.3,0.2,0.3c0.1-0.1,0.2-0.2,0.4-0.3c0,0.1,0.1,0.1,0.2,0.2c0-0.1,0.2-0.3,0.3-0.3c0,0,0-0.1,0,0c-0.1,0-0.1,0-0.2-0.1
		c0-0.1,0-0.5,0-0.6c-0.1-0.1-0.2-0.2-0.3-0.2c-0.2,0-0.4,0.3-0.4,0.4C12.3,13.3,12.3,13.5,12.3,13.5C12.3,13.5,12.3,13.5,12.3,13.5
		 M12.4,13.6c0.1,0,0.1,0,0.3,0c0,0.1,0,0.2,0,0.2c-0.1,0-0.1,0.1-0.2,0.1C12.4,13.9,12.3,13.9,12.4,13.6 M12.3,13.2
		c0.1-0.1,0.1-0.1,0.1-0.1c0,0,0.2,0.1,0.2,0.2c0,0,0,0.2,0,0.2c-0.1,0-0.2,0-0.3-0.1C12.3,13.5,12.3,13.3,12.3,13.2 M13.3,13.1
		c-0.1,0,0.1,0.1,0.1,0.1c0,0.3-0.1,0.7,0,0.9c0.1,0.1,0.2,0.1,0.3,0.1c0.1,0,0.2-0.2,0.2-0.2c0.1,0,0-0.1,0,0c0,0-0.2,0-0.2,0
		c0,0,0-0.6,0-0.6c0,0,0.2,0,0.2,0c0,0,0-0.1,0-0.1c-0.1,0-0.2,0-0.2,0c0,0,0-0.2,0-0.3c0-0.1,0-0.1-0.1,0
		C13.7,12.8,13.5,13,13.3,13.1 M13.4,11.8c0,0.2-0.1,0.5-0.3,0.6c0.2-0.1,0.3-0.2,0.4-0.4c0.1,0.1,0.2,0.2,0.3,0.3
		c0.1,0,0.3-0.3,0.3-0.3c-0.2,0-0.4-0.2-0.5-0.4c-0.1-0.1,0-0.2,0-0.3c0,0.1,0.4,0.2,0.6,0c-0.2-0.1-0.3-0.2-0.4-0.3
		c0,0-0.2,0.2-0.3,0.2c0-0.1-0.2-0.2-0.3-0.2c0,0-0.3,0.2-0.4,0.3c0,0,0,0.1,0,0.1c0,0,0.1-0.1,0.2-0.1
		C13.2,11.5,13.4,11.6,13.4,11.8 M14.6,11.9c0-0.2,0.1-0.2,0.2-0.3c0.1,0.1,0.1,0.2,0.2,0.2s0.2,0,0.2-0.1c-0.1-0.1-0.3-0.3-0.3-0.3
		c-0.1,0-0.5,0.3-0.6,0.5c0,0.4,0.1,0.4,0.2,0.7c0.1,0.1,0.2,0.1,0.3,0.1c0.1,0,0.4-0.3,0.4-0.4c0,0,0-0.1,0,0c0,0,0,0-0.1,0
		c0,0-0.2,0-0.4,0C14.7,12.2,14.5,12.1,14.6,11.9 M14.4,13.1c-0.1,0.1-0.2,0.1-0.3,0.2c0.1,0,0.2,0,0.2,0.1c0,0.1,0,0.4,0,0.6
		c0,0.1,0.1,0.2,0.2,0.3c0.1,0,0.4-0.1,0.5-0.2c0,0.1,0.1,0.2,0.2,0.2c0-0.1,0.1-0.1,0.2-0.2c-0.1,0-0.1-0.1-0.1-0.2
		c0-0.1,0-0.5,0-0.6c-0.1-0.1-0.2-0.2-0.3-0.3c-0.1,0.1-0.2,0.2-0.3,0.3c0.1,0,0.2,0,0.3,0.1c0,0.1,0,0.3,0,0.4s-0.4,0.1-0.4,0
		c0-0.1,0-0.4,0-0.6C14.5,13.2,14.5,13.2,14.4,13.1 M11.6,16.9L11.6,16.9c-0.2,0-0.4-0.2-0.6-0.3c-0.3-0.1-0.6,0.1-0.6,0.2
		c0,0.1,0.1,0.1,0.3,0c-0.2,0.2,0,0.4,0,0.4c-0.1,0-0.2,0-0.3-0.1c0,0.1,0.1,0.1,0.2,0.2C10.9,17.3,11.2,16.9,11.6,16.9 M10.9,17.1
		c0,0,0.1-0.1,0.1-0.2c0-0.1-0.1-0.2-0.1-0.2c0.1,0,0.3,0.2,0.4,0.2L10.9,17.1z M8.6,13.9l0.1-0.1c-0.1,0-0.1,0-0.1-0.1v-0.5
		l-0.2-0.2H8.3l-0.3,0.2c-0.1,0.1,0,0.1,0.1,0l0.2,0.1v0.6c0,0.1,0.1,0.1,0.2,0.2L8.6,13.9z M8.7,12c0.1,0.3,0.3,0.3,0.5,0.4
		c0-0.1,0.1-0.2,0.2-0.3c0.1-0.1,0-0.2,0,0c0,0.1-0.2,0-0.3-0.1c-0.1-0.1-0.2-0.3-0.1-0.4c0.1-0.1,0.2,0,0.4,0
		c0.1,0,0.1-0.1,0.1-0.1c0,0-0.1-0.1-0.2-0.1c-0.1,0.1-0.2,0.2-0.3,0.2C8.7,11.6,8.6,11.8,8.7,12 M9.1,13.5
		c-0.1,0.1-0.2,0.2-0.2,0.4s0,0.3,0.2,0.3C9.2,14.1,9.3,14,9.5,14c0.1,0.1,0.2,0.2,0.2,0.2c0-0.1,0.2-0.2,0.2-0.2c0,0,0-0.1,0,0
		c0,0-0.1,0-0.2,0c0-0.1,0-0.6,0-0.7c-0.1-0.1-0.2-0.3-0.3-0.3c-0.2,0-0.4,0.2-0.4,0.3C9,13.2,9,13.5,9.1,13.5
		C9.1,13.5,9.1,13.5,9.1,13.5 M9.4,13.5c-0.1,0-0.2,0-0.3-0.1c0,0,0-0.2,0-0.2c0-0.1,0-0.1,0.1-0.1c0,0,0.3,0.1,0.2,0.2
		C9.5,13.3,9.5,13.5,9.4,13.5 M9.1,13.6c0.1,0.1,0.2,0.1,0.3,0c0,0.1,0,0.1,0,0.2s0,0,0,0.1c-0.1,0-0.2,0-0.2,0.1
		C9.2,13.9,9,13.7,9.1,13.6 M10,12.4l0.1-0.1c-0.1,0-0.1,0-0.2-0.1v-0.6l-0.1-0.2H9.7l-0.3,0.2c-0.1,0.1,0,0.1,0.1,0l0.1,0.1v0.6
		c0,0.1,0.1,0.1,0.2,0.2L10,12.4z M9.8,10.3c0,0-0.1,0.1,0.2,0.1C10,10.4,10.1,10.3,9.8,10.3 M9.8,10.1c0,0-0.1,0.2,0.2,0.1
		C10,10.2,10.1,10.1,9.8,10.1 M9.8,11l-0.1-0.2L9.6,11v0.2l0.1,0.1h0.1l0.1-0.1L9.8,11L9.8,11z M9.5,9.7C9.5,9.6,9.3,9.5,9.1,9.5
		c-0.2,0-0.5,0.2-0.6,0.3c-0.1,0.2,0,0.3,0.2,0.4c-0.1,0.1-0.2,0.2-0.3,0.3c0,0,0.3,0.2,0.5,0.2c0.2,0,0.4-0.1,0.6-0.2
		c0.2-0.2,0.2-0.4-0.1-0.5c0,0,0,0-0.1,0C9.4,9.8,9.5,9.7,9.5,9.7 M9,10.2c0.1,0,0.2,0.1,0.2,0.1c0.1,0.1,0.1,0.2-0.1,0.3
		c-0.1,0.1-0.4-0.1-0.4-0.2C8.8,10.3,8.9,10.3,9,10.2 M9.2,9.9c0,0-0.1,0.1-0.1,0.1C9,10,9,10,9,10c-0.1,0-0.2-0.1-0.2-0.2
		c0-0.1,0.1-0.1,0.2-0.1C9,9.7,9.1,9.8,9.2,9.9 M8.2,10.4c-0.3,0.1-0.5-0.2-0.5-0.3C7.8,10,8.1,9.7,8.2,9.6C8.1,9.5,8.1,9.4,7.9,9.4
		c-0.2,0-0.5,0.2-0.6,0.6c-0.1,0.4,0.3,0.6,0.6,0.6C8.1,10.6,8.2,10.5,8.2,10.4C8.5,10.4,8.4,10.3,8.2,10.4 M7.7,10
		c-0.1-0.3,0-0.4,0.1-0.5c0,0.1,0.1,0.2,0.2,0.2C7.9,9.8,7.7,10,7.7,10 M7.3,9.8C7.4,9.7,7.3,9.7,7.3,9.8C7.2,9.7,7.1,9.6,7,9.5
		C7,9.6,6.9,9.7,6.8,9.7C6.7,9.6,6.6,9.6,6.5,9.5c-0.1,0-0.2,0.2-0.3,0.2c0.1,0,0.2,0,0.2,0.2c0,0.1,0,0.6,0,0.8c0.1,0,0.2,0,0.2,0
		c0-0.1,0-0.8,0-0.9c0,0,0.1,0,0.1-0.1c0,0,0.1,0.2,0.2,0.2C7.1,9.9,7.2,9.8,7.3,9.8 M6.2,11.2c-0.2,0-0.4,0.2-0.4,0.3
		c0,0.1,0,0.3,0,0.3c0,0,0,0,0,0c-0.1,0.1-0.2,0.2-0.2,0.3c0,0.1,0.1,0.2,0.2,0.3c0.1-0.1,0.2-0.2,0.3-0.2c0,0.1,0,0.2,0.1,0.2
		c0,0,0.2-0.2,0.3-0.3s0-0.1,0,0c0,0-0.1,0-0.1,0c0-0.1,0-0.6,0-0.7C6.4,11.4,6.3,11.2,6.2,11.2 M6.2,11.8C6.1,12,6,12,5.9,11.8
		c-0.1-0.1,0-0.2,0-0.2c0-0.1,0.1-0.2,0.2-0.2s0.2,0.2,0.2,0.2C6.2,11.7,6.2,11.8,6.2,11.8 M6.2,12.1C6.2,12.2,6.2,12.2,6.2,12.1
		c0,0.1-0.1,0.1-0.1,0.1c-0.1,0-0.4-0.2-0.2-0.3c0.1,0.1,0.2,0,0.3,0C6.2,12,6.2,12.1,6.2,12.1 M6.1,10.9c0,0-0.1-0.1-0.1-0.1
		s0-0.4,0-0.4c0,0-0.1,0-0.1,0c0,0.1,0,0.2,0,0.3c-0.2,0.2-0.5,0.3-0.7,0c-0.1-0.1-0.1-0.2-0.1-0.4c0-0.1,0.1-0.3,0.1-0.4
		c0.3-0.4,0.6-0.1,0.7,0c0,0.1,0,0.2,0,0.3c0,0,0.1,0,0.1,0c0,0,0-0.6,0-0.6c0,0-0.1,0-0.1,0c0,0.1,0,0.1-0.1,0.1
		c-0.1,0-0.4-0.1-0.6,0C5.1,9.7,4.8,10,4.8,10.2c0,0.4,0.2,0.5,0.4,0.6c0.2,0.1,0.4,0,0.7,0C6,10.8,6,10.8,6.1,10.9
		C6.1,11,6.1,11,6.1,10.9 M4.8,11.5c-0.2,0.2-0.2,0.6,0,0.8c0.1,0.1,0.2,0.2,0.5,0.1c0-0.1,0.1-0.1,0.2-0.2c-0.2,0-0.3,0-0.4-0.1
		c-0.3-0.2-0.2-0.5-0.1-0.6c0.1-0.2,0.3,0.1,0.4,0.1c0-0.1,0.1-0.1,0.2-0.2c-0.1-0.1-0.1-0.2-0.2-0.3C5.2,11.2,5,11.3,4.8,11.5
		 M5,13.5c-0.1,0.4,0.3,0.7,0.5,0.8c0-0.1,0.2-0.2,0.2-0.4c0.1-0.1,0-0.1-0.1,0c-0.1,0.1-0.4,0-0.4-0.1c0.1-0.1,0.4-0.4,0.6-0.5
		c-0.1-0.1-0.2-0.3-0.3-0.4C5.5,12.9,5,13.1,5,13.5 M5.4,13.1c0,0.1,0.2,0.3,0.2,0.3c-0.1,0.1-0.3,0.2-0.4,0.3
		C5.1,13.5,5,13.3,5.4,13.1 M6.2,12.9C6.1,13,6.1,13.1,6,13.2c0,0.1,0.2,0.2,0.2,0.2c0,0.1,0,0.6,0,0.8c0.1,0,0.1,0,0.2,0
		c0-0.1,0-0.8,0-0.9c0.1,0,0.1-0.1,0.1-0.1c0,0,0.2,0.1,0.2,0.1c0,0.1,0,0.4,0,0.5c0,0.1,0,0.2,0.1,0.4C6.8,14.2,7,14,7,14
		s0-0.1,0,0c-0.1,0-0.1,0-0.1,0c0-0.1,0-0.4,0-0.6c0-0.2-0.1-0.3-0.2-0.3c-0.1,0.1-0.2,0.2-0.3,0.2C6.3,13.1,6.3,13,6.2,12.9
		 M7.2,12.4c0.1-0.1,0.1-0.2,0.2-0.2c0.1,0,0-0.1,0,0c0,0-0.1,0-0.2-0.1c0,0-0.1-0.6-0.1-0.6c0,0,0.3,0,0.4,0c0,0,0-0.1,0-0.1
		s-0.3,0-0.3,0c0,0,0-0.2,0-0.4c0-0.1,0-0.1,0-0.1c0,0.1-0.2,0.4-0.4,0.4c-0.1,0-0.1,0.1,0,0.1c0,0,0.1,0.1,0.1,0.1
		c0,0.3,0,0.6,0,0.7C6.9,12.3,7.1,12.4,7.2,12.4 M8.3,12.5c0,0.1-0.1,0.2-0.2,0.2c0.1,0.1,0.2,0.1,0.2,0.2c0.1-0.1,0.1-0.2,0.2-0.2
		C8.4,12.6,8.3,12.6,8.3,12.5 M7.8,12.2c0.1,0,0.3,0,0.4,0c0.2,0,0.4-0.4,0.3-0.6c-0.1-0.2-0.4-0.2-0.6-0.3c-0.2,0-0.2-0.2-0.1-0.3
		c0.2-0.1,0.5,0.1,0.5,0.1c0,0.1,0.1,0.1,0.1,0c0-0.2,0-0.1,0-0.3c0-0.1-0.1-0.1-0.1,0c0,0.1-0.1,0-0.2,0c-0.1,0-0.2,0-0.4,0.1
		c-0.1,0.1-0.3,0.2-0.2,0.5c0.1,0.1,0.5,0.2,0.6,0.3c0.1,0.1,0.1,0.3,0,0.4c-0.1,0.1-0.5,0-0.6,0c-0.1-0.1-0.1-0.2-0.1-0.2
		c0-0.1-0.1-0.1-0.1,0s0,0.4,0,0.5c0,0.1,0.1,0,0.1,0C7.7,12.2,7.7,12.2,7.8,12.2 M7.3,13.1c-0.1,0.1,0.1,0.2,0.1,0.2
		c0,0.3,0,0.5,0.1,0.7c0.1,0.1,0.2,0.1,0.3,0.1c0-0.1,0.2-0.2,0.2-0.3c0.1,0,0-0.1,0,0c-0.1,0.1-0.2,0-0.2,0c0,0,0-0.4,0-0.4
		c0,0,0.2,0,0.2,0c0,0,0-0.1,0-0.1c0,0-0.2,0-0.2,0c0,0,0-0.3,0-0.4c0-0.1,0-0.1-0.1,0C7.6,12.7,7.4,13.1,7.3,13.1"/>
</g>
</svg>
