<svg width="180" height="40" viewBox="0 0 180 40" fill="none" xmlns="http://www.w3.org/2000/svg">
<mask id="mask0_23_4594" style="mask-type:luminance" maskUnits="userSpaceOnUse" x="0" y="11" width="180" height="18">
<path d="M180 11.9326H0V28.0671H180V11.9326Z" fill="white"/>
</mask>
<g mask="url(#mask0_23_4594)">
<path d="M9.20048 12.3478H8.90536C8.89024 12.6911 8.70767 12.8396 8.36527 12.8396C7.67762 12.8396 6.56529 12.0054 5.38579 12.0054C2.02985 12.0054 0 15.3112 0 18.2235C0 21.1548 1.93241 24.051 5.17201 24.051C7.13753 24.051 7.87433 23.1193 8.3974 23.1193C8.7417 23.1193 8.93845 23.5459 9.00371 23.7899H9.24966V19.7785H9.00371L8.90542 20.3356C8.67558 21.6627 7.44878 23.7569 5.3376 23.7569C3.47045 23.7569 2.75157 22.0051 2.75157 18.0268C2.75157 13.8545 3.73244 12.2986 5.38582 12.2986C7.25202 12.2986 8.64342 14.5403 8.90542 16.2117H9.20054L9.20048 12.3478Z" fill="white"/>
<path d="M18.1268 22.401H17.8364C17.8364 22.8219 17.6586 23.3062 17.2708 23.3062C16.9805 23.3062 16.901 22.9998 16.901 22.4994V18.784C16.901 16.9433 15.172 16.4902 13.5091 16.4902C11.8945 16.4902 10.715 17.2829 10.715 18.1862C10.715 18.7528 11.0375 19.2361 11.764 19.2361C12.3778 19.2361 12.7496 18.8332 12.7496 18.2666C12.7496 17.4929 11.9437 17.5402 11.9257 17.2658C11.9115 16.9102 12.847 16.7825 13.3966 16.7825C14.6063 16.7825 14.769 17.3775 14.769 18.3479V19.7034L13.1856 19.8329C11.7176 19.9464 10.1182 20.3343 10.1182 22.0131C10.1182 23.4188 11.3771 23.9853 12.6209 23.9853C13.25 23.9853 14.3641 23.7412 14.7851 22.9676C15.0755 23.6448 15.6733 23.9853 16.3987 23.9853C17.4487 23.9853 18.1268 23.3544 18.1268 22.401ZM14.769 21.8694C14.7369 22.7254 14.2506 23.4991 13.493 23.4991C12.3948 23.4991 12.3475 22.4994 12.3475 21.6594C12.3475 20.8015 12.443 20.2368 13.493 20.1243L14.769 19.9947V21.8694Z" fill="white"/>
<path d="M18.2178 23.7903H23.0473V23.499H21.5613V19.3779C21.5613 18.135 21.9492 17.2629 22.967 16.8098H23.0313C22.7569 17.1002 22.6435 17.3575 22.6435 17.7614C22.6435 18.3923 23.1117 18.8122 23.7416 18.8122C24.5173 18.8122 24.9693 18.2494 24.9693 17.6337C24.9693 16.8571 24.4519 16.3889 23.6934 16.3889C22.6596 16.3889 21.8679 17.1002 21.5614 17.908H21.5293V16.2603C21.1896 16.6793 19.9951 16.6793 19.333 16.6793H18.2178V16.9687H19.333V23.499H18.2178V23.7903Z" fill="white"/>
<path d="M25.2217 23.7903H29.516V23.499H28.5635V19.0714C28.5635 18.2494 29.3713 17.068 30.2746 17.068C30.7428 17.068 31.229 17.2629 31.229 18.3923V23.499H30.3077V23.7903H34.5698V23.499H33.4556V18.991C33.4556 17.2459 32.713 16.4863 31.1788 16.4863C30.0986 16.4863 29.0317 17.051 28.5957 17.9874H28.5634V16.2603C28.2239 16.6793 27.0312 16.6793 26.3681 16.6793H25.2217V16.9687H26.336V23.499H25.2217V23.7903Z" fill="white"/>
<path d="M36.9223 19.883H41.3802C41.3641 18.1388 39.7486 16.4599 38.0526 16.4901C36.1486 16.4901 34.499 18.1388 34.499 20.3181C34.499 22.4179 36.0332 23.9852 38.1017 23.9852C40.0881 23.9852 41.0737 22.7565 41.4285 21.1571H41.1381C40.7834 22.66 39.846 23.5964 38.5861 23.5964C37.0841 23.5964 36.9223 22.3365 36.9223 21.2394V19.883ZM36.9223 19.5907V18.2031C36.9223 17.1201 37.3915 16.7824 37.9401 16.7824C38.7138 16.7824 38.9578 17.314 38.9578 18.2031V19.5907H36.9223Z" fill="white"/>
<path d="M49.3998 17.2183C49.3998 16.6517 48.7869 16.3623 48.3016 16.3623C47.7701 16.3623 47.3662 16.7179 47.0579 17.0726C46.5886 16.734 45.9445 16.49 45.0402 16.49C43.6839 16.49 42.2291 17.3782 42.2291 18.849C42.2291 19.7362 42.7144 20.4305 43.5704 20.8183V20.8494C42.9404 20.9298 41.9548 21.3668 41.9548 22.7072C41.9548 23.513 42.3265 24.1278 43.0048 24.3227V24.3538C42.3587 24.5298 41.6162 25.1758 41.6162 25.9514C41.6162 27.1461 43.0218 28.0673 44.8143 28.0673C47.0579 28.0673 48.5286 26.5492 48.5286 24.5799C48.5286 23.0126 47.7531 22.3032 46.1706 22.3354H43.4891C43.0853 22.3354 42.5366 22.3192 42.5366 21.8842C42.5366 21.4794 43.2318 21.0443 43.8447 21.0443C44.0226 21.0443 44.1994 21.0924 44.3782 21.1397C44.5711 21.205 44.7811 21.2382 45.0402 21.2382C46.4288 21.2382 47.9138 20.4455 47.9138 18.9123C47.9138 18.3958 47.6726 17.6703 47.2205 17.2825C47.5108 16.9922 47.6565 16.6356 48.2865 16.5561V16.5883C47.947 16.7652 47.8505 16.9751 47.8505 17.2996C47.8505 17.6703 48.1087 18.0421 48.592 18.0421C49.1104 18.0421 49.3998 17.6534 49.3998 17.2183ZM43.2639 24.3699H45.7989C47.4134 24.3699 47.947 24.5146 47.947 25.5002C47.947 26.6788 46.4941 27.776 44.8625 27.776C43.4086 27.776 42.6189 26.7914 42.5848 26.0177C42.5848 25.3063 42.827 24.8381 43.2639 24.3699ZM46.0741 18.8489C46.057 20.8343 45.6371 20.9468 45.0564 20.9468C44.4103 20.9468 44.0708 20.7368 44.0708 18.7988C44.0708 17.4925 44.2164 16.7822 45.0564 16.7822C45.8149 16.7822 46.0571 16.9922 46.0741 18.8489Z" fill="white"/>
<path d="M49.6523 23.7903H54.1131V23.499H52.9979V16.2603C52.6583 16.6793 51.4618 16.6793 50.8006 16.6793H49.6523V16.9687H50.7666V23.499H49.6523V23.7903Z" fill="white"/>
<path d="M50.7295 14.1809C50.7295 14.8212 51.2412 15.3348 51.8825 15.3348C52.5237 15.3348 53.0355 14.8212 53.0355 14.1809C53.0355 13.5405 52.5237 13.0288 51.8825 13.0288C51.2412 13.0288 50.7295 13.5405 50.7295 14.1809Z" fill="white"/>
<path d="M56.5356 19.883H60.9916C60.9773 18.1388 59.361 16.4599 57.665 16.4901C55.76 16.4901 54.1113 18.1388 54.1113 20.3181C54.1113 22.4179 55.6484 23.9852 57.7132 23.9852C59.7005 23.9852 60.687 22.7565 61.0408 21.1571H60.7505C60.3957 22.66 59.4593 23.5964 58.1985 23.5964C56.6974 23.5964 56.5356 22.3365 56.5356 21.2394V19.883ZM56.5356 19.5907V18.2031C56.5356 17.1201 57.0038 16.7824 57.5533 16.7824C58.3281 16.7824 58.5702 17.314 58.5702 18.2031V19.5907H56.5356Z" fill="white"/>
<path d="M63.8194 23.7899H66.9511V23.4995H66.7251C65.853 23.4995 65.5144 23.2734 65.5144 21.9653V12.8121H65.5475L69.4047 23.7899H69.8417L73.6025 13.006H73.6346V23.4995H72.2451V23.7899H77.3633V23.4995H76.1526V12.7147H77.3633V12.4243H73.4729L70.744 20.223H70.712L68.0322 12.4243H63.8998V12.7147H65.1256V22.1119C65.1256 22.8062 64.9648 23.4995 63.8837 23.4995H63.8193L63.8194 23.7899Z" fill="white"/>
<path d="M79.6245 19.883H84.0814C84.0663 18.1388 82.4507 16.4599 80.7548 16.4901C78.8498 16.4901 77.2012 18.1388 77.2012 20.3181C77.2012 22.4179 78.7363 23.9852 80.8049 23.9852C82.7893 23.9852 83.7768 22.7565 84.1306 21.1571H83.8402C83.4865 22.66 82.549 23.5964 81.2882 23.5964C79.7852 23.5964 79.6245 22.3365 79.6245 21.2394V19.883ZM79.6245 19.5907V18.2031C79.6245 17.1201 80.0927 16.7824 80.6423 16.7824C81.4178 16.7824 81.6599 17.314 81.6599 18.2031V19.5907H79.6245Z" fill="white"/>
<path d="M84.124 23.7901H88.5848V23.4996H87.4696V11.9326C87.1783 12.4169 86.2892 12.4169 85.1418 12.4169H84.124V12.7082H85.2401V23.4996H84.124V23.7901Z" fill="white"/>
<path d="M88.8672 23.7901H93.328V23.4996H92.2137V11.9326C91.9214 12.4169 91.0333 12.4169 89.886 12.4169H88.8672V12.7082H89.9815V23.4996H88.8672V23.7901Z" fill="white"/>
<path d="M100.832 20.2368C100.832 18.0254 99.1205 16.4902 96.9885 16.4902C94.8575 16.4902 93.1445 18.0254 93.1445 20.2368C93.1445 22.4502 94.8575 23.9853 96.9885 23.9853C99.1205 23.9853 100.832 22.4502 100.832 20.2368ZM98.3118 21.981C98.3118 23.1936 97.8123 23.693 96.9885 23.693C96.1656 23.693 95.6643 23.1936 95.6643 21.981V18.4926C95.6643 17.2829 96.1656 16.7825 96.9885 16.7825C97.8123 16.7825 98.3118 17.2829 98.3118 18.4926V21.981Z" fill="white"/>
<path d="M100.841 23.7903H105.137V23.499H104.185V19.0714C104.185 18.2494 104.992 17.068 105.897 17.068C106.364 17.068 106.85 17.2629 106.85 18.3923V23.499H105.927V23.7903H110.192V23.499H109.076V18.991C109.076 17.2459 108.334 16.4863 106.8 16.4863C105.719 16.4863 104.654 17.051 104.216 17.9874H104.185V16.2603C103.847 16.6793 102.651 16.6793 101.988 16.6793H100.842V16.9687H101.956V23.499H100.842L100.841 23.7903Z" fill="white"/>
<path d="M112.44 12.7147H113.7V20.0291C113.7 22.5309 115.425 24.0491 118.058 24.0491C121.029 24.0491 122.32 22.4818 122.32 20.1076V14.0711C122.32 13.1347 122.578 12.7147 123.16 12.7147H123.579V12.4243H120.384V12.7147H120.852C121.675 12.7147 121.934 13.1347 121.934 14.0711V20.2069C121.934 22.4004 120.609 23.4664 119.042 23.4664C116.685 23.4664 116.218 21.8849 116.218 19.8191V12.7147H117.525V12.4243H112.44V12.7147Z" fill="white"/>
<path d="M122.951 23.7903H127.246V23.499H126.294V19.0714C126.294 18.2494 127.099 17.068 128.003 17.068C128.473 17.068 128.957 17.2629 128.957 18.3923V23.499H128.038V23.7903H132.3V23.499H131.187V18.991C131.187 17.2459 130.443 16.4863 128.91 16.4863C127.829 16.4863 126.762 17.051 126.326 17.9874H126.294V16.2603C125.954 16.6793 124.76 16.6793 124.096 16.6793H122.951V16.9687H124.063V23.499H122.951V23.7903Z" fill="white"/>
<path d="M132.535 23.7903H136.996V23.499H135.882V16.2603C135.541 16.6793 134.347 16.6793 133.683 16.6793H132.535V16.9687H133.652V23.499H132.535V23.7903Z" fill="white"/>
<path d="M133.612 14.1809C133.612 14.8212 134.127 15.3348 134.768 15.3348C135.407 15.3348 135.919 14.8212 135.919 14.1809C135.919 13.5405 135.407 13.0288 134.768 13.0288C134.127 13.0288 133.612 13.5405 133.612 14.1809Z" fill="white"/>
<path d="M140.268 23.9847H140.705L143.094 18.3313C143.498 17.427 143.836 16.991 144.208 16.9749H144.354V16.6836H141.835V16.9749H142.143C142.611 16.9749 142.885 17.1518 142.885 17.5718C142.885 17.8319 142.804 18.1856 142.611 18.6378L141.512 21.2219L139.623 16.9749H140.592V16.6836H136.539V16.9749H137.233L140.268 23.9847Z" fill="white"/>
<path d="M146.125 19.883H150.582C150.567 18.1388 148.952 16.4599 147.257 16.4901C145.35 16.4901 143.702 18.1388 143.702 20.3181C143.702 22.4179 145.238 23.9852 147.306 23.9852C149.292 23.9852 150.276 22.7565 150.632 21.1571H150.343C149.986 22.66 149.051 23.5964 147.79 23.5964C146.288 23.5964 146.236 22.3365 146.236 21.2394L146.125 19.883ZM146.125 19.5907V18.2031C146.125 17.1201 146.594 16.7824 147.144 16.7824C147.918 16.7824 148.159 17.314 148.159 18.2031V19.5907H146.125Z" fill="white"/>
<path d="M150.621 23.7903H155.449V23.499H153.965V19.3779C153.965 18.135 154.352 17.2629 155.37 16.8098H155.434C155.16 17.1002 155.047 17.3575 155.047 17.7614C155.047 18.3923 155.514 18.8122 156.145 18.8122C156.921 18.8122 157.372 18.2494 157.372 17.6337C157.372 16.8571 156.856 16.3889 156.096 16.3889C155.063 16.3889 154.271 17.1002 153.965 17.908H153.933V16.2603C153.593 16.6793 152.398 16.6793 151.736 16.6793H150.621V16.9687H151.736V23.499H150.621V23.7903Z" fill="white"/>
<path d="M157.723 23.9853H158.014C158.096 23.7252 158.354 23.5965 158.677 23.5965C159.096 23.5965 159.596 23.9853 160.502 23.9853C162.037 23.9853 163.085 22.6601 163.085 21.3359C163.085 19.3657 161.73 19.22 160.001 18.9779C159.096 18.8483 158.531 18.7026 158.531 17.9913C158.531 17.2328 159.194 16.7825 160.065 16.7825C161.276 16.7825 161.924 17.7341 162.328 18.784H162.585L162.488 16.4902H162.245C162.245 16.6841 162.054 16.8459 161.745 16.8459C161.228 16.8459 160.808 16.4902 160.065 16.4902C158.451 16.4902 157.66 17.8646 157.66 18.8975C157.66 20.9812 159.241 21.1572 160.469 21.3028C161.633 21.4494 162.117 21.561 162.117 22.3045C162.117 23.1614 161.407 23.693 160.534 23.693C159.307 23.693 158.306 22.4502 158.014 21.2716H157.723V23.9853Z" fill="white"/>
<path d="M163.371 23.7903H167.83V23.499H166.717V16.2603C166.377 16.6793 165.182 16.6793 164.52 16.6793H163.371V16.9687H164.487V23.499H163.371V23.7903Z" fill="white"/>
<path d="M164.45 14.1809C164.45 14.8212 164.96 15.3348 165.602 15.3348C166.244 15.3348 166.755 14.8212 166.755 14.1809C166.755 13.5405 166.244 13.0288 165.602 13.0288C164.96 13.0288 164.45 13.5405 164.45 14.1809Z" fill="white"/>
<path d="M168.47 16.9761V22.1433C168.47 23.6776 169.794 23.985 170.246 23.985C171.232 23.985 171.894 23.5811 172.395 22.7412L172.186 22.6277C171.992 22.918 171.732 23.3068 171.328 23.3068C170.91 23.3068 170.699 22.9994 170.699 22.4678V16.9761H172.186V16.6867H170.699V13.2144H170.409C170.409 14.9264 169.245 16.6867 167.613 16.6867V16.9761H168.47Z" fill="white"/>
<path d="M172.133 16.9749H172.809L175.909 24.1587L175.813 24.8039C175.749 25.273 175.425 27.1147 174.893 27.2745V27.2272C174.956 27.0002 174.973 26.8242 174.973 26.6785C174.973 26.1291 174.587 25.7091 173.907 25.7091C173.198 25.7091 172.843 26.1943 172.843 26.8072C172.843 27.4693 173.457 27.9384 174.165 27.9384C175.442 27.9384 175.765 26.532 175.909 25.8548L176.346 23.8855L177.186 21.7866L178.784 18.1847C179.14 17.3637 179.462 16.9749 179.818 16.9749H179.947V16.6836H177.429V16.9749H177.768C178.283 16.9749 178.511 17.2662 178.511 17.5405C178.511 17.8612 178.299 18.3956 178.042 19.0085L177.106 21.2209L175.217 16.9749H176.282V16.6836H172.133V16.9749Z" fill="white"/>
</g>
</svg>
