<svg width="176" height="40" viewBox="0 0 176 40" fill="none" xmlns="http://www.w3.org/2000/svg">
<path d="M27.5693 22.5292H28.5469V16.6637L27.6138 16.797V15.7305C28.2802 15.5528 28.8135 15.1973 29.3468 14.7529H30.2353V22.5737H31.2129V23.9067H27.6138V22.5292H27.5693V22.5292Z" fill="white"/>
<path d="M34.7233 20.0852C35.3899 20.7072 35.7453 21.1961 35.7453 21.7737C35.7453 22.3512 35.3899 22.7512 34.9011 22.7512C34.4122 22.7512 34.1456 22.3958 34.1456 21.6849C34.1899 21.1516 34.3678 20.574 34.7233 20.0852ZM35.1675 18.0856C34.6788 17.5524 34.4566 17.1524 34.4566 16.6636C34.4566 16.1304 34.7678 15.775 35.0342 15.775C35.4342 15.775 35.7008 16.1304 35.7008 16.7081C35.7008 17.1969 35.5232 17.6412 35.1675 18.0856ZM34.0567 19.3298C33.1681 20.0407 32.7236 20.7518 32.7236 21.6849C32.7236 23.0624 33.6123 23.9955 34.9454 23.9955C36.3229 23.9955 37.2559 23.1069 37.2559 21.5515C37.2559 20.5295 36.8117 19.6852 35.9674 18.841C36.7228 18.1301 37.0783 17.4635 37.0783 16.5748C37.0783 15.375 36.2784 14.5308 35.0342 14.5308C33.8789 14.5308 32.9902 15.4639 32.9902 16.8414C32.9903 17.7745 33.3457 18.6188 34.0567 19.3298Z" fill="white"/>
<path d="M39.5231 19.2409C39.5231 18.8854 39.5231 18.5743 39.5231 18.3078C39.5231 16.5748 39.5676 15.8194 40.0564 15.8194C40.5894 15.8194 40.5894 16.5748 40.5894 18.3078C40.5894 18.5743 40.5894 18.8854 40.5894 19.2409C40.5894 19.5964 40.5894 19.9074 40.5894 20.2185C40.5894 21.907 40.5452 22.7069 40.0564 22.7069C39.5676 22.7069 39.5231 21.907 39.5231 20.2185C39.5231 19.9074 39.5231 19.5964 39.5231 19.2409ZM37.79 19.2854C37.79 22.4403 38.5009 24.04 40.0563 24.04C41.5226 24.04 42.3224 22.4403 42.3224 19.2854C42.3224 16.1304 41.5672 14.5752 40.0118 14.5752C38.59 14.5752 37.79 16.1304 37.79 19.2854Z" fill="white"/>
<path d="M44.8541 19.2409C44.8541 18.8854 44.8541 18.5743 44.8541 18.3078C44.8541 16.5748 44.8986 15.8194 45.3874 15.8194C45.8763 15.8194 45.9206 16.5748 45.9206 18.3078C45.9206 18.5743 45.9206 18.8854 45.9206 19.2409C45.9206 19.5964 45.9206 19.9074 45.9206 20.2185C45.9206 21.907 45.8763 22.7069 45.3874 22.7069C44.8986 22.7069 44.8541 21.907 44.8541 20.2185C44.8541 19.9074 44.8541 19.5964 44.8541 19.2409ZM43.1211 19.2854C43.1211 22.4403 43.8766 24.04 45.4317 24.04C46.8981 24.04 47.6979 22.4403 47.6979 19.2854C47.6979 16.1304 46.9426 14.5752 45.3874 14.5752C43.9209 14.5752 43.1211 16.1304 43.1211 19.2854Z" fill="white"/>
<path d="M32.4102 19.3301C32.4102 19.7301 32.0548 20.0855 31.6548 20.0855C31.2549 20.0855 30.8994 19.7301 30.8994 19.3301C30.8994 18.9302 31.2549 18.5747 31.6548 18.5747C32.0991 18.5746 32.4102 18.9301 32.4102 19.3301Z" fill="white"/>
<path d="M21.5243 14.9754C20.7244 16.9305 19.4802 18.6635 17.3917 19.4633C16.8586 19.5966 16.2809 19.6411 15.7478 19.4633C14.7702 16.3529 15.9698 12.8425 17.925 10.3097C19.3025 8.3546 21.4797 7.06595 23.8793 6.08838C21.702 8.57669 22.8573 12.0871 21.5243 14.9754Z" fill="white"/>
<path d="M19.6571 7.06551C16.3689 9.68712 13.3917 14.3084 14.5914 18.7519C12.6364 18.2632 11.3921 16.308 10.9478 14.3529C10.5922 12.3533 11.0366 10.1759 12.5475 8.75405C14.2805 7.02114 16.2356 4.93265 16.0134 2.2666C17.9685 2.97745 19.0794 5.11031 19.6571 7.06551Z" fill="white"/>
<path d="M18.5034 27.6389H17.3037V25.5952H18.5034V23.7732C18.5034 21.6847 19.4366 20.9736 20.9918 20.9736C21.4362 20.9736 21.836 21.0183 22.2805 21.0626V23.1954C22.1472 23.1954 21.9693 23.1954 21.836 23.1954C21.1696 23.1954 20.9475 23.4621 20.9475 24.1286V25.6394H22.3248V27.6836H20.9475V37.3259H18.5924V27.6389H18.5034Z" fill="white"/>
<path d="M23.1689 21.2852H25.524V37.3262H23.1689V21.2852Z" fill="white"/>
<path d="M30.501 25.2844C33.3449 25.2399 34.1448 27.3728 34.1448 31.4609C34.1448 35.4599 33.2116 37.6373 30.501 37.6373C27.6572 37.6816 26.8574 35.5489 26.8574 31.4609C26.8574 27.4615 27.7905 25.2844 30.501 25.2844ZM30.501 35.5932C31.4786 35.5932 31.7898 34.3935 31.7898 31.4609C31.7898 28.5282 31.4786 27.3283 30.501 27.3283C29.3459 27.3283 29.2125 29.0613 29.2125 31.4609C29.2569 33.8602 29.3459 35.5932 30.501 35.5932Z" fill="white"/>
<path d="M34.4102 25.5952H36.7652L37.8316 33.9047H37.8761L39.0313 25.5952H41.6084L42.8082 33.9047H42.8527L43.9635 25.5952H46.2298L44.2302 37.2818H41.5642L40.3642 28.9724H40.32L39.1646 37.2818H36.4096L34.4102 25.5952Z" fill="white"/>
<path d="M48.7195 31.9049V32.8382C48.7195 34.2155 49.0303 35.5487 49.8746 35.5487C50.6745 35.5487 50.9855 34.7933 51.1188 33.3713H53.2518C53.1629 36.0818 52.1409 37.5927 49.9191 37.5927C46.4977 37.5927 46.3643 34.2601 46.3643 31.3274C46.3643 28.1723 46.853 25.2842 50.0524 25.2842C52.8072 25.2842 53.4295 27.6393 53.4295 31.2384V31.9049H48.7195ZM51.1634 30.1274C51.1189 28.3501 50.9412 27.328 49.9636 27.328C49.0304 27.328 48.7638 28.5723 48.7638 29.6388V30.0831H51.1634V30.1274Z" fill="white"/>
<path d="M54.3184 25.5951H56.5846V27.1504H56.6291C57.1179 26.0396 57.7844 25.2842 58.7619 25.2842C58.8952 25.2842 59.073 25.3286 59.2064 25.3286V28.2168C58.9842 28.2168 58.7175 28.1723 58.4509 28.1723C57.6066 28.1723 56.7179 28.7056 56.7179 30.3052V37.326H54.3629V25.5951H54.3184Z" fill="white"/>
<path d="M61.7378 33.5046V33.9046C61.7378 34.9267 62.1823 35.5931 62.982 35.5931C63.693 35.5931 64.1817 35.1488 64.1817 34.2156C64.1817 33.4603 63.782 33.1047 63.3375 32.8826L61.6933 32.1271C60.4047 31.5495 59.7382 30.5274 59.7382 28.8833C59.7382 26.9281 60.7157 25.373 63.1152 25.373C65.2482 25.373 66.2702 26.5729 66.2702 28.7056V29.1944H64.1373C64.1373 28.039 63.8707 27.4171 63.0707 27.4171C62.4489 27.4171 61.9599 27.8614 61.9599 28.6613C61.9599 29.2389 62.1822 29.6831 62.982 30.0386L64.404 30.6607C65.9147 31.2828 66.448 32.2604 66.448 33.9934C66.448 36.4372 65.0261 37.6814 63.0265 37.6814C60.3602 37.6814 59.6494 36.215 59.6494 33.949V33.549H61.7378V33.5046Z" fill="white"/>
<path d="M66.7588 36.6593C66.7588 36.437 66.8477 36.2593 66.9809 36.0815C67.1142 35.9481 67.3364 35.8594 67.514 35.8594C67.7363 35.8594 67.914 35.9482 68.0918 36.0815C68.2252 36.2148 68.314 36.4369 68.314 36.6593C68.314 36.8814 68.2252 37.059 68.0918 37.1924C67.9585 37.3257 67.7807 37.4147 67.514 37.4147C67.2919 37.4147 67.1142 37.3256 66.9809 37.1924C66.8032 37.059 66.7588 36.8814 66.7588 36.6593Z" fill="white"/>
<path d="M70.2246 37.3697C69.3361 37.3697 68.8916 36.6588 68.8916 35.2813C68.8916 33.7704 69.4249 32.9707 70.2246 32.9707C70.9801 32.9707 71.3801 33.5038 71.3801 34.4814C71.3801 34.5259 71.3801 34.5704 71.3801 34.6147H70.5358C70.5358 34.5259 70.5358 34.4814 70.5358 34.4371C70.5358 33.9483 70.4469 33.726 70.2691 33.726C70.0025 33.726 70.0025 34.1259 70.0025 34.8813C70.0025 35.9922 70.047 36.5255 70.3136 36.5255C70.5358 36.5255 70.6691 36.2589 70.6691 35.6812V35.6367L71.4688 35.6812C71.4688 36.7921 70.9801 37.3697 70.2246 37.3697Z" fill="white"/>
<path d="M73.2457 33.7705C73.5566 33.7705 73.6456 34.2148 73.6456 35.1925C73.6456 36.1256 73.5566 36.6143 73.2457 36.6143C72.979 36.6143 72.8902 36.17 72.8902 35.1925C72.8902 34.2148 72.979 33.7705 73.2457 33.7705ZM71.8682 35.1925C71.8682 36.6589 72.3569 37.4143 73.2902 37.4143C74.1787 37.4143 74.7119 36.6589 74.7119 35.1925C74.7119 33.726 74.2232 32.9707 73.2902 32.9707C72.3125 32.9708 71.8682 33.726 71.8682 35.1925Z" fill="white"/>
<path d="M75.2018 33.0596H76.1794V33.4151C76.4461 33.1039 76.7127 32.9263 76.9793 32.9263C77.2903 32.9263 77.5124 33.1039 77.6457 33.4151C77.9123 33.1039 78.179 32.9263 78.49 32.9263C78.9344 32.9263 79.1566 33.193 79.1566 33.726V37.192H78.179V33.9927C78.179 33.815 78.0901 33.726 77.9568 33.726C77.8236 33.726 77.7347 33.815 77.6457 33.9483V37.192H76.6681V33.9927C76.6681 33.815 76.5793 33.726 76.446 33.726C76.3127 33.726 76.2238 33.815 76.1348 33.9483V37.192H75.1572V33.0596H75.2018Z" fill="white"/>
<path d="M14.77 19.7298C14.6367 19.6853 14.5033 19.7742 14.4588 19.9075C13.3925 22.1294 12.4149 24.4845 11.7928 26.8839C11.0819 24.4844 10.1043 22.1294 8.94895 19.952C6.63836 15.6418 4.19429 11.376 0.461878 8.6655C0.328582 8.57657 0.150727 8.57657 0.0619268 8.70987C-0.026937 8.84317 -0.026937 9.06532 0.106423 9.19868C3.43907 12.3092 5.12755 17.0193 7.30478 21.1517C9.03775 25.9064 10.6819 30.9275 10.1486 36.1709C10.2374 37.1485 10.9929 37.8149 11.7928 37.7261C12.1482 37.6816 12.4149 37.504 12.6371 37.2373C12.8592 36.9707 13.037 36.6152 13.0813 36.2152C12.7259 34.4379 12.5926 32.6605 12.6816 30.9275C12.7259 29.3723 12.948 27.7724 13.348 26.2618C13.8813 24.2179 14.6367 22.1738 14.9033 20.0408C14.9476 19.9075 14.9033 19.7742 14.77 19.7298Z" fill="white"/>
<path d="M80 33.3716C80 33.5937 79.8223 33.727 79.6445 33.727C79.4224 33.727 79.2891 33.5494 79.2891 33.3716C79.2891 33.194 79.4667 33.0161 79.6445 33.0161C79.8223 33.0161 80 33.1495 80 33.3716ZM79.3778 33.3716C79.3778 33.5494 79.5112 33.6382 79.6445 33.6382C79.7778 33.6382 79.9111 33.5049 79.9111 33.3716C79.9111 33.194 79.7778 33.1049 79.6445 33.1049C79.4667 33.0606 79.3778 33.194 79.3778 33.3716ZM79.6 33.5494H79.5112V33.194C79.5557 33.194 79.6 33.194 79.6444 33.194C79.7332 33.194 79.7332 33.194 79.7777 33.2382C79.7777 33.2382 79.8222 33.2827 79.8222 33.3273C79.8222 33.3716 79.7777 33.4161 79.7332 33.4161C79.7777 33.4161 79.7777 33.4606 79.7777 33.5049C79.7777 33.5494 79.7777 33.5938 79.8222 33.5938H79.7331C79.7331 33.5938 79.7331 33.5495 79.6889 33.5049C79.6889 33.4606 79.6444 33.4606 79.5998 33.4606H79.5556V33.5495H79.6V33.5494ZM79.6 33.3273C79.689 33.3273 79.7333 33.3273 79.7333 33.2828C79.7333 33.2383 79.689 33.2383 79.6444 33.2383H79.6V33.3273Z" fill="white"/>
<path fill-rule="evenodd" clip-rule="evenodd" d="M154.773 29.24C154.981 29.3208 155.162 29.4575 155.297 29.635C155.418 29.806 155.48 30.0117 155.474 30.2211C155.48 30.3677 155.456 30.514 155.402 30.6505C155.348 30.787 155.266 30.9106 155.161 31.0134C154.949 31.1922 154.685 31.2972 154.408 31.3126C154.131 31.3281 153.857 31.2531 153.627 31.099C153.431 30.9462 153.295 30.7297 153.242 30.4871L153.627 30.2972C153.662 30.4823 153.751 30.6528 153.883 30.7872C154.005 30.8994 154.167 30.9592 154.332 30.9536C154.522 30.9621 154.707 30.8965 154.848 30.7708C154.913 30.7097 154.964 30.6354 154.998 30.5529C155.032 30.4705 155.048 30.3817 155.045 30.2925C155.048 30.1423 155 29.9955 154.908 29.8765C154.796 29.7443 154.654 29.642 154.493 29.5787L154.059 29.3935C153.852 29.3163 153.669 29.1842 153.531 29.0114C153.412 28.849 153.351 28.6521 153.356 28.4512C153.354 28.3322 153.378 28.2142 153.426 28.1057C153.475 27.9973 153.548 27.9011 153.639 27.8241C153.839 27.6543 154.096 27.5657 154.359 27.5756C154.553 27.5707 154.745 27.6176 154.915 27.7116C155.075 27.8059 155.202 27.9459 155.282 28.1136L154.93 28.3375C154.865 28.2158 154.773 28.1104 154.662 28.0292C154.563 27.9622 154.446 27.9271 154.327 27.9284C154.255 27.9254 154.184 27.9369 154.116 27.962C154.049 27.9872 153.988 28.0256 153.936 28.0749C153.886 28.1226 153.847 28.1804 153.82 28.2444C153.794 28.3084 153.782 28.3773 153.784 28.4465C153.782 28.5668 153.823 28.6838 153.901 28.7758C154.002 28.8838 154.126 28.9676 154.264 29.0208L154.773 29.24ZM148.326 28.014V29.206H148.65C148.981 29.206 149.202 29.1634 149.315 29.0782C149.426 28.9939 149.482 28.8438 149.482 28.6317C149.482 28.4195 149.425 28.2425 149.31 28.1511C149.195 28.0597 148.975 28.014 148.65 28.014H148.326ZM147.913 31.2197V27.6565H148.751C148.927 27.6509 149.103 27.6643 149.276 27.6963C149.382 27.7212 149.482 27.7679 149.569 27.8335C149.678 27.9216 149.763 28.0362 149.815 28.1663C149.874 28.3126 149.904 28.4692 149.902 28.627C149.911 28.7489 149.893 28.8712 149.851 28.986C149.809 29.1007 149.743 29.2053 149.658 29.2927C149.495 29.4443 149.256 29.5201 148.941 29.5201H148.868L150.229 31.2197H149.688L148.389 29.5201H148.328V31.2197H147.913ZM142.421 31.2197V27.6565H144.297V28.0433H142.846V29.0653H144.297V29.4592H142.846V30.8247H144.297V31.2197H142.421ZM135.664 31.2197V27.5146L138.271 30.3629V27.6565H138.675V31.358L136.069 28.5449V31.2197H135.664ZM130.867 31.2197V28.055H129.859V27.6565H132.298V28.0597H131.295V31.2244L130.867 31.2197ZM125.095 28.014V29.206H125.426C125.756 29.206 125.978 29.1634 126.09 29.0782C126.202 28.9939 126.258 28.8438 126.258 28.6317C126.258 28.4195 126.201 28.2425 126.086 28.1511C125.971 28.0597 125.75 28.014 125.426 28.014H125.095ZM124.682 31.2197V27.6565H125.518C125.694 27.6509 125.87 27.6643 126.044 27.6963C126.15 27.7212 126.249 27.7679 126.337 27.8335C126.446 27.9216 126.53 28.0362 126.583 28.1663C126.642 28.3126 126.671 28.4692 126.669 28.627C126.678 28.7489 126.661 28.8712 126.619 28.986C126.577 29.1007 126.511 29.2053 126.426 29.2927C126.262 29.4443 126.023 29.5201 125.708 29.5201H125.633L126.994 31.2197H126.457L125.157 29.5201H125.096V31.2197H124.682ZM119.8 27.5146L121.421 31.2197H120.96L120.503 30.1261H119.106L118.643 31.2197H118.183L119.8 27.5146ZM119.8 28.4523L119.232 29.7639H120.367L119.8 28.4523ZM113.939 29.2353H114.154C114.517 29.2353 114.762 29.1927 114.887 29.1075C115.013 29.0232 115.076 28.8731 115.076 28.661C115.076 28.4488 115.012 28.2742 114.883 28.1816C114.754 28.089 114.51 28.0433 114.154 28.0433H113.939V29.2353ZM113.939 29.6209V31.2197H113.525V27.6565H114.273C114.466 27.6507 114.66 27.6645 114.85 27.6975C114.965 27.7213 115.074 27.7675 115.171 27.8335C115.288 27.9186 115.38 28.0341 115.437 28.1675C115.5 28.3157 115.533 28.4752 115.533 28.6364C115.533 28.7975 115.5 28.957 115.437 29.1052C115.38 29.2384 115.288 29.3538 115.171 29.4393C115.075 29.5063 114.966 29.5533 114.851 29.5776C114.66 29.6113 114.467 29.6254 114.273 29.6198L113.939 29.6209Z" fill="white"/>
<path fill-rule="evenodd" clip-rule="evenodd" d="M102.776 9.11475V9.40074H100.882V23.3688H102.776V23.6548H96V23.3688H97.8941V9.40074H96V9.11475H102.776Z" fill="white"/>
<path fill-rule="evenodd" clip-rule="evenodd" d="M106.177 9.1123L112.946 18.8396H112.987V9.3983H111.117V9.1123H115.181V9.3983H113.312V23.6629H112.763L103.616 10.5634H103.575V23.3769H105.445V23.6629H101.38V23.3769H103.251V9.3983H101.38V9.1123H106.177Z" fill="white"/>
<path fill-rule="evenodd" clip-rule="evenodd" d="M115.727 19.2054C115.755 19.3734 115.803 19.593 115.872 19.8641C115.95 20.1635 116.051 20.4565 116.173 20.7409C116.314 21.073 116.48 21.3939 116.67 21.7008C116.876 22.0337 117.123 22.3389 117.406 22.6092C117.679 22.8937 117.989 23.1394 118.329 23.3394C118.597 23.4945 118.883 23.6172 119.18 23.7051C119.429 23.7782 119.687 23.8204 119.946 23.8305C120.188 23.8376 120.415 23.8411 120.62 23.8411C121.353 23.8411 121.954 23.7262 122.424 23.4965C122.851 23.2993 123.23 23.0104 123.533 22.6502C123.79 22.3391 123.984 21.9808 124.104 21.5953C124.205 21.2814 124.26 20.9545 124.269 20.6248C124.286 20.1722 124.157 19.7261 123.902 19.3519C123.646 19.0061 123.317 18.7211 122.937 18.5174C122.503 18.2809 122.044 18.0919 121.57 17.9536L119.993 17.4847C119.458 17.3264 118.932 17.1381 118.418 16.9209C117.922 16.7149 117.46 16.4334 117.05 16.0864C116.643 15.7383 116.314 15.3076 116.085 14.8229C115.843 14.3228 115.722 13.6976 115.722 12.9475C115.722 12.3903 115.85 11.8407 116.096 11.3405C116.348 10.8211 116.7 10.3563 117.132 9.97268C117.601 9.55908 118.14 9.23242 118.724 9.00804C119.361 8.75989 120.04 8.63577 120.725 8.64234C121.129 8.63889 121.533 8.68295 121.927 8.77361C122.272 8.85683 122.576 8.94357 122.839 9.035C123.102 9.12642 123.332 9.21198 123.533 9.2952C123.706 9.37308 123.893 9.41571 124.083 9.42062C124.276 9.42062 124.404 9.38897 124.466 9.32685C124.552 9.22488 124.619 9.10813 124.664 8.98225H124.996V12.9487H124.723C124.556 12.4626 124.38 11.9825 124.193 11.5081C124.015 11.0476 123.774 10.6137 123.478 10.2188C123.184 9.83232 122.808 9.51504 122.378 9.28934C121.935 9.05492 121.375 8.93771 120.699 8.93771C120.202 8.93047 119.707 9.00979 119.237 9.17213C118.847 9.30708 118.485 9.51248 118.169 9.77811C117.894 10.009 117.669 10.2928 117.506 10.6127C117.356 10.9026 117.275 11.2238 117.271 11.5503C117.258 11.9867 117.397 12.4141 117.665 12.7588C117.943 13.096 118.285 13.3748 118.671 13.5793C119.123 13.8251 119.599 14.0246 120.092 14.1747C120.624 14.3419 121.171 14.5158 121.733 14.6963C122.294 14.8768 122.841 15.0753 123.373 15.2917C123.885 15.4941 124.363 15.7705 124.794 16.1122C125.205 16.4474 125.545 16.8615 125.794 17.33C126.049 17.7989 126.177 18.3849 126.177 19.0882C126.18 19.7575 126.038 20.4195 125.762 21.0292C125.487 21.6403 125.088 22.1878 124.59 22.6373C124.061 23.1103 123.45 23.4818 122.786 23.7333C122.041 24.0126 121.25 24.1505 120.454 24.14C120.026 24.1386 119.599 24.0954 119.18 24.011C118.758 23.9274 118.363 23.8403 117.997 23.7497C117.631 23.659 117.306 23.5723 117.023 23.4895C116.818 23.4201 116.606 23.378 116.39 23.364C116.246 23.352 116.101 23.3847 115.976 23.4578C115.866 23.5635 115.787 23.6972 115.748 23.8446H115.416V19.2054H115.727Z" fill="white"/>
<path fill-rule="evenodd" clip-rule="evenodd" d="M133.195 9.1123V9.3983H131.299V23.3769H133.195V23.6629H126.411V23.3769H128.309V9.3983H126.411V9.1123H133.195Z" fill="white"/>
<path fill-rule="evenodd" clip-rule="evenodd" d="M145.388 13.2361C145.037 11.8718 144.511 10.8106 143.811 10.0526C143.111 9.29468 142.175 8.92234 141.004 8.93562C140.074 8.93562 139.327 9.12003 138.762 9.48886C138.208 9.84467 137.758 10.3414 137.458 10.9282C137.143 11.5632 136.941 12.2488 136.863 12.9536C136.768 13.7188 136.721 14.4892 136.721 15.2603V17.0771C136.705 18.1469 136.787 19.2159 136.964 20.2711C137.126 21.1306 137.378 21.8265 137.721 22.3586C138.039 22.8656 138.504 23.2629 139.055 23.4967C139.675 23.7403 140.338 23.8575 141.004 23.8413C141.623 23.8413 142.114 23.7265 142.479 23.4967C142.841 23.2693 143.131 22.9443 143.317 22.5591C143.525 22.1164 143.651 21.64 143.691 21.1525C143.744 20.6102 143.771 20.0187 143.771 19.3779V18.5844H141.691V18.2926H147.93V18.5844H146.617V23.3655H146.254C146.245 23.2907 146.22 23.2188 146.179 23.1554C146.139 23.092 146.084 23.0388 146.02 22.9998C145.888 22.9217 145.738 22.8812 145.585 22.8826C145.268 22.8816 144.954 22.9491 144.666 23.0806L143.728 23.5096C143.351 23.678 142.963 23.8209 142.566 23.9375C142.051 24.0768 141.518 24.1411 140.984 24.1285C140.004 24.1293 139.034 23.9266 138.136 23.5331C137.236 23.1476 136.416 22.5952 135.721 21.905C135.02 21.2048 134.454 20.38 134.055 19.4729C133.63 18.4852 133.417 17.4196 133.429 16.3446C133.442 15.2696 133.679 14.2091 134.126 13.2314C134.564 12.3073 135.17 11.4726 135.914 10.77C136.622 10.1007 137.447 9.56717 138.348 9.19583C139.182 8.83998 140.078 8.65199 140.984 8.64259C141.378 8.64168 141.771 8.68373 142.156 8.76801C142.534 8.85084 142.885 8.93796 143.211 9.02939C143.537 9.12081 143.827 9.20755 144.081 9.2896C144.288 9.36473 144.506 9.40705 144.727 9.41501C144.868 9.427 145.009 9.39419 145.131 9.32124C145.233 9.22719 145.309 9.10852 145.351 8.97664H145.695V13.2361H145.392" fill="white"/>
<path fill-rule="evenodd" clip-rule="evenodd" d="M154.324 9.3983H152.406V16.1016H158.431V9.3983H156.514V9.1123H163.373V9.3983H161.454V23.3769H163.373V23.6629H156.514V23.3769H158.431V16.3876H152.406V23.3769H154.324V23.6629H147.465V23.3769H149.382V9.3983H147.465V9.1123H154.324V9.3983Z" fill="white"/>
<path fill-rule="evenodd" clip-rule="evenodd" d="M167.356 9.40308C166.901 9.39722 166.446 9.44921 166.004 9.5578C165.615 9.65747 165.251 9.8402 164.939 10.0935C164.593 10.3866 164.307 10.7451 164.1 11.1484C163.815 11.7 163.588 12.2798 163.423 12.8784H163.157V9.11475H176V12.8831H175.734C175.569 12.2847 175.343 11.705 175.059 11.153C174.85 10.7499 174.565 10.3915 174.218 10.0981C173.906 9.84488 173.543 9.66216 173.153 9.56249C172.711 9.4539 172.257 9.40191 171.802 9.40777H171.064V23.4872H172.948V23.7767H166.215V23.4883H168.091V9.40308H167.352" fill="white"/>
<path fill-rule="evenodd" clip-rule="evenodd" d="M102.776 9.11475V9.40074H100.882V23.3688H102.776V23.6548H96V23.3688H97.8941V9.40074H96V9.11475H102.776Z" fill="white"/>
<path fill-rule="evenodd" clip-rule="evenodd" d="M106.177 9.1123L112.946 18.8396H112.987V9.3983H111.117V9.1123H115.181V9.3983H113.312V23.6629H112.763L103.616 10.5634H103.575V23.3769H105.445V23.6629H101.38V23.3769H103.251V9.3983H101.38V9.1123H106.177Z" fill="white"/>
<path fill-rule="evenodd" clip-rule="evenodd" d="M115.727 19.2054C115.755 19.3734 115.803 19.593 115.872 19.8641C115.95 20.1635 116.051 20.4565 116.173 20.7409C116.314 21.073 116.48 21.3939 116.67 21.7008C116.876 22.0337 117.123 22.3389 117.406 22.6092C117.679 22.8937 117.989 23.1394 118.329 23.3394C118.597 23.4945 118.883 23.6172 119.18 23.7051C119.429 23.7782 119.687 23.8204 119.946 23.8305C120.188 23.8376 120.415 23.8411 120.62 23.8411C121.353 23.8411 121.954 23.7262 122.424 23.4965C122.851 23.2993 123.23 23.0104 123.533 22.6502C123.79 22.3391 123.984 21.9808 124.104 21.5953C124.205 21.2814 124.26 20.9545 124.269 20.6248C124.286 20.1722 124.157 19.7261 123.902 19.3519C123.646 19.0061 123.317 18.7211 122.937 18.5174C122.503 18.2809 122.044 18.0919 121.57 17.9536L119.993 17.4847C119.458 17.3264 118.932 17.1381 118.418 16.9209C117.922 16.7149 117.46 16.4334 117.05 16.0864C116.643 15.7383 116.314 15.3076 116.085 14.8229C115.843 14.3228 115.722 13.6976 115.722 12.9475C115.722 12.3903 115.85 11.8407 116.096 11.3405C116.348 10.8211 116.7 10.3563 117.132 9.97268C117.601 9.55908 118.14 9.23242 118.724 9.00804C119.361 8.75989 120.04 8.63577 120.725 8.64234C121.129 8.63889 121.533 8.68295 121.927 8.77361C122.272 8.85683 122.576 8.94357 122.839 9.035C123.102 9.12642 123.332 9.21198 123.533 9.2952C123.706 9.37308 123.893 9.41571 124.083 9.42062C124.276 9.42062 124.404 9.38897 124.466 9.32685C124.552 9.22488 124.619 9.10813 124.664 8.98225H124.996V12.9487H124.723C124.556 12.4626 124.38 11.9825 124.193 11.5081C124.015 11.0476 123.774 10.6137 123.478 10.2188C123.184 9.83232 122.808 9.51504 122.378 9.28934C121.935 9.05492 121.375 8.93771 120.699 8.93771C120.202 8.93047 119.707 9.00979 119.237 9.17213C118.847 9.30708 118.485 9.51248 118.169 9.77811C117.894 10.009 117.669 10.2928 117.506 10.6127C117.356 10.9026 117.275 11.2238 117.271 11.5503C117.258 11.9867 117.397 12.4141 117.665 12.7588C117.943 13.096 118.285 13.3748 118.671 13.5793C119.123 13.8251 119.599 14.0246 120.092 14.1747C120.624 14.3419 121.171 14.5158 121.733 14.6963C122.294 14.8768 122.841 15.0753 123.373 15.2917C123.885 15.4941 124.363 15.7705 124.794 16.1122C125.205 16.4474 125.545 16.8615 125.794 17.33C126.049 17.7989 126.177 18.3849 126.177 19.0882C126.18 19.7575 126.038 20.4195 125.762 21.0292C125.487 21.6403 125.088 22.1878 124.59 22.6373C124.061 23.1103 123.45 23.4818 122.786 23.7333C122.041 24.0126 121.25 24.1505 120.454 24.14C120.026 24.1386 119.599 24.0954 119.18 24.011C118.758 23.9274 118.363 23.8403 117.997 23.7497C117.631 23.659 117.306 23.5723 117.023 23.4895C116.818 23.4201 116.606 23.378 116.39 23.364C116.246 23.352 116.101 23.3847 115.976 23.4578C115.866 23.5635 115.787 23.6972 115.748 23.8446H115.416V19.2054H115.727Z" fill="white"/>
<path fill-rule="evenodd" clip-rule="evenodd" d="M133.195 9.1123V9.3983H131.299V23.3769H133.195V23.6629H126.411V23.3769H128.309V9.3983H126.411V9.1123H133.195Z" fill="white"/>
<path fill-rule="evenodd" clip-rule="evenodd" d="M145.388 13.2361C145.037 11.8718 144.511 10.8106 143.811 10.0526C143.111 9.29468 142.175 8.92234 141.004 8.93562C140.074 8.93562 139.327 9.12003 138.762 9.48886C138.208 9.84467 137.758 10.3414 137.458 10.9282C137.143 11.5632 136.941 12.2488 136.863 12.9536C136.768 13.7188 136.721 14.4892 136.721 15.2603V17.0771C136.705 18.1469 136.787 19.2159 136.964 20.2711C137.126 21.1306 137.378 21.8265 137.721 22.3586C138.039 22.8656 138.504 23.2629 139.055 23.4967C139.675 23.7403 140.338 23.8575 141.004 23.8413C141.623 23.8413 142.114 23.7265 142.479 23.4967C142.841 23.2693 143.131 22.9443 143.317 22.5591C143.525 22.1164 143.651 21.64 143.691 21.1525C143.744 20.6102 143.771 20.0187 143.771 19.3779V18.5844H141.691V18.2926H147.93V18.5844H146.617V23.3655H146.254C146.245 23.2907 146.22 23.2188 146.179 23.1554C146.139 23.092 146.084 23.0388 146.02 22.9998C145.888 22.9217 145.738 22.8812 145.585 22.8826C145.268 22.8816 144.954 22.9491 144.666 23.0806L143.728 23.5096C143.351 23.678 142.963 23.8209 142.566 23.9375C142.051 24.0768 141.518 24.1411 140.984 24.1285C140.004 24.1293 139.034 23.9266 138.136 23.5331C137.236 23.1476 136.416 22.5952 135.721 21.905C135.02 21.2048 134.454 20.38 134.055 19.4729C133.63 18.4852 133.417 17.4196 133.429 16.3446C133.442 15.2696 133.679 14.2091 134.126 13.2314C134.564 12.3073 135.17 11.4726 135.914 10.77C136.622 10.1007 137.447 9.56717 138.348 9.19583C139.182 8.83998 140.078 8.65199 140.984 8.64259C141.378 8.64168 141.771 8.68373 142.156 8.76801C142.534 8.85084 142.885 8.93796 143.211 9.02939C143.537 9.12081 143.827 9.20755 144.081 9.2896C144.288 9.36473 144.506 9.40705 144.727 9.41501C144.868 9.427 145.009 9.39419 145.131 9.32124C145.233 9.22719 145.309 9.10852 145.351 8.97664H145.695V13.2361H145.392" fill="white"/>
<path fill-rule="evenodd" clip-rule="evenodd" d="M154.324 9.3983H152.406V16.1016H158.431V9.3983H156.514V9.1123H163.373V9.3983H161.454V23.3769H163.373V23.6629H156.514V23.3769H158.431V16.3876H152.406V23.3769H154.324V23.6629H147.465V23.3769H149.382V9.3983H147.465V9.1123H154.324V9.3983Z" fill="white"/>
<path fill-rule="evenodd" clip-rule="evenodd" d="M167.356 9.40308C166.901 9.39722 166.446 9.44921 166.004 9.5578C165.615 9.65747 165.251 9.8402 164.939 10.0935C164.593 10.3866 164.307 10.7451 164.1 11.1484C163.815 11.7 163.588 12.2798 163.423 12.8784H163.157V9.11475H176V12.8831H175.734C175.569 12.2847 175.343 11.705 175.059 11.153C174.85 10.7499 174.565 10.3915 174.218 10.0981C173.906 9.84488 173.543 9.66216 173.153 9.56249C172.711 9.4539 172.257 9.40191 171.802 9.40777H171.064V23.4872H172.948V23.7767H166.215V23.4883H168.091V9.40308H167.352" fill="white"/>
<path fill-rule="evenodd" clip-rule="evenodd" d="M102.776 9.11475V9.40074H100.882V23.3688H102.776V23.6548H96V23.3688H97.8941V9.40074H96V9.11475H102.776Z" fill="white"/>
<path fill-rule="evenodd" clip-rule="evenodd" d="M106.177 9.1123L112.946 18.8396H112.987V9.3983H111.117V9.1123H115.181V9.3983H113.312V23.6629H112.763L103.616 10.5634H103.575V23.3769H105.445V23.6629H101.38V23.3769H103.251V9.3983H101.38V9.1123H106.177Z" fill="white"/>
<path fill-rule="evenodd" clip-rule="evenodd" d="M115.727 19.2054C115.755 19.3734 115.803 19.593 115.872 19.8641C115.95 20.1635 116.051 20.4565 116.173 20.7409C116.314 21.073 116.48 21.3939 116.67 21.7008C116.876 22.0337 117.123 22.3389 117.406 22.6092C117.679 22.8937 117.989 23.1394 118.329 23.3394C118.597 23.4945 118.883 23.6172 119.18 23.7051C119.429 23.7782 119.687 23.8204 119.946 23.8305C120.188 23.8376 120.415 23.8411 120.62 23.8411C121.353 23.8411 121.954 23.7262 122.424 23.4965C122.851 23.2993 123.23 23.0104 123.533 22.6502C123.79 22.3391 123.984 21.9808 124.104 21.5953C124.205 21.2814 124.26 20.9545 124.269 20.6248C124.286 20.1722 124.157 19.7261 123.902 19.3519C123.646 19.0061 123.317 18.7211 122.937 18.5174C122.503 18.2809 122.044 18.0919 121.57 17.9536L119.993 17.4847C119.458 17.3264 118.932 17.1381 118.418 16.9209C117.922 16.7149 117.46 16.4334 117.05 16.0864C116.643 15.7383 116.314 15.3076 116.085 14.8229C115.843 14.3228 115.722 13.6976 115.722 12.9475C115.722 12.3903 115.85 11.8407 116.096 11.3405C116.348 10.8211 116.7 10.3563 117.132 9.97268C117.601 9.55908 118.14 9.23242 118.724 9.00804C119.361 8.75989 120.04 8.63577 120.725 8.64234C121.129 8.63889 121.533 8.68295 121.927 8.77361C122.272 8.85683 122.576 8.94357 122.839 9.035C123.102 9.12642 123.332 9.21198 123.533 9.2952C123.706 9.37308 123.893 9.41571 124.083 9.42062C124.276 9.42062 124.404 9.38897 124.466 9.32685C124.552 9.22488 124.619 9.10813 124.664 8.98225H124.996V12.9487H124.723C124.556 12.4626 124.38 11.9825 124.193 11.5081C124.015 11.0476 123.774 10.6137 123.478 10.2188C123.184 9.83232 122.808 9.51504 122.378 9.28934C121.935 9.05492 121.375 8.93771 120.699 8.93771C120.202 8.93047 119.707 9.00979 119.237 9.17213C118.847 9.30708 118.485 9.51248 118.169 9.77811C117.894 10.009 117.669 10.2928 117.506 10.6127C117.356 10.9026 117.275 11.2238 117.271 11.5503C117.258 11.9867 117.397 12.4141 117.665 12.7588C117.943 13.096 118.285 13.3748 118.671 13.5793C119.123 13.8251 119.599 14.0246 120.092 14.1747C120.624 14.3419 121.171 14.5158 121.733 14.6963C122.294 14.8768 122.841 15.0753 123.373 15.2917C123.885 15.4941 124.363 15.7705 124.794 16.1122C125.205 16.4474 125.545 16.8615 125.794 17.33C126.049 17.7989 126.177 18.3849 126.177 19.0882C126.18 19.7575 126.038 20.4195 125.762 21.0292C125.487 21.6403 125.088 22.1878 124.59 22.6373C124.061 23.1103 123.45 23.4818 122.786 23.7333C122.041 24.0126 121.25 24.1505 120.454 24.14C120.026 24.1386 119.599 24.0954 119.18 24.011C118.758 23.9274 118.363 23.8403 117.997 23.7497C117.631 23.659 117.306 23.5723 117.023 23.4895C116.818 23.4201 116.606 23.378 116.39 23.364C116.246 23.352 116.101 23.3847 115.976 23.4578C115.866 23.5635 115.787 23.6972 115.748 23.8446H115.416V19.2054H115.727Z" fill="white"/>
<path fill-rule="evenodd" clip-rule="evenodd" d="M133.195 9.1123V9.3983H131.299V23.3769H133.195V23.6629H126.411V23.3769H128.309V9.3983H126.411V9.1123H133.195Z" fill="white"/>
<path fill-rule="evenodd" clip-rule="evenodd" d="M145.388 13.2361C145.037 11.8718 144.511 10.8106 143.811 10.0526C143.111 9.29468 142.175 8.92234 141.004 8.93562C140.074 8.93562 139.327 9.12003 138.762 9.48886C138.208 9.84467 137.758 10.3414 137.458 10.9282C137.143 11.5632 136.941 12.2488 136.863 12.9536C136.768 13.7188 136.721 14.4892 136.721 15.2603V17.0771C136.705 18.1469 136.787 19.2159 136.964 20.2711C137.126 21.1306 137.378 21.8265 137.721 22.3586C138.039 22.8656 138.504 23.2629 139.055 23.4967C139.675 23.7403 140.338 23.8575 141.004 23.8413C141.623 23.8413 142.114 23.7265 142.479 23.4967C142.841 23.2693 143.131 22.9443 143.317 22.5591C143.525 22.1164 143.651 21.64 143.691 21.1525C143.744 20.6102 143.771 20.0187 143.771 19.3779V18.5844H141.691V18.2926H147.93V18.5844H146.617V23.3655H146.254C146.245 23.2907 146.22 23.2188 146.179 23.1554C146.139 23.092 146.084 23.0388 146.02 22.9998C145.888 22.9217 145.738 22.8812 145.585 22.8826C145.268 22.8816 144.954 22.9491 144.666 23.0806L143.728 23.5096C143.351 23.678 142.963 23.8209 142.566 23.9375C142.051 24.0768 141.518 24.1411 140.984 24.1285C140.004 24.1293 139.034 23.9266 138.136 23.5331C137.236 23.1476 136.416 22.5952 135.721 21.905C135.02 21.2048 134.454 20.38 134.055 19.4729C133.63 18.4852 133.417 17.4196 133.429 16.3446C133.442 15.2696 133.679 14.2091 134.126 13.2314C134.564 12.3073 135.17 11.4726 135.914 10.77C136.622 10.1007 137.447 9.56717 138.348 9.19583C139.182 8.83998 140.078 8.65199 140.984 8.64259C141.378 8.64168 141.771 8.68373 142.156 8.76801C142.534 8.85084 142.885 8.93796 143.211 9.02939C143.537 9.12081 143.827 9.20755 144.081 9.2896C144.288 9.36473 144.506 9.40705 144.727 9.41501C144.868 9.427 145.009 9.39419 145.131 9.32124C145.233 9.22719 145.309 9.10852 145.351 8.97664H145.695V13.2361H145.392" fill="white"/>
<path fill-rule="evenodd" clip-rule="evenodd" d="M154.324 9.3983H152.406V16.1016H158.431V9.3983H156.514V9.1123H163.373V9.3983H161.454V23.3769H163.373V23.6629H156.514V23.3769H158.431V16.3876H152.406V23.3769H154.324V23.6629H147.465V23.3769H149.382V9.3983H147.465V9.1123H154.324V9.3983Z" fill="white"/>
<path fill-rule="evenodd" clip-rule="evenodd" d="M167.356 9.40308C166.901 9.39722 166.446 9.44921 166.004 9.5578C165.615 9.65747 165.251 9.8402 164.939 10.0935C164.593 10.3866 164.307 10.7451 164.1 11.1484C163.815 11.7 163.588 12.2798 163.423 12.8784H163.157V9.11475H176V12.8831H175.734C175.569 12.2847 175.343 11.705 175.059 11.153C174.85 10.7499 174.565 10.3915 174.218 10.0981C173.906 9.84488 173.543 9.66216 173.153 9.56249C172.711 9.4539 172.257 9.40191 171.802 9.40777H171.064V23.4872H172.948V23.7767H166.215V23.4883H168.091V9.40308H167.352" fill="white"/>
<path d="M159.743 29.4224H173.105" stroke="white" stroke-width="2" stroke-miterlimit="10"/>
<path d="M96.0059 29.4224H109.251" stroke="white" stroke-width="2" stroke-miterlimit="10"/>
</svg>
