<svg width="134" height="40" viewBox="0 0 134 40" fill="none" xmlns="http://www.w3.org/2000/svg">
<mask id="mask0_23_4631" style="mask-type:luminance" maskUnits="userSpaceOnUse" x="0" y="0" width="81" height="40">
<path d="M80.8531 0H0.460938V40H80.8531V0Z" fill="white"/>
</mask>
<g mask="url(#mask0_23_4631)">
<path d="M56.5734 20.0377C56.5734 22.7822 54.6417 24.6524 52.1391 24.6524C49.634 24.6524 47.8554 22.7526 47.8554 20.2477C47.8554 18.0144 49.4242 15.6626 52.3813 15.6626C54.6736 15.6626 56.5734 17.4437 56.5734 20.0377ZM41.7017 24.472H38.1715V24.1706C39.2881 24.0793 39.377 23.9902 39.377 22.5426V17.7772C39.377 16.3296 39.256 16.2382 38.2011 16.1789V15.8775H41.6103C42.4552 15.8775 43.2085 15.9986 43.6928 16.3296C44.2364 16.6606 44.5674 17.2659 44.5674 18.0193C44.5674 19.1063 43.9028 19.8895 42.8183 20.3414C43.0605 20.7344 43.6038 21.6385 43.9942 22.2412C44.476 22.9353 44.7477 23.2961 45.1109 23.6889C45.3826 24.0199 45.6246 24.2324 46.1064 24.3534L46.0768 24.5955H45.8964C44.387 24.5659 43.9052 24.0816 43.4236 23.3579C43.0011 22.7551 42.4575 21.7891 42.097 21.1567C41.8844 20.8257 41.6746 20.675 41.2521 20.675H40.5283V22.5451C40.5283 23.9928 40.6493 24.0842 41.7042 24.1732V24.472H41.7017ZM62.4258 24.561H62.0626L59.7701 17.4709C59.4095 16.384 59.2266 16.295 58.4732 16.2036V15.9022H61.7021V16.1443L61.2795 16.2036C60.6768 16.295 60.615 16.4161 60.7977 16.9892L62.5766 22.6291H62.6062L64.7183 15.9936H65.0493L67.4332 22.6291H67.4628C68.0064 20.9691 68.7599 18.1651 69.0021 17.2288C69.1823 16.4753 69.123 16.2925 68.5203 16.2332L68.1275 16.174V15.8726H70.9338V16.174C70.0593 16.295 69.9679 16.3247 69.5454 17.5327C69.4244 17.8637 68.4585 20.9122 67.3444 24.5312H66.9836L64.5997 18.0762L64.5701 18.1058L62.4258 24.561ZM75.8795 24.4424H72.7125V24.141C73.4364 24.1114 73.7995 23.9285 73.8587 23.4467C73.9181 23.0244 73.9799 22.3302 73.9799 20.9418V18.0762C73.9799 17.1102 73.9799 16.9003 73.7377 16.5989C73.4956 16.2678 73.135 16.1764 72.5619 16.1468V15.8454H74.4936L80.0742 22.513H80.104V19.3756C80.104 17.9872 80.0446 17.2634 79.9828 16.8706C79.9236 16.4185 79.5605 16.2382 78.686 16.1764V15.875H81.853V16.1764C81.1291 16.2061 80.766 16.3864 80.7068 16.8706C80.6474 17.293 80.5856 17.9872 80.5856 19.3756V24.5338H80.2546L74.4936 17.5648H74.464V20.9444C74.464 22.3326 74.5232 23.0565 74.585 23.4493C74.6444 23.9014 75.0075 24.0816 75.8821 24.1434L75.8795 24.4424ZM32.1709 24.472H29.125V24.1706C30.2415 24.0793 30.3305 23.9902 30.3305 22.5426V17.7772C30.3305 16.3296 30.2391 16.2382 29.1842 16.1789V15.8775H32.744V15.8479C33.7099 15.8479 34.2534 15.9986 34.676 16.3C35.1279 16.631 35.3701 17.0831 35.3701 17.7476C35.3701 18.9235 34.283 19.467 33.6507 19.6473V19.6769C34.8562 19.8573 35.9432 20.5514 35.9432 21.9102C35.9432 22.8465 35.4911 23.5085 34.7056 23.9606C34.0411 24.3212 33.1962 24.472 32.1709 24.472ZM52.0181 16.085C50.4493 16.085 49.1226 17.382 49.1226 19.8548C49.1226 22.4191 50.4493 24.1979 52.3813 24.1979C53.9795 24.1979 55.2766 22.96 55.2766 20.5169C55.3062 17.6537 53.9203 16.085 52.0181 16.085ZM32.2303 19.9759H31.4472V22.8712C31.4472 23.7457 31.6274 24.0471 32.5934 24.0471C33.7099 24.0471 34.6438 23.5036 34.6438 22.0855C34.6438 20.6404 33.5889 19.9759 32.2303 19.9759ZM41.3287 16.2357C40.9062 16.2382 40.7332 16.2678 40.6172 16.295C40.5258 16.3247 40.4962 16.3864 40.4962 16.6557V20.2748H41.2817C41.8252 20.2748 42.2475 20.2155 42.6083 19.9116C43.1815 19.4596 43.3619 18.8247 43.3619 18.1626C43.3619 16.7743 42.3662 16.2308 41.3707 16.2308L41.3287 16.2357ZM31.4472 19.5856H32.2921C33.5593 19.5856 34.1917 18.9828 34.1917 17.8958C34.1917 17.1127 33.8607 16.2061 32.2921 16.2061C31.8695 16.2061 31.6595 16.2357 31.5681 16.2975C31.4768 16.3271 31.4472 16.3889 31.4472 16.6285V19.5856Z" fill="white"/>
<path d="M10.3257 38.8914L11.803 39.2546L13.2506 38.8914V27.5179H22.5714V24.8942H13.2506V16.3862H10.3257V24.8942H1.00488V27.5179H10.3257V38.8914Z" fill="white"/>
<path d="M13.342 11.9224C14.97 12.0434 14.97 13.0686 15.3628 13.5504C15.5135 13.7307 14.0658 14.1531 12.5564 13.7307C12.0747 13.5207 11.6819 12.372 11.5312 12.2213C11.4719 12.1645 12.4057 11.831 13.342 11.9224ZM19.8564 13.6714C21.3659 14.0938 22.3292 13.701 22.48 13.3997C22.6306 13.0686 22.27 11.9817 20.6396 11.8606C19.7033 11.7692 18.7695 12.1027 18.8287 12.162C18.9523 12.3152 19.345 13.4614 19.8564 13.6714ZM6.04198 11.831C7.64033 11.9817 7.66998 12.9772 8.06277 13.4589C8.21345 13.6393 6.76581 14.0617 5.25639 13.6393C4.77467 13.4268 4.38188 12.2806 4.2312 12.1299C4.1719 12.1027 5.10571 11.742 6.04198 11.831Z" fill="white"/>
<path d="M23.5375 8.96526C23.4165 8.87384 21.9984 8.69351 21.7884 8.69351C21.5784 8.69351 20.3704 8.69351 19.8887 8.7849C19.1649 8.90596 17.8976 8.90596 16.9638 8.7849C16.6328 8.75526 16.24 8.81455 15.9386 8.93561C15.9979 8.87632 16.0596 8.81455 16.1486 8.75526C16.4203 8.45388 16.7513 7.91039 17.2948 7.63865C17.4455 7.57935 17.5666 7.48796 17.6876 7.42867C18.1397 7.67077 18.8932 7.82145 19.7998 7.39902C21.1561 8.0932 21.9712 7.61147 22.2728 7.36937C22.6333 7.06798 22.8161 6.64555 22.8161 6.19347C22.8161 6.04277 22.7865 5.89208 22.7569 5.74139C22.5469 5.13861 22.033 4.77547 21.2796 4.68653C21.25 4.53583 21.1584 4.38514 21.0992 4.23445C21.1906 4.11339 21.2796 4.022 21.3118 3.96271C21.371 3.8713 21.6132 3.51063 21.0102 3.812C20.9806 3.84165 20.9188 3.8713 20.8596 3.90341C20.7683 3.812 20.6792 3.75273 20.5879 3.69343C20.0147 3.36239 19.2613 3.30063 18.5053 3.5131C18.3843 3.09065 18.2039 2.75963 17.8729 2.54718C17.5419 2.33718 17.0873 2.27543 16.5759 2.36683C16.6056 2.30753 16.6352 2.21614 16.6673 2.18649C16.8798 1.70477 16.7588 1.58372 16.5463 1.7937C16.2746 2.03581 16.1239 2.21614 15.9732 2.33718C15.4914 1.5516 14.8565 1.04023 14.1031 0.859892C13.4385 0.679553 12.7468 0.768486 12.1119 1.07234C12.0823 0.741312 12.0205 0.499214 11.9909 0.348519C11.8698 -0.0442724 11.7192 0.257115 11.7192 0.378165C11.6895 0.528859 11.6599 0.770957 11.6277 1.01059C10.9953 0.679553 10.3012 0.588149 9.6366 0.768488C8.91278 0.97847 8.36929 1.52196 8.03827 2.27543C7.76653 2.18402 7.52443 2.12473 7.31445 2.09508C7.19339 1.91475 6.98341 1.7023 6.71166 1.46267C6.53133 1.31197 6.38064 1.37126 6.46956 1.70476C6.49921 1.82581 6.56098 1.94686 6.59062 2.03581C6.07678 2.06545 5.68645 2.24579 5.44435 2.42859C4.93051 2.82137 4.75017 3.36239 4.69088 3.72555C4.66123 3.72555 4.6316 3.7552 4.6316 3.7552C4.20915 3.84659 3.63603 3.9973 3.305 4.57041C3.2457 4.54079 3.18394 4.51114 3.18394 4.47902C2.12909 3.78484 2.61082 4.69147 3.03325 5.08179C1.61525 5.29177 1.22245 5.95632 1.13352 6.3491C1.094 6.4331 1.09399 6.55167 1.09399 6.64308C1.09399 7.09516 1.33609 7.54724 1.72641 7.81898C2.20814 8.15002 2.75162 8.12037 3.26547 7.78933C3.93 8.00181 4.86382 7.96969 5.52835 7.48796C5.92113 7.91039 6.22252 8.21179 6.40286 8.36247C6.82531 8.7849 7.45772 9.0863 7.76158 9.20735C7.46019 9.0863 6.9167 8.96526 6.40286 9.027C5.28625 9.17771 4.53278 8.96773 4.05105 8.93561C3.26547 8.8442 2.4527 8.99488 2.03027 8.99488C1.60784 8.99488 1.00506 9.20735 0.703672 9.237C0.372639 9.29628 0.402284 9.50873 0.854366 9.62979C1.30645 9.75083 2.12168 9.81012 2.33166 9.93118C3.05549 10.2326 4.26351 10.5043 5.10592 10.445C5.70868 10.3857 6.31147 10.6871 6.46462 10.7464C6.76602 10.8378 7.48984 11.0478 7.79123 11.0478C7.79123 11.0181 7.79123 11.4702 7.82088 11.6802C7.69982 11.7098 7.6109 11.7716 7.48984 11.8013C7.1588 11.5913 5.67903 10.986 3.87072 11.742C3.47792 11.6209 2.6948 11.1688 1.57819 11.5295C0.219476 11.9816 0.431929 13.2193 0.884011 13.7924C1.48679 14.5755 2.60341 14.3952 2.93443 14.0345C3.65827 14.5162 4.41172 14.3655 4.95521 14.0345C5.31837 14.2469 7.06741 14.578 8.394 14.0345C8.57435 14.1555 9.29817 14.5483 10.2344 14.0641C10.7779 14.3952 11.6821 14.3952 12.1342 14.0048C12.2849 14.1556 12.7987 14.3359 13.8536 14.3359C15.1209 14.3359 15.4223 14.1234 15.6026 13.9727C15.8743 14.0938 16.5982 14.4866 17.4727 14.0938C17.9544 14.3952 18.9203 14.3655 19.4342 14.0345C20.3704 14.4569 22.0898 14.2766 22.5098 13.9752C23.2955 13.4317 22.9026 12.3472 22.0577 11.8334C20.3977 10.9885 18.8289 11.653 18.4386 11.863C17.9569 11.532 16.9292 11.3195 15.8447 11.532C15.8743 11.4109 15.8447 11.2602 15.8447 11.1096V11.0503C16.0572 10.991 16.3585 10.7489 16.9613 10.7192C17.8062 10.6599 19.7677 10.6896 20.7312 10.1757C21.3043 9.87435 23.2361 9.5112 23.5053 9.36051C23.75 9.17771 23.6883 9.05665 23.5375 8.96526ZM16.3882 7.81898C15.694 8.66386 15.3333 8.93561 15.2123 8.93561C15.0616 8.66386 14.7898 8.33282 14.5799 8.15002C14.822 7.87828 15.9386 7.36443 16.45 6.97412C16.5413 6.91482 16.7513 6.79377 16.8427 6.73202C16.9638 6.88271 17.1441 7.03339 17.3245 7.15445C16.8724 7.42867 16.6303 7.57935 16.3882 7.81898ZM6.19288 6.01067C6.79566 6.10206 7.48984 5.95137 7.97156 5.49683C8.60398 6.49239 8.604 7.3669 9.20923 8.00181C8.45576 7.27796 7.79123 7.27796 6.70425 6.70484C6.52392 6.61343 6.25217 6.4331 6.16076 6.37381C6.16076 6.28239 6.19041 6.19347 6.19041 6.07241C6.19288 6.06994 6.19288 6.0403 6.19288 6.01067ZM10.7779 7.12481C10.8076 7.15445 10.4765 6.67273 10.4469 6.61096C10.3259 6.43063 10.1752 6.27992 10.0245 6.06747C9.75272 5.7661 9.54274 5.49435 9.35992 5.314C9.78237 5.22261 10.2962 4.95334 10.8076 4.46914C10.8669 4.49879 10.9286 4.52843 10.9879 4.59018C10.9583 4.77053 10.9286 4.92122 10.8965 5.01263C10.7755 5.67716 10.7755 6.18853 10.7458 6.40098C10.7483 6.61343 10.7779 6.94447 10.7779 7.12481ZM9.84166 6.52202C10.1134 6.85306 10.3234 7.27549 10.3851 7.3669C10.1727 7.45832 9.78237 7.63865 9.54027 7.78933C9.11782 7.3669 8.7868 6.0403 8.57435 5.70681C8.48294 5.58575 8.42364 5.49683 8.394 5.40541C8.5447 5.46471 8.75715 5.43506 8.90784 5.46471C8.96713 5.49683 9.33029 5.82784 9.84166 6.52202ZM11.7735 7.48796C13.8239 7.48796 15.4544 9.11594 15.4544 11.1688C15.4544 11.3195 15.4544 11.4999 15.4247 11.7123C15.2148 11.7716 14.9727 11.863 14.7602 11.9544C13.7053 11.322 12.2552 11.3813 11.23 11.9544C10.5976 11.4727 9.20923 11.4109 8.1519 11.653C8.12225 11.443 8.09262 11.2602 8.09262 11.1713C8.12225 9.11594 9.75272 7.48796 11.7735 7.48796ZM11.2597 6.06994C11.2893 5.37577 11.44 4.92369 11.44 4.83228C11.5907 4.89157 11.771 4.95334 11.9217 5.01263C12.0428 5.28437 12.2824 6.43063 12.1935 7.12481C11.8921 7.09516 11.5289 7.09516 11.2893 7.12481C11.23 7.00624 11.23 6.43063 11.2597 6.06994ZM14.5181 6.16135C14.3056 6.61343 14.4267 7.18657 13.8857 7.70041C13.8264 7.64112 13.2829 7.39902 13.0704 7.30761C13.1619 6.58379 13.8239 5.70928 14.2464 5.34612C14.3674 5.49683 14.5774 5.64751 14.7281 5.73892C14.6984 5.7982 14.6095 5.9489 14.5181 6.16135ZM15.0912 6.01067C15.1209 5.98102 15.1209 5.95137 15.1505 5.88961C15.5433 6.01067 15.9954 6.0403 16.4178 6.01067C16.4475 6.16135 16.5389 6.31204 16.5982 6.46275C16.3857 6.55414 15.7533 7.00624 14.8195 7.51759C14.5774 7.63865 14.4267 7.78933 14.3378 7.88075C14.4292 7.73006 14.5799 7.54971 14.6392 7.3669C14.7899 6.91482 14.7602 6.58379 15.0912 6.01067ZM12.8283 6.55167C12.737 6.79377 12.6777 6.94447 12.648 7.09516C12.7394 6.55167 12.5887 5.73645 12.4059 5.04473C12.8876 5.04473 13.3718 4.92369 13.8536 4.65194C13.8832 4.773 13.945 4.86192 14.0043 4.95334C13.735 5.19543 13.0704 5.88961 12.8283 6.55167ZM5.28872 7.12481C4.74523 7.57688 3.84107 7.60653 3.26794 7.39655C3.20864 7.3669 3.11725 7.3669 3.05796 7.4262C2.6948 7.69794 2.27237 7.72759 1.94134 7.48549C1.6103 7.24339 1.4275 6.85306 1.5189 6.46028C1.63995 5.94643 2.27237 5.58575 3.23829 5.49435C3.3297 5.49435 3.41862 5.40294 3.44827 5.314C3.62862 4.43949 4.20174 4.31843 4.74523 4.19739L4.98733 4.1381C5.10839 4.10845 5.16766 4.01706 5.13803 3.896C5.10839 3.74532 5.25907 3.17218 5.71115 2.80902C6.25464 2.38659 7.06988 2.38659 8.06298 2.77939C8.12225 2.80904 8.18402 2.80904 8.24331 2.77939C8.3026 2.74975 8.33472 2.7201 8.36435 2.65834C8.60645 1.93451 9.11782 1.42067 9.75272 1.24033C10.4173 1.02788 11.1411 1.18104 11.7735 1.63313C11.8649 1.69242 11.9538 1.69242 12.0453 1.63313C12.648 1.24033 13.3718 1.11928 14.0067 1.30209C14.7306 1.48243 15.3333 2.02592 15.7854 2.87079C15.8447 2.9622 15.9658 3.02149 16.0572 2.99185C16.7513 2.74975 17.2948 2.74975 17.6555 2.9622C18.0186 3.17465 18.1076 3.53533 18.1693 3.83671C18.1693 3.896 18.2286 3.95777 18.2607 3.98741C18.32 4.01706 18.3818 4.01706 18.4411 4.01706C19.1649 3.77496 19.8887 3.80706 20.373 4.10845C20.7039 4.31843 20.8867 4.59018 20.9461 4.95334C20.9757 5.04473 21.0375 5.13367 21.1561 5.13367C21.7884 5.16332 22.243 5.46471 22.3937 5.88714C22.5147 6.27992 22.3937 6.76165 22.0628 7.03339C21.581 7.4262 20.8251 7.39655 20.0122 6.97412C19.953 6.94447 19.8616 6.94447 19.8023 6.97412C19.1377 7.30514 18.535 7.33726 17.9618 7.03339C17.2973 6.70237 16.907 6.0082 16.8749 5.67469C16.8749 5.61539 16.8452 5.55363 16.7834 5.524C16.7242 5.49435 16.6624 5.46471 16.6031 5.49435C16.151 5.55363 14.612 5.70434 14.281 4.22704C14.2513 4.16775 14.2217 4.10598 14.1599 4.07634C14.1006 4.04671 14.0092 4.10598 13.9474 4.13563C12.9519 4.80016 11.9563 4.73841 11.0225 3.98494C10.9311 3.92565 10.8125 3.89353 10.7211 3.98494C9.63413 5.0719 8.75962 5.01016 8.33719 4.82981C8.24578 4.80016 8.12472 4.82981 8.06545 4.92122C7.643 5.58575 6.73884 5.70434 6.1336 5.524C6.07431 5.49435 5.9829 5.49435 5.92113 5.55363C5.86186 5.61292 5.82974 5.67469 5.82974 5.7661C5.82974 6.31204 5.67903 6.79377 5.28872 7.12481ZM5.80009 7.30761C5.89151 7.18657 6.01254 6.94447 6.07184 6.76414C6.13113 6.79377 6.16323 6.82341 6.19288 6.85553C6.22252 6.85553 6.55603 7.09763 6.76601 7.21622C7.70229 7.6683 8.27543 7.75969 8.90784 8.27106C8.66574 8.51316 8.42611 8.81455 8.30507 9.0863C6.976 8.69351 5.95078 7.51759 5.80009 7.30761ZM6.49427 10.2943C6.37323 10.235 5.59011 9.9633 5.13556 9.99292C4.19927 10.0522 3.02337 9.78294 2.45023 9.54084C2.29954 9.48155 1.03223 9.36051 2.2699 9.36051C2.69233 9.36051 3.17405 9.23945 4.01894 9.36051C4.50066 9.41981 5.34554 9.5112 6.61286 9.41981C7.24527 9.36051 7.69982 9.57049 7.93945 9.81259C7.88015 9.99292 7.78876 10.445 7.78876 10.5982C7.43054 10.5957 6.82531 10.4129 6.49427 10.2943ZM3.35688 13.6714C2.78374 13.2786 2.4206 12.5251 2.03027 12.6461C1.87958 12.7054 1.84993 13.0093 2.05992 13.0093C2.21061 13.0093 2.48235 13.4317 2.6627 13.6121C2.63305 13.8245 2.05992 14.0641 1.45714 13.7035C1.1854 13.5528 0.76296 13.0093 1.12611 12.3447C1.33609 11.9841 1.87958 11.8013 2.57376 11.8309C3.87072 11.8606 4.26351 13.3378 4.5649 13.6417C4.5649 13.7627 3.8386 14.0345 3.35688 13.6714ZM5.2566 13.6417C4.77488 13.4292 4.38209 12.283 4.23139 12.1323C4.17209 12.073 5.10592 11.7395 6.04219 11.8309C7.67017 11.9816 7.67017 12.9772 8.06298 13.4589C8.21366 13.6714 6.73637 14.0641 5.2566 13.6417ZM10.5358 13.7627C10.3851 13.6714 9.93305 13.0982 9.75025 12.8882C9.59956 12.6782 9.29817 12.4954 9.14747 12.6783C9.05607 12.7993 9.14747 12.9204 9.29817 12.9796C9.44886 13.071 9.84166 13.5528 9.87129 13.6738C9.84166 13.8245 9.11782 14.0963 8.69539 13.5824C8.48541 13.3107 8.06298 12.5276 7.79123 12.194C8.7275 11.863 9.81201 11.742 10.5976 12.1026C11.3511 12.4658 11.4721 13.2489 11.7735 13.6417C11.8328 13.9135 10.9879 14.0641 10.5358 13.7627ZM12.5566 13.7331C12.0749 13.5231 11.6821 12.3744 11.5314 12.2237C11.4721 12.1644 12.4059 11.8309 13.3422 11.9223C14.9702 12.073 14.9702 13.0686 15.363 13.5503C15.5137 13.7331 14.066 14.1556 12.5566 13.7331ZM20.6422 11.863C22.2702 12.0137 22.6333 13.0686 22.4826 13.4021C22.332 13.7035 21.3661 14.0963 19.8591 13.6738C19.3774 13.4614 18.9846 12.3151 18.8339 12.1644C18.7425 12.1026 19.6763 11.7716 20.6422 11.863ZM17.8976 12.1026C18.6511 12.4658 18.8018 13.2489 19.0735 13.6417C19.1328 13.9135 18.2286 13.9727 17.8358 13.7627C17.6852 13.6714 17.2331 13.0982 17.0527 12.8882C16.902 12.6782 16.6303 12.5572 16.5092 12.7375C16.4178 12.8586 16.5389 12.9796 16.6599 13.0389C16.8403 13.1303 17.1417 13.5824 17.1738 13.6714C17.1441 13.822 16.5092 14.032 16.0275 13.5503C15.7854 13.3082 15.363 12.4633 15.1826 12.1323C16.1164 11.8309 17.112 11.742 17.8976 12.1026ZM22.2406 9.29875C21.7588 9.39016 21.1857 9.54084 20.4916 9.78047C19.5552 10.1412 17.7469 10.2326 16.991 10.2326C16.2672 10.2326 16.0572 10.5339 15.7854 10.5043C15.7854 10.1115 15.5433 9.56802 15.5433 9.56802C15.7533 9.44698 16.4178 9.23698 17.0206 9.26663C17.8037 9.29628 19.2217 9.35804 19.9777 9.237C20.3408 9.17771 21.6675 9.17771 21.8477 9.17771C21.9984 9.17771 22.2406 9.20735 22.2998 9.20735C22.6333 9.23698 22.3912 9.26663 22.2406 9.29875Z" fill="white"/>
<path d="M3.29686 6.16143C2.90407 6.16143 2.57303 6.16143 2.3013 6.46282C1.99991 6.79384 2.09131 6.94455 2.02956 7.00631C1.93815 7.0977 1.75781 6.94702 1.75781 6.79384C1.78746 6.04039 2.69409 5.739 3.23511 5.79827C3.44756 5.82792 3.47721 6.16143 3.29686 6.16143Z" fill="white"/>
<path d="M4.92537 4.89434C4.35223 4.95363 4.1719 5.22538 4.08048 5.55887C4.05084 5.67993 3.71735 5.58852 3.77909 5.34889C3.9298 4.62506 4.71539 4.47438 4.98466 4.53365C5.04641 4.56083 5.01676 4.89434 4.92537 4.89434Z" fill="white"/>
<path d="M7.43039 3.35527C6.40519 2.96249 5.89135 3.71843 5.74064 4.35084C5.71099 4.44225 5.3775 4.41013 5.43925 4.14086C5.56031 3.50845 6.16309 2.60182 7.58109 2.96496C7.69966 2.9946 7.61074 3.41457 7.43039 3.35527Z" fill="white"/>
<path d="M11.2301 2.32985C10.2938 1.69744 9.54034 2.20881 9.14753 2.66089C8.9672 2.87334 8.75475 2.5102 8.84616 2.38914C9.17718 1.84566 10.3531 1.03043 11.3808 1.93707C11.5018 2.05812 11.3808 2.41879 11.2301 2.32985Z" fill="white"/>
<path d="M15.1203 3.20455C15.0289 3.26385 14.9993 3.14526 14.94 3.05385C14.0951 1.72726 12.5882 2.08793 12.1633 2.69071C12.0719 2.81175 11.8619 2.48073 11.9829 2.29791C12.3461 1.69514 14.2755 1.15166 15.271 2.8414C15.3624 3.02422 15.2117 3.14526 15.1203 3.20455Z" fill="white"/>
<path d="M17.4752 4.04937C17.2332 3.41694 16.7811 3.44659 16.2697 3.62692C16.0276 3.71833 16.0894 3.2959 16.1783 3.26626C16.6921 3.08592 17.5667 2.99451 17.8063 3.86902C17.8359 4.10865 17.5345 4.22971 17.4752 4.04937Z" fill="white"/>
<path d="M20.2487 5.37607C19.8262 4.59048 19.1321 4.59048 18.5589 4.80293C18.4379 4.86223 18.3168 4.53119 18.5293 4.41015C19.0728 4.10876 20.2191 4.1384 20.5501 5.16362C20.6118 5.34642 20.3697 5.64782 20.2487 5.37607Z" fill="white"/>
<path d="M22.0006 6.61331C21.971 6.73437 21.6375 6.76402 21.6695 6.61331C21.7289 5.9809 21.3979 5.91913 20.9753 5.91913C20.8248 5.91913 20.8248 5.58809 20.9457 5.556C21.5163 5.43741 22.1808 5.85737 22.0006 6.61331Z" fill="white"/>
<path d="M10.9878 9.90142C10.9878 10.1435 10.7753 10.3239 10.5357 10.2942C10.2936 10.2942 10.1133 10.0842 10.1429 9.84213V9.78284C10.1133 9.72354 9.90081 9.6618 9.62906 9.84213C9.47838 9.93354 9.32767 9.87178 9.56977 9.6618C9.84151 9.4197 10.0836 9.29864 10.2936 9.26899C10.6567 9.23935 11.1385 9.32829 11.3806 9.4197C11.472 9.44935 11.3806 9.93354 11.3509 9.90142C11.2595 9.87178 11.1088 9.81001 10.9581 9.84213L10.9878 9.90142Z" fill="white"/>
<path d="M12.1957 11.1985C12.1364 11.4084 11.3508 11.4998 11.2001 11.1985C11.1408 11.0774 11.0791 10.8057 11.1705 10.8674C11.3508 10.9588 11.956 10.8971 12.0746 10.8674C12.166 10.8378 12.1043 10.6871 12.166 10.7167C12.2846 10.7143 12.2846 10.986 12.1957 11.1985Z" fill="white"/>
<path d="M14.0359 9.99034C13.8555 9.83964 13.5838 9.74825 13.4924 9.83964V9.86928C13.522 10.1114 13.3417 10.3214 13.0996 10.3214C12.8575 10.351 12.6475 10.1707 12.6475 9.92858V9.89893C12.4968 9.83964 12.2547 9.92858 12.2251 9.92858C12.1954 9.92858 12.104 9.4765 12.2251 9.41474C12.5882 9.26405 13.7938 9.20476 14.1248 9.86681C14.1569 9.9607 14.1248 10.0521 14.0359 9.99034Z" fill="white"/>
<path d="M13.7344 16.3863H22.5735V24.4101H13.7344V16.3863ZM1.00442 16.3863H9.84349V24.4101H1.00442V16.3863ZM9.87314 38.7409C7.61026 38.0764 5.37702 37.1721 3.96149 35.8456C3.44765 35.3638 3.0252 34.8797 2.66453 34.3066H4.92741V34.6376H5.98226V34.3066H8.51688V30.0229H7.97339V29.2372C7.4299 29.3583 6.52575 29.057 6.13296 29.057C5.68088 29.057 5.46841 29.2372 5.46841 29.2372C5.46841 29.2372 5.22632 29.057 4.80388 29.057C4.4111 29.057 3.50692 29.3583 2.96345 29.2372V30.0229H2.41996V33.8544C1.54544 32.345 1.15265 30.5366 1.06124 28.333L1.0316 28.0021H9.87067L9.87314 38.7409ZM3.38588 33.4617V29.7807C3.68728 29.8401 4.23075 29.6301 4.80388 29.6003C5.10528 29.6003 5.19669 29.7511 5.19669 29.7511V33.4617C5.19669 33.4617 4.86565 33.2491 4.17147 33.4321C3.59833 33.6123 3.38588 33.4617 3.38588 33.4617ZM5.74016 33.4617V29.7511C5.74016 29.7511 5.83157 29.5707 6.13296 29.6003C6.67645 29.6301 7.21992 29.8425 7.55096 29.7807V33.4617C7.55096 33.4617 7.34098 33.6123 6.79749 33.4617C6.04155 33.2491 5.74016 33.4617 5.74016 33.4617ZM13.2502 38.8915L11.7729 39.2546L10.3252 38.8619V27.5203H1.00442V24.8968H10.3252V16.3887H13.2502V24.8968H22.5413V27.5203H13.2502V38.8915ZM21.2443 33.9136V30.0525H20.7009V29.2693C20.1574 29.3905 19.2532 29.0889 18.8604 29.0889C18.4083 29.0889 18.1959 29.2693 18.1959 29.2693C18.1959 29.2693 17.9859 29.0889 17.5314 29.0889C17.1386 29.0889 16.2344 29.3905 15.6909 29.2693V30.0525H15.1474V34.3362H17.682V34.6672H18.7369V34.3362H21.0294C20.6662 34.8797 20.2143 35.3911 19.7028 35.8752C18.1934 37.2338 15.9923 38.1083 13.7591 38.7409V28.0021H22.5982V28.3652C22.4523 30.7764 22.0596 32.4956 21.2443 33.9136ZM20.2488 29.7511V33.4321C20.2488 33.4321 20.0363 33.5827 19.4953 33.4321C18.7715 33.2195 18.4701 33.4617 18.4701 33.4617V29.7511C18.4701 29.7511 18.5615 29.5707 18.8629 29.6003C19.4039 29.6003 19.9474 29.8103 20.2488 29.7511ZM17.897 29.7511V33.4617C17.897 33.4617 17.5659 33.2491 16.8717 33.4321C16.3283 33.5827 16.1183 33.4321 16.1183 33.4321V29.7511C16.4197 29.8103 16.9632 29.6003 17.5363 29.5707C17.8352 29.5683 17.897 29.7511 17.897 29.7511ZM0.460938 15.8428V27.7278C0.460938 31.6509 1.42686 34.3632 3.53657 36.2656C5.61912 38.1652 8.72439 39.1311 11.7729 39.855C14.9103 39.1015 17.9266 38.1948 20.0092 36.2656C22.1213 34.3658 23.0849 31.6509 23.0849 27.7278V15.8428H0.460938Z" fill="white"/>
<path d="M7.97141 18.4986V17.713C7.42792 17.8341 6.52376 17.5327 6.13097 17.5327C5.67888 17.5327 5.46643 17.713 5.46643 17.713C5.46643 17.713 5.22433 17.5327 4.8019 17.5327C4.40911 17.5327 3.50494 17.8341 2.96145 17.713V18.4986H2.41797V22.7822H4.95258V23.1134H6.00745V22.7822H8.54207V18.4986H7.97141ZM5.16752 21.9077C5.16752 21.9077 4.83648 21.6977 4.14231 21.8781C3.59882 22.0289 3.38884 21.8781 3.38884 21.8781V18.1972C3.69023 18.2565 4.2337 18.0466 4.80684 18.0169C5.10823 18.0169 5.19962 18.1676 5.19962 18.1676L5.16752 21.9077ZM7.51933 21.8781C7.51933 21.8781 7.30688 22.0289 6.76586 21.8781C6.04203 21.6681 5.74064 21.9077 5.74064 21.9077V18.1972C5.74064 18.1972 5.83205 18.0169 6.13345 18.0466C6.67692 18.0762 7.22041 18.2887 7.55145 18.2269L7.51933 21.8781Z" fill="white"/>
<path d="M20.701 18.4986V17.713C20.1575 17.8341 19.2533 17.5327 18.8605 17.5327C18.4084 17.5327 18.1959 17.713 18.1959 17.713C18.1959 17.713 17.986 17.5327 17.5314 17.5327C17.1386 17.5327 16.2344 17.8341 15.691 17.713V18.4986H15.1475V22.7822H17.6821V23.1134H18.737V22.7822H21.2716V18.4986H20.701ZM17.8353 21.9077C17.8353 21.9077 17.5042 21.6977 16.81 21.8781C16.2666 22.0289 16.0566 21.8781 16.0566 21.8781V18.1972C16.358 18.2565 16.9014 18.0466 17.4746 18.0169C17.776 18.0169 17.8674 18.1676 17.8674 18.1676V21.9077H17.8353ZM20.1896 21.8781C20.1896 21.8781 19.9771 22.0289 19.4361 21.8781C18.7122 21.6681 18.4109 21.9077 18.4109 21.9077V18.1972C18.4109 18.1972 18.5023 18.0169 18.8037 18.0466C19.3471 18.0762 19.8881 18.2887 20.2216 18.2269V21.8756L20.1896 21.8781Z" fill="white"/>
</g>
<path d="M104.8 16.1768V15.9327C104.941 15.8765 105.073 15.8013 105.193 15.7092C105.228 15.6804 105.252 15.641 105.262 15.5971C105.305 15.4067 105.325 15.2119 105.322 15.0168C105.342 14.576 105.352 14.3139 105.352 14.2286V11.6185C105.352 11.1814 105.342 10.7511 105.322 10.3308C105.332 10.1462 105.307 9.9614 105.251 9.78541C105.206 9.72372 105.142 9.67913 105.068 9.65902C104.832 9.61889 104.592 9.60221 104.352 9.60921V9.30225C105.172 9.32217 105.677 9.33213 105.873 9.33213C106.088 9.33213 106.571 9.32217 107.322 9.30225V9.60921C107.077 9.60217 106.833 9.61885 106.592 9.65902C106.52 9.67649 106.457 9.71806 106.413 9.7767C106.356 9.92598 106.33 10.0853 106.337 10.2449C106.332 10.3097 106.322 10.7667 106.307 11.6191V14.8792C106.307 15.2198 106.317 15.4967 106.337 15.7098C106.721 15.7297 106.763 15.7391 107.142 15.7391C107.827 15.767 108.513 15.7082 109.183 15.5641C109.232 15.4564 109.271 15.3447 109.3 15.2304L109.503 14.4284H109.836C109.762 14.9085 109.69 15.472 109.618 16.1189C109.51 16.1404 109.4 16.1564 109.29 16.1668C109.115 16.1737 108.845 16.1768 108.482 16.1768L105.785 16.1475C105.463 16.1475 105.134 16.1575 104.8 16.1768Z" fill="white"/>
<path d="M113.432 15.8698V16.1768C112.718 16.1568 112.25 16.1475 112.025 16.1475L110.476 16.1768V15.8698C110.715 15.8767 110.955 15.8587 111.191 15.8163C111.262 15.7979 111.325 15.7581 111.372 15.7023C111.427 15.553 111.453 15.3944 111.448 15.2353C111.451 15.1675 111.461 14.7077 111.476 13.8562V11.6159C111.476 11.1789 111.466 10.7501 111.448 10.3296C111.456 10.1451 111.431 9.96057 111.375 9.78477C111.329 9.72315 111.265 9.67861 111.191 9.65838C110.955 9.61858 110.715 9.60189 110.476 9.60856V9.30225C111.113 9.32217 111.608 9.33151 111.956 9.33151C112.291 9.33151 112.782 9.32217 113.432 9.30225V9.60855C113.191 9.60171 112.95 9.6184 112.712 9.65836C112.641 9.67558 112.579 9.71753 112.536 9.77666C112.479 9.92584 112.454 10.0849 112.461 10.2443C112.456 10.3078 112.447 10.7648 112.431 11.6159V13.8562C112.431 14.2976 112.438 14.726 112.447 15.1432C112.437 15.3277 112.462 15.5126 112.52 15.688C112.566 15.7501 112.631 15.7952 112.705 15.8162C112.945 15.859 113.189 15.8769 113.432 15.8698ZM112.461 10.2443C112.456 10.3078 112.447 10.7648 112.431 11.6159V13.8562" fill="white"/>
<path d="M114.548 16.1768V15.8704C114.783 15.8834 115.019 15.8561 115.245 15.7895C115.267 15.7821 115.288 15.7702 115.306 15.7544C115.323 15.7387 115.337 15.7194 115.347 15.698C115.397 15.5338 115.421 15.3628 115.419 15.1911C115.439 14.764 115.448 14.3979 115.448 14.0891V10.1521C115.453 10.0818 115.446 10.0111 115.427 9.94294C115.381 9.86207 115.318 9.79153 115.244 9.7356C115.184 9.68438 115.111 9.65 115.033 9.63598C114.858 9.61507 114.682 9.60612 114.506 9.60921V9.30225C115.087 9.32217 115.454 9.33213 115.604 9.33213C115.859 9.33213 116.109 9.32217 116.361 9.30225C116.643 9.66027 116.851 9.92385 116.983 10.093L118.013 11.3239L119.516 13.0823C119.996 13.6427 120.383 14.0835 120.674 14.4048C120.859 14.6171 121.015 14.7837 121.141 14.9047V11.3806C121.141 11.0643 121.132 10.6938 121.112 10.2729C121.114 10.1047 121.092 9.937 121.047 9.77483C121.023 9.73156 120.985 9.69786 120.94 9.67956C120.712 9.62109 120.477 9.59737 120.243 9.60921V9.30225C120.642 9.32217 121.044 9.33213 121.455 9.33213C121.839 9.33213 122.189 9.32217 122.504 9.30225V9.60921C122.27 9.59715 122.035 9.62088 121.808 9.67956C121.785 9.68871 121.764 9.70235 121.747 9.71967C121.729 9.73699 121.715 9.75765 121.706 9.78043C121.654 9.94508 121.63 10.1172 121.635 10.2897C121.616 10.7119 121.605 11.0786 121.605 11.3875V13.713C121.605 14.185 121.615 15.0643 121.635 16.3511H121.134L121.009 16.2173C120.989 16.2135 120.947 16.1618 120.93 16.1475C120.862 16.0866 120.798 16.0213 120.738 15.952C120.46 15.6432 120.254 15.4101 120.123 15.2528L119.472 14.4564L115.894 10.3128V14.0654C115.894 14.3855 115.903 14.7615 115.926 15.1968C115.924 15.3652 115.945 15.5331 115.99 15.6955C116 15.7182 116.015 15.7386 116.034 15.7554C116.052 15.7721 116.074 15.7848 116.097 15.7926C116.324 15.8562 116.56 15.8825 116.795 15.8704V16.1768C116.5 16.1575 116.173 16.1475 115.819 16.1475C115.429 16.1475 115.004 16.1575 114.548 16.1768Z" fill="white"/>
<path d="M126.334 15.8698V16.1762C125.621 16.1569 125.154 16.1469 124.927 16.1469L123.378 16.1762V15.8698C123.619 15.8766 123.859 15.8587 124.096 15.8163C124.166 15.7978 124.229 15.758 124.275 15.7023C124.331 15.5531 124.356 15.3944 124.349 15.2354C124.355 15.1675 124.364 14.7074 124.379 13.8562V11.616C124.379 11.1783 124.369 10.7495 124.349 10.3296C124.358 10.1452 124.334 9.96057 124.278 9.78479C124.233 9.72279 124.169 9.67811 124.095 9.65839C123.858 9.61858 123.618 9.6019 123.378 9.60858V9.30225C124.016 9.32155 124.511 9.33151 124.859 9.33151C125.194 9.33151 125.685 9.32176 126.334 9.30225V9.60858C126.094 9.60172 125.853 9.6184 125.616 9.65839C125.544 9.6754 125.482 9.7171 125.438 9.77607C125.382 9.92545 125.356 10.0848 125.364 10.2443C125.359 10.3078 125.35 10.765 125.336 11.616V13.8562C125.336 14.2977 125.339 14.726 125.35 15.1432C125.34 15.3278 125.365 15.5127 125.423 15.688C125.469 15.7502 125.534 15.7954 125.608 15.8163C125.848 15.8591 126.091 15.877 126.334 15.8698Z" fill="white"/>
<path d="M133.538 15.3168L133.342 15.7682C132.972 15.9495 132.583 16.0878 132.182 16.1804C131.777 16.2678 131.364 16.3102 130.95 16.3068C130.457 16.3107 129.967 16.2479 129.491 16.12C129.073 16.0072 128.676 15.8256 128.318 15.5827C127.7 15.17 127.239 14.5613 127.01 13.8549C126.895 13.494 126.839 13.1171 126.843 12.7385C126.832 12.2579 126.927 11.7809 127.122 11.3413C127.317 10.9018 127.606 10.5106 127.969 10.1956C128.829 9.48373 129.926 9.123 131.04 9.18571C131.326 9.18476 131.611 9.2016 131.894 9.23614C132.215 9.28226 132.534 9.3465 132.848 9.42853C133.225 9.52317 133.453 9.57797 133.538 9.5954C133.467 9.76236 133.412 9.93558 133.373 10.1128C133.315 10.4271 133.278 10.745 133.263 11.0642H132.958L132.953 10.4988C132.936 10.3418 132.875 10.1927 132.778 10.0681C132.681 9.94355 132.551 9.84844 132.403 9.7934C131.936 9.61764 131.439 9.53965 130.941 9.56427C130.527 9.56078 130.116 9.61934 129.72 9.73798C129.39 9.84435 129.087 10.0228 128.834 10.2604C128.566 10.5177 128.352 10.8267 128.207 11.1688C128.032 11.6086 127.948 12.0792 127.96 12.5523C127.941 12.9869 128.015 13.4205 128.176 13.8246C128.337 14.2287 128.582 14.5941 128.894 14.8965C129.568 15.5069 130.457 15.8254 131.365 15.7825C131.8 15.7864 132.233 15.7257 132.651 15.6026C132.935 15.5127 133.205 15.3821 133.452 15.2147L133.538 15.3168Z" fill="white"/>
<path d="M103.55 15.3167L103.353 15.7681C102.984 15.9491 102.596 16.0874 102.195 16.1803C101.79 16.2676 101.376 16.31 100.961 16.3067C100.469 16.3106 99.9784 16.2478 99.503 16.1199C99.0846 16.0073 98.6879 15.8257 98.3293 15.5825C98.0133 15.3688 97.7352 15.1039 97.5062 14.7986C97.2959 14.5116 97.1326 14.193 97.0224 13.8547C96.907 13.494 96.8503 13.1171 96.8543 12.7383C96.8437 12.2579 96.939 11.781 97.1334 11.3415C97.3279 10.902 97.6167 10.5108 97.9794 10.1955C98.8401 9.48415 99.9373 9.12352 101.052 9.18557C101.337 9.18462 101.623 9.20147 101.906 9.23601C102.227 9.28213 102.546 9.34636 102.86 9.4284C103.235 9.52304 103.466 9.57783 103.55 9.59527C103.48 9.76243 103.424 9.9356 103.385 10.1127C103.326 10.4269 103.29 10.7448 103.276 11.0641H102.971L102.966 10.4987C102.948 10.3416 102.887 10.1924 102.79 10.0678C102.693 9.94324 102.563 9.84818 102.414 9.79327C101.948 9.61739 101.45 9.53939 100.953 9.56414C100.539 9.56065 100.128 9.61921 99.7315 9.73785C99.401 9.8442 99.0981 10.0226 98.8449 10.2602C98.5772 10.5179 98.3642 10.8269 98.2185 11.1687C98.0432 11.6083 97.9593 12.079 97.972 12.5522C97.953 12.9867 98.0264 13.4204 98.1874 13.8245C98.3484 14.2286 98.5933 14.5939 98.9059 14.8964C99.5801 15.5069 100.469 15.8255 101.377 15.7824C101.812 15.7864 102.245 15.7257 102.662 15.6025C102.947 15.5126 103.217 15.3819 103.464 15.2146L103.55 15.3167Z" fill="white"/>
<path d="M99.749 0.479618V0.157715C100.102 0.18262 100.44 0.195073 100.762 0.195073C101.09 0.195073 101.402 0.18262 101.702 0.157715C101.999 0.802144 102.271 1.36501 102.517 1.84631L104.436 5.6033L106.169 2.16261C106.64 1.2262 106.955 0.557905 107.114 0.157715C107.469 0.18262 107.77 0.195073 108.016 0.195073C108.241 0.195073 108.605 0.18262 109.11 0.157715V0.479618C108.866 0.472491 108.621 0.489173 108.379 0.529429C108.309 0.546865 108.246 0.58766 108.201 0.64524C108.14 0.791638 108.114 0.949878 108.125 1.10786C108.121 1.17199 108.114 1.62589 108.1 2.46957V4.69051C108.1 5.12823 108.108 5.55349 108.125 5.9663C108.115 6.14896 108.14 6.33184 108.197 6.5055C108.243 6.56784 108.308 6.613 108.383 6.63376C108.623 6.67681 108.867 6.69455 109.11 6.68669V6.9961C108.431 6.96933 107.952 6.95874 107.673 6.95874C107.448 6.95874 106.95 6.96933 106.178 6.9961V6.68669C106.424 6.69418 106.67 6.67644 106.912 6.63376C106.982 6.61771 107.044 6.57788 107.088 6.52107C107.148 6.37351 107.174 6.21428 107.163 6.05533C107.168 5.98747 107.176 5.53356 107.188 4.68802V1.15892L105.443 4.63572C105.17 5.17679 104.957 5.61513 104.8 5.9445C104.689 6.1836 104.52 6.56652 104.295 7.09327H104.098C104.065 6.99256 104.024 6.89435 103.977 6.79939L103.632 6.09518L101.215 1.32142V4.68802C101.215 5.12511 101.227 5.55162 101.251 5.96505C101.241 6.14803 101.266 6.33129 101.325 6.50484C101.371 6.56785 101.437 6.61332 101.512 6.63373C101.753 6.67681 101.997 6.69454 102.242 6.68665V6.99606L101.021 6.95871L99.749 6.99606V6.68665C99.9926 6.69422 100.236 6.67648 100.476 6.63373C100.547 6.61654 100.611 6.57704 100.658 6.52103C100.714 6.37282 100.74 6.21489 100.734 6.05654C100.738 5.9893 100.746 5.53477 100.758 4.69048V2.46959C100.758 2.03619 100.75 1.61114 100.734 1.19443C100.743 1.01174 100.719 0.828928 100.661 0.655227C100.615 0.593695 100.549 0.54942 100.475 0.529454C100.235 0.489289 99.9921 0.472581 99.749 0.479618Z" fill="white"/>
<path d="M110.507 6.96464C110.793 6.96464 111.219 6.97335 111.79 6.99639V6.69005C111.57 6.69383 111.35 6.67862 111.132 6.6446C111.067 6.63445 111.007 6.60418 110.96 6.55806C110.933 6.52791 110.918 6.48848 110.919 6.44785C110.939 6.27758 110.989 6.11222 111.067 5.9597L111.613 4.71941H114.545L115.172 6.19817C115.212 6.28449 115.236 6.37767 115.241 6.47275C115.242 6.49333 115.238 6.51384 115.231 6.53301C115.223 6.55218 115.212 6.56961 115.197 6.58421C115.151 6.62293 115.094 6.64775 115.034 6.65581C114.806 6.67991 114.577 6.69134 114.347 6.69005V6.99639L115.976 6.96464C116.185 6.96464 116.554 6.97335 117.08 6.99639V6.69005C116.906 6.69906 116.732 6.67928 116.564 6.63153C116.473 6.5815 116.4 6.50478 116.354 6.41174C116.238 6.20876 116.005 5.71583 115.654 4.93297L113.487 0.0957031H113.168C112.714 1.1299 112.419 1.79488 112.279 2.09194L111.012 4.81037C110.632 5.59739 110.412 6.05005 110.352 6.16835C110.292 6.30906 110.211 6.43968 110.111 6.55559C110.059 6.60321 109.997 6.63834 109.929 6.65832C109.764 6.68298 109.596 6.6936 109.429 6.69008V6.99642C109.82 6.97338 110.179 6.96464 110.507 6.96464ZM113.077 1.41572L114.343 4.31347H111.787L113.077 1.41572Z" fill="white"/>
<path d="M121.287 1.18566C121.414 1.0207 121.515 0.837705 121.588 0.642749C121.589 0.614067 121.58 0.586003 121.562 0.562998C121.545 0.539992 121.521 0.52336 121.493 0.515731C121.247 0.475754 120.997 0.458869 120.748 0.465298V0.157715C121.372 0.178262 121.74 0.187601 122.087 0.187601C122.422 0.187601 122.606 0.178262 123.269 0.157715V0.465298C123.051 0.457845 122.834 0.474762 122.62 0.515731C122.527 0.537708 122.439 0.577473 122.362 0.632818C122.212 0.772611 122.079 0.929318 121.965 1.0998L120.484 3.22174C120.304 3.4837 120.143 3.75815 120.002 4.043C119.966 4.13509 119.947 4.23302 119.947 4.33191V4.69802C119.947 5.13383 119.955 5.55912 119.976 5.97006C119.965 6.15287 119.989 6.33605 120.047 6.50989C120.093 6.57131 120.158 6.61611 120.231 6.63753C120.467 6.67928 120.707 6.69681 120.946 6.68983V6.99679C120.397 6.97313 119.923 6.96442 119.524 6.96442C119.14 6.96442 118.633 6.97313 118.004 6.99679V6.68983C118.244 6.69645 118.485 6.67893 118.721 6.63753C118.791 6.62048 118.852 6.58055 118.896 6.52421C118.956 6.37764 118.983 6.21976 118.975 6.06159C118.979 5.99432 118.989 5.5398 119.005 4.69802V4.13889C118.933 3.99505 118.864 3.86595 118.799 3.75161C118.751 3.67127 118.58 3.39585 118.285 2.92537L116.997 1.0998C116.899 0.929943 116.781 0.773056 116.644 0.632818C116.57 0.57724 116.485 0.537388 116.396 0.515731C116.186 0.474183 115.972 0.457257 115.759 0.465298V0.157715C116.422 0.178262 116.621 0.187601 116.955 0.187601C117.304 0.187601 118.195 0.178262 118.82 0.157715V0.465298C118.553 0.460195 118.285 0.477063 118.021 0.515731C117.992 0.52352 117.967 0.539847 117.947 0.562537C117.928 0.585227 117.917 0.613206 117.914 0.642749C117.97 0.836061 118.056 1.01931 118.169 1.18569L119.678 3.62269L121.287 1.18566Z" fill="white"/>
<path d="M124.32 1.73973C124.51 1.32191 124.828 0.975413 125.228 0.750356C125.659 0.515583 126.144 0.397729 126.634 0.408528C126.985 0.405809 127.334 0.460491 127.668 0.570414C127.948 0.658687 128.212 0.794989 128.446 0.97326C128.645 1.13284 128.819 1.32155 128.962 1.53301C129.11 1.75328 129.227 1.99324 129.31 2.24593C129.454 2.70251 129.526 3.17913 129.521 3.65807C129.532 4.20174 129.431 4.74184 129.226 5.24517C129.045 5.68347 128.733 6.05502 128.333 6.30864C127.908 6.5663 127.418 6.69679 126.921 6.68467C126.558 6.68901 126.197 6.62699 125.856 6.50166C125.527 6.37198 125.23 6.17469 124.982 5.92257C124.711 5.64371 124.497 5.31437 124.353 4.95318C124.245 4.6897 124.163 4.41603 124.109 4.13628C124.046 3.83038 124.014 3.51897 124.013 3.20668C124.005 2.70098 124.11 2.19974 124.32 1.73973ZM123.203 4.97248C123.355 5.41292 123.601 5.81454 123.926 6.14865C124.252 6.47681 124.649 6.72673 125.086 6.87962C125.562 7.04211 126.061 7.12438 126.564 7.12307C127.631 7.15962 128.669 6.77105 129.449 6.0428C129.821 5.70021 130.115 5.28239 130.312 4.8172C130.509 4.352 130.605 3.85009 130.593 3.34491C130.596 3.02424 130.558 2.70455 130.48 2.39352C130.416 2.12344 130.313 1.86416 130.174 1.62394C129.994 1.31619 129.761 1.04245 129.486 0.815135C129.155 0.54779 128.775 0.347126 128.368 0.224252C127.878 0.0694486 127.367 -0.00601266 126.853 0.000725684C126.307 -0.00901367 125.763 0.0793499 125.249 0.261611C124.782 0.433767 124.354 0.697537 123.99 1.03742C123.638 1.3565 123.366 1.75383 123.196 2.19739C122.874 3.09479 122.876 4.07683 123.203 4.97248Z" fill="white"/>
<path d="M122.605 19.4995H117.177V25.6132C117.177 28.4175 118.153 30.372 119.855 31.7312L119.854 30.8751C118.83 29.604 118.32 27.9949 118.425 26.366V24.7652H120.48V31.7462C120.48 34.2915 119.766 37.5336 115.221 39.5646C110.901 37.6344 110.041 34.6109 109.966 32.1303C112.004 30.7624 113.189 28.7046 113.189 25.6132V24.7652H116.52V23.5056H113.189L111.941 23.5049L108.707 23.5056V30.8427C108.707 31.0993 108.714 31.3483 108.728 31.593V31.5936C109.177 31.3042 109.59 30.9636 109.961 30.5787V24.7652H111.941V26.366C111.941 28.4873 111.55 31.1161 107.762 32.809C103.973 31.1161 103.581 28.4873 103.581 26.366V20.7485H111.941V22.8985H113.189V19.4995H102.334V25.6132C102.334 29.6933 104.399 31.9722 107.762 33.2442C108.141 33.101 108.504 32.9439 108.851 32.7729C109.431 36.4801 111.75 38.6861 115.221 39.9998C118.681 38.6911 120.996 36.4938 121.585 32.8071C121.91 32.9647 122.25 33.1104 122.605 33.2442C125.967 31.9722 128.032 29.6933 128.032 25.6132V19.4995H122.605ZM126.784 26.366C126.784 28.4867 126.393 31.1161 122.605 32.809C122.278 32.664 121.96 32.5019 121.651 32.3233C121.708 31.8318 121.735 31.3374 121.734 30.8427V23.5055H118.425V20.7485H126.784V26.366Z" fill="white"/>
</svg>
