<svg width="148" height="40" viewBox="0 0 148 40" fill="none" xmlns="http://www.w3.org/2000/svg">
<path d="M23.1342 32.9156C21.1808 35.327 18.9444 37.4925 16.4622 39.3749C13.9799 37.4925 11.7435 35.327 9.7901 32.9156L16.4622 26.4209L23.1342 32.9156Z" stroke="white"/>
<path d="M17.1199 17.3882H30.7234C29.974 20.741 28.7618 23.9877 27.1266 27.01L17.1199 17.3882ZM2.22169 17.3882H15.8039L5.82505 26.9598C4.20207 23.9319 2.98422 20.7187 2.22169 17.3882Z" stroke="white"/>
<path d="M5.69922 27.7731C6.69983 29.5546 7.84687 31.2874 9.14034 32.8981L16.4619 25.7718L23.8078 32.9225C25.0769 31.3118 26.2239 29.6034 27.2245 27.8219L16.4375 17.4497L5.69922 27.7731Z" fill="#181818"/>
<path d="M16.4619 25.5523L9.14043 32.6786C7.92017 31.1411 6.84632 29.506 5.87012 27.7976L16.4619 17.6206L27.0782 27.822C26.1264 29.5304 25.0282 31.1655 23.8079 32.703L16.4619 25.5523Z" fill="white"/>
<path d="M16.4619 17.8158L26.8829 27.8463C25.9555 29.457 24.9305 31.019 23.7834 32.4833L16.6571 25.5522L16.4619 25.357L16.2666 25.5522L9.16475 32.4589C8.01771 30.9945 6.96829 29.4326 6.0653 27.8219L16.4619 17.8158ZM16.4619 17.4253L5.69922 27.7487C6.69983 29.5302 7.84687 31.263 9.14034 32.8737L16.4619 25.7474L23.8078 32.8982C25.0769 31.2874 26.2239 29.5791 27.2245 27.7975L16.4619 17.4253Z" fill="white"/>
<path d="M32.0082 5.85722C30.7147 6.24771 29.3724 6.44295 28.0057 6.44295C23.2955 6.46735 18.927 4.02684 16.4621 0C13.9972 4.02684 9.62864 6.46735 4.91845 6.44295C3.57617 6.44295 2.20947 6.24771 0.915997 5.85722C0.598731 9.5424 0.818377 13.252 1.57494 16.8883H31.3004C32.1058 13.252 32.3254 9.5424 32.0082 5.85722Z" fill="white"/>
<path d="M23.8081 10.3963V9.12727H23.0271V8.22428L22.2218 8.00464H22.1486V7.24808C22.1486 7.24808 21.8801 7.58975 20.5866 7.58975C19.3664 7.58975 18.6586 7.19927 17.7068 7.19927C17.2431 7.15046 16.7794 7.3457 16.4866 7.73618V8.05345H16.4621V7.73618C16.1693 7.3457 15.73 7.15046 15.2419 7.19927C14.2657 7.19927 13.558 7.58975 12.3621 7.58975C11.093 7.58975 10.849 7.24808 10.849 7.24808V8.05345H10.8002L9.92159 8.24869V9.15168H9.14062V10.4207H9.92159V12.4708H9.14062V13.7398H9.92159V15.3018C10.7514 15.4238 11.5811 15.497 12.4353 15.497C13.8508 15.497 14.6806 15.3018 15.608 15.2774V15.6678C15.8764 15.7899 16.1693 15.8631 16.4866 15.8631C16.8038 15.8631 17.0967 15.7899 17.3896 15.6678V15.2774C18.317 15.3018 19.1223 15.497 20.5622 15.497C21.392 15.4726 22.2218 15.4238 23.0515 15.3018V13.7398H23.8325V12.4708H23.0515V10.4207H23.8081V10.3963Z" fill="#181818"/>
<path d="M22.2708 7.93177V6.95557L22.0268 7.19962C22.0268 7.19962 21.7339 7.49248 20.5625 7.49248L18.9761 7.27286L17.6827 7.102C17.219 7.07759 16.7797 7.24843 16.4624 7.56569C16.1451 7.22402 15.6814 7.05319 15.2421 7.102L13.9487 7.29724L12.3624 7.51691C11.2153 7.51691 10.9713 7.24843 10.9713 7.24843L10.7272 6.95557V7.32164V7.98058L9.77539 8.17582V15.4486L9.89742 15.473C10.7272 15.595 11.5814 15.6682 12.4111 15.6682C13.4362 15.6438 14.4368 15.5706 15.4374 15.4486V15.7902L15.5106 15.839C15.8035 15.9611 16.1207 16.0343 16.438 16.0343C16.7553 16.0343 17.0969 15.9611 17.3898 15.839L17.463 15.7902V15.4486C18.4636 15.5706 19.4886 15.6438 20.4892 15.6682C21.3434 15.6438 22.1732 15.595 23.003 15.473L23.125 15.4486V8.20023L22.2708 7.93177ZM16.6089 7.85856C16.8773 7.51688 17.2922 7.34607 17.7071 7.39488L18.9517 7.56569L20.5869 7.78534C21.075 7.80975 21.5631 7.73653 22.0268 7.54129V14.4235C21.5631 14.57 21.075 14.6432 20.5869 14.6432L19.0005 14.4235L17.7071 14.2527C17.3166 14.2283 16.9261 14.3503 16.6089 14.5944V7.85856ZM10.9713 7.56569C11.4106 7.73653 11.8743 7.80975 12.338 7.78534L13.9731 7.56569L15.2177 7.39488C15.6326 7.34607 16.0475 7.51688 16.316 7.85856V14.5944C15.9987 14.3503 15.6082 14.2283 15.2177 14.2527L13.9243 14.4479L12.338 14.6676C11.1909 14.6676 10.9468 14.3991 10.9468 14.3991C10.9468 14.3503 10.9713 8.02939 10.9713 7.56569ZM22.881 15.2045C22.1 15.3266 21.319 15.3753 20.5137 15.3997C19.4643 15.3753 18.4148 15.3021 17.3654 15.1801L17.219 15.1557V15.6194C16.9749 15.717 16.7065 15.7658 16.4624 15.7658C16.2183 15.7658 15.9743 15.717 15.7302 15.6194V15.1557L15.5838 15.1801C14.5344 15.3021 13.485 15.3753 12.4356 15.3997C11.6546 15.3997 10.8492 15.3266 10.0683 15.2045V8.39547C10.1903 8.37106 10.5564 8.29787 10.7516 8.24906V14.4235C10.8248 14.57 11.0933 14.8872 12.3867 14.8872L14.0219 14.6676L15.2666 14.4968C15.6815 14.4479 16.1208 14.6188 16.3648 14.9605L16.4136 14.936H16.6089L16.6576 14.9605C16.9261 14.6188 17.341 14.4479 17.7559 14.4968L19.0005 14.6676L20.6357 14.8872C21.9536 14.8872 22.2708 14.5456 22.2952 14.4968L22.3196 8.20023C22.4905 8.24904 22.8077 8.34668 22.9054 8.37109V15.2045H22.881Z" fill="white"/>
<path d="M12.8745 8.76121C12.7769 8.76121 12.7037 8.81002 12.6793 8.90764L12.24 9.85944L12.2156 9.88385C12.1912 9.88385 12.1912 9.85944 12.1668 9.83504C12.1424 9.81063 12.0936 9.6642 11.9959 9.39575L11.8495 9.07848C11.8007 8.95645 11.7519 8.88324 11.7519 8.85883C11.7031 8.78562 11.6543 8.76121 11.5811 8.76121V8.73681V8.7124H11.6543C11.7275 8.7124 11.8007 8.7124 11.8739 8.7124C11.9471 8.7124 12.0692 8.7124 12.1424 8.7124H12.1912V8.73681V8.76121C12.1424 8.76121 12.0203 8.76121 12.0203 8.83443C12.0203 8.85883 12.0203 8.88324 12.0203 8.90764L12.3132 9.59099L12.5573 9.02967C12.5817 8.98086 12.5817 8.93205 12.5817 8.88324C12.5817 8.81002 12.5329 8.78562 12.4108 8.78562V8.76121V8.73681H12.4352C12.484 8.73681 12.5329 8.73681 12.6549 8.73681C12.6793 8.73681 12.7525 8.73681 12.8013 8.73681H12.8745V8.76121C12.8989 8.76121 12.8989 8.76121 12.8745 8.76121Z" fill="white"/>
<path d="M14.0943 9.85945C13.7527 9.85945 13.5574 9.85945 13.5086 9.85945C13.4598 9.85945 13.3866 9.85945 13.3378 9.85945C13.289 9.85945 13.1913 9.85945 13.0693 9.85945H12.9961V9.83505V9.81064C13.0449 9.81064 13.1181 9.78624 13.1669 9.76183C13.1913 9.71302 13.2157 9.63981 13.2157 9.591C13.2157 9.54219 13.2157 9.46897 13.2157 9.42016C13.2157 9.32254 13.2157 9.22492 13.2157 9.10289V8.93206C13.2157 8.81003 13.1425 8.81003 13.0205 8.78563V8.76122V8.73682H13.0937C13.1425 8.73682 13.2401 8.73682 13.4598 8.73682C13.655 8.73682 13.8503 8.73682 13.8991 8.73682C13.9235 8.73682 13.9967 8.73682 14.0211 8.73682C14.0455 8.73682 14.0699 8.73682 14.0699 8.76122L14.0943 9.02968C14.0699 9.02968 14.0699 9.02968 14.0699 9.02968H14.0455C13.9967 8.95646 13.9479 8.88325 13.8747 8.83444C13.8503 8.81003 13.8015 8.81003 13.7771 8.81003C13.7527 8.81003 13.7282 8.81003 13.6306 8.81003C13.5574 8.81003 13.5086 8.81003 13.5086 8.81003C13.5086 8.81003 13.5086 8.81003 13.4842 8.85884C13.4842 8.88325 13.4842 8.93206 13.4842 9.07849V9.22492H13.533C13.5818 9.22492 13.6306 9.22492 13.655 9.20051C13.7038 9.17611 13.7527 9.1517 13.7771 9.1273C13.7771 9.10289 13.8015 9.05408 13.8015 9.02968C13.8015 9.02968 13.8259 9.02968 13.8503 9.02968H13.8747C13.8747 9.07849 13.8747 9.17611 13.8747 9.27373C13.8747 9.32254 13.8747 9.44457 13.8747 9.49338H13.8503H13.8259C13.8259 9.39576 13.8015 9.32254 13.7282 9.29813C13.6794 9.27373 13.655 9.27373 13.6062 9.27373C13.5818 9.27373 13.5574 9.27373 13.533 9.27373V9.56659C13.533 9.6154 13.533 9.66421 13.5574 9.71302C13.5818 9.73743 13.6062 9.76183 13.6306 9.78624C13.655 9.78624 13.7038 9.78624 13.7282 9.78624H13.8991C13.9479 9.78624 13.9723 9.78624 14.0211 9.76183C14.0943 9.68862 14.1675 9.6154 14.1919 9.51778H14.2164H14.2408V9.81064C14.1431 9.83505 14.1431 9.85945 14.0943 9.85945Z" fill="white"/>
<path d="M15.4615 9.07849H15.4371C15.4127 9.02968 15.3883 8.95646 15.3639 8.90765C15.3151 8.83444 15.2419 8.81003 15.1442 8.78563C15.1198 8.78563 15.0466 8.78563 15.0222 8.78563V9.29813C15.0222 9.37135 15.0222 9.46897 15.0222 9.63981C15.0222 9.76183 15.071 9.76183 15.2175 9.78624V9.81064V9.83505H15.1686C15.0954 9.83505 14.9246 9.83505 14.8758 9.83505C14.8514 9.83505 14.6561 9.83505 14.5829 9.83505V9.81064V9.78624C14.7538 9.76183 14.7782 9.73743 14.7782 9.68862C14.7782 9.63981 14.7782 9.49338 14.7782 9.34694V8.93206C14.7782 8.88325 14.7782 8.83444 14.7782 8.78563C14.7293 8.78563 14.6561 8.78563 14.6073 8.81003C14.5097 8.85884 14.4121 8.95646 14.3877 9.05408H14.3633H14.3389V8.76122C14.3389 8.73682 14.3389 8.73682 14.3633 8.73682C14.3877 8.73682 14.4365 8.73682 14.4853 8.73682C14.5341 8.73682 14.6805 8.73682 14.9002 8.73682C15.1686 8.73682 15.3883 8.73682 15.4371 8.73682C15.4615 8.73682 15.4859 8.73682 15.4859 8.73682C15.4859 8.76122 15.4859 8.76122 15.4859 8.78563V9.07849C15.4859 9.05408 15.4859 9.07849 15.4615 9.07849Z" fill="white"/>
<path d="M12.8258 10.8602H12.8014C12.777 10.8114 12.7526 10.7382 12.7282 10.6894C12.6793 10.6162 12.6061 10.5918 12.5085 10.5674C12.4841 10.5674 12.4109 10.5674 12.3865 10.5674V11.0799C12.3865 11.1531 12.3865 11.2507 12.3865 11.4216C12.3865 11.5436 12.4597 11.5436 12.5817 11.568V11.5924V11.6168H12.5329C12.4597 11.6168 12.2889 11.6168 12.24 11.6168C12.2156 11.6168 12.0204 11.6168 11.9472 11.6168V11.5924V11.568C12.118 11.5436 12.1424 11.5192 12.1668 11.4703C12.1668 11.4215 12.1668 11.2751 12.1668 11.1287V10.7138C12.1668 10.665 12.1668 10.6162 12.1668 10.5674C12.118 10.5674 12.0448 10.5674 11.996 10.5918C11.8984 10.6406 11.8008 10.7382 11.7763 10.8358H11.7519H11.7275V10.5185C11.7275 10.4941 11.7275 10.4941 11.7519 10.4941C11.7763 10.4941 11.8252 10.4941 11.874 10.4941C11.9228 10.4941 12.0936 10.4941 12.2889 10.4941C12.5573 10.4941 12.777 10.4941 12.8258 10.4941C12.8502 10.4941 12.8746 10.4941 12.8746 10.4941C12.8746 10.4941 12.8746 10.5185 12.8746 10.543L12.8258 10.8602C12.8502 10.8602 12.8502 10.8358 12.8258 10.8602Z" fill="white"/>
<path d="M14.1432 11.6412C13.8015 11.6412 13.6062 11.6412 13.5574 11.6412C13.5086 11.6412 13.4354 11.6412 13.3866 11.6412C13.3378 11.6412 13.2402 11.6412 13.1181 11.6412H13.0449V11.6168C13.0449 11.5924 13.0449 11.5924 13.0449 11.568C13.0937 11.568 13.1669 11.5436 13.2158 11.5192C13.2402 11.4948 13.2402 11.4459 13.2646 11.3483C13.2646 11.2995 13.2646 11.2263 13.2646 11.1775C13.2646 11.0799 13.2646 10.9822 13.2646 10.8602C13.2646 10.7626 13.2646 10.7138 13.2646 10.6894C13.2646 10.5674 13.2158 10.5674 13.0693 10.543V10.5185C13.0693 10.5185 13.0693 10.4941 13.0937 10.4941H13.1425C13.1914 10.4941 13.289 10.4941 13.5086 10.4941C13.7039 10.4941 13.8991 10.4941 13.9479 10.4941H14.0699C14.0943 10.4941 14.1187 10.4941 14.1187 10.5185L14.1432 10.787H14.1187H14.0943C14.0455 10.7138 13.9967 10.6406 13.9235 10.5918C13.8991 10.5674 13.8503 10.5674 13.8259 10.5674C13.8015 10.5674 13.7771 10.5674 13.6795 10.5674C13.6062 10.5674 13.5574 10.5674 13.5574 10.5674C13.5574 10.5674 13.533 10.5674 13.533 10.6162C13.533 10.6406 13.533 10.6894 13.533 10.8358V10.9822H13.5818C13.6306 10.9822 13.6795 10.9822 13.7039 10.9578C13.7527 10.9334 13.8015 10.909 13.8259 10.8846C13.8259 10.8602 13.8503 10.8114 13.8503 10.787C13.8503 10.787 13.8747 10.787 13.8991 10.787H13.9235C13.9235 10.8358 13.8991 10.9334 13.8991 11.0311C13.8991 11.0799 13.8991 11.2019 13.8991 11.2507H13.8747H13.8503C13.8503 11.1531 13.8259 11.0799 13.7527 11.0555C13.7039 11.0311 13.6795 11.0311 13.6306 11.0311C13.6062 11.0311 13.5818 11.0311 13.5574 11.0311V11.3239C13.5574 11.3727 13.5574 11.4215 13.5818 11.4703C13.5818 11.4948 13.6306 11.5192 13.6551 11.5436C13.6795 11.5436 13.7283 11.5436 13.7527 11.5436H13.9235C13.9723 11.5436 13.9967 11.5436 14.0455 11.5192C14.1187 11.4459 14.192 11.3727 14.2408 11.2751H14.2652H14.2896V11.568C14.192 11.6412 14.1676 11.6412 14.1432 11.6412Z" fill="white"/>
<path d="M14.9246 11.6656C14.827 11.6656 14.7538 11.6412 14.6562 11.5924C14.6318 11.5924 14.6318 11.5924 14.6074 11.5924C14.583 11.5924 14.5586 11.6168 14.5342 11.6412C14.5097 11.6412 14.4853 11.6412 14.4609 11.6168C14.4609 11.5924 14.4853 11.5191 14.4853 11.4703C14.4853 11.4459 14.4853 11.3239 14.4853 11.2751C14.4853 11.2507 14.5097 11.2507 14.5342 11.2507H14.5586C14.583 11.3239 14.6318 11.3971 14.6562 11.4703C14.7294 11.5436 14.8026 11.5924 14.9002 11.5924C14.9734 11.5924 15.0223 11.568 15.0955 11.5436C15.1443 11.5192 15.1687 11.4704 15.1687 11.3971C15.1687 11.3483 15.1687 11.3239 15.1443 11.2995C15.1199 11.2507 15.0711 11.2263 15.0223 11.2263C14.9734 11.2019 14.8026 11.1531 14.7294 11.1287C14.6806 11.1043 14.6074 11.0555 14.583 11.0067C14.5342 10.9579 14.5097 10.8846 14.5097 10.787C14.5097 10.6162 14.6562 10.4697 14.8514 10.4697H14.8758C14.9734 10.4697 15.0711 10.4942 15.1443 10.543C15.1687 10.5186 15.1931 10.4941 15.2175 10.4697C15.2419 10.4697 15.2663 10.4697 15.2663 10.4941C15.2663 10.5429 15.2419 10.5918 15.2419 10.6406C15.2419 10.665 15.2663 10.787 15.2663 10.8114C15.2419 10.8114 15.2419 10.8358 15.2175 10.8358H15.1931C15.1687 10.787 15.1443 10.6894 15.0955 10.6406C15.0467 10.5674 14.949 10.543 14.8758 10.543C14.7782 10.543 14.6806 10.6162 14.6806 10.7138C14.6806 10.8114 14.7538 10.8602 14.827 10.8846C14.8758 10.909 14.9246 10.9334 14.9979 10.9334C15.0711 10.9579 15.1199 10.9823 15.1687 11.0067C15.2907 11.0555 15.3639 11.1775 15.3639 11.2995C15.3151 11.5192 15.1443 11.6656 14.9246 11.6656C14.949 11.6656 14.949 11.6656 14.9246 11.6656Z" fill="white"/>
<path d="M13.2896 13.4229C12.948 13.4229 12.7527 13.4229 12.7039 13.4229C12.6551 13.4229 12.5819 13.4229 12.5331 13.4229C12.4843 13.4229 12.3866 13.4229 12.2646 13.4229H12.1914V13.3985V13.3741C12.2402 13.3741 12.3134 13.3497 12.3622 13.3253C12.3866 13.2765 12.4111 13.2033 12.4111 13.1545C12.4111 13.1057 12.4111 13.0325 12.4111 12.9837C12.4111 12.886 12.4111 12.7884 12.4111 12.6664V12.4956C12.4111 12.3735 12.3378 12.3735 12.2158 12.3491V12.3247V12.3003H12.289C12.3378 12.3003 12.4355 12.3003 12.6551 12.3003C12.8503 12.3003 13.0456 12.3003 13.0944 12.3003C13.1188 12.3003 13.192 12.3003 13.2164 12.3003C13.2408 12.3003 13.2652 12.3003 13.2652 12.3247L13.2896 12.5932C13.2652 12.5932 13.2652 12.5932 13.2652 12.5932H13.2408C13.192 12.52 13.1432 12.4467 13.07 12.3979C13.0456 12.3735 12.9968 12.3735 12.9724 12.3735C12.948 12.3735 12.9236 12.3735 12.8259 12.3735C12.7527 12.3735 12.7039 12.3735 12.7039 12.3735C12.7039 12.3735 12.7039 12.3735 12.6795 12.4223C12.6795 12.4467 12.6795 12.4956 12.6795 12.642V12.7884H12.7283C12.7771 12.7884 12.8259 12.7884 12.8503 12.764C12.8992 12.7396 12.948 12.7152 12.9724 12.6908C12.9724 12.6664 12.9968 12.6176 12.9968 12.5932C12.9968 12.5932 13.0212 12.5932 13.0456 12.5932H13.07C13.07 12.642 13.07 12.7396 13.07 12.8372C13.07 12.886 13.07 13.008 13.07 13.0569H13.0456H13.0212C13.0212 12.9592 12.9968 12.886 12.9236 12.8616C12.8748 12.8372 12.8503 12.8372 12.8015 12.8372C12.7771 12.8372 12.7527 12.8372 12.7283 12.8372V13.1301C12.7283 13.1789 12.7283 13.2277 12.7527 13.2765C12.7771 13.3009 12.8015 13.3253 12.8259 13.3497C12.8503 13.3497 12.8992 13.3497 12.9236 13.3497H13.0944C13.1432 13.3497 13.1676 13.3497 13.2164 13.3253C13.2896 13.2521 13.3629 13.1789 13.3873 13.0813C13.4117 13.0813 13.4361 13.0813 13.4605 13.0813V13.3741C13.3384 13.423 13.3384 13.4229 13.2896 13.4229Z" fill="white"/>
<path d="M14.9487 12.3491C14.8267 12.3491 14.729 12.4223 14.729 12.5931V13.1789C14.729 13.2033 14.729 13.3741 14.729 13.4229C14.7046 13.4229 14.7046 13.4473 14.6802 13.4473C14.6802 13.4473 14.6558 13.4473 14.6558 13.4229L13.8505 12.5687V12.7396V13.0568C13.8505 13.0812 13.8505 13.1301 13.8505 13.1789C13.8505 13.2277 13.8749 13.2765 13.8993 13.3009C13.9481 13.3253 13.9969 13.3497 14.0457 13.3497V13.3741V13.3985H13.9481C13.8749 13.3985 13.826 13.3985 13.7284 13.3985C13.6796 13.3985 13.6064 13.3985 13.5576 13.3985H13.5088V13.3741V13.3497C13.582 13.3497 13.6308 13.3253 13.6796 13.2765C13.704 13.2277 13.704 13.1789 13.704 13.1301V12.7152C13.704 12.642 13.704 12.6176 13.704 12.5443C13.704 12.4955 13.6796 12.4467 13.6552 12.4223C13.6308 12.3979 13.6308 12.3735 13.6064 12.3735C13.5576 12.3491 13.5332 12.3247 13.4844 12.3247V12.3003V12.2759H13.5088C13.5332 12.2759 13.6552 12.2759 13.7528 12.2759H13.8016C13.826 12.2759 13.826 12.3003 13.826 12.3003L14.4118 12.9592C14.4606 13.008 14.5094 13.0812 14.5582 13.1057V12.642C14.5582 12.5687 14.5582 12.5443 14.5582 12.5199C14.5582 12.4711 14.5338 12.4467 14.5338 12.3979C14.5094 12.3735 14.4118 12.3491 14.3386 12.3491V12.3247V12.3003H14.363C14.4118 12.3003 14.5094 12.3003 14.5582 12.3003C14.7046 12.3003 14.729 12.3003 14.8023 12.3003H14.8511V12.3247C14.9487 12.3247 14.9487 12.3247 14.9487 12.3491Z" fill="white"/>
<path d="M18.7075 8.76169C18.5855 8.76169 18.4878 8.83491 18.4878 9.00574V9.59147C18.4878 9.61587 18.4878 9.78671 18.4878 9.83552C18.4634 9.83552 18.4634 9.85992 18.439 9.85992C18.439 9.85992 18.4146 9.85992 18.4146 9.83552L17.6093 8.98134V9.15217V9.46944C17.6093 9.49385 17.6093 9.54266 17.6093 9.59147C17.6093 9.64028 17.6337 9.68909 17.6581 9.71349C17.7069 9.7379 17.7557 9.7623 17.8045 9.7623V9.78671V9.81111H17.7557C17.6825 9.81111 17.6337 9.81111 17.536 9.81111C17.4872 9.81111 17.414 9.81111 17.3652 9.81111H17.3164V9.78671V9.7623C17.3896 9.7623 17.4384 9.7379 17.4872 9.68909C17.5116 9.64028 17.5116 9.59147 17.5116 9.54266V9.12777C17.5116 9.05455 17.5116 9.03015 17.5116 8.95693C17.5116 8.90812 17.4872 8.85931 17.4628 8.83491C17.4384 8.8105 17.4384 8.7861 17.414 8.7861C17.3652 8.76169 17.3408 8.73729 17.292 8.73729V8.71288V8.68848H17.3164C17.3408 8.68848 17.4628 8.68848 17.5605 8.68848H17.6093C17.6337 8.68848 17.6337 8.71288 17.6581 8.71288L18.2438 9.37182C18.2926 9.42063 18.3414 9.49385 18.3902 9.51825V9.05455C18.3902 9.00574 18.3902 8.95693 18.3902 8.93253C18.3902 8.88372 18.3658 8.85931 18.3658 8.8105C18.3414 8.7861 18.2438 8.76169 18.1706 8.76169V8.73729V8.71288H18.195C18.2438 8.71288 18.3414 8.71288 18.3902 8.71288C18.5367 8.71288 18.5611 8.71288 18.6343 8.71288H18.6831V8.73729C18.7075 8.73729 18.7075 8.76169 18.7075 8.76169Z" fill="white"/>
<path d="M19.9037 9.71349C19.6841 9.93314 19.318 9.93314 19.0983 9.71349C18.8787 9.46944 18.8787 9.10336 19.0983 8.85931C19.1959 8.76169 19.3424 8.68848 19.4888 8.68848C19.5864 8.68848 19.7085 8.71288 19.7817 8.76169C19.9525 8.85931 20.0501 9.05455 20.0501 9.2742C20.0745 9.42063 20.0013 9.59147 19.9037 9.71349ZM19.7085 8.85931C19.6596 8.7861 19.562 8.73729 19.4888 8.73729C19.3912 8.73729 19.3179 8.7861 19.2691 8.85931C19.1959 8.98134 19.1471 9.12777 19.1715 9.2742C19.1715 9.42063 19.1959 9.54266 19.2691 9.66468C19.3179 9.7379 19.3912 9.78671 19.4888 9.78671C19.5864 9.78671 19.684 9.7379 19.7328 9.64028C19.7816 9.51825 19.8061 9.39623 19.8061 9.2742C19.8305 9.12777 19.7817 8.98134 19.7085 8.85931Z" fill="white"/>
<path d="M21.5142 8.76121C21.4166 8.76121 21.3433 8.81002 21.3189 8.90764L20.8796 9.85944L20.8552 9.88385C20.8308 9.88385 20.8308 9.85944 20.8064 9.83504C20.782 9.81063 20.7332 9.6642 20.6356 9.39575L20.4892 9.07848C20.4404 8.95645 20.3915 8.88324 20.3915 8.85883C20.3427 8.78562 20.2939 8.76121 20.2207 8.76121V8.73681V8.7124H20.2939C20.3671 8.7124 20.4404 8.7124 20.5136 8.7124C20.5868 8.7124 20.7088 8.7124 20.782 8.7124H20.8308L20.8552 8.73681V8.76121C20.8064 8.76121 20.6844 8.76121 20.6844 8.83443C20.6844 8.85883 20.6844 8.88324 20.6844 8.90764L20.9773 9.59099L21.2213 9.02967C21.2457 8.98086 21.2457 8.93205 21.2457 8.88324C21.2457 8.81002 21.1969 8.78562 21.0749 8.78562V8.76121V8.73681H21.0993C21.1481 8.73681 21.1969 8.73681 21.3189 8.73681C21.3433 8.73681 21.4166 8.73681 21.4654 8.73681H21.5386C21.5386 8.73681 21.5386 8.76121 21.5142 8.76121Z" fill="white"/>
<path d="M18.3414 10.8602H18.317C18.2926 10.8114 18.2682 10.7382 18.2438 10.6894C18.195 10.6162 18.1217 10.5674 18.0241 10.5674C17.9997 10.5674 17.9265 10.5674 17.9021 10.5674V11.0799C17.9021 11.1531 17.9021 11.2507 17.9021 11.4216C17.9021 11.5436 17.9753 11.5436 18.0973 11.568V11.5924V11.6168H18.0485C17.9753 11.6168 17.8045 11.6168 17.7557 11.6168C17.7313 11.6168 17.536 11.6168 17.4628 11.6168V11.5924V11.568C17.6336 11.5436 17.6581 11.5192 17.6825 11.4703C17.6825 11.4215 17.6825 11.2751 17.6825 11.1287V10.7138C17.6825 10.665 17.6825 10.6162 17.6825 10.5674C17.6336 10.5674 17.5604 10.5674 17.5116 10.5918C17.414 10.6406 17.3164 10.7382 17.292 10.8358H17.2676H17.2432V10.5185C17.2432 10.4941 17.2432 10.4941 17.2676 10.4941C17.292 10.4941 17.3408 10.4941 17.3896 10.4941C17.4384 10.4941 17.6092 10.4941 17.8045 10.4941C18.0729 10.4941 18.2926 10.4941 18.3414 10.4941C18.3658 10.4941 18.3902 10.4941 18.3902 10.4941C18.3902 10.4941 18.3902 10.5185 18.3902 10.543L18.3414 10.8602Z" fill="white"/>
<path d="M19.7075 11.6412H19.6099C19.5611 11.6412 19.4879 11.6412 19.4147 11.6412C19.3171 11.6412 19.1706 11.6412 19.1218 11.6412V11.6168V11.5924C19.2438 11.5924 19.2682 11.568 19.2682 11.5192C19.2682 11.4704 19.2438 11.4216 19.2438 11.3727C19.2194 11.2995 19.195 11.2507 19.195 11.2263C19.195 11.2263 19.195 11.2019 19.1706 11.2019H18.8046C18.7557 11.2751 18.7313 11.3483 18.7313 11.4216C18.7313 11.446 18.7313 11.4704 18.7313 11.4948C18.7313 11.5436 18.7557 11.568 18.9022 11.568V11.5924V11.6168H18.8778C18.8046 11.6168 18.7801 11.6168 18.6825 11.6168C18.6337 11.6168 18.4873 11.6168 18.4385 11.6168V11.5924V11.568C18.5117 11.568 18.5605 11.5436 18.6093 11.4948C18.6581 11.3971 18.7069 11.2995 18.7557 11.2019C18.829 11.0554 18.9022 10.8602 18.9266 10.787C18.9754 10.6894 18.9998 10.665 18.9998 10.6162C19.0242 10.5673 19.0486 10.5185 19.0486 10.4941C19.0486 10.4697 19.073 10.4697 19.0974 10.4697C19.1218 10.4697 19.1462 10.4697 19.1462 10.4941C19.1462 10.5185 19.1706 10.5186 19.1706 10.543C19.2438 10.6894 19.2927 10.8358 19.3659 11.0311C19.4147 11.1287 19.4391 11.2019 19.4635 11.2995C19.4879 11.3727 19.5123 11.4215 19.5367 11.4703C19.5855 11.568 19.6587 11.568 19.7075 11.568V11.5924C19.7075 11.5924 19.7075 11.6168 19.7075 11.6412ZM18.9754 10.7382C18.951 10.787 18.9022 10.8846 18.9022 10.9334C18.8534 11.0799 18.829 11.1287 18.8046 11.1531H19.1462C19.1218 11.0555 19.0242 10.8602 18.9754 10.7382Z" fill="white"/>
<path d="M21.4652 11.6412H21.0015H20.8795V11.6168V11.5924C20.9283 11.5924 20.9527 11.5924 21.0015 11.5924C21.0503 11.568 21.0747 11.5192 21.0747 11.446V10.6162L20.8307 11.1531C20.8063 11.2019 20.7819 11.2751 20.7575 11.3483C20.7087 11.4216 20.6843 11.5192 20.6599 11.6168C20.6599 11.6412 20.6354 11.6412 20.611 11.6412C20.5866 11.6412 20.5866 11.6412 20.5866 11.6168C20.5622 11.5436 20.5378 11.4948 20.5134 11.4704L20.1229 10.6406V10.8602V11.3972C20.1229 11.568 20.1962 11.6412 20.3426 11.6412V11.6656V11.69C20.3426 11.69 20.3182 11.69 20.2938 11.69C20.2694 11.69 20.1962 11.69 20.0741 11.69C20.0497 11.69 19.9765 11.69 19.9033 11.69H19.8301V11.6656V11.6412C19.8789 11.6412 19.9521 11.6168 20.0009 11.5924C20.0253 11.568 20.0497 11.5192 20.0497 11.3972V10.8114C20.0497 10.7138 20.0253 10.6894 20.0009 10.6406C19.9521 10.6162 19.9033 10.6162 19.8545 10.6162V10.5918V10.5674C19.9033 10.5674 19.9765 10.5674 20.0497 10.5674H20.3182L20.3426 10.5918L20.6843 11.3728L20.7331 11.2263C20.7819 11.1043 20.8551 10.9091 20.9771 10.7138C21.0015 10.665 21.0259 10.6162 21.0503 10.5918H21.4896V10.6162V10.6406C21.4408 10.6406 21.3676 10.6406 21.3188 10.7138C21.2944 10.7382 21.2944 10.7626 21.2944 10.8602V11.4216C21.2944 11.6412 21.3432 11.6656 21.3676 11.6656C21.4164 11.6656 21.4408 11.69 21.4896 11.69V11.7144C21.4652 11.6168 21.4652 11.6168 21.4652 11.6412Z" fill="white"/>
<path d="M18.317 12.642H18.2926C18.2682 12.5932 18.2438 12.52 18.2194 12.4712C18.1706 12.3979 18.0973 12.3735 17.9997 12.3491C17.9753 12.3491 17.9021 12.3491 17.8777 12.3491V12.8616C17.8777 12.9349 17.8777 13.0325 17.8777 13.2033C17.8777 13.3253 17.9509 13.3253 18.0729 13.3497V13.3741V13.3985H18.0241C17.9509 13.3985 17.7801 13.3985 17.7313 13.3985C17.7069 13.3985 17.5116 13.3985 17.4384 13.3985V13.3741V13.3497C17.6092 13.3253 17.6336 13.3009 17.658 13.2521C17.658 13.2033 17.658 13.0569 17.658 12.9104V12.4956C17.658 12.4467 17.658 12.3979 17.658 12.3491C17.6092 12.3491 17.536 12.3491 17.4872 12.3735C17.3896 12.4223 17.292 12.52 17.2676 12.6176H17.2432H17.2188V12.3247C17.2188 12.3003 17.2432 12.3003 17.2432 12.3003C17.2432 12.3003 17.3164 12.3003 17.3652 12.3003C17.414 12.3003 17.5848 12.3003 17.7801 12.3003C18.0485 12.3003 18.2682 12.3003 18.317 12.3003C18.3414 12.3003 18.3658 12.3003 18.3658 12.3003C18.3658 12.3003 18.3658 12.3247 18.3658 12.3491L18.317 12.642Z" fill="white"/>
<path d="M19.7319 12.3491C19.6343 12.3491 19.5611 12.3979 19.5367 12.4956L19.0974 13.4474L19.073 13.4718C19.0486 13.4718 19.0486 13.4473 19.0242 13.4229C19.0242 13.3985 18.951 13.2521 18.8534 12.9837L18.7069 12.6664C18.6581 12.5443 18.6093 12.4711 18.6093 12.4467C18.5605 12.3735 18.5117 12.3491 18.4385 12.3491V12.3247V12.3003H18.4873C18.5605 12.3003 18.6337 12.3003 18.7069 12.3003C18.7801 12.3003 18.9022 12.3003 18.9754 12.3003H19.0242L19.0486 12.3247V12.3491C18.9998 12.3491 18.8778 12.3491 18.8778 12.4223C18.8778 12.4467 18.8778 12.4712 18.8778 12.4956L19.1706 13.1789L19.4147 12.6176C19.4391 12.5688 19.4391 12.52 19.4391 12.4712C19.4391 12.3979 19.3903 12.3735 19.2682 12.3735V12.3491V12.3247H19.2927C19.3415 12.3247 19.3903 12.3247 19.5123 12.3247C19.5367 12.3247 19.6099 12.3247 19.6587 12.3247H19.7319C19.7319 12.3003 19.7319 12.3247 19.7319 12.3491Z" fill="white"/>
<path d="M21.4896 13.423H21.0259H20.9039V13.3986V13.3741C20.9527 13.3741 20.9771 13.3741 21.0259 13.3741C21.0747 13.3497 21.0992 13.3009 21.0992 13.2277V12.5688C21.0992 12.5688 21.0992 12.4467 21.0992 12.4223L20.8551 12.9593C20.8307 13.0081 20.8063 13.0813 20.7575 13.1545C20.7087 13.2765 20.6843 13.3741 20.6599 13.423C20.6599 13.4474 20.6355 13.4474 20.6111 13.4474C20.5866 13.4474 20.5866 13.4474 20.5866 13.423C20.5622 13.3497 20.5378 13.3009 20.5378 13.2765L20.1474 12.4468V12.6664V13.2033C20.1474 13.3741 20.2206 13.4474 20.367 13.4474V13.4718V13.4962C20.367 13.4962 20.3426 13.4962 20.3182 13.4962C20.2938 13.4962 20.2206 13.4962 20.0985 13.4962C20.0497 13.4962 20.0009 13.4962 19.9277 13.4962H19.8545V13.4718V13.4474C19.9033 13.4474 19.9765 13.423 20.0253 13.3986C20.0497 13.3497 20.0741 13.2765 20.0741 13.2033V12.9349V12.6176C20.0741 12.52 20.0741 12.4956 20.0253 12.4468C19.9765 12.4223 19.9277 12.4223 19.8789 12.4223V12.3979V12.3735C19.9277 12.3735 20.0009 12.3735 20.0741 12.3735H20.3426L20.367 12.3979L20.7087 13.1789L20.7819 13.0325C20.8551 12.8616 20.9283 12.6908 21.0259 12.52C21.0503 12.4712 21.0748 12.4223 21.0992 12.3979H21.5384L21.5629 12.4223V12.4468C21.514 12.4468 21.4408 12.4468 21.392 12.52C21.3676 12.5444 21.3676 12.5688 21.3676 12.6664V13.2277C21.3676 13.4474 21.4164 13.4718 21.4408 13.4718C21.4652 13.4718 21.514 13.4962 21.5629 13.4962V13.5206C21.4896 13.3986 21.4896 13.423 21.4896 13.423Z" fill="white"/>
<path d="M146.981 6.56481C146.981 6.49159 146.956 6.4184 146.932 6.36959H146.615C145.882 6.36959 145.419 6.394 144.076 6.394C143.613 6.394 142.954 6.36959 142.783 6.36959H142.392C142.344 6.394 142.344 6.56483 142.344 6.61364C142.344 6.71126 142.368 6.78448 142.417 6.85769C142.929 6.93091 143.442 7.07734 143.93 7.27258C144.198 7.73628 144.369 8.24876 144.369 8.78567C144.394 9.00532 144.394 9.22499 144.394 9.83512V12.9101C144.394 13.1298 144.394 13.325 144.369 13.5447C144.125 13.2762 143.759 12.7393 143.173 12.0804L138.244 6.63805C138.17 6.56483 138.097 6.49159 138.024 6.44278C137.902 6.44278 137.707 6.4184 137.585 6.4184C136.633 6.4184 134.924 6.36959 134.68 6.36959C134.656 6.44281 134.632 6.49159 134.632 6.56481C134.632 6.66243 134.656 6.76007 134.68 6.85769C135.095 6.93091 135.486 7.12613 135.779 7.41899C136.071 7.68744 136.34 8.00473 136.56 8.34641C136.608 8.49284 136.633 8.66367 136.608 8.8101C136.608 9.56666 136.56 10.6405 136.56 11.6899V14.6917C136.56 15.0578 136.535 15.4483 136.462 15.8144C136.023 16.2049 135.486 16.4733 134.924 16.5709C134.9 16.6441 134.876 16.7418 134.876 16.8394C134.876 16.8882 134.9 17.0346 134.924 17.0346H135.193C135.486 17.0346 136.169 16.9858 136.608 16.9858C137.267 16.9858 137.707 17.0346 138.292 17.0346H139.171C139.22 17.0102 139.244 16.8394 139.244 16.7906C139.244 16.7174 139.22 16.6197 139.195 16.5465C138.512 16.4733 137.877 16.1316 137.438 15.6435C137.316 15.0334 137.243 14.4233 137.243 13.8132C137.243 13.3495 137.219 12.6905 137.219 11.8363C137.219 10.6649 137.243 9.66426 137.243 9.15175C137.341 9.24937 137.438 9.39583 137.511 9.46904L144.32 17.1079C144.442 17.1811 144.589 17.2054 144.735 17.2054C144.784 17.2054 144.857 17.2054 144.906 17.181C145.004 16.9614 145.028 16.7418 145.028 16.5221C145.028 16.1072 145.004 15.6435 145.004 15.4239V9.27378C145.004 7.44339 145.882 6.9065 146.883 6.8821C146.981 6.76007 146.981 6.66243 146.981 6.56481ZM130.117 11.2506C130.117 13.4715 129.507 15.4239 128.652 16.1316C128.213 16.4977 127.652 16.6686 127.09 16.6686C126.309 16.7174 125.553 16.3269 125.138 15.6924C124.528 14.5209 124.235 13.203 124.259 11.8607C124.259 9.81072 124.796 8.19995 125.724 7.41899C126.139 7.05291 126.7 6.85769 127.261 6.85769C128.042 6.85769 128.799 7.22377 129.262 7.88271C129.848 8.61486 130.117 9.7375 130.117 11.2506ZM132.777 11.5435C132.85 9.63988 131.849 7.85828 130.165 6.95529C129.311 6.46719 128.359 6.19873 127.359 6.19873C125.358 6.22314 123.478 7.24818 122.405 8.93213C121.843 9.83512 121.55 10.8601 121.55 11.9096C121.55 13.5935 122.331 15.1798 123.649 16.2292C124.625 16.937 125.797 17.3031 127.017 17.2787C127.774 17.2787 128.53 17.1323 129.262 16.8638C130.043 16.5709 130.751 16.0828 131.312 15.4727C132.289 14.3989 132.801 12.9834 132.777 11.5435ZM119.842 9.68869V6.68683C119.842 6.46719 119.744 6.4184 119.525 6.4184C119.086 6.4184 116.767 6.46719 114.4 6.46719C112.569 6.46719 111.056 6.44278 110.226 6.44278H109.128C108.933 6.44278 108.884 6.49159 108.884 6.68683V9.49342C108.957 9.54223 109.031 9.56666 109.128 9.54226C109.226 9.54226 109.348 9.54223 109.445 9.51783C110.104 8.17555 110.715 7.4678 111.496 7.05291C111.935 7.0041 112.813 7.00412 113.033 7.00412C113.057 7.17496 113.057 7.68744 113.082 8.29757C113.106 9.34699 113.106 9.81069 113.106 12.3244C113.106 14.4965 113.082 15.4727 113.057 15.6924C113.009 16.1072 113.082 16.4245 111.3 16.4977C111.251 16.5953 111.251 16.7173 111.251 16.8394C111.251 16.9126 111.251 16.9858 111.276 17.0834H111.837C112.374 17.0834 113.668 17.0346 114.204 17.0346C114.619 17.0346 116.01 17.0834 116.889 17.0834H117.304C117.353 16.9858 117.353 16.8882 117.353 16.7662C117.353 16.6686 117.328 16.5709 117.304 16.4977C116.791 16.5465 116.255 16.4489 115.791 16.2292C115.693 15.8632 115.644 15.4971 115.669 15.131C115.644 13.5447 115.644 12.9346 115.644 11.8852C115.644 10.5185 115.669 9.59104 115.669 7.05291C115.864 7.05291 116.352 7.02851 116.791 7.05291C117.499 7.19934 118.109 7.58982 118.549 8.17555C118.866 8.68805 119.134 9.22499 119.33 9.78631C119.403 9.81072 119.5 9.81072 119.574 9.81072C119.647 9.7375 119.744 9.71309 119.842 9.68869ZM107.151 14.4721C107.151 14.3257 107.151 14.1792 107.127 14.0572C107.054 14.0084 106.981 14.0084 106.907 14.0084C106.81 14.0084 106.688 14.0084 106.59 14.0328C106.248 14.9114 105.687 15.6679 104.979 16.2781C104.638 16.4245 104.247 16.4733 103.881 16.4489H102.685C102.368 16.4489 102.026 16.4245 101.709 16.3757C101.489 16.3269 101.245 15.9852 101.148 15.7411C101.001 15.4483 100.952 15.131 100.977 14.8138V11.5923H101.514C101.831 11.5923 102.124 11.6655 102.417 11.7875C102.71 11.9096 102.929 12.1292 103.076 12.3977C103.198 12.7881 103.295 13.203 103.32 13.6179C103.442 13.6667 103.564 13.6911 103.71 13.6667C103.808 13.6667 103.906 13.6423 104.003 13.5935C104.003 13.203 103.906 12.1292 103.906 11.5435C103.906 10.8113 104.003 9.78629 104.052 9.27378C103.954 9.22497 103.857 9.20059 103.759 9.22499C103.637 9.22499 103.491 9.22497 103.369 9.27378C103.32 9.46902 103.173 10.1036 103.125 10.1524C102.905 10.5185 102.539 10.7869 102.124 10.9089C101.855 10.9822 101.563 11.0066 101.27 11.031H100.977V9.66428C100.977 8.24879 101.001 7.78509 101.026 7.51663C101.05 7.3458 101.075 7.15055 101.075 7.00412C101.367 6.97972 101.66 6.95531 101.953 6.97972C102.807 6.97972 103.198 7.00412 103.344 7.00412C103.686 7.00412 104.003 7.10172 104.296 7.29696C104.882 7.80947 105.345 8.4196 105.711 9.12735C105.809 9.15175 105.907 9.15175 106.029 9.15175C106.126 9.15175 106.126 9.12737 106.248 9.05416C106.248 8.15117 106.2 7.00412 106.151 6.61364C106.126 6.46721 106.102 6.4184 105.809 6.4184C105.687 6.4184 105.126 6.394 104.54 6.394C103.71 6.394 103.369 6.4184 102.075 6.4184C101.392 6.4184 99.9519 6.44278 99.3417 6.44278C98.4632 6.44278 97.7066 6.4184 97.3161 6.4184H96.828C96.7792 6.49162 96.7548 6.56483 96.7548 6.66245C96.7548 6.76007 96.7792 6.85767 96.828 6.95529C97.1941 6.97969 97.5602 7.02853 97.9018 7.12615C98.2191 7.3458 98.4143 7.68747 98.4388 8.07795C98.4632 8.39522 98.4876 9.2494 98.4876 9.90834V12.9345C98.4876 13.5447 98.4632 14.4477 98.4632 14.8138C98.4388 15.3019 98.3167 15.7655 98.1459 16.2048C97.731 16.3513 97.2673 16.4245 96.828 16.4245C96.7792 16.5221 96.7548 16.6442 96.7548 16.7418C96.7548 16.8394 96.7792 16.937 96.828 17.0102H97.3161C97.7798 17.0102 99.537 16.9614 99.9275 16.9614C100.294 16.9614 101.001 16.9858 101.855 16.9858C102.319 16.9858 103.71 17.0834 106.688 17.0834C106.81 17.0834 106.956 17.0834 107.078 17.059C107.127 16.9858 107.151 16.9126 107.127 16.815C107.151 16.5221 107.151 15.6679 107.151 14.4721ZM94.6804 14.9846C94.6071 14.7649 94.4119 14.6185 94.1679 14.6429C94.1434 14.6429 94.0946 14.6673 94.0702 14.6673C93.1916 15.912 92.2154 16.4001 91.1172 16.4001C89.8237 16.4001 88.6523 15.6435 88.1398 14.4477C87.8469 13.5935 87.6761 12.6905 87.6761 11.7631C87.6517 10.8845 87.7981 10.006 88.1154 9.17618C88.7743 7.46782 89.7017 6.93088 90.8488 6.93088C91.8006 6.97969 92.6791 7.46782 93.2161 8.24879C93.5577 8.8101 93.8018 9.39583 93.9726 10.0304C94.0702 10.0548 94.1923 10.0792 94.2899 10.0792C94.4119 10.0792 94.5339 10.0304 94.6315 9.95715C94.6071 9.78631 94.4607 8.66365 94.4607 8.29757C94.4607 7.85828 94.5827 7.12615 94.5827 6.85769C94.4119 6.76007 94.2167 6.71124 94.0214 6.68683C93.8262 6.85767 93.6553 7.07732 93.5089 7.29696C92.5815 6.56481 91.4101 6.19875 90.2386 6.24757C88.8475 6.19875 87.5297 6.73567 86.5534 7.71187C85.4796 8.8101 84.9183 10.3232 84.9671 11.8607C84.9183 13.5691 85.6993 15.2043 87.0415 16.2537C88.0666 16.937 89.2624 17.2787 90.4827 17.2299C92.2887 17.2299 93.5821 16.5465 94.2411 15.6435C94.4363 15.4483 94.5827 15.2286 94.6804 14.9846ZM83.2343 6.56481C83.2343 6.49159 83.2099 6.4184 83.1855 6.36959H82.8439C82.1117 6.36959 81.648 6.394 80.3057 6.394C79.842 6.394 79.1831 6.36959 79.0123 6.36959H78.6218C78.573 6.394 78.573 6.56483 78.573 6.61364C78.573 6.71126 78.5974 6.78448 78.6462 6.85769C79.1587 6.93091 79.6712 7.07734 80.1593 7.27258C80.4278 7.73628 80.5742 8.24876 80.5742 8.78567C80.5986 9.00532 80.5986 9.22499 80.5986 9.83512V12.9101C80.5986 13.1298 80.5986 13.325 80.5742 13.5447C80.3301 13.2762 79.9641 12.7393 79.3783 12.0804L74.4729 6.63805C74.3997 6.56483 74.3265 6.49159 74.2533 6.44278C74.1312 6.44278 73.936 6.4184 73.814 6.4184C72.8622 6.4184 71.1538 6.36959 70.9097 6.36959C70.8853 6.44281 70.8609 6.49159 70.8609 6.56481C70.8609 6.66243 70.8853 6.76007 70.9097 6.85769C71.3246 6.93091 71.7151 7.12613 72.008 7.41899C72.3008 7.68744 72.5693 8.00473 72.7889 8.34641C72.8378 8.49284 72.8622 8.66367 72.8378 8.8101C72.8378 9.56666 72.7889 10.6405 72.7889 11.6899V14.6917C72.7889 15.0578 72.7645 15.4483 72.6913 15.8144C72.252 16.2049 71.7151 16.4733 71.1538 16.5709C71.1294 16.6685 71.105 16.7418 71.105 16.8394C71.105 16.8882 71.1294 17.0346 71.1538 17.0346H71.4223C71.7151 17.0346 72.3985 16.9858 72.8378 16.9858C73.4967 16.9858 73.936 17.0346 74.5217 17.0346H75.4003C75.4491 17.0102 75.4735 16.8394 75.4735 16.7906C75.4735 16.7174 75.4491 16.6197 75.4247 16.5465C74.7414 16.4733 74.1312 16.1316 73.6675 15.6435C73.5455 15.0334 73.4723 14.4233 73.4723 13.8132C73.4723 13.3495 73.4479 12.6905 73.4479 11.8363C73.4479 10.6649 73.4723 9.66426 73.4723 9.15175C73.5699 9.24937 73.6675 9.39583 73.7407 9.46904L80.5254 17.1079C80.6474 17.1811 80.7938 17.2054 80.9403 17.2054C80.9891 17.2054 81.0623 17.2054 81.1111 17.181C81.2087 16.9614 81.2331 16.7418 81.2331 16.5221C81.2331 16.1072 81.2087 15.6435 81.2087 15.4239V9.27378C81.2087 7.44339 82.0873 6.9065 83.0879 6.8821C83.2099 6.76007 83.2343 6.66243 83.2343 6.56481ZM68.6645 16.7662C68.6645 16.6686 68.6401 16.5709 68.6157 16.4733C68.2496 16.4489 67.8835 16.4001 67.5174 16.3513C67.249 16.034 67.0781 15.6435 67.0049 15.2286C66.9805 14.5209 66.9805 13.0566 66.9805 11.6899V8.07795C66.9561 7.78509 67.0537 7.51663 67.249 7.27258C67.6395 7.02853 68.1032 6.9065 68.5669 6.8821C68.5913 6.78448 68.6157 6.68686 68.6157 6.61364C68.6157 6.54043 68.5913 6.44281 68.5425 6.36959H68.1276C67.5174 6.36959 66.0775 6.44278 65.565 6.44278C65.2478 6.44278 63.8079 6.394 63.1733 6.394H62.8561C62.8072 6.46721 62.7828 6.56483 62.7828 6.63805C62.7828 6.73567 62.7828 6.83329 62.8072 6.9065C63.1977 6.9065 63.5882 6.97972 63.9543 7.12615C64.296 7.44342 64.4668 7.90711 64.4424 8.37081C64.4668 8.63927 64.4668 9.24937 64.4912 10.6161C64.5156 11.3482 64.5156 12.3733 64.5156 13.2274C64.5156 13.6423 64.4912 14.6185 64.4668 15.131C64.4424 15.4239 64.3936 15.7412 64.2716 16.0096C64.1007 16.1561 63.9055 16.4245 62.8316 16.4977C62.8072 16.5953 62.7828 16.6929 62.7828 16.815C62.7828 16.937 62.8072 16.9858 62.8072 17.059H63.0513C63.637 17.059 65.1013 16.9858 65.8823 16.9858C66.1019 16.9858 67.6395 17.0346 68.1276 17.0346H68.6157C68.6401 16.937 68.6645 16.8638 68.6645 16.7662ZM56.8524 9.10297C56.8524 10.006 56.2423 11.0554 55.5101 11.2262C55.1196 11.3238 54.7047 11.3482 54.2899 11.3482C54.119 11.3482 53.9238 11.3482 53.7529 11.3238L53.7285 10.0792V7.3458C53.7285 7.22377 53.7529 7.12615 53.8262 7.02853C54.0214 6.95531 54.241 6.93088 54.4363 6.93088C55.5833 6.93088 56.0958 7.02853 56.4863 7.73628C56.7548 8.15117 56.8768 8.61486 56.8524 9.10297ZM61.1233 16.7906C61.1233 16.693 61.0989 16.5709 61.0501 16.4733C60.7084 16.4733 60.3911 16.4245 60.0739 16.2781C59.9762 16.1561 59.903 16.034 59.8298 15.912C59.659 15.3263 59.4393 14.765 59.1953 14.228C58.9512 13.5691 58.5852 12.9834 58.0971 12.4709C57.7554 12.2512 57.3893 12.1048 56.9988 11.9828C56.7548 11.8852 56.5839 11.8119 56.3887 11.7387C56.5839 11.6899 56.7792 11.6655 56.9988 11.6411C58.0971 11.4947 58.3411 11.3238 58.6096 11.1042C59.1953 10.6405 59.537 9.93274 59.5126 9.20059C59.537 8.00473 58.7804 6.93091 57.6822 6.51602C57.0964 6.394 56.5107 6.34516 55.925 6.34516C54.8268 6.34516 53.2648 6.44278 52.5327 6.44278C52.313 6.44278 51.0196 6.4184 50.5071 6.4184C50.2874 6.4184 49.7261 6.394 49.6285 6.394C49.5797 6.49162 49.5553 6.56483 49.5553 6.66245C49.5553 6.76007 49.5553 6.83326 49.5797 6.93088C49.8237 6.95529 50.2874 7.02851 50.5315 7.05291C50.7999 7.24815 51.0196 7.54104 51.1416 7.8583C51.2392 9.10297 51.2636 10.372 51.2392 11.6167C51.2392 13.1298 51.2636 14.8626 51.1904 15.4239C51.1904 15.8388 50.9463 16.2049 50.5803 16.4001C50.3118 16.4489 50.019 16.4733 49.7505 16.4977C49.7017 16.5953 49.6773 16.693 49.6773 16.7906C49.6773 16.8638 49.7017 16.9614 49.7261 17.0346C49.9457 17.0346 52.191 16.9858 52.6547 16.9858C53.6065 16.9858 54.3875 17.0346 55.2417 17.0346C55.2661 16.9614 55.2905 16.8882 55.2905 16.815C55.2905 16.7173 55.2661 16.5953 55.2417 16.4977C54.9488 16.4733 54.5827 16.3757 54.4119 16.3513C53.997 16.156 53.7529 15.7412 53.7773 15.3019L53.7529 11.9096C53.875 11.8852 53.997 11.8852 54.1434 11.8852C54.4119 11.8852 54.6803 11.9828 54.9244 12.1292C55.4125 12.3733 55.803 12.7393 56.0958 13.203C56.6083 14.2036 56.9012 15.2531 57.0232 16.3757C57.072 16.693 57.1941 16.9614 57.4625 16.9858C57.5845 17.0102 58.3655 17.0346 58.9268 17.0346H61.0257C61.0989 16.9614 61.1233 16.8882 61.1233 16.7906ZM45.1379 9.17618C45.1623 9.85953 44.8939 10.5429 44.3814 11.0066C43.9421 11.2994 43.3808 11.4459 42.8438 11.397C42.6242 11.397 42.429 11.397 42.2093 11.3726C42.0873 11.3482 42.0141 11.3482 42.0141 11.275L42.0385 6.95529C42.3313 6.90648 42.5998 6.8821 42.8927 6.8821C43.8933 6.8821 44.5034 7.12615 44.7963 7.76068C45.0403 8.19998 45.1379 8.66367 45.1379 9.17618ZM47.7737 9.22499C47.7981 8.15117 47.1636 7.15056 46.1873 6.66245C45.3332 6.394 44.4546 6.27195 43.5516 6.32076C42.429 6.32076 40.6474 6.4184 39.8664 6.4184C39.3295 6.4184 38.4997 6.36959 38.036 6.36959C37.9872 6.44281 37.9628 6.51602 37.9628 6.61364C37.9628 6.71126 37.9628 6.80888 38.0116 6.9065C38.2801 7.00412 38.7438 7.07734 39.0366 7.15056C39.2807 7.3702 39.4027 7.66306 39.4271 7.98033C39.4759 8.49284 39.5003 9.15178 39.5003 10.2744C39.5003 13.3739 39.4759 15.009 39.4515 15.3751C39.4027 15.8632 39.061 16.2537 38.6218 16.4245C38.3289 16.4977 38.0604 16.5465 37.7676 16.5709C37.7432 16.6685 37.7432 16.7662 37.7432 16.8882C37.7432 16.9614 37.7432 17.0346 37.792 17.1079C38.2557 17.1079 39.6468 17.059 40.1837 17.059C41.5016 17.059 42.8438 17.1079 43.3808 17.1079H43.7468C43.7956 17.0346 43.7956 16.9614 43.7956 16.8638C43.7956 16.7662 43.7956 16.6929 43.7712 16.5953C43.2831 16.5953 42.795 16.4245 42.3801 16.1316C42.1849 15.8876 42.0629 15.5703 42.0873 15.253L42.0385 12.0072C42.9171 12.056 43.8689 12.1048 44.3814 12.1048C44.9671 12.1048 45.5284 12.0072 46.0897 11.8363C47.1147 11.3726 47.7981 10.3476 47.7737 9.22499Z" fill="white"/>
<path d="M147.225 22.9897C147.225 22.8921 147.176 22.8677 147.127 22.8188C146.517 22.8188 145.736 22.8677 145.419 22.8677C144.662 22.8677 143.759 22.8188 143.369 22.8188C143.32 22.9165 143.32 22.9165 143.32 22.9897C143.32 23.0385 143.32 23.1117 143.344 23.1605C143.759 23.2581 144.394 23.3558 144.516 23.551C144.613 23.7218 144.662 23.9171 144.638 24.1123C144.638 24.3075 144.613 24.4784 144.54 24.6492C144.418 25.0153 144.125 25.601 143.735 26.4064C143.051 27.7731 142.636 28.6272 142.392 28.9689C142.002 28.3344 141.148 26.626 140.952 26.1623L140.123 24.3563C140.074 24.2343 140.074 24.0879 140.074 23.9659C140.074 23.8439 140.074 23.6974 140.123 23.5754C140.245 23.307 140.708 23.2825 141.343 23.2093C141.367 23.1361 141.392 23.0629 141.392 22.9897C141.392 22.8921 141.343 22.9165 141.294 22.8433H141.026C140.049 22.8433 140.342 22.8921 138.634 22.8921C137.926 22.8921 137.048 22.8433 136.926 22.8433C136.877 22.9409 136.828 22.9653 136.828 23.0629C136.828 23.1361 136.852 23.1849 136.877 23.2337C137.853 23.4778 138.146 23.6486 138.268 23.8439L140.855 28.8957C141.05 29.2374 141.197 29.6279 141.319 29.9939C141.416 30.5797 141.465 31.1654 141.441 31.7511C141.489 32.1904 141.319 32.6297 140.977 32.8981C140.586 32.9958 140.196 33.069 139.805 33.0934C139.757 33.1422 139.732 33.2154 139.732 33.2886C139.732 33.3374 139.757 33.4107 139.781 33.4595C140.538 33.4595 141.319 33.4351 141.758 33.4351C142.075 33.4351 142.539 33.4595 143.417 33.4595C143.93 33.4839 144.296 33.4839 144.564 33.4839C144.613 33.4351 144.638 33.3618 144.638 33.2886C144.638 33.2154 144.613 33.1422 144.589 33.0934C144.15 33.069 143.71 32.9714 143.32 32.8005C143.051 32.5565 142.905 32.2148 142.929 31.8487L142.807 29.6279C142.807 29.5058 142.832 29.3838 142.856 29.2862C142.905 29.1398 142.954 28.9933 143.027 28.8713L145.297 24.3808C145.541 23.9903 145.858 23.6486 146.248 23.4046C146.566 23.2581 146.883 23.1605 147.2 23.1117C147.2 23.1361 147.225 23.0629 147.225 22.9897ZM135.339 26.0403V23.1849C135.339 22.9653 135.242 22.9165 135.022 22.9165C134.583 22.9165 132.557 22.9653 130.19 22.9653C128.359 22.9653 127.139 22.9409 126.309 22.9409H125.211C125.016 22.9409 124.967 22.9897 124.967 23.1849V25.8451C125.016 25.8939 125.089 25.8939 125.138 25.8939C125.187 25.8939 125.26 25.8939 125.309 25.8695C125.87 24.6004 126.187 23.9171 127.164 23.4046C127.603 23.3558 129.14 23.3558 129.384 23.3558C129.409 23.5266 129.409 24.0391 129.433 24.6492C129.458 25.6986 129.458 26.2844 129.458 28.7981C129.458 30.9701 129.433 32.0684 129.409 32.3124C129.36 32.7273 129.433 33.0446 127.652 33.1178C127.603 33.191 127.603 33.2886 127.603 33.3618C127.603 33.4107 127.603 33.4839 127.627 33.5327H128.189C128.726 33.5327 129.458 33.4839 129.995 33.4839C130.409 33.4839 131.239 33.5327 132.118 33.5327H132.533C132.557 33.4595 132.582 33.3862 132.582 33.313C132.582 33.2398 132.557 33.1666 132.533 33.0934C132.02 33.1422 131.483 33.0446 131.02 32.8249C130.922 32.4589 130.873 32.0928 130.898 31.7267C130.873 30.1404 130.873 29.3838 130.873 28.3344C130.873 26.9677 130.898 25.9183 130.898 23.3802C131.093 23.3802 132.191 23.3558 132.63 23.3802C133.314 23.5266 133.899 23.9171 134.29 24.5028C134.607 24.9909 134.827 25.5278 134.949 26.1135C135.022 26.1379 135.095 26.1379 135.168 26.1379C135.217 26.0891 135.29 26.0647 135.339 26.0403ZM123.088 33.313C123.088 33.2398 123.064 33.1666 123.039 33.1178C122.819 33.0934 122.209 33.0446 121.941 32.9958C121.672 32.6785 121.502 32.288 121.428 31.8731C121.404 31.1654 121.404 29.5546 121.404 28.188V24.454C121.404 24.1611 121.477 23.8927 121.672 23.6486C122.063 23.4046 122.527 23.2826 122.99 23.2582C123.015 23.2094 123.039 23.1361 123.039 23.0629C123.039 22.9897 123.015 22.9409 122.966 22.8921H122.551C121.941 22.8921 121.038 22.9653 120.55 22.9653C120.233 22.9653 119.354 22.9165 118.719 22.9165H118.402C118.353 22.9653 118.329 23.0385 118.329 23.1117C118.329 23.1849 118.353 23.2337 118.353 23.307C118.744 23.307 119.134 23.3802 119.5 23.5022C119.842 23.8195 120.013 24.2831 119.988 24.7468C120.013 25.0153 120.013 25.7718 120.037 27.1385C120.062 27.8707 120.062 28.8713 120.062 29.7255C120.062 30.1648 120.037 31.263 120.013 31.7755C119.988 32.0684 119.94 32.3856 119.818 32.6541C119.647 32.8005 119.452 33.069 118.378 33.1422C118.353 33.2154 118.329 33.2886 118.329 33.3618C118.329 33.4839 118.353 33.4839 118.353 33.5571H118.597C119.183 33.5571 120.111 33.4839 120.867 33.4839C121.087 33.4839 122.063 33.5327 122.551 33.5327H123.039C123.064 33.4351 123.088 33.3862 123.088 33.313ZM115.815 30.6041C115.84 29.4814 115.181 28.4564 114.156 28.0171C113.643 27.7731 113.082 27.5534 112.521 27.4314C111.788 27.2362 111.056 26.9677 110.397 26.626C109.836 26.2844 109.494 25.6742 109.519 25.0153C109.519 24.0635 110.47 23.2825 111.593 23.2825C112.398 23.2825 113.155 23.673 113.619 24.3075C113.985 24.82 114.302 25.3814 114.522 25.9915C114.571 26.0159 114.619 26.0159 114.668 26.0159C114.79 26.0159 114.912 25.9671 114.985 25.8695C114.912 25.4302 114.888 24.9909 114.863 24.5516C114.888 24.1611 114.912 23.7706 114.985 23.4046C114.888 23.2581 114.717 23.1849 114.546 23.2093C114.326 23.3558 114.131 23.551 113.96 23.7463C113.277 23.1361 112.374 22.8188 111.447 22.8433C109.641 22.8433 108.347 24.0635 108.347 25.6498C108.372 26.2355 108.542 26.7969 108.884 27.2606C109.25 27.7487 109.738 28.1147 110.324 28.3344C110.739 28.5052 112.667 29.0909 112.935 29.1886C114.107 29.6523 114.546 30.0427 114.546 31.0922C114.522 31.6535 114.278 32.1904 113.887 32.5809C113.472 33.0446 112.887 33.313 112.252 33.2642C111.3 33.2642 110.397 32.8737 109.787 32.166C109.348 31.5559 109.006 30.8969 108.787 30.1892C108.713 30.1648 108.64 30.1648 108.591 30.1648C108.494 30.1648 108.396 30.1892 108.323 30.2624C108.323 30.4576 108.372 31.4338 108.372 31.7267C108.372 32.166 108.298 32.6053 108.201 33.0446C108.298 33.2154 108.469 33.3374 108.664 33.3374C108.884 33.1178 109.128 32.9714 109.397 32.8737C109.519 32.8737 109.641 32.9226 109.738 32.9958C110.47 33.4839 111.325 33.7523 112.203 33.7279C114.326 33.7035 115.815 32.6541 115.815 30.6041ZM102.783 25.5278C102.758 26.5284 102.1 27.407 101.172 27.7243C100.66 27.8219 100.147 27.8463 99.6346 27.8463C99.3417 27.8463 99.0245 27.8463 98.7316 27.8219L98.7072 26.5284V23.7463C98.7072 23.551 98.756 23.4534 98.8048 23.4046C99.1465 23.3314 99.4882 23.307 99.8298 23.307C101.221 23.307 101.855 23.429 102.344 24.1611C102.661 24.5516 102.807 25.0397 102.783 25.5278ZM105.882 33.313C105.882 33.2398 105.858 33.1666 105.809 33.0934C105.467 33.0934 105.15 33.0446 104.833 32.8981C104.735 32.7761 104.662 32.6541 104.589 32.5321C104.418 31.8975 104.198 31.2874 103.979 30.7017C103.735 30.0427 103.369 29.457 102.88 28.9445C102.563 28.7249 102.197 28.5784 101.831 28.4564C101.587 28.3588 101.416 28.2856 101.221 28.2124C101.416 28.1635 101.611 28.1391 101.831 28.1147C102.392 28.0903 102.929 27.9195 103.393 27.5778C104.003 27.1385 104.369 26.4308 104.369 25.6742C104.394 24.4784 103.637 23.429 102.539 23.0141C101.953 22.8921 101.367 22.8433 100.782 22.8433C99.6834 22.8433 98.8536 22.9409 98.1215 22.9409C97.9018 22.9409 97.1697 22.9165 96.6572 22.9165C96.4375 22.9165 95.8762 22.8921 95.7786 22.8921C95.7298 22.9897 95.7054 23.0385 95.7054 23.0873C95.7054 23.1605 95.7298 23.2337 95.7298 23.2825C95.9738 23.307 96.4375 23.3802 96.6816 23.4046C96.9744 23.5998 97.1697 23.8683 97.2917 24.2099C97.3649 24.6736 97.3893 26.0159 97.3893 28.0903C97.3893 29.6035 97.4137 31.4826 97.3405 32.044C97.3405 32.4589 97.0965 32.8493 96.7304 33.0202C96.4619 33.069 96.1691 33.0934 95.9006 33.1178C95.8518 33.1666 95.8274 33.2398 95.8274 33.313C95.8274 33.3862 95.8518 33.4351 95.8762 33.4839C96.0714 33.4839 97.7798 33.4351 98.2435 33.4351C99.1953 33.4351 99.4149 33.4839 100.269 33.4839C100.294 33.4351 100.318 33.3862 100.318 33.313C100.318 33.2398 100.294 33.1666 100.269 33.0934C99.9763 33.069 99.6102 32.9714 99.4394 32.947C99.0489 32.7517 98.7804 32.3368 98.8048 31.8975L98.7804 28.2124C98.9024 28.188 99.3173 28.188 99.4394 28.188C99.8542 28.1635 100.245 28.2368 100.611 28.4076C101.197 28.6517 101.709 29.0665 102.051 29.6035C102.563 30.6041 102.856 31.7023 102.978 32.8005C103.027 33.1178 103.149 33.3862 103.417 33.4107C103.71 33.4595 103.979 33.4595 104.272 33.4595H105.809C105.858 33.4595 105.882 33.3862 105.882 33.313ZM93.5333 31.0922C93.5333 30.9457 93.5333 30.7993 93.5089 30.6773C93.4357 30.6285 93.3625 30.6285 93.2893 30.6285C93.216 30.6285 93.1672 30.6285 93.094 30.6529C92.8744 31.5559 92.3375 32.3612 91.5809 32.8981C91.1904 33.0446 90.7511 33.0934 90.3362 33.069H88.6767C88.3594 33.069 88.0177 33.0446 87.7005 32.9958C87.4808 32.947 87.2368 32.6053 87.1392 32.3612C86.9927 32.044 86.9439 31.7023 86.9683 31.3362V27.9683H87.432C87.8469 27.9439 88.2862 28.0171 88.6767 28.188C88.9939 28.31 89.2624 28.5296 89.482 28.8225C89.6041 29.213 89.6773 29.6279 89.6773 30.0427C89.7505 30.0916 89.8237 30.116 89.9213 30.0916C89.9946 30.0916 90.0922 30.0671 90.1654 30.0183C90.1654 29.6279 90.0678 28.554 90.0678 27.9683C90.0678 27.2362 90.1654 26.3332 90.2142 25.7962C90.141 25.7474 90.0678 25.723 89.9702 25.7474C89.8969 25.7474 89.7993 25.7474 89.7261 25.7962C89.6773 26.0159 89.5553 26.626 89.5309 26.6748C89.238 27.0409 88.8475 27.3338 88.4082 27.4558C88.0177 27.5534 87.6029 27.5778 87.188 27.5778H86.9439V26.1379C86.9439 24.7224 86.9683 24.1611 86.9927 23.8927C87.0171 23.7218 87.0415 23.5266 87.0415 23.3802C87.1636 23.3558 87.6029 23.3558 88.2862 23.3558C89.1404 23.3558 89.7749 23.3802 89.8969 23.3802C90.2386 23.3802 90.5559 23.4778 90.8487 23.673C91.4589 24.1367 91.9226 24.7712 92.1666 25.5034C92.2154 25.5278 92.2886 25.5278 92.3375 25.5278C92.4351 25.5278 92.4351 25.5034 92.5571 25.4302C92.5571 24.5272 92.5083 23.5266 92.4595 23.1361C92.4351 22.9897 92.4107 22.9409 92.1178 22.9409C91.9958 22.9409 91.4345 22.9165 90.8487 22.9165C90.019 22.9165 89.6773 22.9409 88.3838 22.9409C87.7005 22.9409 86.4802 22.9653 85.8701 22.9653C84.9915 22.9653 84.7963 22.9409 84.4058 22.9409H83.8933C83.8445 22.9897 83.8201 23.0385 83.8201 23.1117C83.8201 23.1849 83.8445 23.2581 83.8933 23.3314C84.2594 23.3558 84.6254 23.4046 84.9671 23.5022C85.1623 23.6731 85.3576 23.7218 85.504 24.4296C85.5284 24.7468 85.5528 25.7474 85.5528 26.4064V29.4326C85.5528 30.0427 85.5284 31.0678 85.5284 31.4338C85.504 31.9219 85.382 32.41 85.2111 32.8737C84.7719 33.0202 84.3326 33.0934 83.8689 33.0934C83.8201 33.1666 83.7957 33.2398 83.7957 33.3374C83.7957 33.4107 83.8201 33.4839 83.8689 33.5327H84.357C84.8207 33.5327 86.0165 33.4839 86.407 33.4839C86.7731 33.4839 87.2856 33.5083 88.1398 33.5083C88.6035 33.5083 89.9946 33.6059 92.972 33.6059C93.094 33.6059 93.2404 33.6059 93.3625 33.5815C93.4113 33.5083 93.4357 33.4351 93.4113 33.3374C93.5333 32.9958 93.5333 32.2636 93.5333 31.0922ZM82.6242 23.0385C82.6242 22.9897 82.5998 22.8921 82.551 22.8677H82.0385C81.6968 22.8677 81.1355 22.8921 80.867 22.8921C79.6712 22.8921 79.2563 22.8188 79.0611 22.8188H78.7926C78.7682 22.8921 78.7194 22.9409 78.7194 23.0141C78.7194 23.0629 78.7438 23.1117 78.7438 23.1849C79.0855 23.2337 79.4271 23.307 79.7688 23.4046C80.0129 23.6486 80.1349 23.9903 80.1349 24.3319C80.0617 24.7956 79.964 25.2349 79.7688 25.6742L77.4015 31.5071L74.4973 24.1367C74.5217 23.7951 74.6925 23.5022 74.9854 23.307C75.3027 23.2337 75.6199 23.2093 75.9372 23.1849C75.9616 23.1117 75.986 23.0629 75.986 22.9897C75.986 22.9409 75.9616 22.8433 75.9128 22.8188H75.5467C75.1074 22.8188 74.3997 22.8677 73.6187 22.8677C73.277 22.8677 72.6181 22.8433 71.9592 22.8433H71.4467C71.4222 22.8921 71.3978 22.9653 71.3978 23.0141C71.3978 23.0873 71.3978 23.1361 71.4467 23.1849C71.8859 23.307 72.3008 23.4778 72.6913 23.6974C73.155 24.576 73.5455 25.4546 73.9116 26.382L75.1318 29.335C76.1324 31.7755 76.7426 33.4107 76.8158 33.7035C76.889 33.7523 76.8158 33.8011 76.9378 33.8011C77.0598 33.8011 77.0598 33.7767 77.0842 33.7035L80.8914 24.576C81.0135 24.2587 81.2087 23.9903 81.4284 23.7463C81.77 23.4778 82.1849 23.3314 82.5998 23.2825C82.5998 23.1849 82.6242 23.1117 82.6242 23.0385ZM69.7383 33.313C69.7383 33.2398 69.7139 33.1666 69.6895 33.1178C69.4698 33.0934 68.8597 33.0446 68.5912 32.9958C68.3228 32.6785 68.152 32.288 68.0787 31.8731C68.0543 31.1654 68.0543 29.5546 68.0543 28.188V24.454C68.0299 24.1611 68.1276 23.8927 68.3228 23.6486C68.7133 23.4046 69.177 23.2582 69.6407 23.2582C69.6651 23.2094 69.6895 23.1361 69.6895 23.0629C69.6895 22.9897 69.6651 22.9409 69.6163 22.8921H69.2014C68.5912 22.8921 67.6883 22.9653 67.2002 22.9653C66.8829 22.9653 66.0043 22.9165 65.3698 22.9165H65.0525C65.0037 22.9653 64.9793 23.0385 64.9793 23.1117C64.9793 23.1849 65.0037 23.2337 65.0037 23.307C65.3942 23.307 65.7847 23.3802 66.1507 23.5022C66.4924 23.8195 66.6632 24.2831 66.6388 24.7468C66.6632 25.0153 66.6632 25.7718 66.6877 27.1385C66.7121 27.8707 66.7121 28.8713 66.7121 29.7255C66.7121 30.1648 66.6876 31.263 66.6632 31.7755C66.6388 32.0684 66.59 32.3856 66.468 32.6541C66.2972 32.8005 66.1263 33.069 65.0525 33.1422C65.0281 33.2154 65.0037 33.2886 65.0037 33.3618C65.0037 33.4839 65.0281 33.4839 65.0281 33.5571H65.2722C65.8579 33.5571 66.7853 33.4839 67.5418 33.4839C67.7615 33.4839 68.7377 33.5327 69.2258 33.5327H69.7139C69.7139 33.4351 69.7383 33.3862 69.7383 33.313ZM63.0757 23.0141C63.0757 22.9653 63.0513 22.9165 63.0269 22.8677H62.6852C61.9531 22.8677 61.6358 22.8921 60.2935 22.8921C59.8298 22.8921 59.1709 22.8677 59 22.8677H58.6095C58.5607 22.8921 58.5607 22.9897 58.5607 23.0629C58.5607 23.1361 58.5851 23.1849 58.634 23.2337C59.1465 23.307 59.659 23.4534 60.1471 23.6486C60.4155 24.1123 60.562 24.6248 60.562 25.1617C60.5864 25.3814 60.5864 25.601 60.5864 26.2111V30.5797C60.5864 30.7993 60.5864 30.9945 60.562 31.2142C60.3179 30.9457 59.8786 30.3844 59.3173 29.7011L53.7041 23.1361C53.6309 23.0629 53.5577 22.9897 53.4845 22.9409C53.3624 22.9409 53.216 22.9165 53.094 22.9165C52.1422 22.9165 51.3368 22.8677 51.0684 22.8677C51.044 22.9165 51.0196 22.9653 51.0196 23.0141C51.0196 23.0873 51.044 23.1361 51.044 23.2093C51.4588 23.2581 51.8493 23.4046 52.191 23.6242C52.4595 23.8927 52.7035 24.1611 52.8987 24.5028C52.9476 24.6492 52.972 24.82 52.9476 24.9665C52.9476 25.723 52.8987 27.1385 52.8987 28.1635V31.3118C52.8987 31.6779 52.8743 32.0684 52.8011 32.4344C52.3618 32.8249 51.8249 33.0934 51.2636 33.191C51.2392 33.2398 51.2148 33.313 51.2148 33.3618C51.2148 33.4107 51.2392 33.4839 51.2636 33.5083H51.5321C51.8249 33.5083 52.5083 33.4595 52.9476 33.4595C53.5821 33.4595 53.8994 33.5083 54.4851 33.5083H55.3637C55.4125 33.4839 55.4369 33.3862 55.4369 33.313C55.4369 33.2642 55.4125 33.2154 55.3881 33.1666C54.7047 33.0934 54.0702 32.7517 53.6309 32.2636C53.5089 31.6535 53.4357 31.0434 53.4357 30.4088C53.4357 29.9451 53.4113 29.1642 53.4113 28.31C53.4113 27.1385 53.4357 25.5522 53.4357 25.0153C53.5333 25.1129 53.6553 25.2837 53.7529 25.4058L60.7328 33.5815C60.7816 33.6303 60.8304 33.6791 60.9036 33.6791C60.9768 33.6791 60.928 33.6791 61.0013 33.6547C61.0501 33.4351 61.0745 33.2154 61.0745 32.9958C61.0745 32.5809 61.0501 32.1172 61.0501 31.8975V25.6498C61.0501 23.8195 61.9286 23.2826 62.9293 23.2582C63.0513 23.1605 63.0757 23.0873 63.0757 23.0141ZM49.4332 23.0873C49.4332 23.0141 49.4088 22.9409 49.36 22.8921H48.9451C48.4814 22.8921 47.8713 22.9165 47.3344 22.9165C46.7487 22.9165 46.0897 22.8921 45.6504 22.8921H45.1135C45.0647 22.9409 45.0647 23.0141 45.0647 23.0873C45.0647 23.1605 45.0891 23.2093 45.1135 23.2825C45.1623 23.2825 46.2361 23.307 46.4314 23.551C46.6754 23.8683 46.8707 24.2587 46.9927 24.6492C47.0659 25.1861 47.1147 25.723 47.1147 26.2599C47.1147 27.5046 47.1147 28.3588 47.0903 28.7981C47.0903 29.457 46.9927 30.116 46.8219 30.7505C46.407 32.0196 45.4552 32.6541 43.9421 32.6541C43.3563 32.6541 42.7462 32.5321 42.2093 32.288C41.4527 31.9463 40.9158 31.263 40.7938 30.4332L40.7206 26.0159V24.2099C40.7206 23.8683 41.1355 23.551 41.2819 23.3802C41.648 23.307 42.0385 23.2581 42.4045 23.2337C42.4533 23.1849 42.4778 23.1117 42.4778 23.0385C42.4778 22.9653 42.4289 22.8921 42.3801 22.8433L41.8188 22.8677C41.2819 22.8921 40.5497 22.8921 40.086 22.8921C39.3783 22.8921 38.8414 22.8677 38.4021 22.8677H37.792C37.7432 22.9165 37.7188 22.9897 37.7188 23.0629C37.7188 23.1361 37.7432 23.1849 37.7676 23.2337C38.2313 23.2825 38.5485 23.3314 38.7438 23.3802C38.9878 23.5266 39.1587 23.7706 39.2563 24.0391C39.2807 24.2343 39.3051 24.698 39.3051 25.6254V29.1642C39.2807 29.8231 39.3295 30.482 39.4515 31.141C39.6223 31.8975 40.086 32.5321 40.7206 32.947C41.526 33.4351 42.4778 33.6791 43.4051 33.6547C44.2837 33.6791 45.1623 33.4595 45.9433 33.0446C46.6754 32.6297 47.2123 31.9219 47.4076 31.0922C47.554 30.5308 47.6516 29.9207 47.6516 29.335V26.504C47.6516 25.9671 47.676 25.3081 47.676 25.0397C47.676 24.4784 47.8225 23.9171 48.1153 23.429C48.5058 23.307 48.9207 23.2581 49.3356 23.2337C49.4088 23.2093 49.4332 23.1605 49.4332 23.0873Z" fill="white"/>
</svg>
