<svg width="40" height="40" viewBox="0 0 40 40" fill="none" xmlns="http://www.w3.org/2000/svg">
<mask id="mask0_23_4516" style="mask-type:luminance" maskUnits="userSpaceOnUse" x="0" y="0" width="40" height="40">
<path d="M39.8463 0H0.15332V40H39.8463V0Z" fill="white"/>
</mask>
<g mask="url(#mask0_23_4516)">
<path d="M19.7028 33.1047C13.0377 33.1047 6.95188 27.3478 6.95188 20.1417C6.95188 12.9356 12.4784 6.87356 19.7997 6.89366C27.3494 6.91376 32.9618 12.8497 32.9618 20.0558C32.9618 27.2619 27.2087 33.1047 19.7028 33.1047ZM19.7905 5.95246C11.9411 5.93053 6.01982 12.4275 6.01982 20.1509C6.01982 27.8742 12.5406 34.044 19.6846 34.044C27.7295 34.044 33.8939 27.7828 33.8939 20.0595C33.8939 12.3362 27.8794 5.97439 19.7905 5.95246ZM19.6334 38.8378C10.0533 38.8378 1.30652 30.5625 1.30652 20.2039C1.30652 9.84519 9.25096 1.13134 19.7759 1.16058C30.6262 1.18983 38.6931 9.72274 38.6931 20.0814C38.6931 30.4401 30.4233 38.8396 19.6334 38.8396V38.8378ZM19.7631 7.80434e-05C8.58938 -0.0309906 0.15332 9.21833 0.15332 20.2167C0.15332 31.215 9.44103 40.0001 19.6133 40.0001C31.0685 40.0001 39.8481 31.0852 39.8481 20.0869C39.8481 9.08857 31.2823 0.0311468 19.7631 7.80434e-05Z" fill="white"/>
<path d="M11.658 32.792C11.6854 33.174 11.6379 33.3165 11.5922 33.6967L11.8462 33.8356L12.2062 33.2197C12.3086 33.0479 12.1313 32.9309 12.1989 32.8231C12.2263 32.7792 12.283 32.7811 12.3195 32.8048L13.1876 33.3129C13.226 33.3366 13.2516 33.386 13.2242 33.4299C13.1621 33.5267 12.9957 33.4171 12.8824 33.6071L11.7914 35.4639C11.6726 35.6723 11.817 35.8258 11.7768 35.8879C11.7512 35.93 11.7 35.9281 11.658 35.9026L10.7716 35.3726L10.428 35.1514C9.98756 34.87 9.7116 34.3838 10.0223 33.8886C10.2069 33.5962 10.5907 33.45 10.916 33.481C10.9251 33.0424 10.9342 32.7336 10.8794 32.2968C10.8648 32.178 10.7186 31.9185 10.7497 31.8545H10.8045C10.9105 31.8764 11.1426 31.9952 11.2376 32.0555C11.5264 32.2365 11.6342 32.4832 11.6598 32.792H11.658ZM11.0677 35.0418C11.0823 35.0509 11.1115 35.0546 11.1261 35.0326L11.6196 34.223C11.1773 34.0019 10.9946 33.9196 10.7131 34.3656C10.6217 34.5118 10.6729 34.795 10.8264 34.8919L11.0677 35.0418Z" fill="white"/>
<path d="M8.35205 29.444C8.38677 29.4093 8.44342 29.422 8.47084 29.4549L9.14521 30.2097C9.17262 30.2445 9.19273 30.2938 9.158 30.3285C9.052 30.4345 8.89849 30.3249 8.8199 30.398L8.19122 30.9846C8.38311 31.2058 8.71939 31.5475 8.97342 31.7632C9.18907 31.5475 9.53265 31.1454 9.53265 31.1454C9.61307 31.0577 9.52534 30.9261 9.63317 30.8201C9.68069 30.7726 9.70262 30.7836 9.75927 30.8329L10.5086 31.5C10.5433 31.5274 10.5561 31.5841 10.5214 31.6188C10.4373 31.7029 10.2856 31.6352 10.1888 31.7376L8.63897 33.3531C8.52384 33.4756 8.64811 33.556 8.52018 33.6858C8.48546 33.7205 8.43611 33.7022 8.40139 33.673L7.68864 33.0315C7.65391 33.0041 7.64112 32.9474 7.67584 32.9127C7.80377 32.7829 7.8915 32.9164 7.99567 32.8049C7.99567 32.8049 8.43429 32.3462 8.63349 32.1342C8.3886 31.9331 7.99384 31.5402 7.83667 31.3392C7.60823 31.5493 7.17692 31.9569 7.17692 31.9569C7.09468 32.0318 7.18606 32.1597 7.05813 32.2895C7.0234 32.3242 6.96675 32.3114 6.93933 32.2767L6.30517 31.5566C6.27593 31.5219 6.25765 31.4726 6.29238 31.4379C6.4331 31.2971 6.49341 31.4433 6.61585 31.3282L8.24605 29.8131C8.31549 29.751 8.25518 29.5408 8.35205 29.444Z" fill="white"/>
<path d="M7.0181 30.1076C6.1829 30.6285 5.27277 30.3068 4.77933 29.5136C4.26395 28.6858 4.39919 27.8231 5.25815 27.2895C6.10066 26.765 7.00348 27.0738 7.50606 27.8798C8.00499 28.6803 7.84782 29.5941 7.01993 30.1094L7.0181 30.1076ZM6.40221 29.3528C6.79696 29.1061 7.36351 28.5907 7.05465 28.0954C6.7531 27.6093 6.31631 27.7665 5.90328 28.0242C5.53046 28.2563 4.93467 28.8246 5.22891 29.2962C5.50853 29.7439 6.02207 29.5904 6.40221 29.3546V29.3528Z" fill="white"/>
<path d="M5.97268 24.8823C6.02385 25.0285 6.03299 25.1948 6.08234 25.3373C6.18102 25.6224 6.30164 25.9039 6.4113 26.1853C6.42592 26.2274 6.43871 26.3206 6.36744 26.3443C6.25047 26.3845 6.18285 26.1597 5.91785 26.2511C5.53589 26.3827 4.96204 26.6075 4.55449 26.7683C4.30411 26.8688 4.12501 26.9401 4.12501 26.9401C3.78325 27.0753 3.88011 27.333 3.73025 27.386C3.68456 27.4025 3.64801 27.3623 3.62974 27.3221L3.38667 26.7263L3.13629 26.0519C2.99374 25.6645 2.92612 25.2514 3.04674 24.8402C3.18747 24.3504 3.5676 23.9959 4.04094 23.8332C4.94559 23.5207 5.67296 24.0123 5.97268 24.8841V24.8823ZM3.51095 25.7485C3.55298 25.871 3.59684 25.9953 3.64801 26.1086C3.66446 26.1415 3.68091 26.1488 3.70101 26.1378C3.72294 26.1305 3.74305 26.1232 3.76315 26.1122C4.16156 25.9477 5.10641 25.6169 5.55782 25.4433C5.59072 25.3611 5.58706 25.1893 5.55782 25.1016C5.3641 24.5405 4.82314 24.5442 4.34432 24.7086C3.91301 24.8567 3.33184 25.2258 3.51277 25.7504L3.51095 25.7485Z" fill="white"/>
<path d="M2.11843 21.4483C2.11112 21.4045 2.1367 21.388 2.18056 21.3807C2.3816 21.3515 2.64477 21.3405 2.8458 21.3642C2.88601 21.3679 2.93901 21.4172 2.94632 21.4702C2.96642 21.611 2.59177 21.6475 2.61004 21.8102C2.62649 21.9545 2.6539 22.2068 2.69777 22.4516C2.71056 22.5028 2.72335 22.5065 2.75077 22.5028L3.5019 22.3712C3.52383 22.3676 3.54028 22.3566 3.52931 22.3091C3.52931 22.3091 3.49641 22.0185 3.43793 21.865C3.416 21.8047 3.30635 21.759 3.29173 21.6896C3.27162 21.6128 3.32645 21.5324 3.39407 21.536C3.56586 21.5507 3.76141 21.5726 3.9332 21.5525C3.98072 21.5452 4.0191 21.6201 4.02641 21.6676C4.03555 21.7334 3.86741 21.8394 3.88569 21.9655C3.88569 21.9929 3.893 22.0149 3.89665 22.035C3.91493 22.1629 3.9332 22.2543 3.9332 22.2543C3.94051 22.3073 3.95331 22.2963 3.98255 22.2927L4.72637 22.1665C4.76657 22.1611 4.77571 22.141 4.77023 22.0934C4.77023 22.0934 4.7154 21.6804 4.68799 21.5013C4.65692 21.282 4.29689 21.1815 4.27679 21.0462C4.26948 21.0024 4.30603 20.9658 4.34989 20.9604C4.41203 20.9512 4.99685 21.1047 5.07178 21.1157C5.10833 21.1248 5.14488 21.1541 5.15036 21.1906C5.20154 21.6402 5.33129 22.5613 5.41902 23.0145C5.43546 23.0968 5.34957 23.1187 5.30571 23.1242C5.21433 23.137 5.12843 22.9487 4.9475 22.9743C4.53082 23.0346 3.90762 23.1553 3.44707 23.2448C3.18207 23.296 3.0249 23.3234 3.0249 23.3234C2.66304 23.3892 2.71239 23.6652 2.55339 23.6871C2.50587 23.6944 2.47115 23.6487 2.46566 23.6048L2.26463 22.4389C2.20615 22.0971 2.18056 21.8595 2.16777 21.6475C2.16229 21.5817 2.13122 21.5178 2.12208 21.4483H2.11843Z" fill="white"/>
<path d="M3.20127 19.6976C3.20675 19.4307 3.42789 19.2187 3.69289 19.2242C3.97616 19.2297 4.18999 19.46 4.1845 19.7433C4.17902 19.9955 3.94875 20.2129 3.69654 20.2075C3.41692 20.202 3.19579 19.9808 3.20127 19.6976Z" fill="white"/>
<path d="M4.77673 18.3361L2.60558 18.0528C2.39906 18.0236 2.43379 18.1899 2.2492 18.1643C2.20534 18.1588 2.18889 18.1149 2.19438 18.0711C2.19438 18.0711 2.24372 17.6836 2.26382 17.5356L2.33327 17.0348C2.33875 16.9965 2.36982 16.9599 2.41369 16.9654C2.60192 16.991 2.51968 17.1372 2.7262 17.1646L4.89187 17.4844C5.16052 17.521 5.113 17.3145 5.28845 17.3382C5.33231 17.3437 5.34876 17.3876 5.34328 17.4259C5.31952 17.5977 5.28114 17.8116 5.25738 17.9779L5.23362 18.1442L5.18793 18.5353C5.166 18.6029 5.1258 18.5974 5.11118 18.601C4.93939 18.5809 5.08925 18.3744 4.77308 18.3342L4.77673 18.3361Z" fill="white"/>
<path d="M4.61428 16.384C4.64352 16.2816 4.94324 16.2414 5.0401 16.1263C5.09493 16.0587 5.16438 15.9947 5.18814 15.9106C5.22103 15.7955 5.18448 15.5963 5.00538 15.5451C4.66911 15.4519 4.26339 16.5393 3.46839 16.3163C3.26371 16.2597 3.07181 16.1372 2.95119 15.96C2.70995 15.6036 2.67889 15.2344 2.79402 14.825C2.84154 14.6551 2.91281 14.4815 3.00602 14.3316C3.04623 14.2695 3.11019 14.2092 3.18878 14.2219C3.34412 14.3243 3.66577 14.4888 3.78822 14.6295C3.79736 14.6587 3.80284 14.6898 3.79553 14.719C3.76812 14.8177 3.49398 14.8104 3.42088 14.8762C3.3295 14.9566 3.27833 15.0754 3.2436 15.196C3.19243 15.3788 3.28929 15.5396 3.46108 15.5871C3.89605 15.7096 4.03311 14.5089 5.19545 14.8342C5.66879 14.9658 5.88261 15.4866 5.77479 15.8704C5.70899 16.1098 5.68889 16.0312 5.57924 16.4187C5.54817 16.5302 5.61396 16.6581 5.59386 16.7495C5.57375 16.7897 5.54451 16.8281 5.49882 16.8427C5.4641 16.8372 5.42755 16.8317 5.39831 16.8244C5.232 16.7787 4.80435 16.6088 4.65997 16.521C4.59235 16.4845 4.60332 16.4278 4.61611 16.384H4.61428Z" fill="white"/>
<path d="M6.07452 14.6934C6.05442 14.7373 6.01056 14.7666 5.9667 14.7464C5.85887 14.6971 5.91552 14.4888 5.71632 14.401L3.75534 13.5421C3.57989 13.4672 3.56527 13.67 3.36789 13.5786C3.32403 13.5585 3.3222 13.5092 3.33865 13.4617C3.45562 13.1455 3.6 12.8111 3.73524 12.5314C3.75534 12.4876 3.79737 12.4583 3.84306 12.4784C4.02034 12.5607 3.92896 12.738 4.07151 12.7983L6.00508 13.6426C6.06904 13.5147 6.12752 13.3867 6.18783 13.2588C6.3578 12.8933 6.04345 12.557 6.10925 12.4163C6.14032 12.3487 6.20794 12.3395 6.2518 12.3852C6.2518 12.3852 6.88048 12.9883 6.85124 13.0432C6.61914 13.4379 6.29566 14.1635 6.08001 14.6934H6.07452Z" fill="white"/>
<path d="M8.44682 10.6492C8.28234 10.8813 8.19645 10.9727 7.89855 10.8959C7.69021 10.8466 7.5038 10.7954 7.28997 10.7424C7.11635 10.9562 6.90618 11.2468 6.78373 11.4588C6.87511 11.5886 7.00487 11.8444 7.12549 11.9285C7.21687 11.9925 7.29545 11.9504 7.3448 11.987C7.385 12.0162 7.37404 12.0674 7.35211 12.1076L7.01401 12.6559C6.99208 12.6943 6.93908 12.7162 6.89887 12.6888C6.87694 12.6742 6.86963 12.6467 6.86049 12.6285C6.81115 12.4676 6.79653 12.3817 6.70332 12.252C6.4895 11.9486 5.52088 10.4555 5.34727 10.333C5.28147 10.2873 5.08958 10.3513 5.02379 10.3056C4.98358 10.2782 5.00185 10.2307 5.02379 10.1978C5.15172 10.0004 5.41671 9.61846 5.58302 9.43022C5.63968 9.35163 5.90102 9.46494 5.97778 9.48687C6.73987 9.69887 7.51476 9.92366 8.28234 10.1192C8.44499 10.1576 8.74289 10.0918 8.78492 10.121C8.82513 10.1503 8.82513 10.2033 8.79954 10.2398C8.69537 10.3879 8.55282 10.5048 8.44865 10.6529L8.44682 10.6492ZM6.49132 11.0732C6.56991 10.9398 6.73074 10.7113 6.81846 10.6108L5.96864 10.3678L6.49132 11.0732Z" fill="white"/>
<path d="M9.3499 9.03363C9.50525 9.18532 9.64962 9.04825 9.71542 9.11953C9.74831 9.15608 9.72638 9.20542 9.69714 9.23832L8.99535 9.92183C8.96246 9.95107 8.91129 9.96752 8.87473 9.92914C8.80711 9.85421 8.93322 9.70252 8.80163 9.57094L7.39989 8.1564C7.1422 7.89871 6.94848 8.08695 6.84065 7.96816C6.80775 7.93161 6.82968 7.88226 6.85893 7.84937C6.97589 7.72692 7.20982 7.48385 7.33409 7.37054C7.35054 7.35592 7.38527 7.3413 7.4072 7.34678L9.65328 7.56061C9.39925 7.25358 8.78518 6.60296 8.78518 6.60296C8.62619 6.42935 8.50191 6.55362 8.43064 6.47503C8.40139 6.44214 8.41601 6.38731 8.45257 6.3599C8.60608 6.21917 8.97342 5.92494 9.14887 5.79518C9.1909 5.76959 9.23477 5.75314 9.26766 5.78787C9.33711 5.8628 9.18542 5.94138 9.35904 6.15338L11.0112 8.17285C11.0349 8.19843 11.0367 8.23316 11.0039 8.26422C10.8924 8.36474 10.6456 8.33733 10.5086 8.32453C9.81593 8.24778 9.12328 8.16919 8.42881 8.12167L9.3499 9.03363Z" fill="white"/>
<path d="M12.7692 7.04339C12.634 7.11832 12.4732 7.15852 12.3416 7.23162C12.0784 7.37783 11.8225 7.54597 11.5649 7.70496C11.5265 7.7269 11.4369 7.75614 11.4004 7.69034C11.3401 7.58252 11.5502 7.47469 11.4132 7.23162C11.2176 6.8789 10.8941 6.35439 10.6657 5.97974C10.5231 5.74947 10.4226 5.58681 10.4226 5.58681C10.2271 5.2743 9.99315 5.41502 9.91457 5.27613C9.89081 5.23409 9.92188 5.19023 9.95843 5.16464L10.503 4.82106L11.1208 4.45555C11.4771 4.2472 11.8719 4.10831 12.2977 4.15583C12.804 4.20883 13.2206 4.51951 13.4637 4.9563C13.9297 5.79333 13.5752 6.5938 12.7692 7.04339ZM11.4826 4.77172C11.3711 4.83385 11.2542 4.89965 11.1518 4.97092C11.1226 4.99103 11.1189 5.0093 11.1336 5.02758C11.1445 5.04768 11.1555 5.06596 11.1701 5.08423C11.4022 5.44609 11.8938 6.31967 12.1442 6.7327C12.2301 6.75097 12.4001 6.71808 12.4805 6.67239C12.9995 6.38363 12.9008 5.84998 12.6541 5.40954C12.4311 5.01113 11.9669 4.50489 11.4826 4.77354V4.77172Z" fill="white"/>
<path d="M14.7625 4.03725C15.0147 3.95318 15.2888 4.09207 15.3729 4.3461C15.4606 4.61659 15.3144 4.89255 15.0458 4.98027C14.8064 5.05886 14.5249 4.91448 14.4463 4.67324C14.3586 4.40824 14.4957 4.12497 14.7643 4.03725H14.7625Z" fill="white"/>
<path d="M16.6671 4.55262C16.7713 4.53435 16.9376 4.79021 17.0838 4.82676C17.1679 4.84869 17.2556 4.88158 17.3433 4.86696C17.4621 4.84686 17.6247 4.72807 17.5937 4.54531C17.5334 4.1999 16.3783 4.30042 16.2376 3.48898C16.2011 3.27881 16.2303 3.05402 16.3381 2.86943C16.5574 2.49843 16.8773 2.31385 17.2958 2.24075C17.4712 2.20968 17.6576 2.20054 17.8313 2.22064C17.9044 2.22978 17.9866 2.26085 18.0085 2.33761C17.9829 2.52219 17.972 2.88405 17.8989 3.05402C17.8751 3.07595 17.8514 3.09422 17.8221 3.09971C17.7216 3.11615 17.6101 2.86578 17.5187 2.8274C17.4073 2.77988 17.2775 2.78354 17.1551 2.80547C16.9668 2.83836 16.8645 2.99553 16.8937 3.16915C16.9705 3.61508 18.1127 3.22398 18.3174 4.4119C18.4015 4.89621 18.0232 5.31289 17.6302 5.38051C17.3853 5.42255 17.4493 5.37137 17.0509 5.44082C16.9376 5.46092 16.8499 5.57423 16.7585 5.59434C16.7128 5.59434 16.6671 5.58337 16.6342 5.54865C16.6232 5.51392 16.6141 5.48103 16.6086 5.44996C16.5794 5.27999 16.5501 4.82128 16.5648 4.65314C16.5684 4.57638 16.6251 4.56176 16.6689 4.55445L16.6671 4.55262Z" fill="white"/>
<path d="M21.4222 4.76084C21.17 5.04046 20.757 5.24332 20.3677 5.24332C19.432 5.24332 18.6699 4.61464 18.6699 3.63872C18.6699 2.66279 19.4284 2.06152 20.3367 2.06152C20.6601 2.06152 20.9928 2.10173 21.3162 2.12001C21.3692 2.12366 21.3784 2.20042 21.3729 2.23514C21.3546 2.44714 21.3071 2.69203 21.2852 2.89489C21.2815 2.94424 21.2669 2.9881 21.2102 2.9881C21.1883 2.9881 21.1664 2.9881 21.1518 2.96983C20.9781 2.75234 20.7095 2.56593 20.4244 2.56593C19.8048 2.56593 19.6349 3.07217 19.6349 3.60216C19.6349 4.21805 19.9309 4.72246 20.6053 4.72246C20.9014 4.72246 20.9873 4.67312 21.2614 4.55433C21.2797 4.54519 21.2925 4.54153 21.3144 4.54153C21.3711 4.54153 21.435 4.6786 21.435 4.72795L21.4222 4.75902V4.76084Z" fill="white"/>
<path d="M24.6686 5.75497C24.6595 5.80248 24.6047 5.82259 24.5626 5.80979L23.5849 5.5448C23.5429 5.532 23.499 5.49911 23.51 5.45159C23.541 5.30356 23.7293 5.3127 23.7567 5.20852L23.9632 4.37333C23.6818 4.29108 23.2139 4.18874 22.8831 4.14671C22.821 4.44643 22.7515 4.97094 22.7515 4.97094C22.7314 5.0879 22.8776 5.15187 22.8466 5.29808C22.8319 5.36387 22.81 5.36752 22.7351 5.35656L21.7427 5.2067C21.6988 5.20121 21.6568 5.16101 21.6678 5.11349C21.6915 4.99653 21.856 4.97094 21.8816 4.83205L22.2983 2.63348C22.3294 2.46717 22.1795 2.46717 22.216 2.2899C22.2252 2.24238 22.2782 2.22959 22.322 2.23507L23.2687 2.38493C23.3126 2.39041 23.3546 2.43062 23.3437 2.47814C23.3071 2.65541 23.1609 2.59327 23.1335 2.74131C23.1335 2.74131 23.0165 3.36451 22.9654 3.65326C23.2797 3.68799 23.8261 3.80312 24.0674 3.88536C24.1441 3.58382 24.283 3.00813 24.283 3.00813C24.3104 2.9003 24.1642 2.84182 24.2008 2.66455C24.2099 2.61703 24.2648 2.59693 24.3068 2.60972L25.2315 2.86741C25.2736 2.8802 25.3174 2.9131 25.3065 2.96061C25.2663 3.15616 25.1347 3.06479 25.0963 3.22927L24.5553 5.38945C24.5316 5.479 24.6961 5.62338 24.6686 5.75679V5.75497Z" fill="white"/>
<path d="M25.5349 4.51236C25.9589 3.62599 26.9001 3.40668 27.7426 3.81058C28.6216 4.23092 28.9707 5.03322 28.5339 5.94335C28.1044 6.83886 27.1778 7.06365 26.3225 6.65427C25.4709 6.24672 25.1127 5.39325 25.5349 4.51236ZM26.4596 4.81757C26.2586 5.23608 26.0575 5.97624 26.5857 6.22845C27.1011 6.47517 27.3844 6.10966 27.5945 5.66921C27.7846 5.27446 27.9801 4.47398 27.4812 4.23457C27.0061 4.00613 26.6533 4.41367 26.4596 4.81757Z" fill="white"/>
<path d="M28.9959 6.22827C29.6154 5.46435 30.5804 5.47166 31.3078 6.06013C32.0644 6.6742 32.2179 7.53498 31.5801 8.31901C30.955 9.09024 29.9992 9.09207 29.2627 8.49446C28.5299 7.89867 28.3818 6.98488 28.9959 6.22827ZM29.8238 6.73999C29.5295 7.10185 29.1622 7.77257 29.6173 8.14173C30.0614 8.50177 30.4214 8.21301 30.7284 7.8347C31.0044 7.49478 31.3827 6.76192 30.9532 6.41286C30.5438 6.08024 30.107 6.39458 29.8238 6.74182V6.73999Z" fill="white"/>
<path d="M30.7959 9.70425C30.7648 9.6677 30.7575 9.61653 30.7941 9.58546C30.8855 9.5087 31.0499 9.64943 31.2126 9.50688L32.8263 8.09965C32.9689 7.97355 32.7934 7.87303 32.9598 7.73413C32.9981 7.70307 33.042 7.72317 33.0767 7.75789C33.3125 7.99913 33.5537 8.27327 33.7474 8.51268C33.7785 8.55106 33.7876 8.6004 33.7493 8.6333C33.5994 8.75757 33.4788 8.6004 33.3618 8.70275L31.7718 10.0899C31.8596 10.2014 31.9509 10.311 32.0405 10.4188C32.2982 10.7277 32.7368 10.5888 32.8355 10.7076C32.883 10.7642 32.8629 10.83 32.8044 10.8501C32.8044 10.8501 31.9893 11.1608 31.9528 11.1097C31.6933 10.7313 31.1779 10.1283 30.7923 9.70608L30.7959 9.70425Z" fill="white"/>
<path d="M34.3578 11.2305C34.4967 11.4571 34.4254 11.755 34.1988 11.8958C33.9575 12.0438 33.6541 11.9652 33.5061 11.7221C33.3745 11.5065 33.4513 11.1995 33.6669 11.0679C33.9045 10.9217 34.2116 10.9893 34.3596 11.2305H34.3578Z" fill="white"/>
<path d="M34.7219 12.6303C35.6411 12.2812 36.4727 12.7728 36.8035 13.6482C37.1489 14.5602 36.8473 15.3789 35.9025 15.7371C34.9741 16.088 34.148 15.6092 33.8117 14.7228C33.4773 13.8401 33.8099 12.9757 34.7219 12.6303ZM35.1788 13.4892C34.7438 13.6537 34.0877 14.0503 34.2942 14.5967C34.4971 15.1322 34.954 15.0628 35.409 14.891C35.8202 14.7356 36.5147 14.2934 36.3173 13.7743C36.1309 13.2809 35.5955 13.3321 35.1769 13.4911L35.1788 13.4892Z" fill="white"/>
<path d="M35.9814 17.3821L35.5848 17.4607L35.159 17.5485C34.894 17.6033 34.925 17.7605 34.8209 17.7787C34.7642 17.7879 34.7441 17.702 34.7386 17.6636L34.5632 16.6767C34.5559 16.6365 34.5723 16.5945 34.6198 16.5853C34.7204 16.5689 34.7697 16.7791 34.9835 16.7388L35.4057 16.6566C35.7657 16.5853 36.1769 16.4903 36.5059 16.4154C36.7691 16.3551 36.9262 16.324 36.9262 16.324C37.2863 16.2472 37.2296 15.9749 37.3868 15.9475C37.4343 15.9384 37.469 15.9822 37.4782 16.0261L37.6774 17.013C37.745 17.3511 37.7614 17.4936 37.7907 17.7129C37.798 17.7787 37.8309 17.8409 37.8437 17.9103C37.851 17.9542 37.8272 17.9725 37.7834 17.9798C37.5823 18.0145 37.3155 18.0346 37.1145 18.0145C37.0743 18.0145 37.0194 17.9633 37.0103 17.9103C36.9865 17.7714 37.3594 17.7239 37.3356 17.5613C37.3155 17.4169 37.3265 17.4278 37.2753 17.1848C37.2625 17.1336 37.2479 17.1318 37.2223 17.1354L36.4748 17.2871C36.4529 17.2908 36.4383 17.3017 36.4511 17.3493C36.4511 17.3493 36.4931 17.638 36.5552 17.7897C36.579 17.8482 36.6905 17.892 36.7069 17.9615C36.7289 18.0382 36.6759 18.1205 36.6082 18.1187C36.4346 18.1077 36.2391 18.0931 36.0691 18.1187C36.0216 18.1278 35.9814 18.0529 35.9722 18.0053C35.9613 17.9396 36.0965 17.8354 36.0728 17.7093C36.0728 17.6819 36.0654 17.6618 36.06 17.6398C36.038 17.5137 36.0362 17.4187 36.0362 17.4187C36.0307 17.3657 36.0143 17.3767 35.985 17.3821H35.9814Z" fill="white"/>
<path d="M36.8231 19.4616C36.8323 19.7266 36.6221 19.9514 36.3553 19.9606C36.072 19.9697 35.8472 19.7504 35.8381 19.4671C35.8308 19.2149 36.0482 18.9865 36.3023 18.9773C36.5819 18.9682 36.814 19.1784 36.8231 19.4616Z" fill="white"/>
<path d="M34.7255 22.1302C34.7475 21.9767 34.8151 21.825 34.8352 21.6769C34.8772 21.379 34.8991 21.0738 34.9302 20.7723C34.9357 20.7284 34.9668 20.6389 35.0417 20.6498C35.1641 20.6681 35.1221 20.8984 35.3981 20.9386C35.7983 20.9953 36.4105 21.0574 36.8473 21.1031C37.116 21.1287 37.306 21.1469 37.306 21.1469C37.6734 21.1817 37.7026 20.9094 37.8616 20.9313C37.9091 20.9386 37.9256 20.9898 37.9238 21.0336L37.8671 21.6751L37.7812 22.3879C37.7319 22.7972 37.6021 23.1957 37.306 23.5063C36.957 23.8773 36.4562 24.0199 35.961 23.9486C35.0143 23.8115 34.5921 23.044 34.7237 22.1302H34.7255ZM37.3115 22.4866C37.3298 22.3586 37.3481 22.227 37.3536 22.1028C37.3536 22.0662 37.3426 22.0516 37.3207 22.0534C37.2987 22.0498 37.2768 22.0461 37.2549 22.0479C36.8254 22.0132 35.833 21.8743 35.3524 21.8231C35.2866 21.8816 35.2098 22.0351 35.197 22.1265C35.113 22.715 35.5973 22.9581 36.0962 23.0312C36.5476 23.097 37.2329 23.0348 37.3115 22.4866Z" fill="white"/>
<path d="M36.5801 26.953C36.5655 26.9951 36.5363 26.9987 36.4942 26.9841C36.3023 26.9183 36.0629 26.8087 35.8948 26.6935C35.8601 26.6716 35.8363 26.604 35.8546 26.5528C35.9003 26.4194 36.2512 26.5583 36.3078 26.4048C36.359 26.2677 36.4504 26.0319 36.5216 25.7944C36.5344 25.7432 36.5235 25.7341 36.4979 25.7249L35.7705 25.4983C35.7486 25.491 35.7303 25.4946 35.7175 25.5403C35.7175 25.5403 35.6133 25.8145 35.5951 25.9771C35.5877 26.0393 35.6627 26.1325 35.6444 26.2001C35.6261 26.2787 35.5402 26.3244 35.4817 26.2896C35.3355 26.1983 35.1711 26.0886 35.0084 26.0283C34.9627 26.0118 34.9627 25.9278 34.9792 25.8821C35.0011 25.8199 35.1985 25.8035 35.2405 25.6811C35.2533 25.6573 35.257 25.6354 35.2643 25.6134C35.3063 25.4928 35.3319 25.4033 35.3319 25.4033C35.3483 25.3521 35.3319 25.3576 35.3045 25.3466L34.5862 25.1182C34.5479 25.1054 34.5296 25.1182 34.515 25.1639C34.515 25.1639 34.3761 25.5568 34.3158 25.7286C34.2445 25.9387 34.5168 26.1909 34.4729 26.3207C34.4583 26.3627 34.4108 26.3792 34.3688 26.3646C34.3103 26.3445 33.8589 25.9406 33.7986 25.8967C33.7693 25.8729 33.751 25.8291 33.762 25.7962C33.921 25.3722 34.228 24.495 34.3578 24.0509C34.3816 23.9705 34.4674 23.9906 34.5095 24.0052C34.5972 24.0362 34.5881 24.2428 34.758 24.3012C35.1564 24.4383 35.765 24.6156 36.2164 24.7472C36.4759 24.8221 36.6295 24.8696 36.6295 24.8696C36.9822 24.9774 37.0644 24.7106 37.2161 24.7618C37.2618 24.7782 37.2709 24.8331 37.2563 24.8751L36.9018 26.0045C36.7976 26.3335 36.7117 26.5583 36.6258 26.7538C36.6002 26.816 36.6002 26.8854 36.5765 26.953H36.5801Z" fill="white"/>
<path d="M34.1988 27.0333C34.1477 27.1265 33.8461 27.0973 33.7255 27.1887C33.656 27.2417 33.5756 27.2873 33.5318 27.3659C33.4751 27.4701 33.4642 27.673 33.6268 27.7625C33.9338 27.9307 34.5753 26.9639 35.299 27.3605C35.4854 27.4628 35.6444 27.6254 35.7212 27.8247C35.8747 28.2267 35.8217 28.5922 35.617 28.9651C35.5311 29.1204 35.4233 29.2739 35.299 29.3982C35.246 29.4494 35.1693 29.4951 35.0962 29.464C34.9682 29.3287 34.6923 29.0948 34.6046 28.9322C34.6009 28.9011 34.6046 28.87 34.6173 28.8426C34.6667 28.7531 34.9317 28.8225 35.0194 28.775C35.1272 28.7183 35.204 28.6142 35.2643 28.5045C35.3557 28.3382 35.2972 28.1591 35.1419 28.0732C34.7453 27.8557 34.3396 28.9925 33.2832 28.4131C32.8519 28.1774 32.7624 27.6218 32.9543 27.2727C33.0731 27.0552 33.0749 27.1357 33.2686 26.7829C33.3234 26.6824 33.2905 26.5417 33.3307 26.4576C33.36 26.4229 33.3965 26.3937 33.444 26.3882C33.4769 26.401 33.5098 26.4138 33.5373 26.4302C33.6889 26.5125 34.0654 26.7756 34.1879 26.8926C34.2445 26.9438 34.2208 26.9968 34.2007 27.0351L34.1988 27.0333Z" fill="white"/>
<path d="M32.6952 28.638L34.477 29.91C34.6452 30.0325 34.6927 29.8698 34.8426 29.9777C34.8791 30.0032 34.8718 30.0489 34.8462 30.0855C34.8462 30.0855 34.6214 30.4035 34.5319 30.5259L34.2358 30.9353C34.212 30.9682 34.1682 30.9846 34.1316 30.9572C33.9781 30.8457 34.1188 30.7562 33.9507 30.6337L32.1889 29.3325C31.9696 29.1735 31.9148 29.38 31.7704 29.2759C31.7339 29.2503 31.7393 29.2046 31.7631 29.1735C31.8636 29.0328 31.9989 28.8628 32.0976 28.7258L32.1962 28.5887L32.421 28.2652C32.474 28.2159 32.5051 28.2396 32.5197 28.2433C32.6623 28.3402 32.432 28.4535 32.6933 28.638H32.6952Z" fill="white"/>
<path d="M29.6263 31.4709C29.597 31.4435 29.6189 31.4015 29.6445 31.3777C29.714 31.3083 29.8017 31.2516 29.8693 31.1822C30.0247 31.025 30.1215 30.8075 30.2787 30.6503C30.9439 29.9815 31.9802 29.6927 32.7185 30.4255C33.4404 31.1438 33.1699 32.2476 32.5138 32.9092C32.417 33.0061 31.7919 33.5288 31.7042 33.441C31.6951 33.4319 31.4556 32.9677 31.4301 32.9238C31.4118 32.8855 31.3917 32.8361 31.4264 32.8014C31.4849 32.7411 31.9034 32.7813 32.0715 32.6113C32.4626 32.2184 32.5175 31.6299 32.1099 31.226C31.6951 30.8148 31.0554 30.5955 30.6077 31.0469C30.5492 31.1072 30.4889 31.1657 30.4395 31.2352L30.8727 31.6665C30.9878 31.7816 31.1194 31.5934 31.2235 31.6957C31.2619 31.7341 31.2418 31.7834 31.2108 31.8145L30.5949 32.434C30.5675 32.4633 30.5108 32.4743 30.4797 32.4432C30.4267 32.3902 30.3883 32.2458 30.3353 32.1745C30.2696 32.0905 30.1745 32.0155 30.0996 31.9406L29.6244 31.4691L29.6263 31.4709Z" fill="white"/>
<path d="M28.7125 32.6205C28.5846 32.445 28.4183 32.5565 28.3653 32.4743C28.3397 32.4341 28.3671 32.3884 28.4037 32.361L29.2096 31.8017C29.2462 31.778 29.2992 31.7706 29.3284 31.8145C29.3833 31.9004 29.2334 32.0283 29.3412 32.18L30.4908 33.8066C30.7009 34.1026 30.9239 33.9491 31.0098 34.0844C31.0372 34.1264 31.008 34.1702 30.9732 34.1977C30.838 34.3 30.5675 34.501 30.425 34.5906C30.4067 34.6016 30.3701 34.6107 30.3482 34.6034L28.1697 34.0222C28.3708 34.3676 28.8679 35.1114 28.8679 35.1114C28.994 35.3088 29.1384 35.2065 29.1968 35.2942C29.2206 35.3326 29.1968 35.3838 29.1566 35.4039C28.9812 35.5172 28.5718 35.7474 28.3763 35.8461C28.3306 35.8644 28.2831 35.8735 28.2575 35.8333C28.2026 35.7474 28.3635 35.6963 28.2264 35.4587L26.9307 33.1943C26.9124 33.1651 26.916 33.1304 26.9526 33.1066C27.0787 33.0244 27.3181 33.0938 27.4515 33.1285C28.1222 33.3204 28.7929 33.5105 29.4691 33.6713L28.7107 32.6205H28.7125Z" fill="white"/>
<path d="M11.658 32.792C11.6854 33.174 11.6379 33.3165 11.5922 33.6967L11.8462 33.8356L12.2062 33.2197C12.3086 33.0479 12.1313 32.9309 12.1989 32.8231C12.2263 32.7792 12.283 32.7811 12.3195 32.8048L13.1876 33.3129C13.226 33.3366 13.2516 33.386 13.2242 33.4299C13.1621 33.5267 12.9957 33.4171 12.8824 33.6071L11.7914 35.4639C11.6726 35.6723 11.817 35.8258 11.7768 35.8879C11.7512 35.93 11.7 35.9281 11.658 35.9026L10.7716 35.3726L10.428 35.1514C9.98756 34.87 9.7116 34.3838 10.0223 33.8886C10.2069 33.5962 10.5907 33.45 10.916 33.481C10.9251 33.0424 10.9342 32.7336 10.8794 32.2968C10.8648 32.178 10.7186 31.9185 10.7497 31.8545H10.8045C10.9105 31.8764 11.1426 31.9952 11.2376 32.0555C11.5264 32.2365 11.6342 32.4832 11.6598 32.792H11.658ZM11.0677 35.0418C11.0823 35.0509 11.1115 35.0546 11.1261 35.0326L11.6196 34.223C11.1773 34.0019 10.9946 33.9196 10.7131 34.3656C10.6217 34.5118 10.6729 34.795 10.8264 34.8919L11.0677 35.0418Z" fill="white"/>
<path d="M8.35205 29.444C8.38677 29.4093 8.44342 29.422 8.47084 29.4549L9.14521 30.2097C9.17262 30.2445 9.19273 30.2938 9.158 30.3285C9.052 30.4345 8.89849 30.3249 8.8199 30.398L8.19122 30.9846C8.38311 31.2058 8.71939 31.5475 8.97342 31.7632C9.18907 31.5475 9.53265 31.1454 9.53265 31.1454C9.61307 31.0577 9.52534 30.9261 9.63317 30.8201C9.68069 30.7726 9.70262 30.7836 9.75927 30.8329L10.5086 31.5C10.5433 31.5274 10.5561 31.5841 10.5214 31.6188C10.4373 31.7029 10.2856 31.6352 10.1888 31.7376L8.63897 33.3531C8.52384 33.4756 8.64811 33.556 8.52018 33.6858C8.48546 33.7205 8.43611 33.7022 8.40139 33.673L7.68864 33.0315C7.65391 33.0041 7.64112 32.9474 7.67584 32.9127C7.80377 32.7829 7.8915 32.9164 7.99567 32.8049C7.99567 32.8049 8.43429 32.3462 8.63349 32.1342C8.3886 31.9331 7.99384 31.5402 7.83667 31.3392C7.60823 31.5493 7.17692 31.9569 7.17692 31.9569C7.09468 32.0318 7.18606 32.1597 7.05813 32.2895C7.0234 32.3242 6.96675 32.3114 6.93933 32.2767L6.30517 31.5566C6.27593 31.5219 6.25765 31.4726 6.29238 31.4379C6.4331 31.2971 6.49341 31.4433 6.61585 31.3282L8.24605 29.8131C8.31549 29.751 8.25518 29.5408 8.35205 29.444Z" fill="white"/>
<path d="M7.0181 30.1076C6.1829 30.6285 5.27277 30.3068 4.77933 29.5136C4.26395 28.6858 4.39919 27.8231 5.25815 27.2895C6.10066 26.765 7.00348 27.0738 7.50606 27.8798C8.00499 28.6803 7.84782 29.5941 7.01993 30.1094L7.0181 30.1076ZM6.40221 29.3528C6.79696 29.1061 7.36351 28.5907 7.05465 28.0954C6.7531 27.6093 6.31631 27.7665 5.90328 28.0242C5.53046 28.2563 4.93467 28.8246 5.22891 29.2962C5.50853 29.7439 6.02207 29.5904 6.40221 29.3546V29.3528Z" fill="white"/>
<path d="M5.97268 24.8823C6.02385 25.0285 6.03299 25.1948 6.08234 25.3373C6.18102 25.6224 6.30164 25.9039 6.4113 26.1853C6.42592 26.2274 6.43871 26.3206 6.36744 26.3443C6.25047 26.3845 6.18285 26.1597 5.91785 26.2511C5.53589 26.3827 4.96204 26.6075 4.55449 26.7683C4.30411 26.8688 4.12501 26.9401 4.12501 26.9401C3.78325 27.0753 3.88011 27.333 3.73025 27.386C3.68456 27.4025 3.64801 27.3623 3.62974 27.3221L3.38667 26.7263L3.13629 26.0519C2.99374 25.6645 2.92612 25.2514 3.04674 24.8402C3.18747 24.3504 3.5676 23.9959 4.04094 23.8332C4.94559 23.5207 5.67296 24.0123 5.97268 24.8841V24.8823ZM3.51095 25.7485C3.55298 25.871 3.59684 25.9953 3.64801 26.1086C3.66446 26.1415 3.68091 26.1488 3.70101 26.1378C3.72294 26.1305 3.74305 26.1232 3.76315 26.1122C4.16156 25.9477 5.10641 25.6169 5.55782 25.4433C5.59072 25.3611 5.58706 25.1893 5.55782 25.1016C5.3641 24.5405 4.82314 24.5442 4.34432 24.7086C3.91301 24.8567 3.33184 25.2258 3.51277 25.7504L3.51095 25.7485Z" fill="white"/>
<path d="M2.11843 21.4483C2.11112 21.4045 2.1367 21.388 2.18056 21.3807C2.3816 21.3515 2.64477 21.3405 2.8458 21.3642C2.88601 21.3679 2.93901 21.4172 2.94632 21.4702C2.96642 21.611 2.59177 21.6475 2.61004 21.8102C2.62649 21.9545 2.6539 22.2068 2.69777 22.4516C2.71056 22.5028 2.72335 22.5065 2.75077 22.5028L3.5019 22.3712C3.52383 22.3676 3.54028 22.3566 3.52931 22.3091C3.52931 22.3091 3.49641 22.0185 3.43793 21.865C3.416 21.8047 3.30635 21.759 3.29173 21.6896C3.27162 21.6128 3.32645 21.5324 3.39407 21.536C3.56586 21.5507 3.76141 21.5726 3.9332 21.5525C3.98072 21.5452 4.0191 21.6201 4.02641 21.6676C4.03555 21.7334 3.86741 21.8394 3.88569 21.9655C3.88569 21.9929 3.893 22.0149 3.89665 22.035C3.91493 22.1629 3.9332 22.2543 3.9332 22.2543C3.94051 22.3073 3.95331 22.2963 3.98255 22.2927L4.72637 22.1665C4.76657 22.1611 4.77571 22.141 4.77023 22.0934C4.77023 22.0934 4.7154 21.6804 4.68799 21.5013C4.65692 21.282 4.29689 21.1815 4.27679 21.0462C4.26948 21.0024 4.30603 20.9658 4.34989 20.9604C4.41203 20.9512 4.99685 21.1047 5.07178 21.1157C5.10833 21.1248 5.14488 21.1541 5.15036 21.1906C5.20154 21.6402 5.33129 22.5613 5.41902 23.0145C5.43546 23.0968 5.34957 23.1187 5.30571 23.1242C5.21433 23.137 5.12843 22.9487 4.9475 22.9743C4.53082 23.0346 3.90762 23.1553 3.44707 23.2448C3.18207 23.296 3.0249 23.3234 3.0249 23.3234C2.66304 23.3892 2.71239 23.6652 2.55339 23.6871C2.50587 23.6944 2.47115 23.6487 2.46566 23.6048L2.26463 22.4389C2.20615 22.0971 2.18056 21.8595 2.16777 21.6475C2.16229 21.5817 2.13122 21.5178 2.12208 21.4483H2.11843Z" fill="white"/>
<path d="M3.20127 19.6976C3.20675 19.4307 3.42789 19.2187 3.69289 19.2242C3.97616 19.2297 4.18999 19.46 4.1845 19.7433C4.17902 19.9955 3.94875 20.2129 3.69654 20.2075C3.41692 20.202 3.19579 19.9808 3.20127 19.6976Z" fill="white"/>
<path d="M4.77673 18.3361L2.60558 18.0528C2.39906 18.0236 2.43379 18.1899 2.2492 18.1643C2.20534 18.1588 2.18889 18.1149 2.19438 18.0711C2.19438 18.0711 2.24372 17.6836 2.26382 17.5356L2.33327 17.0348C2.33875 16.9965 2.36982 16.9599 2.41369 16.9654C2.60192 16.991 2.51968 17.1372 2.7262 17.1646L4.89187 17.4844C5.16052 17.521 5.113 17.3145 5.28845 17.3382C5.33231 17.3437 5.34876 17.3876 5.34328 17.4259C5.31952 17.5977 5.28114 17.8116 5.25738 17.9779L5.23362 18.1442L5.18793 18.5353C5.166 18.6029 5.1258 18.5974 5.11118 18.601C4.93939 18.5809 5.08925 18.3744 4.77308 18.3342L4.77673 18.3361Z" fill="white"/>
<path d="M4.61428 16.384C4.64352 16.2816 4.94324 16.2414 5.0401 16.1263C5.09493 16.0587 5.16438 15.9947 5.18814 15.9106C5.22103 15.7955 5.18448 15.5963 5.00538 15.5451C4.66911 15.4519 4.26339 16.5393 3.46839 16.3163C3.26371 16.2597 3.07181 16.1372 2.95119 15.96C2.70995 15.6036 2.67889 15.2344 2.79402 14.825C2.84154 14.6551 2.91281 14.4815 3.00602 14.3316C3.04623 14.2695 3.11019 14.2092 3.18878 14.2219C3.34412 14.3243 3.66577 14.4888 3.78822 14.6295C3.79736 14.6587 3.80284 14.6898 3.79553 14.719C3.76812 14.8177 3.49398 14.8104 3.42088 14.8762C3.3295 14.9566 3.27833 15.0754 3.2436 15.196C3.19243 15.3788 3.28929 15.5396 3.46108 15.5871C3.89605 15.7096 4.03311 14.5089 5.19545 14.8342C5.66879 14.9658 5.88261 15.4866 5.77479 15.8704C5.70899 16.1098 5.68889 16.0312 5.57924 16.4187C5.54817 16.5302 5.61396 16.6581 5.59386 16.7495C5.57375 16.7897 5.54451 16.8281 5.49882 16.8427C5.4641 16.8372 5.42755 16.8317 5.39831 16.8244C5.232 16.7787 4.80435 16.6088 4.65997 16.521C4.59235 16.4845 4.60332 16.4278 4.61611 16.384H4.61428Z" fill="white"/>
<path d="M6.07452 14.6934C6.05442 14.7373 6.01056 14.7666 5.9667 14.7464C5.85887 14.6971 5.91552 14.4888 5.71632 14.401L3.75534 13.5421C3.57989 13.4672 3.56527 13.67 3.36789 13.5786C3.32403 13.5585 3.3222 13.5092 3.33865 13.4617C3.45562 13.1455 3.6 12.8111 3.73524 12.5314C3.75534 12.4876 3.79737 12.4583 3.84306 12.4784C4.02034 12.5607 3.92896 12.738 4.07151 12.7983L6.00508 13.6426C6.06904 13.5147 6.12752 13.3867 6.18783 13.2588C6.3578 12.8933 6.04345 12.557 6.10925 12.4163C6.14032 12.3487 6.20794 12.3395 6.2518 12.3852C6.2518 12.3852 6.88048 12.9883 6.85124 13.0432C6.61914 13.4379 6.29566 14.1635 6.08001 14.6934H6.07452Z" fill="white"/>
<path d="M8.44682 10.6492C8.28234 10.8813 8.19645 10.9727 7.89855 10.8959C7.69021 10.8466 7.5038 10.7954 7.28997 10.7424C7.11635 10.9562 6.90618 11.2468 6.78373 11.4588C6.87511 11.5886 7.00487 11.8444 7.12549 11.9285C7.21687 11.9925 7.29545 11.9504 7.3448 11.987C7.385 12.0162 7.37404 12.0674 7.35211 12.1076L7.01401 12.6559C6.99208 12.6943 6.93908 12.7162 6.89887 12.6888C6.87694 12.6742 6.86963 12.6467 6.86049 12.6285C6.81115 12.4676 6.79653 12.3817 6.70332 12.252C6.4895 11.9486 5.52088 10.4555 5.34727 10.333C5.28147 10.2873 5.08958 10.3513 5.02379 10.3056C4.98358 10.2782 5.00185 10.2307 5.02379 10.1978C5.15172 10.0004 5.41671 9.61846 5.58302 9.43022C5.63968 9.35163 5.90102 9.46494 5.97778 9.48687C6.73987 9.69887 7.51476 9.92366 8.28234 10.1192C8.44499 10.1576 8.74289 10.0918 8.78492 10.121C8.82513 10.1503 8.82513 10.2033 8.79954 10.2398C8.69537 10.3879 8.55282 10.5048 8.44865 10.6529L8.44682 10.6492ZM6.49132 11.0732C6.56991 10.9398 6.73074 10.7113 6.81846 10.6108L5.96864 10.3678L6.49132 11.0732Z" fill="white"/>
<path d="M9.3499 9.03363C9.50525 9.18532 9.64962 9.04825 9.71542 9.11953C9.74831 9.15608 9.72638 9.20542 9.69714 9.23832L8.99535 9.92183C8.96246 9.95107 8.91129 9.96752 8.87473 9.92914C8.80711 9.85421 8.93322 9.70252 8.80163 9.57094L7.39989 8.1564C7.1422 7.89871 6.94848 8.08695 6.84065 7.96816C6.80775 7.93161 6.82968 7.88226 6.85893 7.84937C6.97589 7.72692 7.20982 7.48385 7.33409 7.37054C7.35054 7.35592 7.38527 7.3413 7.4072 7.34678L9.65328 7.56061C9.39925 7.25358 8.78518 6.60296 8.78518 6.60296C8.62619 6.42935 8.50191 6.55362 8.43064 6.47503C8.40139 6.44214 8.41601 6.38731 8.45257 6.3599C8.60608 6.21917 8.97342 5.92494 9.14887 5.79518C9.1909 5.76959 9.23477 5.75314 9.26766 5.78787C9.33711 5.8628 9.18542 5.94138 9.35904 6.15338L11.0112 8.17285C11.0349 8.19843 11.0367 8.23316 11.0039 8.26422C10.8924 8.36474 10.6456 8.33733 10.5086 8.32453C9.81593 8.24778 9.12328 8.16919 8.42881 8.12167L9.3499 9.03363Z" fill="white"/>
<path d="M12.7692 7.04339C12.634 7.11832 12.4732 7.15852 12.3416 7.23162C12.0784 7.37783 11.8225 7.54597 11.5649 7.70496C11.5265 7.7269 11.4369 7.75614 11.4004 7.69034C11.3401 7.58252 11.5502 7.47469 11.4132 7.23162C11.2176 6.8789 10.8941 6.35439 10.6657 5.97974C10.5231 5.74947 10.4226 5.58681 10.4226 5.58681C10.2271 5.2743 9.99315 5.41502 9.91457 5.27613C9.89081 5.23409 9.92188 5.19023 9.95843 5.16464L10.503 4.82106L11.1208 4.45555C11.4771 4.2472 11.8719 4.10831 12.2977 4.15583C12.804 4.20883 13.2206 4.51951 13.4637 4.9563C13.9297 5.79333 13.5752 6.5938 12.7692 7.04339ZM11.4826 4.77172C11.3711 4.83385 11.2542 4.89965 11.1518 4.97092C11.1226 4.99103 11.1189 5.0093 11.1336 5.02758C11.1445 5.04768 11.1555 5.06596 11.1701 5.08423C11.4022 5.44609 11.8938 6.31967 12.1442 6.7327C12.2301 6.75097 12.4001 6.71808 12.4805 6.67239C12.9995 6.38363 12.9008 5.84998 12.6541 5.40954C12.4311 5.01113 11.9669 4.50489 11.4826 4.77354V4.77172Z" fill="white"/>
<path d="M14.7625 4.03725C15.0147 3.95318 15.2888 4.09207 15.3729 4.3461C15.4606 4.61659 15.3144 4.89255 15.0458 4.98027C14.8064 5.05886 14.5249 4.91448 14.4463 4.67324C14.3586 4.40824 14.4957 4.12497 14.7643 4.03725H14.7625Z" fill="white"/>
<path d="M16.6671 4.55262C16.7713 4.53435 16.9376 4.79021 17.0838 4.82676C17.1679 4.84869 17.2556 4.88158 17.3433 4.86696C17.4621 4.84686 17.6247 4.72807 17.5937 4.54531C17.5334 4.1999 16.3783 4.30042 16.2376 3.48898C16.2011 3.27881 16.2303 3.05402 16.3381 2.86943C16.5574 2.49843 16.8773 2.31385 17.2958 2.24075C17.4712 2.20968 17.6576 2.20054 17.8313 2.22064C17.9044 2.22978 17.9866 2.26085 18.0085 2.33761C17.9829 2.52219 17.972 2.88405 17.8989 3.05402C17.8751 3.07595 17.8514 3.09422 17.8221 3.09971C17.7216 3.11615 17.6101 2.86578 17.5187 2.8274C17.4073 2.77988 17.2775 2.78354 17.1551 2.80547C16.9668 2.83836 16.8645 2.99553 16.8937 3.16915C16.9705 3.61508 18.1127 3.22398 18.3174 4.4119C18.4015 4.89621 18.0232 5.31289 17.6302 5.38051C17.3853 5.42255 17.4493 5.37137 17.0509 5.44082C16.9376 5.46092 16.8499 5.57423 16.7585 5.59434C16.7128 5.59434 16.6671 5.58337 16.6342 5.54865C16.6232 5.51392 16.6141 5.48103 16.6086 5.44996C16.5794 5.27999 16.5501 4.82128 16.5648 4.65314C16.5684 4.57638 16.6251 4.56176 16.6689 4.55445L16.6671 4.55262Z" fill="white"/>
<path d="M21.4222 4.76084C21.17 5.04046 20.757 5.24332 20.3677 5.24332C19.432 5.24332 18.6699 4.61464 18.6699 3.63872C18.6699 2.66279 19.4284 2.06152 20.3367 2.06152C20.6601 2.06152 20.9928 2.10173 21.3162 2.12001C21.3692 2.12366 21.3784 2.20042 21.3729 2.23514C21.3546 2.44714 21.3071 2.69203 21.2852 2.89489C21.2815 2.94424 21.2669 2.9881 21.2102 2.9881C21.1883 2.9881 21.1664 2.9881 21.1518 2.96983C20.9781 2.75234 20.7095 2.56593 20.4244 2.56593C19.8048 2.56593 19.6349 3.07217 19.6349 3.60216C19.6349 4.21805 19.9309 4.72246 20.6053 4.72246C20.9014 4.72246 20.9873 4.67312 21.2614 4.55433C21.2797 4.54519 21.2925 4.54153 21.3144 4.54153C21.3711 4.54153 21.435 4.6786 21.435 4.72795L21.4222 4.75902V4.76084Z" fill="white"/>
<path d="M24.6686 5.75497C24.6595 5.80248 24.6047 5.82259 24.5626 5.80979L23.5849 5.5448C23.5429 5.532 23.499 5.49911 23.51 5.45159C23.541 5.30356 23.7293 5.3127 23.7567 5.20852L23.9632 4.37333C23.6818 4.29108 23.2139 4.18874 22.8831 4.14671C22.821 4.44643 22.7515 4.97094 22.7515 4.97094C22.7314 5.0879 22.8776 5.15187 22.8466 5.29808C22.8319 5.36387 22.81 5.36752 22.7351 5.35656L21.7427 5.2067C21.6988 5.20121 21.6568 5.16101 21.6678 5.11349C21.6915 4.99653 21.856 4.97094 21.8816 4.83205L22.2983 2.63348C22.3294 2.46717 22.1795 2.46717 22.216 2.2899C22.2252 2.24238 22.2782 2.22959 22.322 2.23507L23.2687 2.38493C23.3126 2.39041 23.3546 2.43062 23.3437 2.47814C23.3071 2.65541 23.1609 2.59327 23.1335 2.74131C23.1335 2.74131 23.0165 3.36451 22.9654 3.65326C23.2797 3.68799 23.8261 3.80312 24.0674 3.88536C24.1441 3.58382 24.283 3.00813 24.283 3.00813C24.3104 2.9003 24.1642 2.84182 24.2008 2.66455C24.2099 2.61703 24.2648 2.59693 24.3068 2.60972L25.2315 2.86741C25.2736 2.8802 25.3174 2.9131 25.3065 2.96061C25.2663 3.15616 25.1347 3.06479 25.0963 3.22927L24.5553 5.38945C24.5316 5.479 24.6961 5.62338 24.6686 5.75679V5.75497Z" fill="white"/>
<path d="M25.5349 4.51236C25.9589 3.62599 26.9001 3.40668 27.7426 3.81058C28.6216 4.23092 28.9707 5.03322 28.5339 5.94335C28.1044 6.83886 27.1778 7.06365 26.3225 6.65427C25.4709 6.24672 25.1127 5.39325 25.5349 4.51236ZM26.4596 4.81757C26.2586 5.23608 26.0575 5.97624 26.5857 6.22845C27.1011 6.47517 27.3844 6.10966 27.5945 5.66921C27.7846 5.27446 27.9801 4.47398 27.4812 4.23457C27.0061 4.00613 26.6533 4.41367 26.4596 4.81757Z" fill="white"/>
<path d="M28.9959 6.22827C29.6154 5.46435 30.5804 5.47166 31.3078 6.06013C32.0644 6.6742 32.2179 7.53498 31.5801 8.31901C30.955 9.09024 29.9992 9.09207 29.2627 8.49446C28.5299 7.89867 28.3818 6.98488 28.9959 6.22827ZM29.8238 6.73999C29.5295 7.10185 29.1622 7.77257 29.6173 8.14173C30.0614 8.50177 30.4214 8.21301 30.7284 7.8347C31.0044 7.49478 31.3827 6.76192 30.9532 6.41286C30.5438 6.08024 30.107 6.39458 29.8238 6.74182V6.73999Z" fill="white"/>
<path d="M30.7959 9.70425C30.7648 9.6677 30.7575 9.61653 30.7941 9.58546C30.8855 9.5087 31.0499 9.64943 31.2126 9.50688L32.8263 8.09965C32.9689 7.97355 32.7934 7.87303 32.9598 7.73413C32.9981 7.70307 33.042 7.72317 33.0767 7.75789C33.3125 7.99913 33.5537 8.27327 33.7474 8.51268C33.7785 8.55106 33.7876 8.6004 33.7493 8.6333C33.5994 8.75757 33.4788 8.6004 33.3618 8.70275L31.7718 10.0899C31.8596 10.2014 31.9509 10.311 32.0405 10.4188C32.2982 10.7277 32.7368 10.5888 32.8355 10.7076C32.883 10.7642 32.8629 10.83 32.8044 10.8501C32.8044 10.8501 31.9893 11.1608 31.9528 11.1097C31.6933 10.7313 31.1779 10.1283 30.7923 9.70608L30.7959 9.70425Z" fill="white"/>
<path d="M34.3578 11.2305C34.4967 11.4571 34.4254 11.755 34.1988 11.8958C33.9575 12.0438 33.6541 11.9652 33.5061 11.7221C33.3745 11.5065 33.4513 11.1995 33.6669 11.0679C33.9045 10.9217 34.2116 10.9893 34.3596 11.2305H34.3578Z" fill="white"/>
<path d="M34.7219 12.6303C35.6411 12.2812 36.4727 12.7728 36.8035 13.6482C37.1489 14.5602 36.8473 15.3789 35.9025 15.7371C34.9741 16.088 34.148 15.6092 33.8117 14.7228C33.4773 13.8401 33.8099 12.9757 34.7219 12.6303ZM35.1788 13.4892C34.7438 13.6537 34.0877 14.0503 34.2942 14.5967C34.4971 15.1322 34.954 15.0628 35.409 14.891C35.8202 14.7356 36.5147 14.2934 36.3173 13.7743C36.1309 13.2809 35.5955 13.3321 35.1769 13.4911L35.1788 13.4892Z" fill="white"/>
<path d="M35.9814 17.3821L35.5848 17.4607L35.159 17.5485C34.894 17.6033 34.925 17.7605 34.8209 17.7787C34.7642 17.7879 34.7441 17.702 34.7386 17.6636L34.5632 16.6767C34.5559 16.6365 34.5723 16.5945 34.6198 16.5853C34.7204 16.5689 34.7697 16.7791 34.9835 16.7388L35.4057 16.6566C35.7657 16.5853 36.1769 16.4903 36.5059 16.4154C36.7691 16.3551 36.9262 16.324 36.9262 16.324C37.2863 16.2472 37.2296 15.9749 37.3868 15.9475C37.4343 15.9384 37.469 15.9822 37.4782 16.0261L37.6774 17.013C37.745 17.3511 37.7614 17.4936 37.7907 17.7129C37.798 17.7787 37.8309 17.8409 37.8437 17.9103C37.851 17.9542 37.8272 17.9725 37.7834 17.9798C37.5823 18.0145 37.3155 18.0346 37.1145 18.0145C37.0743 18.0145 37.0194 17.9633 37.0103 17.9103C36.9865 17.7714 37.3594 17.7239 37.3356 17.5613C37.3155 17.4169 37.3265 17.4278 37.2753 17.1848C37.2625 17.1336 37.2479 17.1318 37.2223 17.1354L36.4748 17.2871C36.4529 17.2908 36.4383 17.3017 36.4511 17.3493C36.4511 17.3493 36.4931 17.638 36.5552 17.7897C36.579 17.8482 36.6905 17.892 36.7069 17.9615C36.7289 18.0382 36.6759 18.1205 36.6082 18.1187C36.4346 18.1077 36.2391 18.0931 36.0691 18.1187C36.0216 18.1278 35.9814 18.0529 35.9722 18.0053C35.9613 17.9396 36.0965 17.8354 36.0728 17.7093C36.0728 17.6819 36.0654 17.6618 36.06 17.6398C36.038 17.5137 36.0362 17.4187 36.0362 17.4187C36.0307 17.3657 36.0143 17.3767 35.985 17.3821H35.9814Z" fill="white"/>
<path d="M36.8231 19.4616C36.8323 19.7266 36.6221 19.9514 36.3553 19.9606C36.072 19.9697 35.8472 19.7504 35.8381 19.4671C35.8308 19.2149 36.0482 18.9865 36.3023 18.9773C36.5819 18.9682 36.814 19.1784 36.8231 19.4616Z" fill="white"/>
<path d="M34.7255 22.1302C34.7475 21.9767 34.8151 21.825 34.8352 21.6769C34.8772 21.379 34.8991 21.0738 34.9302 20.7723C34.9357 20.7284 34.9668 20.6389 35.0417 20.6498C35.1641 20.6681 35.1221 20.8984 35.3981 20.9386C35.7983 20.9953 36.4105 21.0574 36.8473 21.1031C37.116 21.1287 37.306 21.1469 37.306 21.1469C37.6734 21.1817 37.7026 20.9094 37.8616 20.9313C37.9091 20.9386 37.9256 20.9898 37.9238 21.0336L37.8671 21.6751L37.7812 22.3879C37.7319 22.7972 37.6021 23.1957 37.306 23.5063C36.957 23.8773 36.4562 24.0199 35.961 23.9486C35.0143 23.8115 34.5921 23.044 34.7237 22.1302H34.7255ZM37.3115 22.4866C37.3298 22.3586 37.3481 22.227 37.3536 22.1028C37.3536 22.0662 37.3426 22.0516 37.3207 22.0534C37.2987 22.0498 37.2768 22.0461 37.2549 22.0479C36.8254 22.0132 35.833 21.8743 35.3524 21.8231C35.2866 21.8816 35.2098 22.0351 35.197 22.1265C35.113 22.715 35.5973 22.9581 36.0962 23.0312C36.5476 23.097 37.2329 23.0348 37.3115 22.4866Z" fill="white"/>
<path d="M36.5801 26.953C36.5655 26.9951 36.5363 26.9987 36.4942 26.9841C36.3023 26.9183 36.0629 26.8087 35.8948 26.6935C35.8601 26.6716 35.8363 26.604 35.8546 26.5528C35.9003 26.4194 36.2512 26.5583 36.3078 26.4048C36.359 26.2677 36.4504 26.0319 36.5216 25.7944C36.5344 25.7432 36.5235 25.7341 36.4979 25.7249L35.7705 25.4983C35.7486 25.491 35.7303 25.4946 35.7175 25.5403C35.7175 25.5403 35.6133 25.8145 35.5951 25.9771C35.5877 26.0393 35.6627 26.1325 35.6444 26.2001C35.6261 26.2787 35.5402 26.3244 35.4817 26.2896C35.3355 26.1983 35.1711 26.0886 35.0084 26.0283C34.9627 26.0118 34.9627 25.9278 34.9792 25.8821C35.0011 25.8199 35.1985 25.8035 35.2405 25.6811C35.2533 25.6573 35.257 25.6354 35.2643 25.6134C35.3063 25.4928 35.3319 25.4033 35.3319 25.4033C35.3483 25.3521 35.3319 25.3576 35.3045 25.3466L34.5862 25.1182C34.5479 25.1054 34.5296 25.1182 34.515 25.1639C34.515 25.1639 34.3761 25.5568 34.3158 25.7286C34.2445 25.9387 34.5168 26.1909 34.4729 26.3207C34.4583 26.3627 34.4108 26.3792 34.3688 26.3646C34.3103 26.3445 33.8589 25.9406 33.7986 25.8967C33.7693 25.8729 33.751 25.8291 33.762 25.7962C33.921 25.3722 34.228 24.495 34.3578 24.0509C34.3816 23.9705 34.4674 23.9906 34.5095 24.0052C34.5972 24.0362 34.5881 24.2428 34.758 24.3012C35.1564 24.4383 35.765 24.6156 36.2164 24.7472C36.4759 24.8221 36.6295 24.8696 36.6295 24.8696C36.9822 24.9774 37.0644 24.7106 37.2161 24.7618C37.2618 24.7782 37.2709 24.8331 37.2563 24.8751L36.9018 26.0045C36.7976 26.3335 36.7117 26.5583 36.6258 26.7538C36.6002 26.816 36.6002 26.8854 36.5765 26.953H36.5801Z" fill="white"/>
<path d="M34.1988 27.0333C34.1477 27.1265 33.8461 27.0973 33.7255 27.1887C33.656 27.2417 33.5756 27.2873 33.5318 27.3659C33.4751 27.4701 33.4642 27.673 33.6268 27.7625C33.9338 27.9307 34.5753 26.9639 35.299 27.3605C35.4854 27.4628 35.6444 27.6254 35.7212 27.8247C35.8747 28.2267 35.8217 28.5922 35.617 28.9651C35.5311 29.1204 35.4233 29.2739 35.299 29.3982C35.246 29.4494 35.1693 29.4951 35.0962 29.464C34.9682 29.3287 34.6923 29.0948 34.6046 28.9322C34.6009 28.9011 34.6046 28.87 34.6173 28.8426C34.6667 28.7531 34.9317 28.8225 35.0194 28.775C35.1272 28.7183 35.204 28.6142 35.2643 28.5045C35.3557 28.3382 35.2972 28.1591 35.1419 28.0732C34.7453 27.8557 34.3396 28.9925 33.2832 28.4131C32.8519 28.1774 32.7624 27.6218 32.9543 27.2727C33.0731 27.0552 33.0749 27.1357 33.2686 26.7829C33.3234 26.6824 33.2905 26.5417 33.3307 26.4576C33.36 26.4229 33.3965 26.3937 33.444 26.3882C33.4769 26.401 33.5098 26.4138 33.5373 26.4302C33.6889 26.5125 34.0654 26.7756 34.1879 26.8926C34.2445 26.9438 34.2208 26.9968 34.2007 27.0351L34.1988 27.0333Z" fill="white"/>
<path d="M32.6952 28.638L34.477 29.91C34.6452 30.0325 34.6927 29.8698 34.8426 29.9777C34.8791 30.0032 34.8718 30.0489 34.8462 30.0855C34.8462 30.0855 34.6214 30.4035 34.5319 30.5259L34.2358 30.9353C34.212 30.9682 34.1682 30.9846 34.1316 30.9572C33.9781 30.8457 34.1188 30.7562 33.9507 30.6337L32.1889 29.3325C31.9696 29.1735 31.9148 29.38 31.7704 29.2759C31.7339 29.2503 31.7393 29.2046 31.7631 29.1735C31.8636 29.0328 31.9989 28.8628 32.0976 28.7258L32.1962 28.5887L32.421 28.2652C32.474 28.2159 32.5051 28.2396 32.5197 28.2433C32.6623 28.3402 32.432 28.4535 32.6933 28.638H32.6952Z" fill="white"/>
<path d="M29.6263 31.4709C29.597 31.4435 29.6189 31.4015 29.6445 31.3777C29.714 31.3083 29.8017 31.2516 29.8693 31.1822C30.0247 31.025 30.1215 30.8075 30.2787 30.6503C30.9439 29.9815 31.9802 29.6927 32.7185 30.4255C33.4404 31.1438 33.1699 32.2476 32.5138 32.9092C32.417 33.0061 31.7919 33.5288 31.7042 33.441C31.6951 33.4319 31.4556 32.9677 31.4301 32.9238C31.4118 32.8855 31.3917 32.8361 31.4264 32.8014C31.4849 32.7411 31.9034 32.7813 32.0715 32.6113C32.4626 32.2184 32.5175 31.6299 32.1099 31.226C31.6951 30.8148 31.0554 30.5955 30.6077 31.0469C30.5492 31.1072 30.4889 31.1657 30.4395 31.2352L30.8727 31.6665C30.9878 31.7816 31.1194 31.5934 31.2235 31.6957C31.2619 31.7341 31.2418 31.7834 31.2108 31.8145L30.5949 32.434C30.5675 32.4633 30.5108 32.4743 30.4797 32.4432C30.4267 32.3902 30.3883 32.2458 30.3353 32.1745C30.2696 32.0905 30.1745 32.0155 30.0996 31.9406L29.6244 31.4691L29.6263 31.4709Z" fill="white"/>
<path d="M28.7125 32.6205C28.5846 32.445 28.4183 32.5565 28.3653 32.4743C28.3397 32.4341 28.3671 32.3884 28.4037 32.361L29.2096 31.8017C29.2462 31.778 29.2992 31.7706 29.3284 31.8145C29.3833 31.9004 29.2334 32.0283 29.3412 32.18L30.4908 33.8066C30.7009 34.1026 30.9239 33.9491 31.0098 34.0844C31.0372 34.1264 31.008 34.1702 30.9732 34.1977C30.838 34.3 30.5675 34.501 30.425 34.5906C30.4067 34.6016 30.3701 34.6107 30.3482 34.6034L28.1697 34.0222C28.3708 34.3676 28.8679 35.1114 28.8679 35.1114C28.994 35.3088 29.1384 35.2065 29.1968 35.2942C29.2206 35.3326 29.1968 35.3838 29.1566 35.4039C28.9812 35.5172 28.5718 35.7474 28.3763 35.8461C28.3306 35.8644 28.2831 35.8735 28.2575 35.8333C28.2026 35.7474 28.3635 35.6963 28.2264 35.4587L26.9307 33.1943C26.9124 33.1651 26.916 33.1304 26.9526 33.1066C27.0787 33.0244 27.3181 33.0938 27.4515 33.1285C28.1222 33.3204 28.7929 33.5105 29.4691 33.6713L28.7107 32.6205H28.7125Z" fill="white"/>
<path d="M12.8585 35.6704C12.9517 35.4493 13.193 35.3415 13.4141 35.4365C13.6243 35.526 13.7193 35.7709 13.6298 35.9793C13.5365 36.2004 13.2862 36.2955 13.0687 36.2022C12.8713 36.1182 12.7744 35.8641 12.8585 35.6704ZM13.3483 34.5191C13.4433 34.2979 13.6828 34.1901 13.9039 34.2851C14.1141 34.3747 14.2091 34.6196 14.1195 34.8279C14.0245 35.0491 13.776 35.1423 13.5585 35.0509C13.3611 34.9668 13.2642 34.7128 13.3465 34.5191H13.3483Z" fill="white"/>
<path d="M15.4009 34.9612C15.3351 34.9246 15.05 34.8223 15.0792 34.7181C15.092 34.6742 14.9896 34.5664 15.24 34.5792C15.7463 34.6121 15.8047 34.5902 16.2671 34.5628C16.2945 34.5664 16.3201 34.5445 16.3457 34.5518C16.3987 34.5664 16.406 34.6194 16.3932 34.6688L15.7499 36.9971C15.7042 37.1634 15.6768 37.2767 15.739 37.4448C15.7463 37.4668 15.7536 37.4924 15.7463 37.5179C15.7335 37.5655 15.6786 37.5782 15.6348 37.5673L14.498 37.2529C14.445 37.2383 14.3975 37.2073 14.4103 37.1634C14.4249 37.1104 14.4907 37.0921 14.5328 37.0793C14.8325 36.9971 14.8471 36.9733 14.9257 36.6901L15.4027 34.963L15.4009 34.9612Z" fill="white"/>
<path d="M16.621 36.9553C16.6631 36.5862 16.9207 36.3979 17.2515 36.2938C17.0158 36.0927 16.8422 35.846 16.8805 35.5189C16.9555 34.8591 17.6408 34.7275 18.1873 34.7897C18.699 34.8482 19.3094 35.1314 19.2381 35.7473C19.2034 36.0434 18.9896 36.206 18.7246 36.2992C19.0371 36.5167 19.2436 36.7781 19.1979 37.1765C19.1157 37.8911 18.4486 38.083 17.8272 38.0117C17.2607 37.9477 16.5406 37.6462 16.6192 36.9535L16.621 36.9553ZM17.3228 36.9499C17.2881 37.2514 17.5056 37.4981 17.8016 37.5329C18.0082 37.5566 18.264 37.4671 18.2914 37.2295C18.3261 36.9279 17.8108 36.7013 17.5878 36.5716C17.4416 36.6501 17.3411 36.7836 17.321 36.9517L17.3228 36.9499ZM17.7687 35.4714C17.7395 35.7327 18.1708 35.9356 18.359 36.0434C18.4577 35.9776 18.5144 35.8789 18.529 35.7583C18.5583 35.4969 18.3974 35.2703 18.1324 35.2393C17.9698 35.221 17.7907 35.2868 17.7687 35.4714Z" fill="white"/>
<path d="M20.5036 35.5392C20.2459 35.5556 20.0503 35.7402 19.8164 35.8499C19.8036 35.859 19.7853 35.8645 19.7671 35.8663C19.7214 35.87 19.6885 35.8352 19.6848 35.7896C19.6775 35.6854 19.8237 35.0019 19.9334 34.9982C20.7302 34.9872 21.6714 34.905 22.0625 34.8611C22.1118 34.8575 22.1539 34.8867 22.1575 34.9361C22.1594 34.9763 21.7518 35.9449 21.7207 36.0472C21.6568 36.2464 21.284 37.2315 21.178 37.4727C21.0208 37.8328 20.5273 38.1489 20.1271 38.1782C19.8475 38.2001 19.8767 38.1544 20.0449 37.957C20.1892 37.7944 20.3958 37.5678 20.4213 37.544C20.7467 36.961 20.754 36.5078 20.955 35.5574C20.7722 35.5319 20.6809 35.5246 20.4999 35.5373L20.5036 35.5392Z" fill="white"/>
<path d="M23.2719 35.1952C23.0216 35.2573 22.8607 35.4748 22.6524 35.6246C22.6414 35.6374 22.625 35.6447 22.6067 35.6502C22.5628 35.6612 22.5226 35.6338 22.5117 35.5899C22.4861 35.4894 22.508 34.7894 22.614 34.7675C23.3962 34.614 24.3082 34.3654 24.6846 34.2521C24.7322 34.2393 24.7797 34.2613 24.7925 34.3088C24.8016 34.349 24.5732 35.3743 24.5622 35.4803C24.5348 35.6886 24.3447 36.723 24.2826 36.9807C24.1912 37.3627 23.7635 37.7629 23.3743 37.8634C23.1038 37.9365 23.1239 37.8835 23.2537 37.6605C23.3651 37.4741 23.5296 37.2146 23.5497 37.1854C23.7654 36.5549 23.6923 36.1071 23.7197 35.1348C23.5351 35.144 23.4437 35.1531 23.2683 35.1952H23.2719Z" fill="white"/>
<path d="M25.6406 34.9118C25.5492 34.6888 25.6406 34.4421 25.8635 34.3507C26.0737 34.2648 26.315 34.3672 26.4027 34.5792C26.4941 34.8021 26.3862 35.0452 26.1669 35.1347C25.9695 35.217 25.7192 35.1055 25.6406 34.9118ZM26.1157 36.0686C26.0244 35.8457 26.1157 35.6008 26.3387 35.5094C26.5489 35.4235 26.7901 35.5277 26.8778 35.7378C26.9692 35.9608 26.8614 36.2039 26.6421 36.2934C26.4429 36.3757 26.1943 36.2642 26.1157 36.0705V36.0686Z" fill="white"/>
<path d="M23.6101 16.3693C23.6101 16.5904 22.859 17.4238 22.6653 17.5956C22.6251 17.6084 22.5319 17.6486 22.4935 17.6486C22.2285 17.6486 22.2449 17.0016 21.6912 17.0016C21.1813 17.0016 20.7116 17.3726 20.7116 17.9245C20.7116 19.3227 23.4804 19.9769 23.4804 21.7387C23.4804 23.5005 21.3622 24.4709 19.8106 24.4709C19.5785 24.4709 19.0156 24.343 19.0156 24.0378C19.0156 23.8459 19.637 22.6433 19.6772 22.5629C19.7211 22.4752 19.8654 22.4734 19.8654 22.4734C20.5416 22.4624 19.7795 23.2629 21.2836 23.2629C21.7058 23.2629 22.1901 23.0491 22.1901 22.5355C22.1901 21.2288 19.3556 20.3845 19.3556 18.4838C19.3556 16.9395 21.0168 15.9307 22.5465 15.9307C22.8316 15.9307 23.6083 15.9581 23.6083 16.3729L23.6101 16.3693Z" fill="white"/>
<path d="M18.8689 16.1559C18.8689 16.2327 18.6204 16.558 18.5765 16.6183C18.3993 16.8632 18.3773 16.7864 18.3042 17.2049C18.1288 18.2101 17.7541 20.6682 17.4617 22.3806C17.3393 23.0988 17.3429 23.2286 17.385 23.2962C17.4288 23.3675 17.533 23.3803 17.9095 23.3931C18.2202 23.404 18.286 23.3766 18.2658 23.5557C18.2293 23.8646 17.798 24.1899 17.6006 24.3142C17.5129 24.369 15.9796 24.3379 15.8864 24.3306C15.0146 24.2575 15.6086 23.8701 15.7785 23.4296C15.8169 23.3309 16.5699 18.5208 16.791 17.1885C16.8148 17.0459 16.8056 16.9546 16.473 16.9546C16.2153 16.9546 16.0234 16.9509 15.8681 16.9692C15.8334 16.9728 15.6049 17.013 15.5976 16.7645C15.5921 16.589 15.9869 16.3058 16.1038 16.2217C16.2665 16.1047 16.3231 15.9933 16.6119 15.9896C16.8787 16.0024 17.9643 15.9969 18.1909 15.9951C18.4121 15.9951 18.8708 15.9421 18.8708 16.1559H18.8689Z" fill="white"/>
<path d="M25.1596 21.9984C25.0884 22.5046 25.0719 23.285 24.71 23.6724C24.6004 23.7912 24.4341 23.8862 24.4341 24.069C24.4341 24.4473 24.7685 24.3614 25.0408 24.3614C25.4776 24.3614 25.8852 24.3431 26.322 24.3431C30.0264 24.3431 31.9162 21.3477 31.9162 19.5074C31.9162 17.4477 31.2345 16.0021 28.9482 16.0021C28.6284 16.0021 28.3268 16.0295 27.9412 16.0295L27.4605 16.0094C27.4733 15.7189 27.5081 15.346 27.5793 14.9184C27.7712 14.9367 27.8809 14.9458 28.0874 14.9458C29.0158 14.9458 30.3353 14.6991 30.3353 13.5185C30.3353 13.0287 29.7596 12.8496 29.363 12.8496C28.1587 12.8496 27.254 13.1767 26.7332 14.1362C26.3256 14.0192 25.9309 13.8584 25.5489 13.6683C25.7244 13.2772 25.8102 12.835 25.8102 12.3634C25.8102 11.457 25.3771 10.5889 24.7704 9.91633C25.5745 9.96932 26.6125 10.2855 26.7332 11.0951C26.7843 11.4296 26.746 11.6452 26.4316 11.8152C26.3768 11.8444 26.2288 11.9157 26.2068 11.9285C26.0442 12.0345 26.1794 12.2026 26.2854 12.2026C27.1389 12.2026 27.8133 11.7421 27.8133 11.0878C27.8133 9.45578 25.6348 9.43933 24.0996 9.3114C22.888 8.38848 21.2139 7.83838 19.7957 7.83838C18.7028 7.83838 16.6852 8.27334 16.4732 9.60747C16.2831 9.60198 16.0858 9.60016 15.8774 9.60016C14.1759 9.60016 11.8988 10.6035 11.8988 12.5773C11.8988 12.6997 11.9134 12.8185 11.9372 12.9318C11.1239 13.7652 10.5884 14.9056 10.3655 15.9893C10.2723 15.9893 10.19 15.9948 10.0877 16.0003C9.71667 16.0168 9.3603 16.2032 8.99661 16.3932C8.3661 16.724 7.7959 17.2942 7.7959 18.0179C7.7959 18.1934 7.87814 18.6027 8.09927 18.6027C8.32041 18.6027 9.10078 17.9467 9.10078 17.7274C9.10078 17.5994 9.05509 17.477 9.05509 17.349C9.05509 16.7679 9.76236 16.8794 10.1663 16.8885C10.1827 16.8885 10.2211 16.9049 10.2138 16.9543C10.2065 17.0036 9.11723 23.2704 9.11723 23.2704C9.10992 23.3106 9.07885 23.444 9.07885 23.444C8.96189 23.6706 8.56165 23.9137 8.56896 24.0708C8.5781 24.2755 8.86868 24.3486 9.20313 24.3486C9.61616 24.3486 10.3052 24.3431 10.508 24.3431C10.8333 24.3431 11.4273 23.8899 11.4273 23.5628C11.4273 23.3782 11.2555 23.4147 11.133 23.4147C10.985 23.4147 10.5848 23.4367 10.603 23.2228C10.6743 22.3584 10.8754 21.3276 11.0088 20.4431C11.0764 20.4175 11.6904 20.4687 11.8074 20.4669C12.2698 22.6472 12.8893 23.6962 14.1577 25.4287C12.7322 25.8088 11.5351 26.4887 11.5351 27.7004C11.5351 28.9906 13.3316 29.8569 14.4501 29.8569C14.7315 29.8569 15.0148 29.8405 15.3017 29.8094C15.8061 31.6278 18.2478 32.1341 19.9474 32.1341C21.647 32.1341 24.1545 31.1709 24.6772 29.3342C26.5632 29.0637 28.4511 28.4168 28.4511 26.9694C28.4511 25.8874 26.8903 25.7851 26.1136 25.7851C25.2346 25.7851 24.3281 26.019 23.3942 26.3644C21.8938 25.3556 19.538 24.9663 18.2167 24.9663C17.6118 24.9663 16.5865 25.0065 15.5484 25.1527L15.2652 24.758C14.43 23.5938 13.1763 21.2564 13.1763 20.2585L13.1854 20.1909C14.0115 19.8327 14.7297 18.9957 14.843 18.113C14.8576 18.0015 14.8613 17.89 14.8576 17.7749C14.8357 16.8264 14.6511 16.2141 13.5089 16.0478C13.041 15.9802 12.2808 16.1173 11.685 16.0021C11.6795 16.0021 11.9116 14.3573 12.3447 13.6994C12.9186 14.3464 13.953 14.7009 14.8759 14.7009C16.0967 14.7009 17.0781 14.2934 17.959 13.7158C19.2913 14.4725 20.8374 15.2492 22.6522 15.2492C23.8566 15.2492 24.7009 14.8508 25.2108 14.2202C25.611 14.4322 26.0296 14.6077 26.4846 14.7338C26.3476 15.1688 26.269 15.5343 26.152 15.9656C26.152 15.9656 25.8102 15.9692 25.6421 15.9912C25.3278 16.0332 25.05 16.247 24.7704 16.4078C24.1417 16.7715 23.6208 17.2979 23.6208 18.0581C23.6208 18.2336 23.7031 18.5205 23.9242 18.5205C24.1453 18.5205 24.9239 17.8644 24.9239 17.6433C24.9239 17.5245 24.8782 17.413 24.8782 17.296C24.8782 16.777 25.5178 16.8812 25.9016 16.883C25.9839 16.883 25.9638 16.947 25.9638 16.947L25.1578 22.0002L25.1596 21.9984ZM28.6649 13.3649C28.8568 13.3649 29.1803 13.396 29.1803 13.6683C29.1803 14.1508 28.4931 14.3372 28.1166 14.3372C27.954 14.3372 27.7913 14.3281 27.6342 14.3135C27.8096 13.7853 28.1166 13.3668 28.6631 13.3668L28.6649 13.3649ZM25.081 26.4247C25.728 26.4247 26.8118 26.4796 26.8118 27.3659C26.8118 28.0659 25.8468 28.4533 24.7758 28.6653V28.6105C24.7832 27.8448 24.4158 27.2197 23.8547 26.719C24.3244 26.549 24.7685 26.4247 25.081 26.4247ZM16.5463 28.6726C16.5463 28.4003 16.6157 28.1609 16.7327 27.9562C16.9685 28.1207 17.2097 28.2761 17.4564 28.4186C17.6081 28.5063 17.7616 28.5886 17.917 28.6635C17.4729 28.8079 17.0233 28.9322 16.5701 29.0217C16.5536 28.9084 16.5463 28.7914 16.5463 28.6726ZM19.2182 28.1792C18.659 27.9124 18.1144 27.5834 17.6081 27.2106C18.0029 27.0315 18.4525 26.9419 18.8545 26.9419C19.4028 26.9419 20.0954 27.1814 20.5066 27.62C20.0826 27.8119 19.6532 28.0019 19.22 28.181L19.2182 28.1792ZM20.7881 28.0659C20.8338 28.1883 20.8575 28.3199 20.8575 28.4606C20.8575 28.5539 20.8393 28.6507 20.8045 28.7494C20.4975 28.6763 20.1868 28.5794 19.878 28.4625C20.1868 28.3327 20.4902 28.1993 20.7881 28.0659ZM19.825 31.5273C18.5457 31.5273 17.175 30.7579 16.7108 29.5572C17.3486 29.4018 17.9883 29.1953 18.6188 28.9632C19.1835 29.1734 19.7884 29.3196 20.3769 29.4073C20.0571 29.6997 19.1122 30.1347 18.7065 29.7728C18.6297 29.7034 18.6023 29.6614 18.5256 29.5901C18.3519 29.4274 18.1546 29.5481 18.2405 29.729C18.3081 29.8697 18.4634 30.0433 18.5603 30.1365C18.754 30.3229 19.1817 30.4874 19.6806 30.4728C20.3988 30.4728 21.1006 30.2151 21.6781 29.5133C21.7311 29.4494 21.8207 29.4877 21.9559 29.4823C22.2812 29.4676 22.8021 29.506 23.2242 29.4823C22.9812 31.1527 21.4204 31.5291 19.825 31.5291V31.5273ZM23.2535 28.8664C22.7637 28.9047 22.3543 28.9194 22.1332 28.9157L21.9632 28.9121C21.9742 28.8444 21.9815 28.775 21.9815 28.7019C21.9815 28.2815 21.8828 27.9325 21.7147 27.6456L21.8828 27.5688C22.0838 27.4774 22.3543 27.3495 22.6559 27.2142C23.0049 27.662 23.2261 28.2084 23.2535 28.8664ZM18.0632 25.4525C19.4594 25.4525 21.2157 25.8363 22.2849 26.814C21.9833 26.9456 21.6781 27.0827 21.3711 27.2234C20.7607 26.6587 19.7847 26.4558 18.8838 26.4558C18.3465 26.4558 17.7105 26.5801 17.1183 26.8231C16.709 26.4796 16.3325 26.1049 16.0072 25.7138C16.8296 25.5347 17.6191 25.4543 18.0632 25.4543V25.4525ZM16.0602 27.4445C15.5539 27.8685 15.1994 28.4223 15.2085 29.0985V29.1844C15.1281 29.188 15.0477 29.188 14.9655 29.188C14.0974 29.188 13.052 28.6544 13.052 27.6693C13.052 26.962 13.7739 26.4503 14.6895 26.0976C15.1025 26.5783 15.5631 27.0333 16.0602 27.4427V27.4445ZM11.6996 16.8958C12.0925 16.8958 12.6426 16.883 12.9624 17.0036C13.3243 17.1407 13.4467 17.3363 13.4467 17.9448C13.4467 18.6959 13.1086 19.6755 12.2204 19.6737L11.2866 19.6499C11.2866 19.6499 11.1276 19.6883 11.1696 19.4526C11.2774 18.8367 11.5516 17.042 11.5662 16.9762C11.5753 16.8976 11.6594 16.8958 11.7014 16.8958H11.6996ZM20.1283 8.50727C20.8831 8.50727 22.1039 8.85816 23.0506 9.37536C22.5974 9.42105 22.5663 9.43019 22.2483 9.49964C21.9906 9.32785 21.5484 9.19261 21.2157 9.19261C20.6876 9.19261 20.2837 9.49964 20.2307 9.55629C20.0936 9.7025 20.2234 9.77012 20.3275 9.73905C20.3677 9.72626 20.5103 9.68422 20.6017 9.66229C20.7497 9.62574 20.8411 9.61478 20.9855 9.61478C21.1372 9.61478 21.3236 9.6696 21.4734 9.73174C21.0257 9.92364 20.5633 10.1612 20.1521 10.4335C19.4412 10.0881 18.7814 9.8615 17.9627 9.73357C18.2459 8.9404 19.231 8.50727 20.1302 8.50727H20.1283ZM21.2888 11.0476C21.5922 10.8356 21.9066 10.6419 22.2355 10.481C22.305 10.6327 22.3452 10.7954 22.3452 10.9672C22.3452 11.2121 22.2849 11.4149 22.1862 11.5776C21.8627 11.3857 21.5666 11.2102 21.2888 11.0494V11.0476ZM21.8444 11.9285C21.5337 12.1368 21.1426 12.2118 20.8575 12.2118C20.651 12.2118 20.3513 12.1606 20.0187 12.0619C20.3056 11.8133 20.5962 11.5703 20.8923 11.34C21.192 11.5118 21.5045 11.7055 21.8444 11.9285ZM14.6913 14.0338C13.9804 14.0338 13.4522 13.385 13.3042 12.7253C13.7136 12.4603 14.1814 12.3031 14.6913 12.3031C15.3346 12.3031 16.0455 12.6376 16.8405 13.0798C16.1004 13.6409 15.3931 14.0338 14.6913 14.0338ZM17.4107 12.6266C16.5097 12.1167 15.6526 11.6945 14.7224 11.6945C14.2088 11.6945 13.7337 11.7969 13.3024 11.9797C13.5601 10.7241 15.0824 10.2782 16.2411 10.2672H16.5189C16.7181 10.9178 17.3504 11.5356 18.1527 11.9979C17.9005 12.2136 17.6538 12.4256 17.4107 12.6266ZM17.8877 10.3257C18.5475 10.3951 19.1177 10.5304 19.6897 10.7534C19.3681 10.9891 19.0574 11.2358 18.7558 11.488C18.2971 11.1847 17.9389 10.7917 17.8877 10.3257ZM22.2246 14.3665C20.7863 14.3665 19.6203 13.8566 18.5658 13.2809C18.8637 13.0524 19.1524 12.8094 19.4393 12.5626C19.9584 12.7253 20.4902 12.8185 20.98 12.8185C21.4076 12.8185 22.0692 12.729 22.5846 12.4347C23.1182 12.8167 23.619 13.2023 24.1252 13.5514C23.725 14.0357 23.1109 14.3683 22.2264 14.3683L22.2246 14.3665ZM24.4451 13.0378C23.9553 12.729 23.4783 12.4 23.0122 12.0911C23.2169 11.8609 23.3485 11.5611 23.3485 11.1773C23.3485 10.7716 23.2224 10.4354 23.0232 10.1667C23.3046 10.0808 23.5897 10.0095 23.9004 9.97663C24.403 10.4372 24.7448 11.0019 24.7448 11.6324C24.7448 12.1039 24.6534 12.5992 24.4451 13.0378ZM27.3746 17.0603C27.382 17 27.3619 17.1078 27.3746 17.0603C27.3947 16.9305 27.4002 16.9214 27.5574 16.9269C27.6579 16.9232 27.7639 16.9287 28.0234 16.9397C28.2062 16.9561 28.3012 16.9634 28.4584 16.9945C29.4818 17.1498 30.5382 17.7548 30.4303 20.0721C30.3426 21.9545 29.1894 23.2612 26.9982 23.2612C26.7752 23.2612 26.7825 23.2649 26.5577 23.2174C26.8538 21.1358 27.0895 19.1857 27.3765 17.0585L27.3746 17.0603Z" fill="white"/>
</g>
</svg>
