<svg width="278" height="40" viewBox="0 0 278 40" fill="none" xmlns="http://www.w3.org/2000/svg">
<mask id="mask0_23_4351" style="mask-type:luminance" maskUnits="userSpaceOnUse" x="0" y="0" width="162" height="40">
<path d="M161.625 0H0.375V40H161.625V0Z" fill="white"/>
</mask>
<g mask="url(#mask0_23_4351)">
<path d="M27.5006 11.1301H21.4896C21.4896 11.1301 21.4858 15.1577 21.4933 15.2642C21.5058 15.4233 21.5394 15.8691 22.3729 16.4272L24.4765 17.728C24.4765 17.728 25.8804 16.9595 26.6744 16.4272C27.3956 15.9435 27.4908 15.5441 27.4992 15.2859C27.5081 15.1607 27.5006 11.1301 27.5006 11.1301ZM25.014 15.1334C24.8373 15.175 24.5031 15.2531 24.3733 15.2833C24.3535 15.1644 24.2773 14.7164 24.2031 14.2802C24.2544 14.2563 24.2773 14.246 24.3225 14.225C24.3973 14.3229 24.8785 14.9555 25.014 15.1334ZM24.3833 13.9807C24.3833 13.9807 24.2404 14.047 24.1694 14.0798C24.1519 13.9789 24.1008 13.6786 24.1008 13.6786H23.2583C23.2583 13.6786 23.2244 13.9774 23.2125 14.082H22.6744L22.4448 14.8435H21.8042C21.8031 14.4931 21.8023 13.9531 21.8023 13.3574L22.2477 13.6459L21.9337 13.7707L22.0358 14.0256C22.0358 14.0256 24.3804 13.0889 24.5046 13.0391C24.6183 13.1117 27.1873 14.7547 27.1873 14.7547L27.1902 14.7503V14.8435H25.0398L24.3833 13.9807ZM24.044 14.5145C24.0731 14.6862 24.1042 14.8678 24.1312 15.0295H23.3021C23.3198 14.8752 23.3404 14.6917 23.3606 14.5145H24.044ZM23.3875 14.2791C23.41 14.0813 23.4281 13.9218 23.4331 13.875H23.9354C23.9427 13.9177 23.97 14.0769 24.0042 14.2791H23.3875ZM22.7281 14.583C22.7712 14.4412 22.8073 14.3204 22.8202 14.2784H23.19C23.1783 14.3815 23.1665 14.485 23.1554 14.583H22.7281ZM23.129 14.8184C23.1083 14.9997 23.0921 15.1411 23.0862 15.1938H22.5444C22.5667 15.1194 22.611 14.9731 22.6573 14.8184H23.129ZM24.0875 12.7809C24.0875 12.5447 24.2798 12.3524 24.5162 12.3524C24.7529 12.3524 24.9452 12.5447 24.9452 12.7809C24.9452 12.8461 24.9256 12.9072 24.8979 12.9647L24.534 12.7319L24.1058 12.9028C24.0942 12.8634 24.0875 12.8229 24.0875 12.7809ZM27.1906 14.4309L26.5304 14.0087L27.1906 13.7004V14.4309ZM21.9798 11.444L23.7177 12.3447L23.8258 12.1358L22.4912 11.444H23.7183L24.0735 12.015L24.2731 11.8908L23.9954 11.444H24.9827L24.7104 11.8746L24.9094 12.0003L25.2612 11.444H26.5071L25.2008 12.1229L25.3092 12.3318L27.0171 11.444H27.1879C27.1883 11.7999 27.189 12.1896 27.1894 12.5801H25.4675V12.8151H27.1898C27.1902 13.0126 27.1902 13.2078 27.1902 13.3976L26.2567 13.8337L25.1087 13.0995C25.1615 13.0019 25.1912 12.8936 25.1912 12.7809C25.1912 12.4088 24.8883 12.106 24.5162 12.106C24.1442 12.106 23.841 12.4088 23.841 12.7809C23.841 12.8542 23.856 12.9249 23.879 12.9934L22.5598 13.521L21.8023 13.031V12.8151H23.5654V12.5801H21.8023C21.8023 12.1896 21.8027 11.801 21.8031 11.444H21.9798ZM26.4998 16.1667C26.4983 16.1678 26.4965 16.1689 26.495 16.17H24.2898V16.4445H26.0658C25.4398 16.832 24.7148 17.2351 24.4825 17.3629C24.3446 17.2778 22.5475 16.1667 22.5475 16.1667C22.0785 15.8525 21.8292 15.5453 21.8071 15.2531C21.8065 15.2395 21.8056 15.1923 21.8052 15.1183H22.3623L22.2804 15.3898H23.2615C23.2615 15.3898 23.2667 15.3426 23.2756 15.2649H24.1715C24.1954 15.4049 24.2112 15.4999 24.2142 15.5154H22.2794L22.39 15.7869H25.0512C25.0567 15.7851 25.4129 15.5154 25.4129 15.5154H24.241L25.3533 15.2557L25.2487 15.1183H27.189C27.1887 15.1865 27.1879 15.2306 27.1873 15.2428C27.1821 15.3846 27.171 15.7166 26.4998 16.1667ZM19.2549 11.1301H13.2441C13.2441 11.1301 13.2396 15.1577 13.2474 15.2645C13.2595 15.4233 13.2934 15.8691 14.1271 16.4272L16.2296 17.728L16.3062 17.6823C16.3194 17.6753 17.6346 16.9595 18.4285 16.4272C19.1491 15.9446 19.2445 15.5453 19.2537 15.2866C19.2622 15.1577 19.2549 11.1301 19.2549 11.1301ZM18.9417 11.444C18.9424 11.8669 18.9432 12.3373 18.9439 12.8H13.5568C13.5568 12.337 13.5572 11.868 13.5576 11.444H18.9417ZM18.1379 16.2422C17.9758 16.3484 17.7997 16.4581 17.6177 16.5686V13.0745H18.1379V16.2422ZM17.3237 13.0745V16.744C17.141 16.8516 16.9634 16.9544 16.8035 17.0453V13.0745H17.3237ZM14.3607 13.0745H14.8812V16.5255C14.6469 16.3804 14.4528 16.2603 14.3607 16.2032V13.0745ZM15.1752 13.0745H15.6954V17.0287C15.5329 16.9286 15.3524 16.8169 15.1752 16.7068V13.0745ZM13.5612 15.2531C13.5576 15.1872 13.5565 14.3572 13.5565 13.3725V13.0745H14.0671V15.9936C13.751 15.7398 13.5793 15.4911 13.5612 15.2531ZM16.2362 17.3629C16.2093 17.3463 16.1172 17.2896 15.9894 17.2104V13.0745H16.5095V17.2111C16.3942 17.2756 16.2959 17.3301 16.2362 17.3629ZM18.9417 15.2435C18.9369 15.371 18.9225 15.6536 18.4318 16.036V13.0745H18.9439C18.9446 13.465 18.9446 13.8422 18.9446 14.1697C18.9446 14.7698 18.9439 15.2012 18.9417 15.2435ZM29.7771 3.98706L29.0973 3.66363C29.0973 3.66363 27.9935 4.83252 27.6927 5.15154C27.7487 4.71721 27.9546 3.12025 27.9546 3.12025L27.2367 2.77765L26.8854 5.86327L27.6223 6.21361L29.7771 3.98706ZM27.0952 5.74723C27.1092 5.62198 27.3719 3.31129 27.3994 3.07125C27.5217 3.12984 27.6708 3.20052 27.7435 3.23534C27.7298 3.34065 27.455 5.47094 27.455 5.47094L27.5844 5.54719L27.6367 5.49415C27.6367 5.49415 29.0506 3.99738 29.1419 3.9005C29.2112 3.93329 29.334 3.99186 29.4485 4.04638C29.2815 4.21879 27.6675 5.88611 27.5792 5.97748C27.4896 5.93473 27.1842 5.78958 27.0952 5.74723ZM33.6523 8.34915C33.745 8.26296 33.7942 8.16571 33.7977 8.05923C33.8048 7.87136 33.6702 7.69969 33.524 7.54202L33.3344 7.33829L32.6506 7.97267L32.84 8.17675C32.9542 8.29979 33.3015 8.67333 33.6523 8.34915ZM33.324 7.61348C33.3523 7.64406 33.3815 7.67465 33.3815 7.67465C33.4912 7.79325 33.6033 7.92956 33.6033 8.04561V8.05188C33.601 8.10565 33.5742 8.15613 33.52 8.20623C33.37 8.34473 33.2194 8.29942 32.9825 8.0445C32.9825 8.0445 32.9542 8.01356 32.9258 7.98336C33.0171 7.89863 33.2329 7.69786 33.324 7.61348ZM30.4431 8.04267L30.8129 7.5365C30.8129 7.5365 30.074 6.99679 29.944 6.90175C30.0187 6.79936 30.2081 6.54 30.2829 6.43758C30.4104 6.53042 31.0735 7.01448 31.0735 7.01448L31.4425 6.50796C31.4425 6.50796 30.7802 6.02425 30.6527 5.93142C30.7227 5.83527 30.8669 5.63892 30.9367 5.54277C31.0665 5.63781 31.7996 6.17308 31.7996 6.17308L32.1683 5.66692L30.705 4.59713L28.9731 6.96881L30.4431 8.04267ZM30.7475 4.86936C30.8775 4.9644 31.7669 5.61425 31.8965 5.70929C31.8479 5.77633 31.8058 5.83379 31.7569 5.90048C31.6271 5.80579 30.894 5.2709 30.894 5.2709L30.3804 5.97379C30.3804 5.97379 31.0433 6.45748 31.1706 6.55031C31.1221 6.61736 31.0798 6.67521 31.0306 6.74225C30.9033 6.64904 30.2404 6.16498 30.2404 6.16498L29.6717 6.9445C29.6717 6.9445 30.4104 7.48381 30.5404 7.57886C30.4917 7.6459 30.4494 7.70375 30.4004 7.77042C30.2704 7.67538 29.3754 7.02148 29.245 6.92606C29.3483 6.78536 30.6442 5.01046 30.7475 4.86936ZM35.7908 18.3918L35.8387 19.1348C35.8387 19.1348 36.9402 19.0641 36.991 19.0612C37.0375 19.0847 38.8352 20.0002 38.8352 20.0002L38.7873 19.1934C38.7873 19.1934 37.929 18.7734 37.6969 18.6589C37.9142 18.5174 38.71 18.0009 38.71 18.0009L38.6548 17.1286C38.6548 17.1286 36.9862 18.2875 36.9431 18.3178C36.8917 18.3214 35.7908 18.3918 35.7908 18.3918ZM37.0094 18.5086C37.0094 18.5086 38.2458 17.6495 38.4817 17.4859C38.4927 17.6484 38.5037 17.8333 38.5073 17.9C38.419 17.9567 37.3027 18.6828 37.3027 18.6828C37.3027 18.6828 38.5037 19.2726 38.5994 19.3187C38.6031 19.3805 38.6104 19.525 38.6217 19.6719C38.3673 19.543 37.0315 18.8633 37.0315 18.8633L36.0206 18.9278L35.9979 18.5734L37.0094 18.5086ZM33.9771 11.2384C33.8792 11.0793 33.8206 10.8818 33.8085 10.6682L33.8 10.5219L33.1446 10.8409L33.1883 10.9773C33.2644 11.2104 33.3096 11.3508 33.4621 11.5961C33.6652 11.9236 33.9152 12.1303 34.1846 12.1933C34.4023 12.2441 34.6242 12.2007 34.8425 12.0647C35.354 11.7468 35.2596 11.255 35.1902 10.8955C35.1412 10.6394 35.1162 10.4792 35.2235 10.4129C35.4323 10.2832 35.5737 10.442 35.6404 10.5477C35.7319 10.6947 35.7944 10.8675 35.8215 11.0469L35.8408 11.1765L36.441 10.8918L36.4229 10.8148C36.3731 10.6041 36.2804 10.3897 36.1485 10.1767C35.9702 9.89013 35.7315 9.69929 35.4758 9.63963C35.2529 9.58731 35.0246 9.6319 34.7975 9.77336C34.3029 10.0806 34.3908 10.5606 34.455 10.9113C34.5054 11.1839 34.5294 11.3548 34.4012 11.4348C34.2425 11.5328 34.0571 11.3659 33.9771 11.2384ZM34.5035 11.6006C34.7515 11.4462 34.6981 11.1563 34.6465 10.8759C34.5835 10.5319 34.5183 10.176 34.9004 9.93875C35.0821 9.82602 35.2602 9.78919 35.4317 9.82898C35.6365 9.87723 35.8325 10.0371 35.9827 10.2795C36.0892 10.4508 36.164 10.621 36.2123 10.789C36.1367 10.8247 36.071 10.8513 35.989 10.8903C35.951 10.7308 35.8892 10.579 35.8062 10.4449C35.6769 10.2379 35.4198 10.0618 35.1206 10.2475C34.8944 10.3878 34.9475 10.6645 34.9987 10.9323C35.0669 11.2863 35.1373 11.6518 34.7394 11.899C34.5662 12.0069 34.3946 12.0423 34.2292 12.0036C33.9535 11.9391 33.7498 11.6904 33.6275 11.4937C33.4935 11.2779 33.4504 11.1508 33.3825 10.9415C33.4552 10.9065 33.5277 10.8711 33.6256 10.8236C33.65 10.9581 33.719 11.1905 33.8117 11.3408C33.9612 11.5818 34.255 11.7542 34.5035 11.6006ZM26.1156 2.43836L25.4012 2.22913L24.5737 5.04729L25.2885 5.25727L26.1156 2.43836ZM24.8154 4.91504C24.8648 4.74779 25.4842 2.6384 25.5331 2.47077C25.6325 2.49988 25.7744 2.54188 25.874 2.57061C25.8248 2.73823 25.2056 4.84763 25.1567 5.01525C25.0571 4.98615 24.915 4.94415 24.8154 4.91504ZM37.4796 14.8656C37.31 14.9109 35.2467 15.451 35.2467 15.451L35.436 16.1715L37.671 15.5865C37.7079 15.7313 37.87 16.3465 37.87 16.3465L38.4742 16.1877L37.8885 13.9468L37.2844 14.1056C37.2844 14.1056 37.4427 14.7212 37.4796 14.8656ZM37.7485 14.1844C37.7927 14.348 38.1942 15.8853 38.2383 16.0485C38.1573 16.0695 38.0873 16.0879 38.0062 16.1089C37.9696 15.9641 37.8075 15.3485 37.8075 15.3485L35.575 15.9339C35.5487 15.8337 35.5112 15.6904 35.4846 15.5898C35.6575 15.5449 37.719 15.0048 37.719 15.0048C37.719 15.0048 37.5569 14.3893 37.52 14.2449C37.601 14.2239 37.671 14.2058 37.7485 14.1844ZM34.7537 14.0131L37.4537 12.8545L37.159 12.1705L34.459 13.329L34.7537 14.0131ZM37.1958 12.7525C37.0362 12.8214 35.016 13.6886 34.8558 13.7575C34.815 13.6624 34.7562 13.5265 34.7154 13.4311C34.8756 13.3626 36.896 12.495 37.0567 12.4265C37.0975 12.5215 37.1554 12.6575 37.1958 12.7525ZM13.3619 6.07325L13.0411 5.53504C13.0411 5.53504 12.2649 5.99663 12.1263 6.07877C12.035 5.92517 10.9452 4.0939 10.9452 4.0939L10.305 4.47444L11.8073 6.99827L13.3619 6.07325ZM10.8775 4.36098C10.9688 4.51461 12.0585 6.34586 12.0585 6.34586C12.0585 6.34586 12.8351 5.8839 12.9733 5.80175C13.016 5.87286 13.0525 5.93438 13.0949 6.00583C12.9563 6.08798 12.0132 6.64942 11.8747 6.73156C11.7856 6.58125 10.6616 4.69254 10.5721 4.54261C10.6608 4.48954 10.7883 4.41402 10.8775 4.36098ZM31.6317 9.18429C31.6317 9.18429 32.3467 8.52046 32.4665 8.40956C32.4929 8.43831 32.5202 8.46777 32.5202 8.46777C32.5865 8.53961 32.6158 8.59008 32.6158 8.64792C32.6158 8.69729 32.5946 8.75254 32.5562 8.83027C32.5562 8.83065 32.1237 9.71477 32.1237 9.71477L32.6848 10.32L33.2323 9.13604C33.2525 9.08815 33.2923 8.98573 33.2985 8.87485C33.5608 8.98463 33.8575 8.94152 34.0773 8.73706C34.2569 8.57019 34.3515 8.38783 34.3585 8.19517C34.3725 7.81942 34.0556 7.47902 33.776 7.17842L33.2779 6.64131L31.1254 8.63833L31.6317 9.18429ZM33.2677 6.9165C33.36 7.01633 33.6335 7.31104 33.6335 7.31104C33.8825 7.57886 34.1644 7.88167 34.1644 8.17233C34.1644 8.17748 34.164 8.18302 34.164 8.18854C34.1587 8.32927 34.0873 8.46225 33.9448 8.5945C33.7367 8.78792 33.4458 8.79344 33.2212 8.60888L33.1556 8.55361L33.0242 8.68365L33.0771 8.7496C33.125 8.80965 33.1177 8.90763 33.0544 9.05683C33.0554 9.05498 32.7592 9.69488 32.6302 9.97413C32.5317 9.86802 32.4104 9.73761 32.3577 9.68015C32.4077 9.577 32.7308 8.91611 32.7308 8.91611C32.7806 8.81517 32.8115 8.72896 32.8115 8.64461C32.8115 8.5455 32.7687 8.449 32.6631 8.33552L32.4767 8.13402C32.4767 8.13402 31.7612 8.79823 31.6423 8.90911C31.5715 8.83321 31.471 8.72492 31.4006 8.64902C31.5283 8.53004 33.1394 7.03548 33.2677 6.9165ZM5.0284 11.4945C4.91529 11.4374 4.80698 11.4252 4.70567 11.4587C4.527 11.5173 4.41279 11.7026 4.31554 11.8949L4.19029 12.1432L5.02212 12.5646L5.14812 12.3167C5.22365 12.1668 5.4539 11.7114 5.0284 11.4945ZM4.45148 12.0574C4.47027 12.0205 4.48942 11.9826 4.48942 11.9826C4.56237 11.8385 4.65152 11.686 4.76019 11.6459C4.76242 11.6448 4.76425 11.6444 4.76646 11.6436C4.81767 11.6271 4.87404 11.6352 4.93998 11.6683C5.1216 11.7608 5.13154 11.9177 4.97423 12.2283C4.97423 12.2283 4.95508 12.2659 4.93667 12.3027C4.82577 12.2467 4.56273 12.1137 4.45148 12.0574ZM6.51156 13.1006C6.51156 13.1006 5.64142 12.66 5.49552 12.5864C5.51358 12.551 5.53162 12.5153 5.53162 12.5153C5.57583 12.4283 5.61342 12.3834 5.66756 12.3631C5.71398 12.3462 5.77292 12.3473 5.8595 12.3561L6.83906 12.4552L7.21225 11.7192L5.91144 11.616C5.85987 11.6134 5.75008 11.612 5.64398 11.6444C5.65577 11.36 5.51283 11.097 5.245 10.9614C5.02619 10.8509 4.82246 10.8255 4.639 10.8855C4.28165 11.0027 4.07202 11.4178 3.88706 11.7844L3.55579 12.4375L6.17521 13.7648L6.51156 13.1006ZM3.81769 12.3521C3.87929 12.2309 4.06098 11.8724 4.06098 11.8724C4.22602 11.5457 4.41244 11.1765 4.68467 11.076C4.68983 11.0738 4.695 11.0723 4.70015 11.0704C4.83425 11.0266 4.98344 11.0476 5.1566 11.1353C5.41042 11.2635 5.51652 11.5343 5.4211 11.8091L5.392 11.8897L5.55962 11.9682L5.60346 11.8953C5.64287 11.8297 5.73719 11.8028 5.89929 11.8102C5.89708 11.8102 6.59998 11.8662 6.90648 11.8901C6.84129 12.0198 6.76098 12.1786 6.72523 12.2478C6.6114 12.2364 5.87902 12.1627 5.87902 12.1627C5.7674 12.1509 5.67567 12.1517 5.59683 12.1811C5.50362 12.2154 5.4281 12.2891 5.3581 12.4272L5.23358 12.6718C5.23358 12.6718 6.10448 13.1128 6.25 13.1861C6.20321 13.2789 6.13654 13.4104 6.08937 13.5029C5.93392 13.4244 3.97356 12.4309 3.81769 12.3521ZM11.133 7.46061L10.727 6.98244C10.727 6.98244 10.0296 7.57406 9.90658 7.67869C9.82406 7.58144 9.61664 7.33683 9.5345 7.23994C9.65496 7.13752 10.2805 6.60742 10.2805 6.60742L9.87527 6.1285C9.87527 6.1285 9.24973 6.659 9.12962 6.7614C9.05262 6.67115 8.89533 6.48548 8.81833 6.39486C8.941 6.29061 9.63285 5.70375 9.63285 5.70375L9.228 5.22558L7.84465 6.39779L9.74337 8.63833L11.133 7.46061ZM9.20552 5.50042C9.25894 5.56377 9.30498 5.61792 9.3584 5.68092C9.23573 5.78517 8.54387 6.37238 8.54387 6.37238L9.10679 7.03586C9.10679 7.03586 9.73196 6.50538 9.85242 6.40333C9.90621 6.46669 9.95262 6.52158 10.006 6.58494C9.88558 6.68663 9.26004 7.21711 9.26004 7.21711L9.88375 7.95315C9.88375 7.95315 10.5819 7.36115 10.7045 7.25688C10.7583 7.32025 10.8047 7.37477 10.8585 7.43813C10.7355 7.54238 9.88927 8.25965 9.76623 8.3639C9.6535 8.23054 8.23183 6.554 8.11875 6.42065C8.24179 6.3164 9.08248 5.60429 9.20552 5.50042ZM19.1589 4.57317C19.5715 4.54481 19.8769 4.42067 20.0659 4.20331C20.2427 4.00033 20.3197 3.71594 20.2951 3.35794L20.1676 1.51297L19.4253 1.56418L19.5406 3.24079C19.559 3.51104 19.5188 3.70488 19.4212 3.81688C19.3527 3.89571 19.2529 3.93844 19.1162 3.94802C18.9791 3.95723 18.8741 3.9285 18.7949 3.85961C18.6829 3.76198 18.6166 3.57536 18.5982 3.3054L18.4829 1.62901L17.7395 1.67985L17.8669 3.525C17.9185 4.27588 18.3532 4.62844 19.1589 4.57317ZM18.302 1.83679C18.3138 2.00772 18.4037 3.31881 18.4037 3.31881C18.4265 3.64704 18.5124 3.87177 18.6671 4.00658C18.7857 4.10975 18.9412 4.15542 19.1294 4.14217C19.3177 4.12927 19.4651 4.06296 19.5682 3.94506C19.6831 3.81319 19.7399 3.62273 19.7399 3.36571C19.7399 3.32169 19.633 1.74506 19.633 1.74506L19.9867 1.72074C19.9867 1.72074 20.1046 3.44829 20.1046 3.48515C20.1046 3.73546 20.0423 3.93365 19.9189 4.07548C19.7653 4.25194 19.5052 4.35436 19.1456 4.37904C18.4497 4.42692 18.1053 4.151 18.0611 3.51177C18.0611 3.51177 17.9719 2.22102 17.9472 1.86073C18.0504 1.85373 18.1989 1.84379 18.302 1.83679ZM3.87442 16.1457C4.22885 16.2448 4.55415 16.226 4.79029 16.0931C4.97265 15.9906 5.09644 15.826 5.15869 15.6038C5.33037 14.9879 4.84925 14.6169 4.34121 14.4751C3.82535 14.331 3.2329 14.4441 3.07142 15.021C2.91069 15.5983 3.35896 16.0017 3.87442 16.1457ZM3.25923 15.0737C3.39277 14.5952 3.89729 14.5532 4.2889 14.6626C4.46831 14.7131 4.99844 14.9006 4.99844 15.3622C4.99844 15.4208 4.98996 15.4837 4.97119 15.5515C4.92329 15.7221 4.83046 15.847 4.69487 15.9236C4.50662 16.0293 4.22665 16.0419 3.92696 15.9582C3.53552 15.8488 3.12583 15.5515 3.25923 15.0737ZM15.5225 4.53119C15.5225 4.53119 14.6789 4.85425 14.5289 4.91173C14.4648 4.74483 13.7026 2.75444 13.7026 2.75444L13.0071 3.02115L14.057 5.76306L15.7468 5.11619L15.5225 4.53119ZM14.1694 5.51183C14.1067 5.34863 13.3209 3.29619 13.2587 3.13352C13.3552 3.09631 13.4937 3.04325 13.5902 3.00604C13.6543 3.173 14.4166 5.16371 14.4166 5.16371C14.4166 5.16371 15.2602 4.8399 15.4101 4.78242C15.44 4.85977 15.4654 4.92646 15.4952 5.00381C15.3445 5.06129 14.3197 5.45436 14.1694 5.51183ZM23.999 1.86884L23.2831 1.77747C23.2831 1.77747 23.1254 3.01452 23.0606 3.52169C22.8798 3.01673 22.395 1.66438 22.395 1.66438L21.569 1.55902L21.1969 4.4715L21.9123 4.56361C21.9123 4.56361 22.0704 3.32471 22.1348 2.81817C22.3165 3.32125 22.805 4.67706 22.805 4.67706L23.6269 4.78204L23.999 1.86884ZM22.9475 4.49913C22.9092 4.39267 22.1696 2.33963 22.1696 2.33963L22.0027 2.30242C22.0027 2.30242 21.766 4.17017 21.7435 4.3455C21.6446 4.33298 21.5142 4.31604 21.415 4.30315C21.4371 4.13038 21.7156 1.94988 21.7377 1.77674C21.8644 1.79295 22.1692 1.832 22.2521 1.84268C22.2904 1.94914 23.0246 4.00623 23.0246 4.00623L23.1915 4.02906C23.1915 4.02906 23.4294 2.17092 23.4519 1.99556C23.551 2.00809 23.6819 2.02466 23.7808 2.03756C23.7587 2.21034 23.4802 4.39081 23.4581 4.56396C23.3319 4.54813 23.0304 4.50944 22.9475 4.49913ZM6.78812 7.44477L6.33867 8.00913C6.33867 8.00913 7.31419 8.78606 7.71392 9.10473C7.18856 8.99715 5.78129 8.70944 5.78129 8.70944L5.26221 9.36075L7.55881 11.1902L8.009 10.6269C8.009 10.6269 7.03162 9.84888 6.63192 9.53058C7.15615 9.63667 8.56896 9.92327 8.56896 9.92327L9.08546 9.27454L6.78812 7.44477ZM8.49085 9.70815C8.37998 9.68604 6.24142 9.25281 6.24142 9.25281L6.12279 9.37586C6.12279 9.37586 7.59639 10.5477 7.73492 10.6582C7.67264 10.7363 7.5905 10.8387 7.52823 10.9168C7.39194 10.8081 5.6726 9.43848 5.53631 9.32981C5.61587 9.22998 5.80708 8.98942 5.85902 8.92458C5.97027 8.94704 8.10921 9.38727 8.10921 9.38727L8.21567 9.2565C8.21567 9.2565 6.75092 8.08798 6.61277 7.97819C6.67465 7.90008 6.75644 7.79658 6.81906 7.71848C6.95537 7.82752 8.67469 9.19719 8.81137 9.30586C8.73179 9.40569 8.54281 9.64331 8.49085 9.70815ZM3.72046 16.6979C4.17912 16.8265 4.5969 16.7956 4.92844 16.6092C5.23717 16.4353 5.46079 16.128 5.57462 15.7206C5.8104 14.8774 5.38637 14.1719 4.49558 13.9229C3.61327 13.6764 2.89198 14.0618 2.65527 14.9046L2.65512 14.905C2.41652 15.7611 2.82462 16.4482 3.72046 16.6979ZM2.8429 14.9573C3.04973 14.2172 3.66287 13.8927 4.44327 14.1108C5.232 14.3307 5.59377 14.9275 5.3871 15.6679C5.28617 16.0301 5.09937 16.2894 4.83267 16.4393C4.54715 16.6 4.1806 16.6246 3.77285 16.5104C3.13287 16.3321 2.7829 15.9184 2.7829 15.3695C2.7829 15.2391 2.80265 15.1014 2.8429 14.9573ZM3.48977 19.9755C4.40717 20.0348 4.99365 19.4719 5.05812 18.4714C5.05812 18.4714 5.05885 18.394 5.05885 18.289C5.05885 18.0746 5.00029 17.7427 5.00029 17.7427L4.30254 17.7309L4.36442 17.8698C4.416 17.9866 4.4451 18.2279 4.43221 18.4312C4.39942 18.9363 4.03323 19.2402 3.49958 19.2063C3.22815 19.189 2.99502 19.0844 2.84319 18.9116C2.70737 18.7572 2.64319 18.5554 2.65771 18.3288C2.6675 18.1752 2.69483 17.9917 2.82492 17.7939L2.9084 17.6668L2.22657 17.5644L2.19563 17.63C2.10799 17.8164 2.04727 18.0584 2.03301 18.2772C2.00107 18.7746 2.12209 19.1941 2.3827 19.4903C2.63542 19.7777 3.01819 19.9453 3.48977 19.9755ZM2.22727 18.2898C2.23608 18.1553 2.27708 17.9589 2.34932 17.7795C2.42215 17.7906 2.4886 17.8053 2.58962 17.8208C2.5 18.0035 2.47252 18.1726 2.46346 18.3166C2.46173 18.3421 2.46098 18.3675 2.46098 18.3925C2.46098 18.6408 2.54173 18.8641 2.69698 19.0402C2.88321 19.252 3.16381 19.3798 3.48704 19.4008C4.12902 19.4417 4.58656 19.0575 4.62635 18.4437C4.62894 18.4058 4.63004 18.3668 4.63004 18.3281C4.63004 18.1825 4.60904 18.0466 4.57994 17.9291C4.67756 17.9306 4.74794 17.9313 4.82419 17.9324C4.8636 18.1332 4.8636 18.4588 4.8636 18.4588C4.80615 19.3511 4.3099 19.8329 3.50215 19.781C3.0775 19.7537 2.74981 19.6126 2.52892 19.3618C2.32744 19.133 2.22281 18.8129 2.22281 18.4309C2.22281 18.3848 2.22425 18.3376 2.22727 18.2898ZM30.1383 34.7744L30.5652 35.3852L31.1735 34.9585L30.7465 34.3485L30.1383 34.7744ZM30.6131 35.1137C30.5535 35.029 30.4687 34.9073 30.4098 34.8227C30.4937 34.7633 30.6142 34.6794 30.699 34.6196C30.7583 34.7048 30.8429 34.826 30.9023 34.911C30.8179 34.97 30.6979 35.0544 30.6131 35.1137ZM26.0862 36.8098L26.3477 37.506L27.0433 37.2444L26.7819 36.549L26.0862 36.8098ZM26.4617 37.2554C26.4256 37.1598 26.3731 37.0198 26.3371 36.924C26.4335 36.8871 26.571 36.8356 26.6675 36.7987C26.704 36.8981 26.756 37.0344 26.7929 37.134C26.696 37.1671 26.5585 37.2187 26.4617 37.2554ZM28.5921 33.6898C28.2104 33.5746 27.7694 33.6556 27.2427 33.9371L26.4977 34.3356L27.884 36.924L28.629 36.5265C29.155 36.245 29.4667 35.9227 29.5823 35.5406C29.6829 35.2088 29.6258 34.8385 29.4125 34.4406C29.2 34.0427 28.9237 33.7904 28.5921 33.6898ZM29.396 35.484C29.2973 35.8096 29.0083 36.1021 28.5373 36.3544C28.5373 36.3544 28.094 36.5912 27.964 36.6612C27.8819 36.5073 26.8437 34.5696 26.7615 34.4156C26.8917 34.3462 27.3348 34.1092 27.3348 34.1092C27.8062 33.856 28.2104 33.7779 28.5354 33.8767C28.816 33.9615 29.0533 34.1821 29.2412 34.5327C29.3706 34.7744 29.4354 35.0021 29.4354 35.2117C29.4354 35.306 29.4221 35.3971 29.396 35.484ZM37.6342 23.3946C37.3356 23.3165 37.0771 23.3392 36.8662 23.4623C36.5842 23.6277 36.4706 23.9265 36.4279 24.0904C36.4279 24.0904 36.4165 24.1681 36.4058 24.2406C36.2937 24.209 36.1398 24.1658 36.04 24.1379C36.0802 23.9846 36.3075 23.116 36.3075 23.116L35.7235 22.9642L35.2771 24.6698C35.2771 24.6698 36.891 25.126 36.9171 25.126C36.8737 24.8346 36.9602 24.5331 36.9602 24.5331C37.0092 24.345 37.0954 24.2069 37.2031 24.1435C37.2767 24.1 37.3615 24.091 37.4608 24.1169C37.8073 24.2075 37.7373 24.5742 37.7115 24.6846C37.6562 24.8835 37.5456 25.0306 37.4683 25.1377L37.3687 25.2648L38.0504 25.4671C38.0504 25.4671 38.1129 25.3606 38.1904 25.1881C38.3304 24.8637 38.5108 24.3144 38.2494 23.845C38.1204 23.6215 37.9067 23.4656 37.6342 23.3946ZM38.1462 24.7296C38.1462 24.7296 38.0319 25.0906 37.9546 25.234C37.8773 25.2121 37.7887 25.1896 37.6856 25.1602C37.7667 25.05 37.8515 24.9185 37.8994 24.734C37.9177 24.6596 37.9287 24.5792 37.9287 24.4994C37.9287 24.254 37.8219 24.0104 37.5087 23.9283C37.3615 23.8896 37.2252 23.9054 37.1058 23.975C36.9521 24.065 36.8335 24.2458 36.7717 24.4837C36.7717 24.4842 36.715 24.7108 36.715 24.8717C36.5406 24.8227 35.6617 24.5756 35.514 24.534C35.5537 24.3819 35.8223 23.3567 35.8627 23.2019C35.9379 23.221 35.9944 23.2358 36.0696 23.2556C36.029 23.411 35.8035 24.2731 35.8035 24.2731C35.8035 24.2731 36.5746 24.489 36.5746 24.4883C36.5746 24.3423 36.6165 24.1394 36.6165 24.1394C36.6515 24.005 36.7433 23.76 36.9648 23.6306C37.129 23.5346 37.3356 23.5183 37.5825 23.5831C37.8035 23.641 37.9767 23.7654 38.0798 23.9433C38.1535 24.0694 38.194 24.2185 38.194 24.3848C38.194 24.4931 38.1756 24.6087 38.1462 24.7296ZM36.661 26.43C36.1421 26.1806 35.6708 26.335 35.431 26.8333C35.3777 26.9446 35.3508 27.0533 35.3508 27.1606C35.3508 27.1948 35.3744 27.2279 35.3794 27.2623C35.2306 27.1498 35.079 26.9892 35.079 26.7792C35.079 26.7119 35.0948 26.6396 35.1312 26.5633C35.209 26.4025 35.3131 26.2992 35.4137 26.2117L35.5092 26.1294L34.9694 25.7567L34.9119 25.8133C34.764 25.9604 34.6467 26.125 34.5546 26.3167C34.219 27.016 34.5704 27.6796 35.5194 28.135C36.3421 28.5292 36.9083 28.419 37.2031 27.806C37.4794 27.2292 37.2804 26.7281 36.661 26.43ZM37.0267 27.7217C36.7817 28.2319 36.3296 28.3073 35.6037 27.9592C35.2052 27.7677 34.625 27.3915 34.625 26.8279C34.625 26.696 34.6571 26.5535 34.7304 26.4008C34.8044 26.2387 34.9802 26.0175 34.9975 26.0175C35.0029 26.0233 35.1231 26.0996 35.1985 26.1515C35.1123 26.2362 35.025 26.3346 34.9554 26.4794C34.9071 26.5804 34.8835 26.6821 34.8835 26.781C34.8835 27.0762 35.0917 27.3544 35.4815 27.5606L35.5158 27.5787L35.6746 27.5212L35.6219 27.4225C35.525 27.2533 35.5202 27.0979 35.6065 26.9175C35.7998 26.5158 36.1535 26.4025 36.5767 26.6058C36.9423 26.7808 37.3173 27.1167 37.0267 27.7217ZM23.3967 35.2835L22.9431 38.4012L23.7004 38.2281C23.7004 38.2281 23.7779 37.6681 23.7923 37.5612C23.9006 37.5354 24.6325 37.366 24.7412 37.344C24.8012 37.4323 25.1104 37.904 25.1104 37.904L25.9075 37.7196L24.1294 35.1148L23.3967 35.2835ZM25.1983 37.6829C25.1383 37.5908 24.8292 37.1229 24.8292 37.1229L23.6179 37.4029C23.6179 37.4029 23.541 37.9592 23.5262 38.066C23.4533 38.0844 23.3077 38.1175 23.1767 38.1471C23.2127 37.9002 23.5527 35.5631 23.57 35.4433C23.661 35.4225 23.9525 35.3554 24.0431 35.3344C24.1112 35.4342 25.4433 37.3844 25.5852 37.5944C25.4462 37.624 25.275 37.6644 25.1983 37.6829ZM31.5187 30.781L31.4106 31.9315L32.0521 32.0077C32.0521 32.0077 32.0798 31.6935 32.0956 31.5179C32.335 31.751 33.5352 32.9187 33.5352 32.9187L34.0529 32.3865L31.9494 30.3385L31.5187 30.781ZM33.7777 32.3902C33.7058 32.4642 33.6033 32.5692 33.5317 32.6433C33.4046 32.5196 31.9375 31.0921 31.9375 31.0921C31.9375 31.0921 31.8881 31.6523 31.876 31.7904C31.7883 31.7798 31.7065 31.7702 31.6221 31.7602C31.6365 31.6104 31.7006 30.9252 31.7062 30.8673C31.7385 30.8342 31.8737 30.6952 31.9529 30.6142C32.0779 30.7358 33.6527 32.2685 33.7777 32.3902ZM36.5021 26.9613C36.3127 26.871 36.1296 26.8492 35.9858 26.9C35.8804 26.9373 35.7979 27.0131 35.7471 27.1196C35.7165 27.1827 35.7015 27.2475 35.7015 27.3117C35.7015 27.3558 35.7087 27.4 35.724 27.4427C35.7873 27.6235 35.9642 27.74 36.1012 27.806C36.2758 27.89 36.4471 27.9098 36.5837 27.8619C36.6929 27.8238 36.7794 27.7433 36.8344 27.6287C36.9521 27.3819 36.8187 27.1138 36.5021 26.9613ZM36.6585 27.5448C36.6258 27.6129 36.5804 27.6565 36.5194 27.6781C36.4321 27.7087 36.3129 27.6917 36.1856 27.6302H36.1852C36.0385 27.5598 35.9398 27.4704 35.9077 27.3783C35.8879 27.3227 35.8929 27.2656 35.9229 27.2044C35.9519 27.1433 35.9935 27.1037 36.0506 27.0835C36.1442 27.0508 36.2777 27.07 36.4177 27.1369C36.4767 27.1654 36.766 27.319 36.6585 27.5448ZM34.004 29.0154C34.004 29.0154 34.0042 29.0154 34.0042 29.0158L34.004 29.0154C33.9 28.9406 33.7817 28.909 33.6704 28.9269C33.5606 28.9446 33.4637 29.0073 33.3912 29.109C33.2471 29.3098 33.2202 29.5985 33.4475 29.7617C33.7054 29.9471 34.0021 29.75 34.1454 29.6552L34.1752 29.635L34.1852 29.6004C34.1977 29.5573 34.204 29.5083 34.204 29.4575C34.204 29.2954 34.1398 29.1127 34.004 29.0154ZM34.0021 29.5131C33.8229 29.6277 33.6767 29.6867 33.5615 29.6033C33.4125 29.4965 33.4837 29.3133 33.5492 29.2225C33.5912 29.1642 33.644 29.1285 33.7015 29.1192C33.7623 29.1098 33.8275 29.1281 33.89 29.1731L33.8904 29.1733C33.9685 29.2294 34.0094 29.3506 34.0094 29.4567C34.0094 29.4769 34.005 29.4946 34.0021 29.5131ZM34.3258 29.8358L34.2942 29.859L34.2871 29.8977C34.2773 29.9552 34.2683 30.0196 34.2683 30.0873C34.2683 30.2435 34.3142 30.4142 34.4894 30.5402C34.71 30.6994 35.0152 30.6415 35.1837 30.4085C35.3523 30.1744 35.3146 29.9002 35.0935 29.7415C34.8806 29.5879 34.6225 29.6196 34.3258 29.8358ZM35.0258 30.2944C34.9344 30.4212 34.751 30.4885 34.6035 30.3821C34.5077 30.3135 34.4633 30.2242 34.4633 30.0896C34.4633 30.0569 34.4692 30.01 34.4744 29.9717C34.6825 29.8302 34.8467 29.8037 34.9798 29.8996C35.1404 30.0148 35.105 30.1846 35.0258 30.2944ZM35.3946 29.2821C34.9746 28.9731 34.6125 29.1844 34.6125 29.1746C34.6125 28.8887 34.4423 28.6588 34.2602 28.5277C33.8262 28.2156 33.3283 28.4975 33.0269 28.9144C32.6783 29.3985 32.7175 29.8825 33.1281 30.1788C33.5179 30.4381 33.8625 30.2521 33.8612 30.2631C33.8587 30.2856 33.8558 30.3083 33.8558 30.3298C33.8558 30.6183 33.9615 30.8356 34.1756 30.99C34.626 31.3142 35.1271 31.1858 35.515 30.6469C35.8942 30.1198 35.8492 29.6096 35.3946 29.2821ZM35.3571 30.5335C35.1679 30.7958 34.7779 31.1833 34.2894 30.8315C34.0804 30.6812 34.0123 30.4627 34.0692 30.1235L34.0754 30.0652L33.9777 29.986L33.9181 30.0181C33.68 30.1573 33.4335 30.1581 33.2421 30.0204C32.7837 29.6906 33.0494 29.2169 33.185 29.0283C33.4296 28.6894 33.8219 28.4521 34.1465 28.6856C34.3137 28.806 34.4683 29.0333 34.4006 29.3085L34.3837 29.379L34.4969 29.4471L34.5512 29.4221C34.8829 29.2379 35.07 29.2894 35.2808 29.4404C35.7752 29.7965 35.5408 30.2781 35.3571 30.5335ZM28.2973 34.189C28.0494 34.114 27.7731 34.1429 27.54 34.2685L27.1852 34.4579L28.1633 36.2852L28.5183 36.0948C28.7521 35.9698 28.9296 35.7554 29.0044 35.5075C29.0827 35.2485 29.0496 34.9729 28.909 34.7102C28.7681 34.4477 28.5567 34.2671 28.2973 34.189ZM28.8179 35.4508C28.7579 35.65 28.615 35.8217 28.4262 35.9231C28.4262 35.9231 28.3221 35.979 28.2431 36.021C28.1648 35.8754 27.5271 34.6837 27.449 34.5379C27.5285 34.4956 27.6321 34.44 27.6321 34.44C27.82 34.339 28.0421 34.3154 28.241 34.3758C28.4498 34.4383 28.6217 34.5863 28.7373 34.8025C28.8127 34.9427 28.851 35.0871 28.851 35.2283C28.851 35.3037 28.8396 35.3781 28.8179 35.4508ZM10.8441 32.2325C10.8441 32.2325 10.0495 33.1896 9.72198 33.5837C9.84098 33.0596 10.1582 31.6623 10.1582 31.6623L9.51935 31.1319L7.64237 33.391L8.19644 33.8504C8.19644 33.8504 8.99292 32.8912 9.31969 32.4981C9.20179 33.0212 8.88571 34.4229 8.88571 34.4229L9.52121 34.9508L11.3982 32.6912L10.8441 32.2325ZM9.49577 34.6769C9.39779 34.5954 9.16606 34.4027 9.10233 34.3496C9.12702 34.2392 9.60667 32.1017 9.60667 32.1017L9.47994 32.0008C9.47994 32.0008 8.28375 33.4404 8.17065 33.5765C8.09402 33.5127 7.99381 33.4294 7.91681 33.3656C8.02844 33.2312 9.43315 31.5404 9.54477 31.4058C9.64314 31.4877 9.87744 31.6825 9.94154 31.7358C9.9165 31.846 9.4339 33.9779 9.4339 33.9779L9.55915 34.0858C9.55915 34.0858 10.7572 32.6425 10.8699 32.5067C10.9465 32.5704 11.0467 32.6535 11.1237 32.7173C11.0121 32.8515 9.6074 34.5427 9.49577 34.6769ZM6.42923 27.6656C6.54712 27.3285 6.51323 26.9513 6.3316 26.5748C6.14704 26.1935 5.87331 25.9302 5.53917 25.8133C5.18404 25.6896 4.77217 25.7323 4.34925 25.9365C3.50292 26.3456 3.21656 27.0954 3.60196 27.8929C3.78198 28.2665 4.0549 28.5258 4.39087 28.6433C4.75523 28.7704 5.17225 28.7287 5.59775 28.524C6.01625 28.3221 6.30398 28.0252 6.42923 27.6656ZM4.45535 28.4592C4.16873 28.3594 3.9345 28.1342 3.7775 27.8077C3.43933 27.1083 3.68469 26.4742 4.43398 26.1121C4.80975 25.9308 5.16967 25.891 5.47508 25.9975C5.76354 26.0981 5.99231 26.3206 6.15587 26.6596C6.25387 26.8621 6.30323 27.0633 6.30323 27.2552C6.30323 27.375 6.28408 27.491 6.2454 27.6015C6.13708 27.9113 5.884 28.1696 5.51302 28.3483C5.13542 28.5306 4.76958 28.5692 4.45535 28.4592ZM8.3869 29.8569L7.06692 30.895C6.59465 31.2654 6.37875 31.1158 6.24319 30.944C6.15919 30.8371 6.12419 30.7346 6.13635 30.6315C6.15404 30.4837 6.27156 30.3242 6.48523 30.1558L7.80556 29.1175L7.34654 28.5331L5.89321 29.6767C5.61027 29.8987 5.45077 30.1475 5.41908 30.4148C5.38481 30.7004 5.49644 31.0087 5.75137 31.3319C6.00556 31.6552 6.27892 31.8365 6.56406 31.8708C6.83152 31.9029 7.11002 31.8062 7.39258 31.5837L8.84592 30.4415L8.3869 29.8569ZM7.27212 31.4306C7.03194 31.6198 6.80131 31.7027 6.58727 31.6771C6.35519 31.6494 6.12567 31.4925 5.90425 31.2112C5.70717 30.9612 5.60771 30.7277 5.60771 30.5154C5.60771 30.4896 5.60917 30.4635 5.61212 30.4381C5.63792 30.2237 5.77275 30.019 6.01367 29.8298C6.01367 29.8298 7.03008 29.0302 7.31375 28.8065C7.37748 28.8879 7.4681 29.0031 7.53221 29.0844C7.39702 29.1904 6.3644 30.0027 6.3644 30.0027C6.10504 30.2067 5.96725 30.4046 5.94294 30.6083C5.94035 30.6294 5.93925 30.6502 5.93925 30.6717C5.93925 30.805 5.98973 30.9373 6.09029 31.0644C6.36292 31.411 6.73204 31.4052 7.18702 31.0481C7.18702 31.0481 8.08998 30.3379 8.35448 30.1302C8.41785 30.2115 8.50883 30.3273 8.57256 30.4083C8.4359 30.5158 7.27212 31.4306 7.27212 31.4306ZM5.94258 26.7627C5.84458 26.5594 5.6939 26.4212 5.49571 26.3517C5.24115 26.2627 4.91365 26.2992 4.59829 26.4515C4.26562 26.6121 4.03317 26.8415 3.944 27.0979C3.91637 27.1779 3.90227 27.259 3.90227 27.341C3.90227 27.4608 3.93192 27.5823 3.99117 27.705C4.09062 27.9112 4.24094 28.0506 4.43767 28.1194C4.69371 28.2085 5.01752 28.1696 5.34981 28.009C5.66517 27.8571 5.8969 27.6235 5.98604 27.3694C6.05531 27.1704 6.04056 26.9665 5.94258 26.7627ZM5.80185 27.305C5.73 27.5112 5.53402 27.704 5.26508 27.8335C4.984 27.9696 4.70585 28.0067 4.50177 27.9352C4.35587 27.8844 4.24315 27.7783 4.1669 27.6202H4.16652C4.09027 27.4623 4.077 27.3079 4.12821 27.1621C4.19931 26.9579 4.40119 26.7627 4.68302 26.6267C4.95231 26.4971 5.22529 26.4635 5.4316 26.5358C5.57933 26.5873 5.69244 26.6919 5.76685 26.8475C5.842 27.0029 5.85379 27.1569 5.80185 27.305ZM3.82398 25.1608L4.43104 25.0006C4.43104 25.0006 4.23431 24.2579 4.19452 24.1077C4.30908 24.0767 4.54412 24.0148 4.65906 23.9846C4.69923 24.1371 4.90737 24.9229 4.90737 24.9229L5.51302 24.7623L5.075 23.1056L2.23586 23.8569L2.42595 24.5748C2.42595 24.5748 3.42954 24.3096 3.58873 24.2675C3.62829 24.4183 3.82398 25.1608 3.82398 25.1608ZM2.47402 23.9954C2.64283 23.9504 4.76775 23.3883 4.9361 23.3437C4.977 23.4973 5.23415 24.4706 5.27504 24.6242C5.19508 24.6452 5.12621 24.6635 5.0459 24.685C5.00537 24.5325 4.79723 23.7462 4.79723 23.7462L3.95625 23.9687C3.95625 23.9687 4.15252 24.711 4.19269 24.8619C4.11237 24.8831 4.0431 24.9017 3.96287 24.9225C3.92317 24.7719 3.72727 24.0292 3.72727 24.0292C3.72727 24.0292 2.72354 24.2946 2.56454 24.3365C2.53806 24.2371 2.50048 24.0948 2.47402 23.9954ZM14.4919 37.5208L16.2345 38.0292L16.4105 37.4285C16.4105 37.4285 15.536 37.1744 15.3816 37.1267C15.4174 37.005 15.5069 36.6977 15.5426 36.5758C15.694 36.62 16.4787 36.8502 16.4787 36.8502L16.6537 36.2473C16.6537 36.2473 15.8694 36.0185 15.7176 35.974C15.7511 35.86 15.8196 35.6265 15.8528 35.5127C16.0068 35.5579 16.8747 35.811 16.8747 35.811L17.0516 35.2087L15.316 34.7019L14.4919 37.5208ZM16.8095 35.3412C16.7863 35.4206 16.7661 35.4898 16.7429 35.5694C16.5885 35.5244 15.7205 35.271 15.7205 35.271L15.4759 36.1065C15.4759 36.1065 16.261 36.3352 16.412 36.3794C16.3892 36.459 16.3693 36.5279 16.3457 36.6075C16.1943 36.5633 15.41 36.3342 15.41 36.3342L15.1403 37.2592C15.1403 37.2592 16.0141 37.5171 16.1689 37.5612C16.1457 37.6423 16.1254 37.7085 16.1022 37.7896C15.9478 37.7419 14.8883 37.4323 14.734 37.3881C14.783 37.2223 15.3993 35.111 15.4483 34.9435C15.6026 34.9887 16.6552 35.296 16.8095 35.3412ZM18.9827 35.93L18.5815 35.8987L18.4154 37.9627L18.8169 37.996C19.0807 38.0181 19.3456 37.9333 19.5427 37.7675C19.749 37.5908 19.8705 37.3402 19.8945 37.0419C19.9486 36.3725 19.4649 35.9694 18.9827 35.93ZM19.7004 37.0271C19.6805 37.274 19.5825 37.4765 19.4167 37.6165C19.2583 37.7529 19.0453 37.8192 18.8324 37.8006C18.8324 37.8006 18.7145 37.7933 18.6254 37.786C18.6386 37.6202 18.7469 36.2729 18.7598 36.1083C18.8501 36.115 18.9672 36.1242 18.9672 36.1242C19.3437 36.1552 19.704 36.444 19.704 36.9423C19.704 36.9681 19.7029 36.9977 19.7004 37.0271ZM18.9124 35.4913L18.0698 35.424L17.8344 38.3496L18.6762 38.4196C19.7851 38.5081 20.3867 38.0585 20.4648 37.0898C20.5425 36.1183 20.0201 35.5804 18.9124 35.4913ZM20.2706 37.075C20.2017 37.9296 19.6856 38.3054 18.692 38.2244C18.692 38.2244 18.2389 38.1875 18.0444 38.1727C18.058 37.9996 18.2345 35.8073 18.2481 35.6335C18.3955 35.6452 18.8969 35.6854 18.8969 35.6854C19.8241 35.7598 20.2773 36.161 20.2773 36.9092C20.2773 36.9608 20.275 37.016 20.2706 37.075ZM23.8069 35.7565L23.6487 37.1523L24.6944 36.9092L23.9446 35.7208L23.8069 35.7565ZM23.9598 36.1098C24.1065 36.3423 24.2973 36.645 24.3833 36.7802C24.2379 36.8133 24.0179 36.865 23.8725 36.8981C23.8902 36.7387 23.9296 36.3831 23.9598 36.1098ZM13.0393 33.6658L12.2889 33.2787L10.942 35.8898L11.6943 36.2771C12.6824 36.784 13.4096 36.6046 13.8561 35.7396C14.3026 34.8735 14.0277 34.1758 13.0393 33.6658ZM13.6829 35.65C13.2906 36.4112 12.6691 36.5592 11.7835 36.1035C11.7835 36.1035 11.3786 35.8954 11.2047 35.8056C11.285 35.6508 12.2926 33.6965 12.3729 33.5415C12.504 33.6087 12.9502 33.8392 12.9502 33.8392C13.5617 34.1548 13.8653 34.535 13.8653 34.991C13.8653 35.195 13.8045 35.4146 13.6829 35.65ZM12.9358 34.0987L12.5781 33.9137L11.6273 35.7565L11.9861 35.9406C12.2215 36.0623 12.4981 36.0867 12.7454 36.0075C13.0029 35.9248 13.211 35.7421 13.3473 35.4773C13.484 35.2121 13.5131 34.9358 13.4306 34.6779C13.3517 34.431 13.1712 34.2204 12.9358 34.0987ZM13.1742 35.3881C13.0618 35.6054 12.8931 35.7558 12.686 35.8221C12.4878 35.8854 12.2653 35.866 12.0752 35.7675C12.0752 35.7675 11.9699 35.7133 11.8899 35.6721C11.9658 35.5252 12.5862 34.324 12.6617 34.1765C12.742 34.2181 12.8467 34.2719 12.8467 34.2719C13.0367 34.37 13.1819 34.5394 13.2449 34.7373C13.2692 34.8135 13.2814 34.8919 13.2814 34.9719C13.2814 35.1092 13.2453 35.25 13.1742 35.3881ZM18.8431 24.6198C18.8449 24.6194 18.4935 24.6525 18.4935 24.6525L17.4796 24.746L16.5819 24.776L16.5796 25.0883L17.336 25.0667L18.3586 24.9852C19.3062 24.8798 19.6466 24.9194 19.6499 24.9194L19.7158 24.9277V24.6175L19.6642 24.6121C19.6477 24.6098 19.2627 24.566 18.8431 24.6198ZM18.8431 25.6425C18.8449 25.6417 18.4275 25.681 18.4275 25.681L17.4796 25.7683C17.4793 25.7683 16.5819 25.799 16.5819 25.799L16.5796 26.1115L17.336 26.0896L18.3586 26.0085C19.3065 25.9029 19.6469 25.9413 19.6502 25.9415L19.7158 25.9496V25.6402L19.6642 25.6344C19.6477 25.6321 19.2627 25.5885 18.8431 25.6425ZM18.8431 26.2252C18.8457 26.2252 18.2113 26.2837 18.2113 26.2837L17.4796 26.3508C17.4793 26.3508 16.5819 26.381 16.5819 26.381L16.5796 26.6931L17.336 26.6712L18.3586 26.5906C19.3065 26.4856 19.6469 26.524 19.6499 26.5244L19.7158 26.5325V26.2219L19.6639 26.216C19.6477 26.2142 19.2627 26.1715 18.8431 26.2252ZM18.8431 24.0319C18.8453 24.0315 18.3251 24.0798 18.3251 24.0798L17.48 24.1563C17.4796 24.1563 16.5822 24.1865 16.5822 24.1865L16.5796 24.4996L17.336 24.4775L18.3586 24.3963C19.3062 24.2913 19.6469 24.3298 19.6499 24.3302L19.7158 24.3379V24.0281L19.6642 24.0223C19.6477 24.02 19.2627 23.9769 18.8431 24.0319ZM18.8431 21.4092C18.8449 21.409 18.4393 21.4469 18.4393 21.4469L17.4796 21.5348L16.5819 21.5654L16.5796 21.8779L17.336 21.8558L18.3586 21.7735C19.3062 21.6698 19.6469 21.7088 19.6499 21.7092L19.7158 21.7169V21.4067L19.6639 21.4008C19.6477 21.3985 19.2627 21.3558 18.8431 21.4092ZM18.8431 20.826C18.8453 20.8258 18.3627 20.871 18.3627 20.871L17.4796 20.9529L16.5819 20.9831L16.5796 21.2958L17.3363 21.2729L18.3586 21.1915C19.3065 21.0877 19.6469 21.126 19.6502 21.1263L19.7158 21.1342V20.8235L19.6639 20.8179C19.6477 20.8158 19.2627 20.7731 18.8431 20.826ZM18.8431 22.4304C18.8449 22.43 18.4655 22.465 18.4655 22.465L17.48 22.555C17.4796 22.555 16.5822 22.5858 16.5822 22.5858L16.5796 22.8987L17.3356 22.8773C17.336 22.8773 18.3586 22.7952 18.3586 22.7952C19.3062 22.6906 19.6466 22.73 19.6499 22.7302L19.7158 22.7388V22.4275L19.6642 22.4217C19.6477 22.4198 19.2627 22.3758 18.8431 22.4304ZM18.8431 23.0133C18.8457 23.0129 18.1258 23.0796 18.1258 23.0796L17.4789 23.1392C17.4778 23.1392 16.5819 23.1683 16.5819 23.1683L16.5796 23.4806L17.3356 23.4598L18.3586 23.3779C19.3065 23.2729 19.6469 23.3108 19.6502 23.3113L19.7158 23.3194V23.0096L19.6642 23.0037C19.6477 23.0019 19.2627 22.9579 18.8431 23.0133ZM22.4 21.7735C22.4006 21.7735 23.4242 21.8558 23.4242 21.8558L24.1808 21.8779L24.1779 21.5654L23.28 21.5348L21.9133 21.409C21.4975 21.3558 21.1102 21.3985 21.094 21.4008L21.0417 21.4067V21.7169L21.1076 21.7092C21.111 21.7088 21.4535 21.6698 22.4 21.7735ZM22.4 21.1908C22.4006 21.1915 23.4242 21.2729 23.4242 21.2729L24.1808 21.2958L24.1779 20.9831L23.2804 20.9529L21.9133 20.8258C21.4975 20.7731 21.1098 20.8158 21.094 20.8179L21.0417 20.8235V21.1342L21.1076 21.1263C21.111 21.126 21.4535 21.0877 22.4 21.1908ZM22.4 24.3958C22.4006 24.3962 23.4242 24.4775 23.4242 24.4775L24.1808 24.4996L24.1779 24.1865L23.2804 24.1563C23.2798 24.1563 21.9129 24.0315 21.9129 24.0315C21.4975 23.9769 21.1102 24.02 21.094 24.0223L21.0417 24.0281V24.3379L21.1076 24.3302C21.111 24.3298 21.4535 24.2912 22.4 24.3958ZM11.6011 10.6055V22.5823C11.6011 29.2135 20.2511 33.0592 20.3384 33.0975L20.3782 33.1148L20.4176 33.0971C20.5046 33.0581 29.1044 29.1502 29.1044 22.7977L29.1033 10.6052L11.6011 10.6055ZM11.7975 10.8019C11.9898 10.8019 28.7148 10.8011 28.9073 10.8011C28.9073 10.9098 28.9077 14.7031 28.9077 17.9954H11.7975V10.8019ZM20.5381 20.4367C20.5528 20.4039 20.6202 20.2908 20.8895 20.2271C20.8899 20.2271 21.3019 20.1442 21.7533 20.1936C21.7565 20.194 22.4475 20.2643 22.4475 20.2643L23.5044 20.3516L24.4485 20.3597C24.4485 20.3597 24.5721 20.3605 24.6848 20.3612C24.6848 20.6533 24.6862 27.0106 24.6862 27.3008C24.4677 27.3035 23.7981 27.3104 23.7981 27.3104L22.4342 27.2269L21.1949 27.1606C20.8509 27.1612 20.6633 27.3069 20.5381 27.4375V20.4367ZM20.2235 32.8279C19.0159 32.2542 11.7975 28.5719 11.7975 22.5823V18.4658H20.2246V20.019C20.1557 19.981 20.0702 19.9475 19.9615 19.9221C19.9387 19.9173 19.4937 19.8267 18.9934 19.8823L18.2982 19.9523L17.2689 20.0381C17.2682 20.0381 16.3321 20.0462 16.3321 20.0462L15.7795 20.0488L15.7813 20.205V20.3361H15.0688V21.0498H14.1663V22.2606H15.0688V23.6602H14.1663V24.8717H15.0688V26.2706H14.1663V27.4821H15.0688V28.21H19.7081C19.7807 28.3552 19.9431 28.5158 20.2235 28.5637V32.8279ZM20.2246 20.4091V27.4421C20.1085 27.3127 19.9251 27.1612 19.5843 27.1606L18.3457 27.2269L16.9808 27.3104C16.9808 27.3104 16.3789 27.3042 16.0937 27.3008C16.0937 27.0106 16.0948 20.6533 16.0952 20.3612C16.2083 20.3605 16.3317 20.3597 16.3317 20.3597L17.2759 20.3516L18.3317 20.2643L19.0251 20.194C19.4771 20.1442 19.8901 20.2275 19.8937 20.2282C20.1074 20.2787 20.1918 20.3612 20.2246 20.4091ZM15.0644 21.3631V21.9467H14.4801V21.3631H15.0644ZM15.0644 23.9735V24.5579H14.4801V23.9735H15.0644ZM15.0644 26.584V27.1683H14.4801V26.584H15.0644ZM20.3775 28.2712C20.0371 28.2708 19.9715 28.0444 19.9652 28.0185L19.9357 27.8988L15.3824 27.8967V20.65H15.781L15.7799 27.611L16.9878 27.624L18.3741 27.5392L19.5836 27.474C19.8507 27.4748 19.952 27.5996 20.05 27.7204C20.1281 27.8167 20.2165 27.926 20.3723 27.926C20.5248 27.926 20.618 27.8196 20.7002 27.7256C20.8074 27.6023 20.919 27.4748 21.1953 27.474L22.4058 27.5392L23.791 27.624C23.7919 27.624 25.0065 27.611 25.0065 27.611L25.0002 27.456L24.9987 20.65H25.3892V27.8967H20.8402L20.8074 28.0127C20.7996 28.0392 20.7238 28.2708 20.3775 28.2712ZM20.537 32.8238V28.5629C20.8166 28.514 20.9827 28.3537 21.0594 28.21H25.7031V27.4821H26.6004V26.2706H25.7031V24.8717H26.6004V23.6602H25.7031V22.2606H26.6004V21.0498H25.7031V20.3361H24.9987V20.0488L24.4483 20.0462L23.5115 20.0381L22.481 19.9523L21.7848 19.8819C21.2844 19.8267 20.8398 19.9177 20.8217 19.921C20.7017 19.9493 20.6114 19.9876 20.5381 20.0296V18.4658H28.9081C28.9081 20.8173 28.9085 22.7977 28.9085 22.7977C28.9085 28.5192 21.7604 32.2306 20.537 32.8238ZM25.7031 27.1683V26.584H26.2869V27.1683H25.7031ZM25.7031 24.5579V23.9735H26.2869V24.5579H25.7031ZM25.7031 21.9467V21.3631H26.2869V21.9467H25.7031ZM10.8315 9.7726L10.8311 22.6692C10.8311 29.8219 20.1903 33.9204 20.285 33.9615L20.3786 34.0015L20.4718 33.9606C20.8571 33.7923 29.9031 29.7558 29.9031 22.8994L29.9025 9.77188L10.8315 9.7726ZM20.3767 33.4865C19.4856 33.0806 11.3016 29.1723 11.3016 22.6692C11.3016 22.6692 11.3023 10.6962 11.3023 10.243C11.7551 10.243 28.9792 10.2427 29.4319 10.2427C29.4319 10.6962 29.4327 22.8994 29.4327 22.8994C29.4327 29.1223 21.2671 33.0746 20.3767 33.4865ZM20.3738 5.52583C12.3935 5.52583 5.90087 12.0187 5.90087 19.9994C5.90087 27.9802 12.3935 34.4727 20.3738 34.4727C28.3548 34.4727 34.8475 27.9802 34.8475 19.9994C34.8475 12.0187 28.3548 5.52583 20.3738 5.52583ZM20.3738 34.0023C12.6529 34.0023 6.37169 27.7208 6.37169 19.9994C6.37169 12.2784 12.6529 5.99625 20.3738 5.99625C28.0954 5.99625 34.3771 12.2784 34.3771 19.9994C34.3771 27.7208 28.0954 34.0023 20.3738 34.0023ZM22.4 24.9785C22.4006 24.979 23.4237 25.06 23.4237 25.06C23.4242 25.06 24.1808 25.0835 24.1808 25.0835L24.1779 24.77L23.2804 24.7387C23.2798 24.7387 21.9129 24.6135 21.9129 24.6135C21.4975 24.5594 21.1102 24.6017 21.094 24.604L21.0417 24.6098V24.9215L21.1076 24.9133C21.111 24.9129 21.4535 24.874 22.4 24.9785ZM22.4 22.7948C22.4006 22.7952 23.4237 22.8773 23.4237 22.8773C23.4242 22.8773 24.1808 22.8987 24.1808 22.8987L24.1779 22.5858L23.2804 22.555C23.28 22.555 21.9133 22.43 21.9133 22.43C21.4975 22.3758 21.1098 22.4198 21.0936 22.4217L21.0417 22.4275V22.7388L21.1076 22.7302C21.1113 22.73 21.4535 22.6908 22.4 22.7948ZM22.4 23.3775C22.4006 23.3779 23.4242 23.4598 23.4242 23.4598L24.1808 23.4806L24.1779 23.1683L23.2798 23.1392L21.9125 23.0129C21.4975 22.9579 21.1102 23.0019 21.0936 23.0037L21.0417 23.0096V23.3194L21.1076 23.3113C21.111 23.3108 21.4535 23.2729 22.4 23.3775ZM22.4 26.5902C22.4006 26.5906 23.4237 26.6712 23.4237 26.6712C23.4242 26.6712 24.1808 26.6931 24.1808 26.6931L24.1779 26.381L23.2798 26.3508L21.9125 26.2252C21.4975 26.1715 21.1102 26.2142 21.094 26.216L21.0417 26.2219V26.5325L21.1076 26.5244C21.111 26.524 21.4535 26.4856 22.4 26.5902ZM22.4 26.0085C22.4006 26.0085 23.4237 26.0896 23.4237 26.0896C23.4242 26.0896 24.1808 26.1115 24.1808 26.1115L24.1779 25.799L23.2798 25.7683L21.9133 25.6417C21.4975 25.5885 21.1102 25.6321 21.0936 25.6344L21.0417 25.6402V25.9496L21.1076 25.9415C21.111 25.9413 21.4535 25.9029 22.4 26.0085ZM0.884385 20.0002C0.884385 30.7469 9.62723 39.4917 20.3738 39.4917C31.121 39.4917 39.8665 30.7469 39.8665 20.0002C39.8665 9.25354 31.121 0.510954 20.3738 0.510954C9.62723 0.510954 0.884385 9.25354 0.884385 20.0002ZM1.35494 20.0002C1.35494 9.51327 9.88669 0.981387 20.3739 0.981387C30.8619 0.981387 39.395 9.51327 39.395 20.0002C39.395 30.4875 30.8619 39.02 20.3739 39.02C9.88669 39.02 1.35494 30.4875 1.35494 20.0002ZM5.34396 20.0002C5.34396 28.2879 12.0864 35.0304 20.3739 35.0304C28.6621 35.0304 35.4052 28.2879 35.4052 19.9994C35.4052 11.7118 28.6621 4.96884 20.3739 4.96884C12.0864 4.96884 5.34396 11.7118 5.34396 20.0002ZM5.53996 20.0002C5.53996 11.8201 12.1947 5.16517 20.3739 5.16517C28.5542 5.16517 35.209 11.8198 35.209 19.9994C35.209 28.1796 28.5542 34.8348 20.3739 34.8348C12.1947 34.8348 5.53996 28.1798 5.53996 20.0002ZM0.375 20.0002C0.375 31.0279 9.34625 40 20.3739 40C31.4023 40 40.375 31.0279 40.375 20.0002C40.375 8.97211 31.4023 0 20.3739 0C9.34698 0 0.375 8.97211 0.375 20.0002ZM0.571327 20.0002C0.571327 9.08004 9.45489 0.195983 20.3739 0.195983C31.294 0.195983 40.1798 9.08004 40.1798 20.0002C40.1798 30.92 31.294 39.8048 20.3739 39.8048C9.45489 39.8048 0.571327 30.92 0.571327 20.0002Z" fill="white"/>
<path d="M88.3698 12.6221C88.3371 12.6221 88.2892 12.6364 88.2286 12.6644C88.2157 12.6718 88.1994 12.6768 88.1865 12.6833C87.7665 12.8795 87.0455 13.042 86.0155 13.1736V13.5779C86.5946 13.5779 86.9196 13.5948 86.9903 13.6274C87.0415 13.6461 87.08 13.6804 87.1023 13.7252C87.1369 13.7925 87.163 14.1048 87.1823 14.6679C87.2103 15.501 87.2232 16.311 87.2232 17.0917V20.0102C87.199 21.2925 87.1853 21.9654 87.1823 22.0268C87.1713 22.266 87.1415 22.4335 87.0892 22.526C87.0315 22.6212 86.9355 22.6835 86.7269 22.6939L86.0575 22.7012V23.0954V23.107C87.2786 23.0668 87.7684 23.0631 87.8736 23.0631C88.7603 23.0743 89.3765 23.0966 89.5573 23.107V22.7012C89.0665 22.6929 88.804 22.6841 88.7715 22.6793C88.6961 22.6616 88.6398 22.6368 88.6028 22.6079C88.4675 22.4968 88.439 22.3093 88.4323 21.9833C88.4286 21.8862 88.4125 21.2273 88.3903 20.0074L88.4063 15.259C88.4063 15.259 88.47 12.8206 88.4746 12.7403C88.4746 12.7039 88.4653 12.6752 88.4469 12.6528C88.4292 12.6313 88.4015 12.6221 88.3698 12.6221ZM92.6234 12.6221C92.5432 12.6361 92.4111 12.6987 92.2407 12.7651C91.8067 12.9257 91.1517 13.0616 90.2688 13.1737V13.5779C90.8482 13.5779 91.174 13.5948 91.2438 13.6275C91.2961 13.6462 91.3325 13.6804 91.3559 13.7253C91.3894 13.7925 91.4163 14.1048 91.4359 14.6679C91.4638 15.501 91.478 16.311 91.478 17.0918V20.0103C91.453 21.2925 91.4396 21.9654 91.4359 22.027C91.4257 22.266 91.3948 22.4335 91.3428 22.526C91.2859 22.6212 91.1875 22.6835 90.979 22.6939L90.3111 22.7014V23.0895V23.107C91.4425 23.0679 91.953 23.0633 92.1271 23.0633C92.8834 23.0716 93.4811 23.092 93.8107 23.107V22.7014C93.3209 22.6929 93.0575 22.6841 93.0248 22.6795C92.9486 22.6618 92.8934 22.6368 92.8561 22.6079C92.7203 22.4968 92.6934 22.3093 92.6859 21.9835C92.6813 21.8862 92.668 21.2273 92.6436 20.0076L92.6596 15.2592C92.6596 15.2592 92.7225 12.8208 92.7282 12.7405C92.7282 12.7041 92.7196 12.6754 92.7005 12.653C92.6817 12.6315 92.6569 12.6221 92.6234 12.6221ZM54.55 12.9022C52.8325 12.9349 51.4696 13.421 50.4638 14.3717C49.4236 15.356 48.9023 16.5937 48.9023 18.0898C48.9023 19.2712 49.218 20.2517 49.8075 21.096C50.395 21.9383 51.333 22.6579 52.5782 23.022C53.2003 23.2052 53.8684 23.2964 54.5994 23.2964C55.2169 23.2964 55.7873 23.2329 56.3107 23.1098C56.8351 22.9845 57.3696 22.7829 57.9171 22.5056L58.1909 21.8489L58.0715 21.7014C57.7017 21.965 57.3303 22.1589 56.9567 22.2823C56.3588 22.4802 55.6903 22.5637 55.0038 22.545C53.6638 22.5114 52.5769 22.0833 51.7471 21.255C50.883 20.3883 50.4505 19.2472 50.4505 17.8258C50.4553 17.0151 50.57 16.3412 50.7955 15.8032C51.0198 15.2672 51.3103 14.8241 51.6642 14.4739C52.3515 13.7949 53.2055 13.4899 54.4815 13.4554C54.5169 13.4535 54.5492 13.4526 54.5848 13.4526C56.3673 13.4526 57.2838 13.896 57.3788 14.814L57.3842 15.6414H57.4411H57.8092C57.8371 15.1166 57.8884 14.6545 57.9619 14.2566C58.0123 14.0082 58.0898 13.7541 58.1905 13.4963C58.074 13.473 57.7555 13.3909 57.233 13.2527C56.7123 13.1144 56.269 13.0229 55.9059 12.9725C55.4932 12.9164 55.0278 12.8966 54.55 12.9022ZM96.9513 13.1095V13.1299V13.5575C97.4923 13.5649 97.8203 13.5918 97.9348 13.6319C98.0521 13.6702 98.1359 13.7325 98.188 13.8129C98.2411 13.8941 98.2732 14.1592 98.2869 14.6038C98.3159 15.2136 98.3307 15.8353 98.3307 16.4731V19.5784C98.3307 20.4843 98.3957 21.127 98.5271 21.5118C98.6296 21.8033 98.819 22.086 99.0946 22.367C99.6469 22.9237 100.729 23.2966 102.177 23.2966C103.412 23.2966 104.465 22.9908 105.11 22.4677C105.542 22.1166 105.837 21.7102 105.998 21.2508C106.159 20.7923 106.24 19.984 106.24 18.8269V16.4732C106.255 15.2366 106.275 14.5722 106.304 14.4769C106.317 14.1164 106.352 13.8884 106.407 13.7969C106.454 13.724 106.533 13.6703 106.65 13.632C106.767 13.5918 107.096 13.565 107.64 13.5575V13.1096C106.541 13.1451 105.825 13.1533 105.632 13.1504C105.287 13.1457 104.819 13.132 104.226 13.1096V13.13V13.5576C104.764 13.565 105.094 13.5918 105.212 13.632C105.332 13.6703 105.417 13.7308 105.469 13.813C105.521 13.8942 105.552 14.1579 105.562 14.6024C105.59 15.2113 105.605 15.8358 105.605 16.4718V18.6329C105.605 19.861 105.521 20.64 105.322 21.0977C105.12 21.557 104.763 21.9341 103.951 22.1891C103.545 22.3181 103.081 22.3833 102.558 22.3833C101.658 22.3833 100.903 22.175 100.472 21.8564C100.191 21.6464 99.9882 21.3795 99.8588 21.0583C99.7303 20.737 99.6653 20.0738 99.6653 19.0679V16.4719C99.6867 15.2363 99.7009 14.5715 99.7075 14.4771C99.7215 14.1176 99.7575 13.889 99.818 13.7957C99.8582 13.7247 99.939 13.6705 100.058 13.6322C100.177 13.5921 100.507 13.5653 101.045 13.5578V13.1098C100.018 13.1434 98.9569 13.1535 98.7194 13.1506C98.1661 13.1478 97.579 13.1337 96.9513 13.1095ZM146.955 13.1941C146.733 13.1941 146.55 13.272 146.398 13.4261C146.243 13.5802 146.166 13.7665 146.166 13.985C146.166 14.1998 146.243 14.3839 146.398 14.538C146.703 14.8444 147.195 14.8481 147.503 14.538C147.658 14.3839 147.735 14.1998 147.735 13.985C147.735 13.7665 147.659 13.5802 147.508 13.4261C147.357 13.272 147.173 13.1941 146.955 13.1941ZM117.726 13.1959C117.508 13.1959 117.323 13.2724 117.169 13.4265C117.015 13.5806 116.939 13.7669 116.939 13.9854C116.939 14.2002 117.015 14.3844 117.169 14.5385C117.323 14.6926 117.509 14.7705 117.726 14.7705C117.94 14.7705 118.124 14.6926 118.276 14.5385C118.43 14.3844 118.508 14.2002 118.508 13.9854C118.508 13.7669 118.433 13.5806 118.281 13.4265C118.131 13.2724 117.945 13.1959 117.726 13.1959ZM151.379 14.1314C151.08 14.3238 150.689 14.5042 150.209 14.6742V16.8121C149.941 16.9437 149.58 17.0929 149.126 17.26V17.5242V17.5548C149.834 17.5165 150.209 17.5125 150.209 17.5125C150.209 17.5125 150.208 20.5486 150.198 20.7083C150.182 21.0902 150.17 21.4435 150.165 21.7648C150.189 22.1 150.244 22.3456 150.328 22.5016C150.497 22.8145 150.745 23.0133 151.037 23.1262C151.184 23.1823 151.383 23.2123 151.626 23.2123C152.025 23.2123 152.296 23.1802 152.649 23.0504C152.853 22.8627 153.065 22.6827 153.283 22.5089L153.199 22.236C153.049 22.2893 152.925 22.322 152.816 22.3427C152.794 22.3473 152.765 22.3562 152.745 22.3573C152.625 22.375 152.469 22.3835 152.276 22.3835C152.248 22.3806 152.223 22.3739 152.196 22.3702C151.749 22.3012 151.604 22.1877 151.479 21.9952C151.414 21.8925 151.369 21.7731 151.345 21.6348C151.322 21.4966 151.318 21.0745 151.332 20.3667L151.374 17.47C152.534 17.4635 152.939 17.4673 153.221 17.47L153.368 16.8557L153.318 16.8119C152.332 16.8558 152.007 16.8605 151.782 16.8586C151.674 16.8567 151.542 16.8549 151.374 16.853C151.436 15.5222 151.492 14.6619 151.544 14.2715L151.379 14.1314ZM62.6963 16.2794C61.6559 16.2794 60.8038 16.6098 60.138 17.2776C59.474 17.9434 59.1413 18.8021 59.1413 19.8546C59.1413 20.4393 59.2486 20.987 59.4628 21.5006C59.7048 22.0835 60.1563 22.6752 60.9078 23.0431C61.284 23.227 61.7409 23.3189 62.283 23.3189C62.9769 23.3189 63.6155 23.1573 64.1938 22.836C64.7721 22.5137 65.2184 22.0677 65.5369 21.5006C65.8536 20.9291 66.0128 20.3008 66.0128 19.6153C66.0128 18.6319 65.7042 17.8315 65.0886 17.2104C64.4732 16.5913 63.6751 16.2794 62.6963 16.2794ZM83.0792 16.2794C82.3173 16.2794 81.6921 16.521 81.0317 16.974C80.7459 17.1701 80.5361 17.3426 80.4003 17.492C80.213 17.6993 80.0463 18.0208 79.8982 18.4551C79.7519 18.8903 79.6784 19.378 79.6784 19.9187C79.6784 21.3018 80.2636 22.3712 81.2603 22.8868C81.7594 23.1456 82.319 23.2764 82.9336 23.2764C83.5594 23.2764 84.1394 23.1212 84.578 22.9204C84.7269 22.855 84.964 22.7183 85.2853 22.5148L85.5107 22.0098L85.3973 21.8887C84.9809 22.1483 84.6309 22.3164 84.3496 22.4125C83.6455 22.647 82.9336 22.5883 82.2788 22.255C81.4975 21.8562 81.033 21.0364 81.0142 19.6823H83.2625C83.7673 19.6823 84.2721 19.6628 84.7759 19.6254C85.0432 19.6086 85.3434 19.5643 85.6796 19.4999C85.7075 19.3122 85.7219 19.1515 85.7219 19.0198C85.7219 17.9785 85.3455 17.1183 84.498 16.6383C84.0761 16.3992 83.6025 16.2794 83.0792 16.2794ZM130.312 16.2794C129.554 16.2794 128.927 16.521 128.265 16.974C127.98 17.1701 127.768 17.3426 127.633 17.492C127.446 17.6993 127.279 18.0208 127.133 18.4551C126.984 18.8903 126.911 19.378 126.911 19.9187C126.911 21.3018 127.497 22.3712 128.493 22.8868C128.993 23.1456 129.547 23.2764 130.167 23.2764C130.792 23.2764 131.373 23.1212 131.811 22.9204C131.96 22.855 132.196 22.7183 132.518 22.5148L132.744 22.0098L132.63 21.8887C132.212 22.1437 131.864 22.3164 131.583 22.4125C130.882 22.6452 130.172 22.5902 129.513 22.255C128.733 21.8562 128.265 21.0364 128.246 19.6823H130.495C130.999 19.6823 131.505 19.6628 132.009 19.6254C132.275 19.6086 132.576 19.5643 132.913 19.4999C132.94 19.3122 132.955 19.1515 132.955 19.0198C132.955 17.9785 132.578 17.1183 131.731 16.6383C131.309 16.3992 130.836 16.2794 130.312 16.2794ZM141.754 16.2878C141.341 16.3121 140.953 16.4018 140.596 16.5709C139.765 16.9594 139.394 17.61 139.394 18.3468C139.394 18.853 139.591 19.3021 139.899 19.5814C140.053 19.7224 140.259 19.8423 140.52 19.9404C140.694 20.0011 141.076 20.0988 141.668 20.2351C142.26 20.3705 142.645 20.4809 142.825 20.5649C143.186 20.733 143.381 21.0433 143.381 21.4345C143.381 21.8745 143.227 22.22 142.923 22.472C142.617 22.7252 142.227 22.85 141.751 22.85C141.555 22.8483 141.319 22.8416 141.104 22.8223C140.818 22.785 140.536 22.6714 140.302 22.4604C140.068 22.2485 139.971 21.9237 139.924 21.6054C139.9 21.4456 139.886 21.2302 139.882 20.9575H139.48C139.471 21.5654 139.46 21.966 139.446 22.1583C139.406 22.546 139.357 22.7923 139.352 22.866C139.352 22.8987 139.362 22.9202 139.381 22.9362C139.409 22.965 139.605 23.015 139.972 23.0879C140.635 23.2139 141.168 23.2762 141.565 23.2762C142.434 23.2762 143.127 23.0416 143.645 22.5727C144.162 22.102 144.422 21.5523 144.422 20.9208C144.422 20.2867 144.126 19.8194 143.685 19.6046C143.465 19.499 143.061 19.3706 142.476 19.2193L141.319 18.9333C140.882 18.8016 140.664 18.6553 140.52 18.3919C140.449 18.2621 140.413 18.106 140.413 17.922C140.413 17.5961 140.536 17.3131 140.785 17.0684C141.033 16.8265 141.366 16.7036 141.769 16.7036C142.629 16.7036 143.091 17.0891 143.244 17.3413C143.295 17.4244 143.335 17.5208 143.365 17.6273C143.396 17.7347 143.422 17.9591 143.445 18.3H143.505H143.847C143.86 17.7583 143.881 17.2275 143.911 16.7036C143.67 16.5831 143.356 16.4822 142.969 16.4C142.495 16.301 142.109 16.2738 141.754 16.2878ZM76.1455 16.3213C75.7865 16.3148 75.4053 16.3825 74.9988 16.5314L73.6934 17.6522C73.7103 17.0115 73.7338 16.5696 73.7357 16.5023C73.7357 16.4556 73.7263 16.4212 73.708 16.3987C73.6903 16.3763 73.6619 16.3652 73.6294 16.3652C73.5967 16.3652 73.5342 16.3875 73.4403 16.4323C73.4346 16.4351 73.4292 16.4389 73.4228 16.4407C72.984 16.6443 72.2975 16.8113 71.3607 16.9383V17.3425H71.4144C71.9082 17.3397 72.1921 17.3491 72.263 17.3732C72.3365 17.3993 72.3878 17.4386 72.4186 17.4899C72.4484 17.5413 72.47 17.7057 72.484 17.9802C72.5119 18.4089 72.5278 18.8105 72.5278 19.1842C72.5278 19.1842 72.498 21.2979 72.484 22.0283C72.47 22.2673 72.4371 22.4325 72.385 22.5258C72.3292 22.621 72.229 22.6848 72.0315 22.6952L71.3607 22.7006V23.0948V23.1064C72.6971 23.0681 73.1669 23.0627 73.2917 23.0627C74.0992 23.0718 74.653 23.0952 74.8532 23.1064V22.7006C74.365 22.6923 74.1092 22.6835 74.0805 22.6789C73.924 22.6433 73.8578 22.5814 73.8213 22.4964C73.773 22.3891 73.7448 22.2173 73.7355 21.9829C73.7207 21.2254 73.6934 19.1533 73.6934 19.1533C73.6934 18.6368 73.7557 18.2686 73.8796 18.0501C74.0034 17.8325 74.2105 17.6384 74.5009 17.4694C74.7907 17.2994 75.1132 17.214 75.4642 17.214C76.2615 17.214 76.865 17.6366 77.0242 18.2661C77.0803 18.4968 77.1073 18.9794 77.1073 19.7181V20.9045C77.1073 21.21 77.0803 21.9393 77.0242 23.0918C77.0242 23.0966 77.0223 23.1018 77.0223 23.1064C77.8811 23.0681 78.1961 23.0627 78.2986 23.0627C78.8025 23.0702 79.2161 23.0943 79.419 23.1064V22.7008L78.6871 22.6789C78.485 22.6518 78.4019 22.5656 78.3582 22.2864C78.3294 22.065 78.3161 21.6495 78.3161 21.0387V19.794C78.3161 18.8256 78.2996 18.2374 78.268 18.0254C78.1553 17.3147 77.8392 16.8636 77.1621 16.5545C76.8413 16.4074 76.5044 16.3276 76.1455 16.3213ZM112.004 16.3213C111.645 16.3157 111.265 16.3848 110.865 16.5314L109.561 17.6522C109.577 17.0227 109.601 16.5696 109.603 16.5023C109.603 16.4556 109.593 16.4212 109.574 16.3987C109.556 16.3763 109.53 16.3652 109.497 16.3652C109.465 16.3652 109.403 16.386 109.312 16.4308C109.311 16.4308 109.309 16.4327 109.307 16.4327C108.869 16.64 108.176 16.8111 107.229 16.939V17.3433H107.29C107.777 17.3405 108.058 17.3498 108.129 17.3739C108.203 17.4001 108.256 17.4393 108.287 17.4906C108.316 17.542 108.338 17.7064 108.35 17.9809C108.378 18.4096 108.394 18.8113 108.394 19.1849C108.394 19.1849 108.364 21.2987 108.35 22.0289C108.338 22.2681 108.305 22.4331 108.253 22.5266C108.197 22.6218 108.098 22.6856 107.899 22.6958L107.229 22.7014V23.0968V23.107C108.573 23.0687 109.041 23.0633 109.161 23.0633C109.983 23.0745 110.539 23.0977 110.72 23.107V22.7014C110.232 22.6931 109.973 22.6841 109.947 22.6795C109.788 22.6441 109.725 22.582 109.688 22.497C109.64 22.3898 109.613 22.2179 109.603 21.9835C109.589 21.226 109.561 19.154 109.561 19.154C109.561 18.6375 109.622 18.2693 109.746 18.0508C109.87 17.8332 110.078 17.6391 110.369 17.47C110.659 17.3019 110.976 17.2147 111.331 17.2147C112.127 17.2147 112.73 17.6373 112.891 18.2668C112.946 18.4975 112.975 18.98 112.975 19.7188V20.9052C112.975 21.2106 112.946 21.9398 112.891 23.0941C112.891 23.0968 112.892 23.1025 112.891 23.1073C113.762 23.0689 114.073 23.0635 114.167 23.0635C114.688 23.0729 115.103 23.0952 115.286 23.1073V22.7016L114.554 22.6798C114.353 22.6527 114.272 22.5683 114.225 22.2873C114.197 22.0658 114.183 21.6504 114.183 21.0396V19.7948C114.183 18.8263 114.166 18.2382 114.134 18.0262C114.023 17.3154 113.706 16.8643 113.029 16.5552C112.704 16.4067 112.364 16.3267 112.004 16.3213ZM118.289 16.3213C117.671 16.6155 116.911 16.8125 116.006 16.9152V17.3209C116.562 17.3209 116.875 17.3399 116.949 17.3735C117.022 17.409 117.073 17.461 117.102 17.5311C117.148 17.6618 117.172 18.0777 117.172 18.7743V20.0103C117.144 21.2943 117.129 21.965 117.129 22.0283C117.114 22.2675 117.081 22.4335 117.03 22.526C116.974 22.6212 116.875 22.6835 116.675 22.6937L116.006 22.7012V23.0937V23.107C117.235 23.0677 117.7 23.0631 117.854 23.0631C118.631 23.0725 119.289 23.0948 119.568 23.107V22.7012C119.074 22.6929 118.811 22.6841 118.782 22.6795C118.707 22.6616 118.653 22.6368 118.614 22.6079C118.484 22.5025 118.451 22.3139 118.443 21.9833C118.44 21.8862 118.424 21.2273 118.401 20.0075V18.7278C118.401 18.1964 118.415 17.4323 118.443 16.4339L118.289 16.3213ZM147.517 16.3213C146.895 16.6202 146.137 16.8125 145.232 16.9152V17.3209C145.788 17.3209 146.103 17.3399 146.177 17.3735C146.249 17.409 146.3 17.461 146.329 17.5311C146.377 17.6618 146.399 18.0777 146.399 18.7743V20.0103C146.37 21.2943 146.357 21.965 146.357 22.0283C146.342 22.2675 146.308 22.4335 146.258 22.526C146.199 22.6212 146.103 22.6835 145.904 22.6937L145.232 22.7012V23.0952V23.1068C146.489 23.0677 146.946 23.0631 147.082 23.0631C147.896 23.0725 148.562 23.0966 148.796 23.1068V22.7012C148.301 22.6929 148.038 22.6841 148.01 22.6793C147.935 22.6616 147.879 22.6368 147.841 22.6079C147.711 22.5023 147.68 22.3139 147.673 21.9833C147.669 21.8862 147.653 21.2273 147.629 20.0075V18.7278C147.629 18.1963 147.644 17.4322 147.673 16.4338L147.517 16.3213ZM70.3307 16.333C69.8917 16.2884 69.4567 16.4466 69.1417 16.7226C69.0617 16.7936 68.9336 16.9481 68.7575 17.1881C68.5796 17.4272 68.388 17.6705 68.1784 17.9134C68.1905 17.0962 68.2203 16.5714 68.2221 16.5023C68.2221 16.4556 68.2115 16.4211 68.193 16.3987C68.1744 16.3763 68.1486 16.3652 68.1159 16.3652C68.0834 16.3652 68.0184 16.3875 67.9253 16.4323C67.8992 16.4454 67.8703 16.4576 67.8423 16.4688C67.4028 16.6612 66.7388 16.8182 65.8457 16.9387V17.3429H65.8505C66.3746 17.3382 66.6757 17.3495 66.7511 17.3735C66.8284 17.3997 66.8813 17.4389 66.9113 17.4903C66.9419 17.5417 66.9615 17.706 66.9709 17.9806C66.9988 18.4093 67.0117 18.8114 67.0117 19.1859C67.0117 19.1859 67.0119 20.0748 66.9709 21.9716C66.9561 22.3218 66.9073 22.5183 66.7919 22.6079C66.7519 22.6368 66.6926 22.6604 66.6144 22.6735C66.5726 22.6837 66.2892 22.6929 65.7632 22.7012V23.0923V23.1068C66.8184 23.0668 67.4157 23.065 67.5078 23.0631C68.5863 23.0743 69.3744 23.0975 69.6221 23.1068V22.7012C69.003 22.6602 68.623 22.6177 68.4813 22.5758C68.3407 22.53 68.2925 22.4748 68.2573 22.316C68.2378 22.2356 68.2269 22.0504 68.2223 21.76C68.1934 20.94 68.1786 20.3744 68.1786 20.0644V19.3391C68.1786 18.7461 68.3036 18.2995 68.554 18.0025C68.8028 17.7037 69.1059 17.5545 69.4636 17.5545C69.8882 17.5545 70.1507 17.7502 70.3659 18.1966H70.6815C70.6928 17.7231 70.7336 17.1719 70.8082 16.5462L70.7673 16.4484C70.6244 16.3852 70.4769 16.3479 70.3307 16.333ZM138.34 16.333C137.9 16.289 137.467 16.4494 137.153 16.7226C137.074 16.7936 136.947 16.9481 136.769 17.1881C136.506 17.5299 136.305 17.7733 136.19 17.9134C136.207 16.9608 136.231 16.5714 136.233 16.5023C136.233 16.4556 136.223 16.4211 136.204 16.3987C136.185 16.3763 136.16 16.3652 136.127 16.3652C136.031 16.3876 135.858 16.4708 135.672 16.5417C135.238 16.7005 134.635 16.8331 133.857 16.9387V17.3429C134.385 17.3382 134.686 17.3494 134.762 17.3735C134.839 17.3997 134.892 17.4389 134.922 17.4902C134.952 17.5416 134.973 17.706 134.982 17.9805C135.011 18.4092 135.023 18.8114 135.023 19.1859C135.023 19.1859 135.025 20.0748 134.982 21.9716C134.969 22.3218 134.919 22.5181 134.803 22.6079C134.764 22.6368 134.704 22.6604 134.625 22.6735C134.583 22.6837 134.298 22.6929 133.773 22.7012V23.0864V23.1068C134.789 23.0685 135.386 23.065 135.519 23.0631C136.485 23.0706 137.254 23.0948 137.633 23.1068V22.7012C137.014 22.6602 136.633 22.6177 136.492 22.5758C136.353 22.53 136.305 22.4748 136.268 22.316C136.249 22.2356 136.237 22.0504 136.233 21.76C136.205 20.94 136.19 20.3744 136.19 20.0644V19.3391C136.19 18.7461 136.315 18.2995 136.565 18.0025C136.816 17.7055 137.118 17.5545 137.475 17.5545C137.9 17.5545 138.164 17.7502 138.378 18.1966H138.693C138.703 17.7231 138.744 17.1719 138.821 16.5461L138.778 16.4484C138.635 16.3847 138.487 16.3477 138.34 16.333ZM119.506 16.5125V16.5329V16.9153C119.789 16.9265 119.96 16.9394 120.026 16.9591C120.185 16.9955 120.295 17.0914 120.483 17.5136L122.497 22.2066C122.569 22.3708 122.695 22.6914 122.878 23.1695H123.598C124.293 21.5212 124.699 20.5691 124.818 20.3095L125.493 18.8707C125.933 17.9704 126.187 17.467 126.253 17.353C126.347 17.184 126.443 17.074 126.538 17.0189C126.634 16.9647 126.828 16.9302 127.12 16.9153V16.5125C126.156 16.5461 125.711 16.5566 125.493 16.5519C125.251 16.5444 124.898 16.5321 124.432 16.5125V16.5358V16.9153C124.92 16.9302 125.22 16.9684 125.333 17.0291C125.441 17.087 125.438 17.2254 125.395 17.4085C125.32 17.7036 125.17 18.1302 124.946 18.6868C124.595 19.5638 124.388 20.0708 124.305 20.2613L123.607 21.8506C123.605 21.8487 123.603 21.8439 123.601 21.842C123.272 21.0687 122.932 20.2617 122.932 20.2617L122.077 18.1312C121.889 17.6689 121.796 17.3671 121.796 17.228C121.796 17.1383 121.84 17.0677 121.93 17.0164C122.018 16.965 122.315 16.9306 122.822 16.9157V16.5129C121.839 16.5465 121.13 16.5566 120.944 16.5538C120.595 16.5473 120.116 16.5349 119.506 16.5125ZM153.887 16.5125V16.5285V16.9167C154.219 16.955 154.434 17.0018 154.53 17.0597C154.626 17.1185 154.716 17.2293 154.799 17.4012C155.011 17.8336 155.282 18.4624 155.613 19.288L156.728 22.0577C156.938 22.5825 157.118 23.0558 157.267 23.476C157.071 23.9943 156.848 24.5066 156.602 25.0083C156.438 25.3333 156.296 25.562 156.176 25.6956C155.939 25.9616 155.658 26.0823 155.367 26.0823C155.27 26.0823 155.194 26.0739 155.128 26.0633C155.099 26.0577 155.069 26.0537 155.045 26.0473C154.901 25.9995 154.794 25.915 154.616 25.7627H154.446L154.088 26.8483C154.397 27.0183 154.614 27.0833 154.925 27.0833C155.561 27.0833 156.104 26.8079 156.495 26.2925C156.689 26.0346 156.925 25.6043 157.2 25.001L158.81 21.201C159.522 19.6255 160.011 18.5679 160.275 18.0272C160.539 17.4864 160.737 17.1672 160.868 17.0728C160.999 16.9785 161.183 16.9279 161.422 16.9167L161.492 16.5125C161.004 16.5395 160.068 16.5788 158.791 16.5125V16.5329V16.9167C159.282 16.9643 159.564 17.0127 159.635 17.0641C159.754 17.1444 159.766 17.2765 159.718 17.4727C159.656 17.6893 159.444 18.2566 159.078 19.1756C158.713 20.0918 158.458 20.7151 158.312 21.0418L157.941 21.8708C157.598 21.0798 156.825 19.1814 156.825 19.1814C156.661 18.7742 156.489 18.2834 156.307 17.7089C156.228 17.4773 156.188 17.3279 156.188 17.2522C156.188 17.1336 156.248 17.0519 156.369 17.007C156.44 16.979 156.716 16.9502 157.199 16.9165V16.5124C156.401 16.545 155.54 16.557 155.408 16.5533C154.906 16.5504 154.399 16.5387 153.887 16.5125ZM62.4098 16.7474C63.2219 16.7474 63.9184 17.149 64.3523 18.2417C64.5694 18.7871 64.6784 19.4356 64.6784 20.1884C64.6784 21.0933 64.4944 21.7629 64.1313 22.1962C63.769 22.6314 63.3146 22.85 62.7736 22.85C62.3507 22.85 61.9561 22.7102 61.5948 22.4356C61.2325 22.1583 60.9573 21.7204 60.7655 21.1179C60.5744 20.5174 60.4788 19.9278 60.4788 19.345C60.4788 18.4559 60.6575 17.8001 61.0142 17.378C61.3709 16.9577 61.8361 16.7474 62.4098 16.7474ZM82.7823 16.7474C83.7817 16.7474 84.4298 17.4204 84.4298 18.91C84.4298 18.9707 84.4288 19.0591 84.4242 19.1712C84.2278 19.1955 83.8182 19.2062 83.1959 19.2062H83.1071C82.3844 19.1913 81.3942 19.1579 81.0161 19.1289C81.0207 18.3043 81.1842 17.7014 81.5065 17.3194C81.8296 16.9384 82.2553 16.7474 82.7823 16.7474ZM130.014 16.7474C131.014 16.7474 131.664 17.4204 131.664 18.91C131.664 18.9707 131.66 19.0591 131.656 19.1712C131.46 19.1955 131.05 19.2062 130.429 19.2062C130.349 19.2062 130.025 19.2034 128.99 19.1712C128.626 19.1581 128.379 19.142 128.247 19.1289C128.252 18.3043 128.416 17.7014 128.739 17.3194C129.061 16.9384 129.489 16.7474 130.014 16.7474Z" fill="white"/>
</g>
<path fill-rule="evenodd" clip-rule="evenodd" d="M277.625 29.5892V15.4779H275.321C275.248 15.5156 275.252 15.5414 275.212 15.6147C274.439 17.1175 273.561 18.6777 272.778 20.1843C272.359 20.9873 271.937 21.7465 271.519 22.5435L270.577 24.3059C270.478 24.4962 270.353 24.7044 270.27 24.8927C270.199 24.8253 270.139 24.6866 270.091 24.5954C270.04 24.4903 269.988 24.405 269.935 24.3059L268.995 22.5415C268.589 21.7426 268.153 20.9892 267.746 20.1962C267.054 18.8442 266.263 17.4347 265.548 16.0727C265.451 15.8883 265.314 15.6683 265.238 15.4779L262.893 15.4879V29.5892L265.108 29.587L265.113 20.085L267.042 23.5543C267.653 24.7002 268.337 25.8758 268.971 27.0316C269.32 27.67 269.905 28.7762 270.252 29.3452C270.397 29.1449 270.751 28.461 270.9 28.1993L272.817 24.7359C273.448 23.5682 274.114 22.4224 274.744 21.2547L275.222 20.3943C275.25 20.3447 275.349 20.1346 275.4 20.1108V29.589L277.625 29.5892ZM253.232 17.2919C255.233 17.0838 257.283 18.2812 258.185 20.0495C258.492 20.6542 258.704 21.2826 258.76 22.0677C258.97 25.0533 256.728 27.3609 254.014 27.5988C253.229 27.6682 252.436 27.5255 251.783 27.2737C250.637 26.8316 249.591 25.9355 249.049 24.8392C248.138 22.9995 248.28 20.9536 249.494 19.3438C249.589 19.2189 249.684 19.1138 249.779 18.9929C249.852 18.8997 250.009 18.7471 250.102 18.6598C250.203 18.5666 250.326 18.4636 250.447 18.3684C251.27 17.7241 252.122 17.4069 253.232 17.2919ZM246.254 22.9618C246.441 25.2317 247.513 26.8911 248.667 27.922C249.936 29.0579 251.74 29.9719 254.146 29.8212C255.255 29.7518 256.157 29.4326 257.017 29.0064C257.897 28.5702 258.563 27.9715 259.093 27.3907C260.173 26.2131 261.166 24.2187 260.976 21.9349C260.726 18.8898 258.783 16.4989 256.289 15.5513C254.273 14.7861 252.14 14.8892 250.217 15.8824C249.793 16.1004 249.428 16.3443 249.087 16.6099C248.701 16.9093 248.447 17.167 248.138 17.4941C247.065 18.6321 246.07 20.7038 246.254 22.9618ZM218.061 17.286C218.916 17.2404 220.077 17.2801 220.87 17.4327C223.452 17.9303 224.748 19.5222 224.75 22.49C224.752 25.434 223.422 27.0715 220.863 27.5394C220.139 27.6722 218.779 27.7475 218.051 27.6781L218.061 17.286ZM219.15 29.8252C221.293 29.8252 223.368 29.2998 224.942 28.0013C225.622 27.4382 226.162 26.5997 226.507 25.7571C226.891 24.8234 227.078 23.6874 227.082 22.5376C227.086 19.8374 226.237 17.5893 223.929 16.2531C222.948 15.6841 221.644 15.3312 220.325 15.2064C219.437 15.1231 216.699 15.1132 215.748 15.1409L215.743 29.8232L219.15 29.8252ZM244.704 18.7332C244.872 18.5329 245.608 17.8331 245.864 17.5695C245.961 17.4684 246.165 17.28 246.23 17.1789C246.165 17.06 245.644 16.6436 245.501 16.5406C242.099 14.0327 237.446 14.8634 235.113 18.1702C234.415 19.1594 233.745 20.6621 233.745 22.2323V22.6545C233.745 24.2524 234.407 25.7353 235.117 26.7365C235.824 27.7396 236.778 28.5683 238.098 29.1848C240.087 30.1146 242.708 30.0313 244.682 28.8934C245.084 28.6614 245.939 28.0865 246.238 27.7257L244.674 26.1754L243.972 26.7245C240.562 29.0361 235.957 26.5263 235.955 22.5138V22.3968C235.954 19.6114 238.293 17.2979 241.102 17.2979C243.358 17.2979 244.508 18.6697 244.704 18.7332ZM207.354 29.8212C208.892 29.8926 210.683 29.6011 211.777 28.937C212.352 28.5881 212.772 28.1856 213.119 27.6226C213.983 26.2151 213.858 24.7044 213.858 23.0788V15.1489L211.462 15.1509C211.43 16.5267 211.46 17.9383 211.46 19.3181C211.46 20.7058 211.46 22.0916 211.46 23.4793C211.46 24.1513 211.47 24.8353 211.381 25.4836C211.288 26.1695 211.086 26.5264 210.695 26.8674C209.906 27.5573 208.643 27.6643 207.353 27.6921L207.354 29.8212ZM229.022 28.1321C229.126 28.8379 229.786 29.4485 230.642 29.3295C231.346 29.2304 231.953 28.5643 231.836 27.7158C231.736 27.0081 231.066 26.3974 230.226 26.5184C229.524 26.6175 228.9 27.2797 229.022 28.1321Z" fill="white"/>
<mask id="mask1_23_4351" style="mask-type:luminance" maskUnits="userSpaceOnUse" x="188" y="25" width="4" height="3">
<path d="M188.791 25.5825H191.329V27.6126H188.791V25.5825Z" fill="white"/>
</mask>
<g mask="url(#mask1_23_4351)">
<mask id="mask2_23_4351" style="mask-type:luminance" maskUnits="userSpaceOnUse" x="188" y="25" width="4" height="3">
<path d="M190.704 27.4203C190.827 27.1031 190.952 26.7859 191.075 26.4687C189.651 27.1765 189.219 26.5777 189.065 25.6143C188.763 26.8394 189.533 27.6047 190.704 27.4203Z" fill="white"/>
</mask>
<g mask="url(#mask2_23_4351)">
<mask id="mask3_23_4351" style="mask-type:luminance" maskUnits="userSpaceOnUse" x="188" y="25" width="4" height="3">
<path d="M190.704 27.4203C190.827 27.1031 190.952 26.7859 191.075 26.4687C189.651 27.1765 189.219 26.5777 189.065 25.6143C188.763 26.8394 189.533 27.6047 190.704 27.4203Z" fill="white"/>
</mask>
<g mask="url(#mask3_23_4351)">
<path d="M188.764 27.6047V25.6143H191.075V27.6047H188.764Z" fill="white"/>
</g>
</g>
</g>
<mask id="mask4_23_4351" style="mask-type:luminance" maskUnits="userSpaceOnUse" x="182" y="9" width="23" height="22">
<path d="M182.191 9.84961H204.015V30.1502H182.191V9.84961Z" fill="white"/>
</mask>
<g mask="url(#mask4_23_4351)">
<mask id="mask5_23_4351" style="mask-type:luminance" maskUnits="userSpaceOnUse" x="182" y="10" width="22" height="21">
<path d="M202.429 11.2215C199.209 9.41948 192.734 10.1748 188.619 11.7766C186.523 12.5379 184.731 13.4955 183.436 14.7741C182.304 15.9121 182.299 17.1729 183.329 18.5468C185.02 20.5313 188.161 22.5356 192.419 23.3702C192.377 23.5426 192.336 23.7151 192.294 23.8876C191.077 25.9533 189.862 28.0211 188.644 30.0868C188.827 30.0868 189.009 30.0868 189.192 30.0868C190.161 28.8735 191.012 28.0191 191.678 27.7217C191.678 28.59 191.664 29.4306 191.571 30.0868C191.812 30.0868 192.052 30.0868 192.294 30.0868C192.465 29.1788 192.699 28.4235 193.034 27.914C193.359 27.4164 193.827 27.3153 194.106 27.912C194.374 28.5405 194.552 29.2482 194.62 30.0868C194.885 30.0868 195.091 30.0769 195.357 30.0769C195.339 27.9537 195.379 25.8423 195.361 23.7191C195.361 23.5545 195.361 23.39 195.361 23.2255C197.51 22.7616 199.661 21.5998 201.812 18.642C203.529 16.0548 204.425 12.1831 202.429 11.2215Z" fill="white"/>
</mask>
<g mask="url(#mask5_23_4351)">
<mask id="mask6_23_4351" style="mask-type:luminance" maskUnits="userSpaceOnUse" x="182" y="10" width="22" height="21">
<path d="M202.431 11.2215C199.211 9.41948 192.736 10.1748 188.621 11.7766C186.525 12.5379 184.733 13.4955 183.438 14.7741C182.306 15.9121 182.3 17.1729 183.331 18.5468C185.022 20.5313 188.163 22.5356 192.421 23.3702C192.379 23.5426 192.338 23.7151 192.296 23.8876C191.079 25.9533 189.864 28.0211 188.646 30.0868C188.829 30.0868 189.011 30.0868 189.194 30.0868C190.163 28.8735 191.013 28.0191 191.68 27.7217C191.68 28.59 191.666 29.4306 191.573 30.0868C191.814 30.0868 192.054 30.0868 192.296 30.0868C192.467 29.1788 192.701 28.4235 193.036 27.914C193.361 27.4164 193.829 27.3153 194.108 27.912C194.376 28.5405 194.554 29.2482 194.622 30.0868C194.887 30.0868 195.093 30.0769 195.359 30.0769C195.341 27.9537 195.381 25.8423 195.363 23.7191C195.363 23.5545 195.363 23.39 195.363 23.2255C197.512 22.7616 199.663 21.5998 201.814 18.642C203.531 16.0548 204.427 12.1831 202.431 11.2215Z" fill="white"/>
</mask>
<g mask="url(#mask6_23_4351)">
<path d="M182.3 30.0867V9.84961H204.426V30.0867H182.3Z" fill="white"/>
</g>
</g>
</g>
<path fill-rule="evenodd" clip-rule="evenodd" d="M202.087 18.2119C202.295 17.8629 202.487 17.4982 202.66 17.1235C201.458 18.0275 199.716 18.4597 197.934 18.3784C195.747 18.2793 193.505 17.407 192.121 15.8626C191.669 15.3551 191.227 15.6961 191.609 16.2155C193.739 18.757 198.267 19.895 202.087 18.2119Z" fill="#181818"/>
<mask id="mask7_23_4351" style="mask-type:luminance" maskUnits="userSpaceOnUse" x="189" y="26" width="3" height="4">
<path d="M189.299 26.5977H191.836V29.6427H189.299V26.5977Z" fill="white"/>
</mask>
<g mask="url(#mask7_23_4351)">
<mask id="mask8_23_4351" style="mask-type:luminance" maskUnits="userSpaceOnUse" x="189" y="26" width="3" height="4">
<path d="M189.672 29.5078C190.443 28.6018 191.125 27.9674 191.68 27.7216C191.7 27.3865 191.627 27.1407 191.51 26.9365C191.45 26.8215 191.323 26.8988 191.266 27.0158L189.672 29.5078Z" fill="white"/>
</mask>
<g mask="url(#mask8_23_4351)">
<mask id="mask9_23_4351" style="mask-type:luminance" maskUnits="userSpaceOnUse" x="189" y="26" width="3" height="4">
<path d="M189.671 29.5078C190.442 28.6018 191.124 27.9674 191.679 27.7216C191.699 27.3865 191.626 27.1407 191.509 26.9365C191.449 26.8215 191.322 26.8988 191.265 27.0158L189.671 29.5078Z" fill="white"/>
</mask>
<g mask="url(#mask9_23_4351)">
<path d="M189.671 29.5075V26.8213H191.699V29.5075H189.671Z" fill="white"/>
</g>
</g>
</g>
<mask id="mask10_23_4351" style="mask-type:luminance" maskUnits="userSpaceOnUse" x="192" y="26" width="4" height="5">
<path d="M192.343 26.5977H195.388V30.1503H192.343V26.5977Z" fill="white"/>
</mask>
<g mask="url(#mask10_23_4351)">
<mask id="mask11_23_4351" style="mask-type:luminance" maskUnits="userSpaceOnUse" x="192" y="26" width="3" height="5">
<path d="M192.365 29.7548C192.53 28.9936 192.746 28.3592 193.039 27.9131C193.364 27.4155 193.832 27.3144 194.112 27.9111C194.379 28.5396 194.558 29.2473 194.625 30.0859C194.758 30.0859 194.875 30.0839 194.994 30.08C194.909 28.1352 194.526 26.8664 193.771 26.8228C193.228 26.8584 192.577 28.2224 192.365 29.7548Z" fill="white"/>
</mask>
<g mask="url(#mask11_23_4351)">
<mask id="mask12_23_4351" style="mask-type:luminance" maskUnits="userSpaceOnUse" x="192" y="26" width="3" height="5">
<path d="M192.366 29.7548C192.531 28.9936 192.747 28.3592 193.04 27.9131C193.365 27.4155 193.833 27.3144 194.113 27.9111C194.38 28.5396 194.559 29.2473 194.626 30.0859C194.759 30.0859 194.876 30.0839 194.995 30.08C194.91 28.1352 194.527 26.8664 193.772 26.8228C193.229 26.8584 192.578 28.2224 192.366 29.7548Z" fill="white"/>
</mask>
<g mask="url(#mask12_23_4351)">
<path d="M192.366 30.0859V26.8228H194.995V30.0859H192.366Z" fill="white"/>
</g>
</g>
</g>
<path fill-rule="evenodd" clip-rule="evenodd" d="M192.091 12.6826C192.497 12.6826 192.828 12.9859 192.828 13.3567C192.828 13.7294 192.497 14.0307 192.091 14.0307C191.685 14.0307 191.355 13.7294 191.355 13.3567C191.355 12.9859 191.685 12.6826 192.091 12.6826Z" fill="#181818"/>
<mask id="mask13_23_4351" style="mask-type:luminance" maskUnits="userSpaceOnUse" x="197" y="10" width="6" height="3">
<path d="M197.924 10.3569H202.491V12.8945H197.924V10.3569Z" fill="white"/>
</mask>
<g mask="url(#mask13_23_4351)">
<mask id="mask14_23_4351" style="mask-type:luminance" maskUnits="userSpaceOnUse" x="198" y="10" width="5" height="3">
<path d="M200.226 10.7952C201.413 10.7278 202.387 11.1203 202.401 11.5307C202.46 12.2365 201.465 12.4406 200.277 12.5081C199.09 12.5755 198.117 12.2464 198.103 11.7726C198.089 11.3007 199.038 10.8626 200.226 10.7952Z" fill="white"/>
</mask>
<g mask="url(#mask14_23_4351)">
<mask id="mask15_23_4351" style="mask-type:luminance" maskUnits="userSpaceOnUse" x="198" y="10" width="5" height="3">
<path d="M200.226 10.7952C201.413 10.7278 202.387 11.1203 202.401 11.5307C202.46 12.2365 201.465 12.4406 200.277 12.5081C199.09 12.5755 198.117 12.2464 198.103 11.7726C198.089 11.3007 199.038 10.8626 200.226 10.7952Z" fill="white"/>
</mask>
<g mask="url(#mask15_23_4351)">
<path d="M198.089 12.5757V10.728H202.46V12.5757H198.089Z" fill="#181818"/>
</g>
</g>
</g>
<path fill-rule="evenodd" clip-rule="evenodd" d="M192.297 23.8877C192.338 23.7153 192.38 23.5428 192.422 23.3703C193.58 23.4893 194.604 23.4833 195.364 23.2256C195.364 23.3901 195.364 23.5547 195.364 23.7192C194.7 24.1554 193.548 24.0741 192.297 23.8877Z" fill="white"/>
<mask id="mask16_23_4351" style="mask-type:luminance" maskUnits="userSpaceOnUse" x="177" y="13" width="7" height="10">
<path d="M177.625 13.9097H183.715V22.0299H177.625V13.9097Z" fill="white"/>
</mask>
<g mask="url(#mask16_23_4351)">
<mask id="mask17_23_4351" style="mask-type:luminance" maskUnits="userSpaceOnUse" x="177" y="14" width="7" height="8">
<path d="M183.302 16.627C183.26 16.175 183.139 15.7527 182.969 15.3483C182.374 15.0331 181.781 14.7199 181.187 14.4047C180.538 14.0875 179.856 14.5514 179.777 15.2333C179.381 17.5885 178.516 18.1971 177.979 19.799C177.705 20.6237 177.862 21.1669 178.241 21.4365C178.659 21.72 178.869 21.8429 179.918 21.4385C181.934 20.6039 182.832 19.4739 182.279 16.7142C182.497 16.8431 182.715 16.972 182.931 17.1028C183.187 17.2376 183.342 17.1504 183.302 16.627Z" fill="white"/>
</mask>
<g mask="url(#mask17_23_4351)">
<mask id="mask18_23_4351" style="mask-type:luminance" maskUnits="userSpaceOnUse" x="177" y="14" width="7" height="8">
<path d="M183.305 16.627C183.263 16.175 183.142 15.7527 182.972 15.3483C182.377 15.0331 181.784 14.7199 181.189 14.4047C180.541 14.0875 179.859 14.5514 179.78 15.2333C179.383 17.5885 178.519 18.1971 177.982 19.799C177.708 20.6237 177.865 21.1669 178.244 21.4365C178.662 21.72 178.872 21.8429 179.921 21.4385C181.937 20.6039 182.835 19.4739 182.282 16.7142C182.5 16.8431 182.718 16.972 182.934 17.1028C183.19 17.2376 183.344 17.1504 183.305 16.627Z" fill="white"/>
</mask>
<g mask="url(#mask18_23_4351)">
<path d="M177.708 21.8429V14.0874H183.344V21.8429H177.708Z" fill="white"/>
</g>
</g>
</g>
<mask id="mask19_23_4351" style="mask-type:luminance" maskUnits="userSpaceOnUse" x="178" y="15" width="5" height="8">
<path d="M178.641 15.4326H182.701V22.0303H178.641V15.4326Z" fill="white"/>
</mask>
<g mask="url(#mask19_23_4351)">
<mask id="mask20_23_4351" style="mask-type:luminance" maskUnits="userSpaceOnUse" x="178" y="15" width="5" height="7">
<path d="M178.747 21.6829C178.995 21.7285 179.32 21.671 179.921 21.439C181.937 20.6044 182.835 19.4744 182.282 16.7148C181.774 16.3103 181.267 15.9039 180.757 15.4995C180.349 17.9241 179.766 20.1068 178.747 21.6829Z" fill="white"/>
</mask>
<g mask="url(#mask20_23_4351)">
<mask id="mask21_23_4351" style="mask-type:luminance" maskUnits="userSpaceOnUse" x="178" y="15" width="5" height="7">
<path d="M178.747 21.6829C178.995 21.7285 179.32 21.671 179.921 21.439C181.937 20.6044 182.835 19.4744 182.282 16.7148C181.774 16.3103 181.267 15.9039 180.757 15.4995C180.349 17.9241 179.766 20.1068 178.747 21.6829Z" fill="white"/>
</mask>
<g mask="url(#mask21_23_4351)">
<path d="M178.747 21.7285V15.4995H182.835V21.7285H178.747Z" fill="white"/>
</g>
</g>
</g>
</svg>
