<svg width="196" height="40" viewBox="0 0 196 40" fill="none" xmlns="http://www.w3.org/2000/svg">
<path d="M27.5703 22.5292H28.5479V16.6637L27.6148 16.797V15.7305C28.2812 15.5528 28.8145 15.1973 29.3478 14.7529H30.2363V22.5737H31.2139V23.9067H27.6148V22.5292H27.5703V22.5292Z" fill="white"/>
<path d="M34.7242 20.0852C35.3908 20.7072 35.7463 21.1961 35.7463 21.7737C35.7463 22.3512 35.3908 22.7512 34.902 22.7512C34.4132 22.7512 34.1466 22.3958 34.1466 21.6849C34.1909 21.1516 34.3688 20.574 34.7242 20.0852ZM35.1685 18.0856C34.6797 17.5524 34.4576 17.1524 34.4576 16.6636C34.4576 16.1304 34.7687 15.775 35.0352 15.775C35.4351 15.775 35.7018 16.1304 35.7018 16.7081C35.7018 17.1969 35.5241 17.6412 35.1685 18.0856ZM34.0576 19.3298C33.1691 20.0407 32.7246 20.7518 32.7246 21.6849C32.7246 23.0624 33.6133 23.9955 34.9464 23.9955C36.3239 23.9955 37.2569 23.1069 37.2569 21.5515C37.2569 20.5295 36.8127 19.6852 35.9684 18.841C36.7238 18.1301 37.0793 17.4635 37.0793 16.5748C37.0793 15.375 36.2794 14.5308 35.0351 14.5308C33.8799 14.5308 32.9912 15.4639 32.9912 16.8414C32.9913 17.7745 33.3467 18.6188 34.0576 19.3298Z" fill="white"/>
<path d="M39.5241 19.2409C39.5241 18.8854 39.5241 18.5743 39.5241 18.3078C39.5241 16.5748 39.5685 15.8194 40.0574 15.8194C40.5904 15.8194 40.5904 16.5748 40.5904 18.3078C40.5904 18.5743 40.5904 18.8854 40.5904 19.2409C40.5904 19.5964 40.5904 19.9074 40.5904 20.2185C40.5904 21.907 40.5462 22.7069 40.0574 22.7069C39.5685 22.7069 39.5241 21.907 39.5241 20.2185C39.5241 19.9074 39.5241 19.5964 39.5241 19.2409ZM37.791 19.2854C37.791 22.4403 38.5019 24.04 40.0573 24.04C41.5236 24.04 42.3234 22.4403 42.3234 19.2854C42.3234 16.1304 41.5682 14.5752 40.0128 14.5752C38.591 14.5752 37.791 16.1304 37.791 19.2854Z" fill="white"/>
<path d="M44.8551 19.2409C44.8551 18.8854 44.8551 18.5743 44.8551 18.3078C44.8551 16.5748 44.8996 15.8194 45.3884 15.8194C45.8772 15.8194 45.9216 16.5748 45.9216 18.3078C45.9216 18.5743 45.9216 18.8854 45.9216 19.2409C45.9216 19.5964 45.9216 19.9074 45.9216 20.2185C45.9216 21.907 45.8772 22.7069 45.3884 22.7069C44.8996 22.7069 44.8551 21.907 44.8551 20.2185C44.8551 19.9074 44.8551 19.5964 44.8551 19.2409ZM43.1221 19.2854C43.1221 22.4403 43.8775 24.04 45.4327 24.04C46.899 24.04 47.6989 22.4403 47.6989 19.2854C47.6989 16.1304 46.9435 14.5752 45.3884 14.5752C43.9218 14.5752 43.1221 16.1304 43.1221 19.2854Z" fill="white"/>
<path d="M32.4112 19.3301C32.4112 19.7301 32.0557 20.0855 31.6558 20.0855C31.2558 20.0855 30.9004 19.7301 30.9004 19.3301C30.9004 18.9302 31.2558 18.5747 31.6558 18.5747C32.1001 18.5746 32.4112 18.9301 32.4112 19.3301Z" fill="white"/>
<path d="M21.5253 14.9754C20.7254 16.9305 19.4811 18.6635 17.3927 19.4633C16.8596 19.5966 16.2818 19.6411 15.7487 19.4633C14.7712 16.3529 15.9708 12.8425 17.926 10.3097C19.3035 8.3546 21.4807 7.06595 23.8803 6.08838C21.7029 8.57669 22.8583 12.0871 21.5253 14.9754Z" fill="white"/>
<path d="M19.658 7.06551C16.3699 9.68712 13.3927 14.3084 14.5924 18.7519C12.6373 18.2632 11.3931 16.308 10.9488 14.3529C10.5932 12.3533 11.0376 10.1759 12.5485 8.75405C14.2815 7.02114 16.2366 4.93265 16.0144 2.2666C17.9695 2.97745 19.0804 5.11031 19.658 7.06551Z" fill="white"/>
<path d="M18.5044 27.6389H17.3047V25.5952H18.5044V23.7732C18.5044 21.6847 19.4376 20.9736 20.9927 20.9736C21.4372 20.9736 21.837 21.0183 22.2814 21.0626V23.1954C22.1482 23.1954 21.9703 23.1954 21.837 23.1954C21.1706 23.1954 20.9484 23.4621 20.9484 24.1286V25.6394H22.3258V27.6836H20.9484V37.3259H18.5933V27.6389H18.5044Z" fill="white"/>
<path d="M23.1699 21.2852H25.525V37.3262H23.1699V21.2852Z" fill="white"/>
<path d="M30.502 25.2844C33.3458 25.2399 34.1458 27.3728 34.1458 31.4609C34.1458 35.4599 33.2125 37.6373 30.502 37.6373C27.6582 37.6816 26.8584 35.5489 26.8584 31.4609C26.8584 27.4615 27.7915 25.2844 30.502 25.2844ZM30.502 35.5932C31.4796 35.5932 31.7907 34.3935 31.7907 31.4609C31.7907 28.5282 31.4796 27.3283 30.502 27.3283C29.3468 27.3283 29.2135 29.0613 29.2135 31.4609C29.2579 33.8602 29.3468 35.5932 30.502 35.5932Z" fill="white"/>
<path d="M34.4111 25.5952H36.7662L37.8326 33.9047H37.8771L39.0322 25.5952H41.6094L42.8092 33.9047H42.8536L43.9644 25.5952H46.2307L44.2312 37.2818H41.5652L40.3652 28.9724H40.321L39.1656 37.2818H36.4106L34.4111 25.5952Z" fill="white"/>
<path d="M48.7204 31.9049V32.8382C48.7204 34.2155 49.0313 35.5487 49.8755 35.5487C50.6755 35.5487 50.9865 34.7933 51.1198 33.3713H53.2528C53.1638 36.0818 52.1418 37.5927 49.92 37.5927C46.4987 37.5927 46.3652 34.2601 46.3652 31.3274C46.3652 28.1723 46.854 25.2842 50.0534 25.2842C52.8082 25.2842 53.4305 27.6393 53.4305 31.2384V31.9049H48.7204ZM51.1643 30.1274C51.1198 28.3501 50.9422 27.328 49.9646 27.328C49.0313 27.328 48.7647 28.5723 48.7647 29.6388V30.0831H51.1643V30.1274Z" fill="white"/>
<path d="M54.3193 25.5951H56.5856V27.1504H56.6301C57.1189 26.0396 57.7853 25.2842 58.7629 25.2842C58.8961 25.2842 59.0739 25.3286 59.2074 25.3286V28.2168C58.9852 28.2168 58.7185 28.1723 58.4519 28.1723C57.6076 28.1723 56.7189 28.7056 56.7189 30.3052V37.326H54.3638V25.5951H54.3193Z" fill="white"/>
<path d="M61.7388 33.5046V33.9046C61.7388 34.9267 62.1833 35.5931 62.983 35.5931C63.694 35.5931 64.1827 35.1488 64.1827 34.2156C64.1827 33.4603 63.7829 33.1047 63.3384 32.8826L61.6943 32.1271C60.4057 31.5495 59.7391 30.5274 59.7391 28.8833C59.7391 26.9281 60.7167 25.373 63.1162 25.373C65.2492 25.373 66.2711 26.5729 66.2711 28.7056V29.1944H64.1383C64.1383 28.039 63.8717 27.4171 63.0717 27.4171C62.4499 27.4171 61.9609 27.8614 61.9609 28.6613C61.9609 29.2389 62.1832 29.6831 62.983 30.0386L64.405 30.6607C65.9157 31.2828 66.449 32.2604 66.449 33.9934C66.449 36.4372 65.0271 37.6814 63.0275 37.6814C60.3612 37.6814 59.6504 36.215 59.6504 33.949V33.549H61.7388V33.5046Z" fill="white"/>
<path d="M66.7598 36.6593C66.7598 36.437 66.8487 36.2593 66.9819 36.0815C67.1152 35.9481 67.3374 35.8594 67.515 35.8594C67.7373 35.8594 67.915 35.9482 68.0928 36.0815C68.2262 36.2148 68.3149 36.4369 68.3149 36.6593C68.3149 36.8814 68.2261 37.059 68.0928 37.1924C67.9595 37.3257 67.7817 37.4147 67.515 37.4147C67.2929 37.4147 67.1152 37.3256 66.9819 37.1924C66.8041 37.059 66.7598 36.8814 66.7598 36.6593Z" fill="white"/>
<path d="M70.2256 37.3697C69.3371 37.3697 68.8926 36.6588 68.8926 35.2813C68.8926 33.7704 69.4259 32.9707 70.2256 32.9707C70.9811 32.9707 71.3811 33.5038 71.3811 34.4814C71.3811 34.5259 71.3811 34.5704 71.3811 34.6147H70.5368C70.5368 34.5259 70.5368 34.4814 70.5368 34.4371C70.5368 33.9483 70.4479 33.726 70.2701 33.726C70.0035 33.726 70.0035 34.1259 70.0035 34.8813C70.0035 35.9922 70.048 36.5255 70.3146 36.5255C70.5368 36.5255 70.67 36.2589 70.67 35.6812V35.6367L71.4698 35.6812C71.4698 36.7921 70.9811 37.3697 70.2256 37.3697Z" fill="white"/>
<path d="M73.2467 33.7705C73.5576 33.7705 73.6465 34.2148 73.6465 35.1925C73.6465 36.1256 73.5576 36.6143 73.2467 36.6143C72.9799 36.6143 72.8912 36.17 72.8912 35.1925C72.8912 34.2148 72.9799 33.7705 73.2467 33.7705ZM71.8691 35.1925C71.8691 36.6589 72.3579 37.4143 73.2912 37.4143C74.1797 37.4143 74.7129 36.6589 74.7129 35.1925C74.7129 33.726 74.2242 32.9707 73.2912 32.9707C72.3135 32.9708 71.8691 33.726 71.8691 35.1925Z" fill="white"/>
<path d="M75.2028 33.0596H76.1803V33.4151C76.447 33.1039 76.7136 32.9263 76.9803 32.9263C77.2913 32.9263 77.5134 33.1039 77.6467 33.4151C77.9133 33.1039 78.18 32.9263 78.491 32.9263C78.9354 32.9263 79.1575 33.193 79.1575 33.726V37.192H78.18V33.9927C78.18 33.815 78.091 33.726 77.9578 33.726C77.8246 33.726 77.7356 33.815 77.6467 33.9483V37.192H76.6691V33.9927C76.6691 33.815 76.5803 33.726 76.447 33.726C76.3137 33.726 76.2248 33.815 76.1358 33.9483V37.192H75.1582V33.0596H75.2028Z" fill="white"/>
<path d="M14.771 19.7298C14.6377 19.6853 14.5043 19.7742 14.4598 19.9075C13.3934 22.1294 12.4159 24.4845 11.7938 26.8839C11.0829 24.4844 10.1053 22.1294 8.94993 19.952C6.63934 15.6418 4.19526 11.376 0.462855 8.6655C0.329559 8.57657 0.151703 8.57657 0.0629034 8.70987C-0.0259605 8.84317 -0.0259605 9.06532 0.107399 9.19868C3.44005 12.3092 5.12853 17.0193 7.30576 21.1517C9.03873 25.9064 10.6829 30.9275 10.1496 36.1709C10.2384 37.1485 10.9939 37.8149 11.7938 37.7261C12.1492 37.6816 12.4159 37.504 12.638 37.2373C12.8601 36.9707 13.038 36.6152 13.0823 36.2152C12.7268 34.4379 12.5935 32.6605 12.6825 30.9275C12.7268 29.3723 12.949 27.7724 13.3489 26.2618C13.8823 24.2179 14.6377 22.1738 14.9043 20.0408C14.9486 19.9075 14.9043 19.7742 14.771 19.7298Z" fill="white"/>
<path d="M80.0009 33.3716C80.0009 33.5937 79.8233 33.727 79.6455 33.727C79.4233 33.727 79.29 33.5494 79.29 33.3716C79.29 33.194 79.4677 33.0161 79.6455 33.0161C79.8233 33.0161 80.0009 33.1495 80.0009 33.3716ZM79.3788 33.3716C79.3788 33.5494 79.5122 33.6382 79.6455 33.6382C79.7788 33.6382 79.9121 33.5049 79.9121 33.3716C79.9121 33.194 79.7788 33.1049 79.6455 33.1049C79.4677 33.0606 79.3788 33.194 79.3788 33.3716ZM79.6009 33.5494H79.5121V33.194C79.5566 33.194 79.6009 33.194 79.6454 33.194C79.7342 33.194 79.7342 33.194 79.7787 33.2382C79.7787 33.2382 79.8232 33.2827 79.8232 33.3273C79.8232 33.3716 79.7787 33.4161 79.7342 33.4161C79.7787 33.4161 79.7787 33.4606 79.7787 33.5049C79.7787 33.5494 79.7787 33.5938 79.8232 33.5938H79.7341C79.7341 33.5938 79.7341 33.5495 79.6899 33.5049C79.6899 33.4606 79.6454 33.4606 79.6008 33.4606H79.5566V33.5495H79.6009V33.5494ZM79.6009 33.3273C79.69 33.3273 79.7342 33.3273 79.7342 33.2828C79.7342 33.2383 79.69 33.2383 79.6454 33.2383H79.6009V33.3273Z" fill="white"/>
<g clip-path="url(#clip0_23_4831)">
<path fill-rule="evenodd" clip-rule="evenodd" d="M104.78 13.2856L102.194 18.3778H102.167L102.048 13.2856H97.9771L96.001 22.7535H98.7064L100.006 16.2293H100.032L100.377 22.7535H102.539L105.642 16.2293H105.668L104.209 22.7535H106.915L108.93 13.2856H104.78ZM107.279 22.7534H109.748L110.354 21.6294H112.922L113.054 22.7534H115.434L114.211 14.8851H111.831L107.279 22.7534ZM112.459 17.5853H112.481L112.745 19.9432H111.235L112.459 17.5853ZM116.139 22.7534H118.564L119.776 16.9017H121.958L122.376 14.8851H115.588L115.169 16.9017H117.351L116.139 22.7534ZM123.501 22.7534H125.926L127.138 16.9017H129.32L129.739 14.8851H122.95L122.532 16.9017H124.714L123.501 22.7534Z" fill="white"/>
<path fill-rule="evenodd" clip-rule="evenodd" d="M132.295 16.7588H133.606C134.234 16.7588 134.422 17.1331 134.422 17.442C134.422 17.9159 134.047 18.3236 133.242 18.3236H131.964L132.295 16.7588ZM128.658 22.7535H131.038L131.612 20.0096H132.659C133.331 20.0096 133.639 20.3184 133.639 20.7261C133.639 21.1228 133.518 21.6074 133.518 21.9822C133.518 22.3348 133.529 22.555 133.617 22.7535H135.932C135.733 22.2909 135.821 21.4861 135.821 20.748C135.821 20.0098 135.722 19.3376 135.006 19.139V19.1171C136.141 18.9295 136.846 18.0921 136.846 16.9461C136.846 15.2823 135.733 14.8851 134.278 14.8851H130.289L128.658 22.7535ZM136.494 22.7534H143.084L143.502 20.7367H139.337L139.546 19.7561H143.337L143.723 17.8827H139.943L140.152 16.9017H144.23L144.637 14.8851H138.136L136.494 22.7534ZM151.26 17.2655C151.304 15.3259 149.794 14.698 148.119 14.698C146.532 14.698 144.813 15.5136 144.813 17.2877C144.813 18.5991 145.739 19.1058 146.697 19.4254C147.788 19.7892 148.593 19.8664 148.593 20.4395C148.593 20.9573 148.009 21.1995 147.535 21.1995C147.138 21.1995 146.851 21.1777 146.643 21.0016C146.444 20.8029 146.345 20.5385 146.345 20.1088H143.997C143.899 22.1147 145.529 22.941 147.336 22.941C149.045 22.941 150.884 22.0484 150.884 20.153C150.884 19.216 150.422 18.4665 149.056 17.982C148.285 17.7065 147.105 17.6732 147.105 17.0782C147.105 16.5605 147.634 16.4392 148.042 16.4392C148.318 16.4392 148.571 16.4833 148.747 16.6156C148.923 16.7479 149.033 16.946 149.023 17.2655H151.26ZM158.501 17.2655C158.545 15.3259 157.035 14.698 155.36 14.698C153.774 14.698 152.055 15.5136 152.055 17.2877C152.055 18.5991 152.98 19.1058 153.939 19.4254C155.03 19.7892 155.834 19.8664 155.834 20.4395C155.834 20.9573 155.251 21.1995 154.776 21.1995C154.38 21.1995 154.093 21.1777 153.884 21.0016C153.685 20.8029 153.586 20.5385 153.586 20.1088H151.239C151.14 22.1147 152.771 22.941 154.578 22.941C156.286 22.941 158.126 22.0484 158.126 20.153C158.126 19.216 157.664 18.4665 156.297 17.982C155.526 17.7065 154.347 17.6732 154.347 17.0782C154.347 16.5605 154.875 16.4392 155.283 16.4392C155.559 16.4392 155.812 16.4833 155.989 16.6156C156.165 16.7479 156.275 16.946 156.265 17.2655H158.501ZM159.036 22.7534H161.953L162.709 19.1465H166.435L166.899 16.892H163.173L163.424 15.7121H167.814L168.318 13.2856H161.011L159.036 22.7534ZM167.125 22.7534H170.041L172.005 13.2856H169.087L167.125 22.7534ZM175.78 15.54H177.358C178.113 15.54 178.339 15.9908 178.339 16.3619C178.339 16.9322 177.888 17.4229 176.92 17.4229H175.383L175.78 15.54ZM171.404 22.7534H174.268L174.958 19.4515H176.217C177.027 19.4515 177.398 19.8231 177.398 20.3138C177.398 20.7909 177.251 21.3742 177.251 21.8256C177.251 22.2496 177.265 22.5146 177.371 22.7534H180.156C179.918 22.1963 180.022 21.2283 180.022 20.3403C180.022 19.4515 179.904 18.6426 179.042 18.4043V18.3777C180.408 18.1517 181.256 17.1443 181.256 15.7651C181.256 13.7631 179.918 13.2856 178.167 13.2856H173.366L171.404 22.7534ZM181.097 22.7534H183.803L185.102 16.2293H185.129L185.473 22.7534H187.635L190.737 16.2293H190.764L189.306 22.7534H192.01L194.026 13.2856H189.876L187.29 18.3777H187.263L187.145 13.2856H183.072L181.097 22.7534ZM158.705 24.5262C158.705 24.5262 166.963 23.5841 177.216 23.4038C187.526 23.2223 191.792 24.0633 191.792 24.0633L191.571 25.2102C191.571 25.2102 187.375 24.3941 177.236 24.5721C167.042 24.7516 157.647 26.7183 157.647 26.7183L158.705 24.5262Z" fill="white"/>
<mask id="mask0_23_4831" style="mask-type:luminance" maskUnits="userSpaceOnUse" x="194" y="13" width="2" height="3">
<path d="M194.23 13.2822H195.999V15.0415H194.23V13.2822Z" fill="#D43329"/>
</mask>
<g mask="url(#mask0_23_4831)">
<path fill-rule="evenodd" clip-rule="evenodd" d="M194.934 14.1031H195.101C195.242 14.1031 195.371 14.0959 195.371 13.9339C195.371 13.7974 195.253 13.7763 195.145 13.7763H194.934V14.1031ZM194.773 13.6471H195.171C195.416 13.6471 195.531 13.7433 195.531 13.9408C195.531 14.1265 195.413 14.2042 195.26 14.2208L195.554 14.6747H195.383L195.103 14.2323H194.934V14.6747H194.773V13.6471ZM195.117 14.9119C195.524 14.9119 195.839 14.5877 195.839 14.1572C195.839 13.7363 195.524 13.4118 195.117 13.4118C194.706 13.4118 194.391 13.7363 194.391 14.1572C194.391 14.5877 194.706 14.9119 195.117 14.9119ZM195.117 13.2822C195.597 13.2822 195.999 13.6609 195.999 14.1572C195.999 14.663 195.597 15.0415 195.117 15.0415C194.635 15.0415 194.23 14.663 194.23 14.1572C194.23 13.6609 194.635 13.2822 195.117 13.2822Z" fill="white"/>
</g>
</g>
<defs>
<clipPath id="clip0_23_4831">
<rect width="99.9985" height="40" fill="white" transform="translate(96.001)"/>
</clipPath>
</defs>
</svg>
