<svg width="82" height="40" viewBox="0 0 82 40" fill="none" xmlns="http://www.w3.org/2000/svg">
<mask id="mask0_23_4696" style="mask-type:luminance" maskUnits="userSpaceOnUse" x="0" y="0" width="82" height="40">
<path d="M81.1959 0H0.803711V40H81.1959V0Z" fill="white"/>
</mask>
<g mask="url(#mask0_23_4696)">
<path d="M56.9162 20.0377C56.9162 22.7822 54.9844 24.6524 52.4819 24.6524C49.9768 24.6524 48.1982 22.7526 48.1982 20.2477C48.1982 18.0144 49.767 15.6626 52.724 15.6626C55.0164 15.6626 56.9162 17.4437 56.9162 20.0377ZM42.0444 24.472H38.5142V24.1706C39.6309 24.0793 39.7197 23.9902 39.7197 22.5426V17.7772C39.7197 16.3296 39.5988 16.2382 38.5439 16.1789V15.8775H41.9531C42.798 15.8775 43.5513 15.9986 44.0356 16.3296C44.5791 16.6606 44.9101 17.2659 44.9101 18.0193C44.9101 19.1063 44.2456 19.8895 43.1611 20.3414C43.4033 20.7344 43.9466 21.6385 44.337 22.2412C44.8188 22.9353 45.0905 23.2961 45.4537 23.6889C45.7254 24.0199 45.9674 24.2324 46.4491 24.3534L46.4195 24.5955H46.2391C44.7297 24.5659 44.248 24.0816 43.7664 23.3579C43.3438 22.7551 42.8003 21.7891 42.4397 21.1567C42.2272 20.8257 42.0174 20.675 41.5948 20.675H40.8711V22.5451C40.8711 23.9928 40.9921 24.0842 42.047 24.1732V24.472H42.0444ZM62.7686 24.561H62.4054L60.1129 17.4709C59.7523 16.384 59.5693 16.295 58.816 16.2036V15.9022H62.0448V16.1443L61.6223 16.2036C61.0195 16.295 60.9578 16.4161 61.1405 16.9892L62.9193 22.6291H62.9489L65.0611 15.9936H65.3921L67.776 22.6291H67.8056C68.3491 20.9691 69.1027 18.1651 69.3448 17.2288C69.525 16.4753 69.4658 16.2925 68.8631 16.2332L68.4703 16.174V15.8726H71.2766V16.174C70.4021 16.295 70.3107 16.3247 69.8882 17.5327C69.7672 17.8637 68.8013 20.9122 67.6872 24.5312H67.3264L64.9425 18.0762L64.9129 18.1058L62.7686 24.561ZM76.2223 24.4424H73.0552V24.141C73.7791 24.1114 74.1423 23.9285 74.2015 23.4467C74.2609 23.0244 74.3227 22.3302 74.3227 20.9418V18.0762C74.3227 17.1102 74.3227 16.9003 74.0805 16.5989C73.8384 16.2678 73.4778 16.1764 72.9046 16.1468V15.8454H74.8364L80.417 22.513H80.4468V19.3756C80.4468 17.9872 80.3874 17.2634 80.3256 16.8706C80.2664 16.4185 79.9033 16.2382 79.0288 16.1764V15.875H82.1958V16.1764C81.4719 16.2061 81.1088 16.3864 81.0495 16.8706C80.9901 17.293 80.9284 17.9872 80.9284 19.3756V24.5338H80.5974L74.8364 17.5648H74.8068V20.9444C74.8068 22.3326 74.866 23.0565 74.9278 23.4493C74.9872 23.9014 75.3503 24.0816 76.2248 24.1434L76.2223 24.4424ZM32.5137 24.472H29.4678V24.1706C30.5842 24.0793 30.6733 23.9902 30.6733 22.5426V17.7772C30.6733 16.3296 30.5819 16.2382 29.527 16.1789V15.8775H33.0868V15.8479C34.0527 15.8479 34.5962 15.9986 35.0188 16.3C35.4707 16.631 35.7129 17.0831 35.7129 17.7476C35.7129 18.9235 34.6258 19.467 33.9935 19.6473V19.6769C35.1989 19.8573 36.286 20.5514 36.286 21.9102C36.286 22.8465 35.8339 23.5085 35.0484 23.9606C34.3839 24.3212 33.5389 24.472 32.5137 24.472ZM52.3609 16.085C50.7921 16.085 49.4654 17.382 49.4654 19.8548C49.4654 22.4191 50.7921 24.1979 52.724 24.1979C54.3223 24.1979 55.6193 22.96 55.6193 20.5169C55.649 17.6537 54.2631 16.085 52.3609 16.085ZM32.5731 19.9759H31.7899V22.8712C31.7899 23.7457 31.9701 24.0471 32.9362 24.0471C34.0527 24.0471 34.9866 23.5036 34.9866 22.0855C34.9866 20.6404 33.9317 19.9759 32.5731 19.9759ZM41.6715 16.2357C41.2489 16.2382 41.076 16.2678 40.9599 16.295C40.8686 16.3247 40.8389 16.3864 40.8389 16.6557V20.2748H41.6244C42.168 20.2748 42.5903 20.2155 42.9511 19.9116C43.5242 19.4596 43.7046 18.8247 43.7046 18.1626C43.7046 16.7743 42.7089 16.2308 41.7135 16.2308L41.6715 16.2357ZM31.7899 19.5856H32.6348C33.9021 19.5856 34.5344 18.9828 34.5344 17.8958C34.5344 17.1127 34.2035 16.2061 32.6348 16.2061C32.2123 16.2061 32.0023 16.2357 31.9109 16.2975C31.8195 16.3271 31.7899 16.3889 31.7899 16.6285V19.5856Z" fill="white"/>
<path d="M10.6684 38.8914L12.1457 39.2546L13.5934 38.8914V27.5179H22.9142V24.8942H13.5934V16.3862H10.6684V24.8942H1.34766V27.5179H10.6684V38.8914Z" fill="white"/>
<path d="M13.6848 11.9224C15.3128 12.0434 15.3128 13.0686 15.7056 13.5504C15.8562 13.7307 14.4086 14.1531 12.8992 13.7307C12.4175 13.5207 12.0247 12.372 11.874 12.2213C11.8147 12.1645 12.7485 11.831 13.6848 11.9224ZM20.1992 13.6714C21.7087 14.0938 22.672 13.701 22.8228 13.3997C22.9734 13.0686 22.6128 11.9817 20.9824 11.8606C20.046 11.7692 19.1122 12.1027 19.1715 12.162C19.295 12.3152 19.6878 13.4614 20.1992 13.6714ZM6.38476 11.831C7.98311 11.9817 8.01276 12.9772 8.40554 13.4589C8.55623 13.6393 7.10858 14.0617 5.59917 13.6393C5.11744 13.4268 4.72466 12.2806 4.57397 12.1299C4.51468 12.1027 5.44848 11.742 6.38476 11.831Z" fill="white"/>
<path d="M23.8802 8.96526C23.7593 8.87384 22.3412 8.69351 22.1312 8.69351C21.9212 8.69351 20.7132 8.69351 20.2315 8.7849C19.5077 8.90596 18.2404 8.90596 17.3066 8.7849C16.9755 8.75526 16.5827 8.81455 16.2814 8.93561C16.3407 8.87632 16.4024 8.81455 16.4913 8.75526C16.7631 8.45388 17.0941 7.91039 17.6376 7.63865C17.7883 7.57935 17.9093 7.48796 18.0304 7.42867C18.4825 7.67077 19.2359 7.82145 20.1426 7.39902C21.4989 8.0932 22.314 7.61147 22.6155 7.36937C22.9761 7.06798 23.1589 6.64555 23.1589 6.19347C23.1589 6.04277 23.1293 5.89208 23.0997 5.74139C22.8897 5.13861 22.3757 4.77547 21.6224 4.68653C21.5928 4.53583 21.5012 4.38514 21.442 4.23445C21.5334 4.11339 21.6224 4.022 21.6546 3.96271C21.7138 3.8713 21.9559 3.51063 21.353 3.812C21.3234 3.84165 21.2616 3.8713 21.2024 3.90341C21.111 3.812 21.022 3.75273 20.9306 3.69343C20.3575 3.36239 19.604 3.30063 18.8481 3.5131C18.727 3.09065 18.5467 2.75963 18.2157 2.54718C17.8846 2.33718 17.4301 2.27543 16.9187 2.36683C16.9484 2.30753 16.978 2.21614 17.0101 2.18649C17.2226 1.70477 17.1015 1.58372 16.8891 1.7937C16.6173 2.03581 16.4666 2.21614 16.3159 2.33718C15.8342 1.5516 15.1993 1.04023 14.4458 0.859892C13.7813 0.679553 13.0896 0.768486 12.4547 1.07234C12.4251 0.741312 12.3633 0.499214 12.3337 0.348519C12.2126 -0.0442724 12.0619 0.257115 12.0619 0.378165C12.0323 0.528859 12.0026 0.770957 11.9705 1.01059C11.3381 0.679553 10.6439 0.588149 9.97938 0.768488C9.25555 0.97847 8.71206 1.52196 8.38104 2.27543C8.1093 2.18402 7.8672 2.12473 7.65722 2.09508C7.53616 1.91475 7.32618 1.7023 7.05444 1.46267C6.8741 1.31197 6.72342 1.37126 6.81234 1.70476C6.84198 1.82581 6.90375 1.94686 6.9334 2.03581C6.41955 2.06545 6.02922 2.24579 5.78712 2.42859C5.27328 2.82137 5.09295 3.36239 5.03365 3.72555C5.004 3.72555 4.97438 3.7552 4.97438 3.7552C4.55193 3.84659 3.97881 3.9973 3.64777 4.57041C3.58847 4.54079 3.52671 4.51114 3.52671 4.47902C2.47186 3.78484 2.95359 4.69147 3.37602 5.08179C1.95802 5.29177 1.56523 5.95632 1.47629 6.3491C1.43677 6.4331 1.43677 6.55167 1.43677 6.64308C1.43677 7.09516 1.67886 7.54724 2.06919 7.81898C2.55091 8.15002 3.0944 8.12037 3.60824 7.78933C4.27277 8.00181 5.20659 7.96969 5.87112 7.48796C6.26391 7.91039 6.5653 8.21179 6.74563 8.36247C7.16808 8.7849 7.80049 9.0863 8.10436 9.20735C7.80296 9.0863 7.25947 8.96526 6.74563 9.027C5.62902 9.17771 4.87555 8.96773 4.39383 8.93561C3.60824 8.8442 2.79547 8.99488 2.37305 8.99488C1.95061 8.99488 1.34783 9.20735 1.04645 9.237C0.715412 9.29628 0.745057 9.50873 1.19714 9.62979C1.64922 9.75083 2.46445 9.81012 2.67443 9.93118C3.39826 10.2326 4.60628 10.5043 5.44869 10.445C6.05146 10.3857 6.65424 10.6871 6.8074 10.7464C7.10879 10.8378 7.83261 11.0478 8.134 11.0478C8.134 11.0181 8.134 11.4702 8.16365 11.6802C8.04259 11.7098 7.95367 11.7716 7.83261 11.8013C7.50157 11.5913 6.02181 10.986 4.21349 11.742C3.82069 11.6209 3.03757 11.1688 1.92096 11.5295C0.562249 11.9816 0.774702 13.2193 1.22678 13.7924C1.82956 14.5755 2.94618 14.3952 3.2772 14.0345C4.00104 14.5162 4.75449 14.3655 5.29798 14.0345C5.66114 14.2469 7.41018 14.578 8.73677 14.0345C8.91712 14.1555 9.64095 14.5483 10.5772 14.0641C11.1207 14.3952 12.0249 14.3952 12.4769 14.0048C12.6277 14.1556 13.1415 14.3359 14.1963 14.3359C15.4637 14.3359 15.765 14.1234 15.9454 13.9727C16.2171 14.0938 16.9409 14.4866 17.8155 14.0938C18.2972 14.3952 19.2631 14.3655 19.777 14.0345C20.7132 14.4569 22.4326 14.2766 22.8526 13.9752C23.6383 13.4317 23.2453 12.3472 22.4004 11.8334C20.7404 10.9885 19.1717 11.653 18.7814 11.863C18.2997 11.532 17.272 11.3195 16.1875 11.532C16.2171 11.4109 16.1875 11.2602 16.1875 11.1096V11.0503C16.3999 10.991 16.7013 10.7489 17.3041 10.7192C18.149 10.6599 20.1105 10.6896 21.074 10.1757C21.6471 9.87435 23.5789 9.5112 23.8481 9.36051C24.0928 9.17771 24.031 9.05665 23.8802 8.96526ZM16.731 7.81898C16.0368 8.66386 15.6761 8.93561 15.5551 8.93561C15.4044 8.66386 15.1326 8.33282 14.9226 8.15002C15.1647 7.87828 16.2814 7.36443 16.7927 6.97412C16.8841 6.91482 17.0941 6.79377 17.1855 6.73202C17.3066 6.88271 17.4869 7.03339 17.6672 7.15445C17.2152 7.42867 16.9731 7.57935 16.731 7.81898ZM6.53565 6.01067C7.13844 6.10206 7.83261 5.95137 8.31434 5.49683C8.94675 6.49239 8.94677 7.3669 9.552 8.00181C8.79853 7.27796 8.134 7.27796 7.04702 6.70484C6.86669 6.61343 6.59495 6.4331 6.50353 6.37381C6.50353 6.28239 6.53318 6.19347 6.53318 6.07241C6.53565 6.06994 6.53565 6.0403 6.53565 6.01067ZM11.1207 7.12481C11.1504 7.15445 10.8193 6.67273 10.7897 6.61096C10.6686 6.43063 10.5179 6.27992 10.3672 6.06747C10.0955 5.7661 9.88551 5.49435 9.70269 5.314C10.1251 5.22261 10.639 4.95334 11.1504 4.46914C11.2096 4.49879 11.2714 4.52843 11.3307 4.59018C11.301 4.77053 11.2714 4.92122 11.2393 5.01263C11.1182 5.67716 11.1182 6.18853 11.0886 6.40098C11.0911 6.61343 11.1207 6.94447 11.1207 7.12481ZM10.1844 6.52202C10.4562 6.85306 10.6662 7.27549 10.7279 7.3669C10.5155 7.45832 10.1251 7.63865 9.88304 7.78933C9.46059 7.3669 9.12957 6.0403 8.91712 5.70681C8.82571 5.58575 8.76642 5.49683 8.73677 5.40541C8.88747 5.46471 9.09993 5.43506 9.25061 5.46471C9.30991 5.49683 9.67306 5.82784 10.1844 6.52202ZM12.1163 7.48796C14.1667 7.48796 15.7972 9.11594 15.7972 11.1688C15.7972 11.3195 15.7972 11.4999 15.7675 11.7123C15.5575 11.7716 15.3154 11.863 15.103 11.9544C14.0481 11.322 12.598 11.3813 11.5728 11.9544C10.9404 11.4727 9.552 11.4109 8.49467 11.653C8.46502 11.443 8.4354 11.2602 8.4354 11.1713C8.46502 9.11594 10.0955 7.48796 12.1163 7.48796ZM11.6024 6.06994C11.6321 5.37577 11.7828 4.92369 11.7828 4.83228C11.9335 4.89157 12.1138 4.95334 12.2645 5.01263C12.3856 5.28437 12.6252 6.43063 12.5362 7.12481C12.2348 7.09516 11.8717 7.09516 11.6321 7.12481C11.5728 7.00624 11.5728 6.43063 11.6024 6.06994ZM14.8609 6.16135C14.6484 6.61343 14.7695 7.18657 14.2285 7.70041C14.1692 7.64112 13.6257 7.39902 13.4132 7.30761C13.5046 6.58379 14.1667 5.70928 14.5891 5.34612C14.7102 5.49683 14.9202 5.64751 15.0709 5.73892C15.0412 5.7982 14.9523 5.9489 14.8609 6.16135ZM15.434 6.01067C15.4637 5.98102 15.4637 5.95137 15.4933 5.88961C15.8861 6.01067 16.3382 6.0403 16.7606 6.01067C16.7903 6.16135 16.8817 6.31204 16.9409 6.46275C16.7285 6.55414 16.0961 7.00624 15.1623 7.51759C14.9202 7.63865 14.7695 7.78933 14.6805 7.88075C14.7719 7.73006 14.9226 7.54971 14.9819 7.3669C15.1326 6.91482 15.103 6.58379 15.434 6.01067ZM13.1711 6.55167C13.0797 6.79377 13.0204 6.94447 12.9908 7.09516C13.0822 6.55167 12.9315 5.73645 12.7487 5.04473C13.2304 5.04473 13.7146 4.92369 14.1963 4.65194C14.226 4.773 14.2877 4.86192 14.347 4.95334C14.0778 5.19543 13.4132 5.88961 13.1711 6.55167ZM5.63149 7.12481C5.088 7.57688 4.18385 7.60653 3.61071 7.39655C3.55142 7.3669 3.46002 7.3669 3.40073 7.4262C3.03757 7.69794 2.61515 7.72759 2.28411 7.48549C1.95308 7.24339 1.77027 6.85306 1.86167 6.46028C1.98272 5.94643 2.61515 5.58575 3.58106 5.49435C3.67247 5.49435 3.7614 5.40294 3.79104 5.314C3.9714 4.43949 4.54451 4.31843 5.088 4.19739L5.3301 4.1381C5.45116 4.10845 5.51044 4.01706 5.48081 3.896C5.45116 3.74532 5.60185 3.17218 6.05393 2.80902C6.59742 2.38659 7.41265 2.38659 8.40575 2.77939C8.46502 2.80904 8.52679 2.80904 8.58608 2.77939C8.64538 2.74975 8.67749 2.7201 8.70712 2.65834C8.94922 1.93451 9.46059 1.42067 10.0955 1.24033C10.76 1.02788 11.4838 1.18104 12.1163 1.63313C12.2077 1.69242 12.2966 1.69242 12.388 1.63313C12.9908 1.24033 13.7146 1.11928 14.3495 1.30209C15.0733 1.48243 15.6761 2.02592 16.1282 2.87079C16.1875 2.9622 16.3085 3.02149 16.3999 2.99185C17.0941 2.74975 17.6376 2.74975 17.9983 2.9622C18.3614 3.17465 18.4504 3.53533 18.5121 3.83671C18.5121 3.896 18.5714 3.95777 18.6035 3.98741C18.6628 4.01706 18.7246 4.01706 18.7839 4.01706C19.5077 3.77496 20.2315 3.80706 20.7157 4.10845C21.0467 4.31843 21.2295 4.59018 21.2889 4.95334C21.3185 5.04473 21.3802 5.13367 21.4989 5.13367C22.1312 5.16332 22.5857 5.46471 22.7365 5.88714C22.8575 6.27992 22.7365 6.76165 22.4055 7.03339C21.9238 7.4262 21.1679 7.39655 20.355 6.97412C20.2957 6.94447 20.2043 6.94447 20.145 6.97412C19.4805 7.30514 18.8777 7.33726 18.3046 7.03339C17.6401 6.70237 17.2497 6.0082 17.2176 5.67469C17.2176 5.61539 17.188 5.55363 17.1262 5.524C17.0669 5.49435 17.0052 5.46471 16.9459 5.49435C16.4938 5.55363 14.9547 5.70434 14.6237 4.22704C14.5941 4.16775 14.5644 4.10598 14.5027 4.07634C14.4434 4.04671 14.352 4.10598 14.2902 4.13563C13.2947 4.80016 12.2991 4.73841 11.3653 3.98494C11.2739 3.92565 11.1553 3.89353 11.0639 3.98494C9.97691 5.0719 9.1024 5.01016 8.67996 4.82981C8.58855 4.80016 8.46749 4.82981 8.40822 4.92122C7.98577 5.58575 7.08161 5.70434 6.47638 5.524C6.41708 5.49435 6.32567 5.49435 6.26391 5.55363C6.20463 5.61292 6.17251 5.67469 6.17251 5.7661C6.17251 6.31204 6.02181 6.79377 5.63149 7.12481ZM6.14287 7.30761C6.23428 7.18657 6.35532 6.94447 6.41461 6.76414C6.47391 6.79377 6.506 6.82341 6.53565 6.85553C6.5653 6.85553 6.89881 7.09763 7.10879 7.21622C8.04506 7.6683 8.6182 7.75969 9.25061 8.27106C9.00851 8.51316 8.76889 8.81455 8.64785 9.0863C7.31877 8.69351 6.29355 7.51759 6.14287 7.30761ZM6.83704 10.2943C6.716 10.235 5.93289 9.9633 5.47834 9.99292C4.54204 10.0522 3.36614 9.78294 2.793 9.54084C2.64232 9.48155 1.37501 9.36051 2.61267 9.36051C3.0351 9.36051 3.51683 9.23945 4.36171 9.36051C4.84344 9.41981 5.68832 9.5112 6.95563 9.41981C7.58804 9.36051 8.04259 9.57049 8.28222 9.81259C8.22293 9.99292 8.13153 10.445 8.13153 10.5982C7.77332 10.5957 7.16808 10.4129 6.83704 10.2943ZM3.69965 13.6714C3.12651 13.2786 2.76337 12.5251 2.37305 12.6461C2.22235 12.7054 2.19271 13.0093 2.40269 13.0093C2.55338 13.0093 2.82512 13.4317 3.00547 13.6121C2.97583 13.8245 2.40269 14.0641 1.79992 13.7035C1.52817 13.5528 1.10573 13.0093 1.46888 12.3447C1.67886 11.9841 2.22235 11.8013 2.91653 11.8309C4.21349 11.8606 4.60628 13.3378 4.90767 13.6417C4.90767 13.7627 4.18138 14.0345 3.69965 13.6714ZM5.59938 13.6417C5.11765 13.4292 4.72487 12.283 4.57416 12.1323C4.51487 12.073 5.44869 11.7395 6.38496 11.8309C8.01295 11.9816 8.01295 12.9772 8.40575 13.4589C8.55644 13.6714 7.07914 14.0641 5.59938 13.6417ZM10.8786 13.7627C10.7279 13.6714 10.2758 13.0982 10.093 12.8882C9.94234 12.6782 9.64095 12.4954 9.49024 12.6783C9.39885 12.7993 9.49024 12.9204 9.64095 12.9796C9.79163 13.071 10.1844 13.5528 10.2141 13.6738C10.1844 13.8245 9.46059 14.0963 9.03816 13.5824C8.82818 13.3107 8.40575 12.5276 8.134 12.194C9.07028 11.863 10.1548 11.742 10.9404 12.1026C11.6938 12.4658 11.8149 13.2489 12.1163 13.6417C12.1756 13.9135 11.3307 14.0641 10.8786 13.7627ZM12.8994 13.7331C12.4177 13.5231 12.0249 12.3744 11.8742 12.2237C11.8149 12.1644 12.7487 11.8309 13.685 11.9223C15.313 12.073 15.313 13.0686 15.7057 13.5503C15.8565 13.7331 14.4088 14.1556 12.8994 13.7331ZM20.9849 11.863C22.613 12.0137 22.9761 13.0686 22.8253 13.4021C22.6747 13.7035 21.7089 14.0963 20.2019 13.6738C19.7201 13.4614 19.3273 12.3151 19.1767 12.1644C19.0852 12.1026 20.0191 11.7716 20.9849 11.863ZM18.2404 12.1026C18.9938 12.4658 19.1445 13.2489 19.4163 13.6417C19.4756 13.9135 18.5714 13.9727 18.1786 13.7627C18.0279 13.6714 17.5758 13.0982 17.3955 12.8882C17.2448 12.6782 16.9731 12.5572 16.852 12.7375C16.7606 12.8586 16.8817 12.9796 17.0027 13.0389C17.183 13.1303 17.4844 13.5824 17.5166 13.6714C17.4869 13.822 16.852 14.032 16.3703 13.5503C16.1282 13.3082 15.7057 12.4633 15.5254 12.1323C16.4592 11.8309 17.4548 11.742 18.2404 12.1026ZM22.5834 9.29875C22.1016 9.39016 21.5285 9.54084 20.8344 9.78047C19.898 10.1412 18.0897 10.2326 17.3338 10.2326C16.6099 10.2326 16.3999 10.5339 16.1282 10.5043C16.1282 10.1115 15.8861 9.56802 15.8861 9.56802C16.0961 9.44698 16.7606 9.23698 17.3634 9.26663C18.1465 9.29628 19.5645 9.35804 20.3205 9.237C20.6836 9.17771 22.0102 9.17771 22.1904 9.17771C22.3412 9.17771 22.5834 9.20735 22.6426 9.20735C22.9761 9.23698 22.734 9.26663 22.5834 9.29875Z" fill="white"/>
<path d="M3.63963 6.16143C3.24684 6.16143 2.91581 6.16143 2.64407 6.46282C2.34268 6.79384 2.43409 6.94455 2.37233 7.00631C2.28092 7.0977 2.10059 6.94702 2.10059 6.79384C2.13023 6.04039 3.03686 5.739 3.57788 5.79827C3.79034 5.82792 3.81998 6.16143 3.63963 6.16143Z" fill="white"/>
<path d="M5.26814 4.89434C4.695 4.95363 4.51467 5.22538 4.42326 5.55887C4.39361 5.67993 4.06012 5.58852 4.12187 5.34889C4.27257 4.62506 5.05816 4.47438 5.32743 4.53365C5.38918 4.56083 5.35953 4.89434 5.26814 4.89434Z" fill="white"/>
<path d="M7.77316 3.35527C6.74796 2.96249 6.23412 3.71843 6.08341 4.35084C6.05377 4.44225 5.72028 4.41013 5.78202 4.14086C5.90308 3.50845 6.50586 2.60182 7.92386 2.96496C8.04243 2.9946 7.95351 3.41457 7.77316 3.35527Z" fill="white"/>
<path d="M11.5729 2.32985C10.6366 1.69744 9.88311 2.20881 9.4903 2.66089C9.30997 2.87334 9.09752 2.5102 9.18893 2.38914C9.51995 1.84566 10.6959 1.03043 11.7235 1.93707C11.8446 2.05812 11.7235 2.41879 11.5729 2.32985Z" fill="white"/>
<path d="M15.4631 3.20455C15.3717 3.26385 15.3421 3.14526 15.2828 3.05385C14.4379 1.72726 12.931 2.08793 12.5061 2.69071C12.4146 2.81175 12.2047 2.48073 12.3257 2.29791C12.6889 1.69514 14.6182 1.15166 15.6138 2.8414C15.7052 3.02422 15.5545 3.14526 15.4631 3.20455Z" fill="white"/>
<path d="M17.818 4.04937C17.5759 3.41694 17.1238 3.44659 16.6125 3.62692C16.3704 3.71833 16.4321 3.2959 16.5211 3.26626C17.0349 3.08592 17.9094 2.99451 18.1491 3.86902C18.1787 4.10865 17.8773 4.22971 17.818 4.04937Z" fill="white"/>
<path d="M20.5915 5.37607C20.169 4.59048 19.4748 4.59048 18.9017 4.80293C18.7807 4.86223 18.6596 4.53119 18.8721 4.41015C19.4156 4.10876 20.5619 4.1384 20.8928 5.16362C20.9546 5.34642 20.7125 5.64782 20.5915 5.37607Z" fill="white"/>
<path d="M22.3434 6.61331C22.3138 6.73437 21.9803 6.76402 22.0122 6.61331C22.0716 5.9809 21.7407 5.91913 21.3181 5.91913C21.1675 5.91913 21.1675 5.58809 21.2885 5.556C21.8591 5.43741 22.5236 5.85737 22.3434 6.61331Z" fill="white"/>
<path d="M11.3305 9.90142C11.3305 10.1435 11.1181 10.3239 10.8785 10.2942C10.6364 10.2942 10.456 10.0842 10.4857 9.84213V9.78284C10.456 9.72354 10.2436 9.6618 9.97184 9.84213C9.82115 9.93354 9.67044 9.87178 9.91254 9.6618C10.1843 9.4197 10.4264 9.29864 10.6364 9.26899C10.9995 9.23935 11.4812 9.32829 11.7233 9.4197C11.8147 9.44935 11.7233 9.93354 11.6937 9.90142C11.6023 9.87178 11.4516 9.81001 11.3009 9.84213L11.3305 9.90142Z" fill="white"/>
<path d="M12.5384 11.1985C12.4792 11.4084 11.6936 11.4998 11.5429 11.1985C11.4836 11.0774 11.4218 10.8057 11.5132 10.8674C11.6936 10.9588 12.2988 10.8971 12.4174 10.8674C12.5088 10.8378 12.4471 10.6871 12.5088 10.7167C12.6274 10.7143 12.6274 10.986 12.5384 11.1985Z" fill="white"/>
<path d="M14.3786 9.99034C14.1983 9.83964 13.9266 9.74825 13.8352 9.83964V9.86928C13.8648 10.1114 13.6845 10.3214 13.4424 10.3214C13.2003 10.351 12.9903 10.1707 12.9903 9.92858V9.89893C12.8396 9.83964 12.5975 9.92858 12.5678 9.92858C12.5382 9.92858 12.4468 9.4765 12.5678 9.41474C12.931 9.26405 14.1365 9.20476 14.4676 9.86681C14.4997 9.9607 14.4676 10.0521 14.3786 9.99034Z" fill="white"/>
<path d="M14.0771 16.3863H22.9163V24.4101H14.0771V16.3863ZM1.3472 16.3863H10.1863V24.4101H1.3472V16.3863ZM10.2159 38.7409C7.95303 38.0764 5.71979 37.1721 4.30426 35.8456C3.79042 35.3638 3.36797 34.8797 3.0073 34.3066H5.27019V34.6376H6.32503V34.3066H8.85966V30.0229H8.31617V29.2372C7.77268 29.3583 6.86852 29.057 6.47574 29.057C6.02366 29.057 5.81119 29.2372 5.81119 29.2372C5.81119 29.2372 5.56909 29.057 5.14666 29.057C4.75387 29.057 3.8497 29.3583 3.30623 29.2372V30.0229H2.76273V33.8544C1.88821 32.345 1.49542 30.5366 1.40402 28.333L1.37437 28.0021H10.2134L10.2159 38.7409ZM3.72866 33.4617V29.7807C4.03005 29.8401 4.57352 29.6301 5.14666 29.6003C5.44805 29.6003 5.53946 29.7511 5.53946 29.7511V33.4617C5.53946 33.4617 5.20842 33.2491 4.51425 33.4321C3.94111 33.6123 3.72866 33.4617 3.72866 33.4617ZM6.08293 33.4617V29.7511C6.08293 29.7511 6.17434 29.5707 6.47574 29.6003C7.01923 29.6301 7.5627 29.8425 7.89374 29.7807V33.4617C7.89374 33.4617 7.68376 33.6123 7.14027 33.4617C6.38432 33.2491 6.08293 33.4617 6.08293 33.4617ZM13.5929 38.8915L12.1156 39.2546L10.668 38.8619V27.5203H1.3472V24.8968H10.668V16.3887H13.5929V24.8968H22.8841V27.5203H13.5929V38.8915ZM21.5871 33.9136V30.0525H21.0437V29.2693C20.5002 29.3905 19.596 29.0889 19.2032 29.0889C18.7511 29.0889 18.5387 29.2693 18.5387 29.2693C18.5387 29.2693 18.3287 29.0889 17.8741 29.0889C17.4813 29.0889 16.5772 29.3905 16.0337 29.2693V30.0525H15.4902V34.3362H18.0248V34.6672H19.0797V34.3362H21.3721C21.009 34.8797 20.5571 35.3911 20.0456 35.8752C18.5362 37.2338 16.3351 38.1083 14.1018 38.7409V28.0021H22.941V28.3652C22.7951 30.7764 22.4023 32.4956 21.5871 33.9136ZM20.5916 29.7511V33.4321C20.5916 33.4321 20.3791 33.5827 19.8381 33.4321C19.1143 33.2195 18.8129 33.4617 18.8129 33.4617V29.7511C18.8129 29.7511 18.9043 29.5707 19.2057 29.6003C19.7467 29.6003 20.2902 29.8103 20.5916 29.7511ZM18.2397 29.7511V33.4617C18.2397 33.4617 17.9087 33.2491 17.2145 33.4321C16.671 33.5827 16.4611 33.4321 16.4611 33.4321V29.7511C16.7624 29.8103 17.3059 29.6003 17.8791 29.5707C18.178 29.5683 18.2397 29.7511 18.2397 29.7511ZM0.803711 15.8428V27.7278C0.803711 31.6509 1.76963 34.3632 3.87934 36.2656C5.96189 38.1652 9.06717 39.1311 12.1156 39.855C15.253 39.1015 18.2694 38.1948 20.3519 36.2656C22.4641 34.3658 23.4276 31.6509 23.4276 27.7278V15.8428H0.803711Z" fill="white"/>
<path d="M8.31418 18.4986V17.713C7.77069 17.8341 6.86653 17.5327 6.47375 17.5327C6.02165 17.5327 5.8092 17.713 5.8092 17.713C5.8092 17.713 5.5671 17.5327 5.14467 17.5327C4.75189 17.5327 3.84771 17.8341 3.30422 17.713V18.4986H2.76074V22.7822H5.29536V23.1134H6.35022V22.7822H8.88485V18.4986H8.31418ZM5.5103 21.9077C5.5103 21.9077 5.17926 21.6977 4.48508 21.8781C3.94159 22.0289 3.73161 21.8781 3.73161 21.8781V18.1972C4.033 18.2565 4.57647 18.0466 5.14961 18.0169C5.451 18.0169 5.5424 18.1676 5.5424 18.1676L5.5103 21.9077ZM7.8621 21.8781C7.8621 21.8781 7.64965 22.0289 7.10863 21.8781C6.38481 21.6681 6.08341 21.9077 6.08341 21.9077V18.1972C6.08341 18.1972 6.17483 18.0169 6.47622 18.0466C7.01969 18.0762 7.56318 18.2887 7.89422 18.2269L7.8621 21.8781Z" fill="white"/>
<path d="M21.0438 18.4986V17.713C20.5002 17.8341 19.596 17.5327 19.2032 17.5327C18.7512 17.5327 18.5387 17.713 18.5387 17.713C18.5387 17.713 18.3287 17.5327 17.8742 17.5327C17.4814 17.5327 16.5772 17.8341 16.0337 17.713V18.4986H15.4902V22.7822H18.0249V23.1134H19.0797V22.7822H21.6144V18.4986H21.0438ZM18.178 21.9077C18.178 21.9077 17.847 21.6977 17.1528 21.8781C16.6093 22.0289 16.3994 21.8781 16.3994 21.8781V18.1972C16.7007 18.2565 17.2442 18.0466 17.8174 18.0169C18.1187 18.0169 18.2101 18.1676 18.2101 18.1676V21.9077H18.178ZM20.5324 21.8781C20.5324 21.8781 20.3199 22.0289 19.7788 21.8781C19.055 21.6681 18.7536 21.9077 18.7536 21.9077V18.1972C18.7536 18.1972 18.845 18.0169 19.1464 18.0466C19.6899 18.0762 20.2309 18.2887 20.5644 18.2269V21.8756L20.5324 21.8781Z" fill="white"/>
</g>
</svg>
